<?xml version="1.0" encoding="utf-8"?>
<!-- Generator: Adobe Illustrator 25.4.8, SVG Export Plug-In . SVG Version: 6.00 Build 0)  -->
<svg version="1.1" id="Layer_1" xmlns="http://www.w3.org/2000/svg" xmlns:xlink="http://www.w3.org/1999/xlink" x="0px" y="0px"
	 viewBox="0 0 650 212.775" enable-background="new 0 0 650 212.775" xml:space="preserve">
<g>
	<g>
		<g>
			<g>
				<g>
					<path d="M570.326,148.204h-34.435v-3.538h34.435c3.255,0,5.903-2.648,5.903-5.903V79.909c0-3.25-2.644-5.894-5.894-5.894
						H462.056c-3.25,0-5.894,2.644-5.894,5.894v58.853c0,3.255,2.648,5.903,5.903,5.903h34.426v3.538h-34.426
						c-5.206,0-9.441-4.236-9.441-9.442V79.909c0-5.201,4.231-9.433,9.433-9.433h108.278c5.201,0,9.433,4.231,9.433,9.433v58.853
						C579.768,143.969,575.532,148.204,570.326,148.204z"/>
				</g>
				<g>
					<path d="M516.193,155.047c-18.499,0-33.549-15.05-33.549-33.549s15.05-33.549,33.549-33.549
						c18.499,0,33.548,15.05,33.548,33.549S534.692,155.047,516.193,155.047z M516.193,91.487
						c-16.548,0-30.011,13.463-30.011,30.011s13.463,30.01,30.011,30.01c16.547,0,30.01-13.463,30.01-30.01
						S532.74,91.487,516.193,91.487z"/>
				</g>
				<g>
					<g>
						<g>
							<g>
								<path fill="#B2F4F9" d="M515.07,144.107c-2.679,0.796-5.032,1.624-7.008,2.465c2.619,0.849,5.349,1.283,8.13,1.283
									c3.448,0,6.794-0.665,9.959-1.959C523.953,144.497,518.099,144.109,515.07,144.107z"/>
							</g>
							<g>
								<path fill="#6DE5E8" d="M523.969,141.597c-1.727,0.533-3.688,1.089-5.83,1.656c-0.238,0.063-0.461,0.125-0.692,0.188
									c2.932,0.153,7.702,0.629,9.498,2.117c1.825-0.81,3.563-1.848,5.185-3.082C528.692,140.903,524.205,141.56,523.969,141.597z
									"/>
							</g>
							<g>
								<path fill="#44B9E2" d="M529.895,139.497c-0.002,0.001-0.005,0.001-0.007,0.002c-0.003,0.001-0.004,0.003-0.007,0.005
									c-0.905,0.383-1.962,0.78-3.13,1.184c1.778,0.018,4.068,0.285,6.031,1.285c1.302-1.051,2.499-2.235,3.578-3.524
									C534.579,138.236,531.931,138.818,529.895,139.497z"/>
							</g>
							<g>
								<path fill="#1C9BD3" d="M532.994,133.892c1.03,0.55,1.547,1.161,1.558,1.856c0.012,0.723-0.532,1.444-1.657,2.199
									c1.349-0.258,2.834-0.401,4.008-0.159c0.98-1.235,1.841-2.558,2.573-3.939C538.561,133.63,536.205,133.235,532.994,133.892z
									"/>
							</g>
							<g>
								<path fill="#F26608" d="M510.5,124.579c1.382,0.128,2.726,0.277,4.018,0.445c-0.629-0.576-1.453-0.904-2.331-0.904
									C511.584,124.12,511.011,124.288,510.5,124.579z"/>
							</g>
							<g>
								<path fill="#F4AA06" d="M520.093,126.707c0.024,0.223,0.038,0.432,0.045,0.632c0.429-0.111,0.879-0.219,1.352-0.323
									C521.052,126.914,520.583,126.811,520.093,126.707z"/>
							</g>
							<g>
								<path fill="#FDC000" d="M497.237,109.105c0.072-0.076,0.177-0.11,0.277-0.116c0.104,0.003,0.203,0.049,0.272,0.129
									l3.152,3.677l9.65-13.574c0.073-0.103,0.19-0.164,0.319-0.155c0.126,0.006,0.24,0.077,0.302,0.186l4.605,8.099l2.831-3.245
									c0.078-0.089,0.188-0.135,0.312-0.125c0.117,0.011,0.223,0.077,0.283,0.179l5.942,10.027l4.468-6.413
									c0.069-0.1,0.152-0.164,0.305-0.158c0.122,0.001,0.235,0.062,0.303,0.162l3.451,5.097l2.517-1.853
									c0.082-0.06,0.185-0.085,0.284-0.066c0.1,0.018,0.188,0.076,0.244,0.16l5.76,8.761
									c-0.838-13.772-12.379-24.767-26.32-24.767c-12.613,0-23.534,9.102-25.89,21.362L497.237,109.105z"/>
							</g>
							<g>
								<path fill="#F4AA06" d="M542.302,125.129c0.066-0.468,0.117-0.93,0.154-1.386c-2.629,0.385-5.73,0.975-9.262,1.761
									C536.595,125.268,539.816,125.168,542.302,125.129z"/>
							</g>
							<g>
								<path fill="#C4D113" d="M528.017,126.715c-0.005,0.001-0.01,0-0.015,0.001c-1.703,0.199-3.311,0.436-4.779,0.704
									c-0.004,0.001-0.008,0-0.012,0.001c-1.134,0.21-2.17,0.442-3.092,0.686c-0.013,0.239-0.038,0.483-0.079,0.736
									c2.921-0.706,6.705-0.998,7.257-1.038c0.032-0.006,0.063-0.01,0.087-0.01c0.003,0,0.005,0.001,0.007,0.001
									c0.003,0,0.005-0.001,0.007-0.001h14.395c0.159-0.653,0.289-1.296,0.392-1.926
									C538.456,125.929,533.113,126.127,528.017,126.715z"/>
							</g>
							<g>
								<path fill="#C3EF0C" d="M539.703,128.532c-0.517,0.099-7.141,1.393-12.466,3.642c1.977,0.389,3.504,0.79,4.639,1.219
									c4.09-1.058,7.016-0.471,7.948-0.221c0.745-1.502,1.339-3.059,1.775-4.641H539.703z"/>
							</g>
							<g>
								<path fill="#7FD311" d="M522.863,130.742c0.004,0.065,0.124,0.646,3.096,1.191c3.384-1.559,7.508-2.714,10.33-3.401h-8.864
									C524.038,129.491,522.845,130.377,522.863,130.742z"/>
							</g>
							<g>
								<path fill="#FF4700" d="M519.212,129.26c0-0.001,0-0.002,0-0.003c0.12-0.491,0.183-0.977,0.189-1.445
									c0.008-0.092,0.007-0.147,0.007-0.209c0-0.273-0.019-0.566-0.057-0.894c-0.014-0.132-0.034-0.267-0.061-0.394
									c0-0.001,0-0.002-0.001-0.003c0,0,0,0,0-0.001c-0.555-3.125-3.137-5.545-6.282-5.896c-3.182-0.353-6.177,1.379-7.447,4.303
									c-0.32,0.732-0.514,1.513-0.576,2.323c-0.015,0.183-0.022,0.365-0.022,0.555c0,0.182,0.007,0.363,0.021,0.538
									c0.089,1.173,0.463,2.306,1.08,3.278c0.083,0.143,0.172,0.272,0.261,0.394l2.76,4.174l3.102,4.693l3.438-5.193v0
									l2.148-3.248l0.376-0.568c0.018-0.031,0.044-0.066,0.069-0.1c0.48-0.735,0.81-1.504,0.993-2.302
									C519.212,129.261,519.212,129.261,519.212,129.26z M516.34,128.163c0,0.002-0.001,0.004-0.001,0.006
									c-0.004,0.021-0.002,0.046-0.006,0.066c-0.135,0.961-0.634,1.864-1.397,2.531c-0.003,0.003-0.006,0.007-0.01,0.01
									c-0.005,0.004-0.008,0.009-0.012,0.013c-0.001,0.001-0.001,0.001-0.002,0.002c-0.759,0.641-1.726,0.995-2.725,0.995
									c-0.833,0-1.636-0.244-2.323-0.705c-0.99-0.651-1.654-1.697-1.82-2.866c-0.036-0.177-0.055-0.388-0.055-0.627
									c0-1.138,0.445-2.201,1.254-2.994c0.789-0.781,1.835-1.212,2.943-1.212c1.429,0,2.74,0.713,3.516,1.908
									c0.002,0.002,0.003,0.004,0.005,0.006c0.004,0.007,0.01,0.013,0.014,0.019c0.438,0.669,0.671,1.455,0.671,2.272
									c0,0.209-0.021,0.394-0.052,0.573C516.339,128.162,516.34,128.162,516.34,128.163z"/>
							</g>
							<g>
								<path fill="#C3EF0C" d="M519.432,134.257c0.071-0.288-0.687-0.871-1.258-1.294l-1.475,2.23
									c0.003,0.001,0.006,0.002,0.009,0.004C519.171,134.806,519.41,134.346,519.432,134.257z"/>
							</g>
							<g>
								<path fill="#F4AA06" d="M515.654,127.588c0-0.618-0.168-1.211-0.475-1.732c-1.747-0.242-3.602-0.448-5.521-0.613
									c-0.596,0.639-0.932,1.461-0.932,2.345c0,0.078,0.013,0.136,0.018,0.206h6.89
									C515.64,127.726,515.654,127.662,515.654,127.588z"/>
							</g>
							<g>
								<path fill="#7FD311" d="M510.18,130.391c1.475-0.185,2.93-0.27,4.339-0.251c0.479-0.442,0.817-0.999,0.987-1.609h-6.624
									C509.093,129.285,509.543,129.939,510.18,130.391z"/>
							</g>
							<g>
								<path fill="#7FD311" d="M513.127,130.895c-0.49,0.017-0.984,0.046-1.482,0.087
									C512.139,131.056,512.645,131.026,513.127,130.895z"/>
							</g>
							<g>
								<path fill="#C3EF0C" d="M506.516,133.43c-1.37-0.185-2.745-0.335-4.089-0.443c-4.659-0.38-8.666-0.317-10.088-0.277
									c0.566,1.203,1.225,2.372,1.971,3.484c4.668-0.045,9.194-0.163,13.799-0.355L506.516,133.43z"/>
							</g>
							<g>
								<path fill="#7FD311" d="M502.486,132.251c1.149,0.092,2.322,0.221,3.494,0.369l-0.262-0.396
									c-0.094-0.13-0.198-0.281-0.285-0.432c-0.614-0.966-0.997-2.092-1.138-3.261h-13.512c0.332,1.197,0.741,2.355,1.222,3.451
									C493.077,131.946,497.402,131.838,502.486,132.251z"/>
							</g>
							<g>
								<path fill="#F4AA06" d="M497.771,124.773c2.195,0.493,4.38,1.079,6.532,1.759c0.074-0.554,0.203-1.094,0.39-1.614
									c-0.763-0.034-1.507-0.063-2.21-0.081C500.672,124.783,499.066,124.769,497.771,124.773z"/>
							</g>
							<g>
								<path fill="#C4D113" d="M504.226,127.595c0-0.107,0.008-0.209,0.012-0.312c-3.25-1.033-6.577-1.863-9.897-2.46
									c-1.87-0.334-3.355-0.536-4.375-0.654c0.123,1.231,0.331,2.446,0.623,3.625h13.644
									C504.232,127.727,504.226,127.663,504.226,127.595z"/>
							</g>
							<g>
								<path d="M516.192,94.374c-13.382,0-24.912,9.968-26.821,23.186c-0.188,1.29-0.284,2.608-0.284,3.919
									c0,0.808,0.032,1.562,0.097,2.303c0.126,1.52,0.38,3.025,0.755,4.474c0.385,1.485,0.885,2.917,1.488,4.255
									c0.658,1.478,1.457,2.912,2.379,4.264c3.186,4.651,7.842,8.268,13.111,10.186c2.969,1.082,6.089,1.63,9.274,1.63
									c3.759,0,7.402-0.759,10.828-2.254c0,0,0.001,0,0.002-0.001c0.002-0.001,0.005-0.002,0.007-0.003
									c2.139-0.926,4.17-2.15,6.037-3.635c1.579-1.251,3.018-2.688,4.277-4.27c0.001-0.001,0.001-0.002,0.002-0.003
									c0.002-0.002,0.004-0.005,0.005-0.007c1.162-1.44,2.172-3,3-4.635c0.909-1.78,1.613-3.64,2.094-5.529
									c0.234-0.921,0.418-1.833,0.545-2.705c0.116-0.75,0.197-1.496,0.24-2.214c0.045-0.623,0.067-1.231,0.067-1.857v-0.295
									c0-0.001,0-0.003,0-0.004C543.134,106.399,530.974,94.374,516.192,94.374z M516.192,95.112
									c13.94,0,25.482,10.995,26.32,24.767l-5.76-8.761c-0.055-0.084-0.143-0.142-0.244-0.16
									c-0.099-0.019-0.202,0.006-0.284,0.066l-2.517,1.853l-3.451-5.097c-0.068-0.101-0.182-0.161-0.303-0.162
									c-0.153-0.005-0.236,0.058-0.305,0.158l-4.468,6.413l-5.942-10.027c-0.06-0.102-0.166-0.169-0.283-0.179
									c-0.124-0.01-0.234,0.036-0.312,0.125l-2.831,3.245l-4.605-8.099c-0.062-0.11-0.176-0.18-0.302-0.186
									c-0.129-0.009-0.246,0.052-0.319,0.155l-9.65,13.574l-3.152-3.677c-0.068-0.079-0.167-0.126-0.272-0.129
									c-0.101,0.006-0.205,0.04-0.277,0.116l-6.934,7.369C492.658,104.213,503.579,95.112,516.192,95.112z M541.794,127.794
									h-14.395c-0.003,0-0.005,0.001-0.007,0.001c-0.003,0-0.005-0.001-0.007-0.001c-0.025,0-0.055,0.004-0.087,0.01
									c-0.552,0.04-4.337,0.332-7.257,1.038c0.041-0.253,0.067-0.497,0.079-0.736c0.922-0.245,1.957-0.476,3.092-0.686
									c0.004-0.001,0.008,0,0.012-0.001c1.468-0.268,3.076-0.505,4.779-0.704c0.005,0,0.01,0,0.015-0.001
									c5.096-0.588,10.439-0.786,14.169-0.846C542.082,126.498,541.952,127.141,541.794,127.794z M539.824,133.173
									c-0.931-0.25-3.858-0.837-7.948,0.221c-1.135-0.429-2.663-0.83-4.639-1.219c5.325-2.249,11.949-3.543,12.466-3.642h1.896
									C541.163,130.114,540.57,131.67,539.824,133.173z M536.904,137.788c-1.174-0.243-2.66-0.1-4.008,0.159
									c1.125-0.755,1.668-1.476,1.657-2.199c-0.011-0.694-0.528-1.305-1.558-1.856c3.21-0.658,5.567-0.262,6.482-0.044
									C538.745,135.23,537.884,136.553,536.904,137.788z M526.945,145.557c-1.796-1.487-6.566-1.964-9.498-2.117
									c0.231-0.063,0.454-0.125,0.692-0.188c2.143-0.566,4.103-1.123,5.83-1.656c0.236-0.038,4.723-0.694,8.162,0.878
									C530.508,143.709,528.77,144.747,526.945,145.557z M492.338,132.71c1.422-0.041,5.429-0.103,10.088,0.277
									c1.344,0.108,2.72,0.258,4.089,0.443l1.593,2.41c-4.605,0.192-9.131,0.31-13.799,0.355
									C493.564,135.082,492.904,133.913,492.338,132.71z M490.784,128.532h13.512c0.14,1.169,0.524,2.295,1.138,3.261
									c0.087,0.151,0.191,0.302,0.285,0.432l0.262,0.396c-1.173-0.148-2.345-0.277-3.494-0.369
									c-5.084-0.413-9.409-0.305-10.48-0.269C491.525,130.887,491.116,129.729,490.784,128.532z M489.966,124.169
									c1.019,0.118,2.505,0.319,4.375,0.654c3.32,0.597,6.647,1.427,9.897,2.46c-0.004,0.104-0.012,0.205-0.012,0.312
									c0,0.068,0.006,0.132,0.008,0.199h-13.644C490.297,126.615,490.089,125.4,489.966,124.169z M516.708,135.197
									c-0.003-0.001-0.006-0.002-0.009-0.004l1.475-2.23c0.571,0.424,1.329,1.006,1.258,1.294
									C519.41,134.346,519.171,134.806,516.708,135.197z M518.219,131.563c-0.025,0.034-0.051,0.07-0.069,0.1l-0.376,0.568
									l-2.148,3.248v0l-3.438,5.193l-3.102-4.693l-2.76-4.174c-0.089-0.122-0.178-0.251-0.261-0.394
									c-0.617-0.972-0.991-2.105-1.08-3.278c-0.014-0.175-0.021-0.356-0.021-0.538c0-0.189,0.007-0.371,0.022-0.555
									c0.062-0.81,0.256-1.591,0.576-2.323c1.27-2.924,4.266-4.656,7.447-4.303c3.146,0.351,5.728,2.77,6.282,5.896
									c0,0,0,0,0,0.001c0,0.001,0,0.002,0.001,0.003c0.027,0.128,0.047,0.262,0.061,0.394c0.038,0.329,0.057,0.622,0.057,0.894
									c0,0.062,0.001,0.117-0.007,0.209c-0.006,0.468-0.07,0.954-0.189,1.445c0,0.001,0,0.002,0,0.003c0,0,0,0.001-0.001,0.001
									C519.029,130.059,518.698,130.829,518.219,131.563z M520.138,127.34c-0.007-0.201-0.021-0.409-0.045-0.632
									c0.49,0.103,0.959,0.206,1.398,0.31C521.017,127.121,520.567,127.229,520.138,127.34z M502.483,124.836
									c0.703,0.018,1.447,0.047,2.21,0.081c-0.187,0.521-0.316,1.061-0.39,1.614c-2.153-0.679-4.337-1.266-6.532-1.759
									C499.066,124.769,500.672,124.783,502.483,124.836z M542.56,121.479c0,0.508-0.024,1.006-0.055,1.511
									c-1.911,0.276-4.067,0.658-6.463,1.149v-0.903l0.544,0.362c0.048,0.031,0.1,0.046,0.153,0.046
									c0.089,0,0.177-0.043,0.231-0.123c0.084-0.127,0.05-0.299-0.077-0.384l-0.851-0.567v-0.321l0.349,0.223
									c0.046,0.03,0.098,0.044,0.149,0.044c0.091,0,0.18-0.045,0.233-0.128c0.082-0.129,0.044-0.3-0.084-0.382l-0.647-0.413v-0.21
									l0.211,0.151c0.049,0.035,0.105,0.052,0.161,0.052c0.086,0,0.171-0.04,0.225-0.116c0.089-0.124,0.061-0.297-0.063-0.386
									l-0.649-0.465c-0.005-0.004-0.012-0.002-0.017-0.005c-0.043-0.027-0.09-0.046-0.144-0.046c0,0,0,0,0,0
									c-0.001,0-0.002,0-0.002,0c-0.053,0.001-0.1,0.02-0.143,0.047c-0.005,0.003-0.012,0.002-0.017,0.005l-0.642,0.465
									c-0.124,0.09-0.151,0.263-0.062,0.386c0.089,0.123,0.262,0.152,0.386,0.062l0.203-0.147v0.208l-0.641,0.413
									c-0.128,0.083-0.166,0.254-0.083,0.383c0.084,0.13,0.256,0.166,0.383,0.083l0.341-0.22v0.318l-0.851,0.567
									c-0.127,0.085-0.161,0.256-0.077,0.384c0.086,0.128,0.259,0.161,0.384,0.077l0.544-0.362v1.019
									c-0.9,0.187-1.83,0.388-2.793,0.604v-0.718l0.496,0.331c0.083,0.057,0.198,0.034,0.256-0.05
									c0.056-0.085,0.034-0.199-0.051-0.256l-0.7-0.469v-0.349l0.336,0.212c0.031,0.019,0.065,0.028,0.099,0.028
									c0.061,0,0.121-0.03,0.156-0.086c0.055-0.086,0.029-0.2-0.057-0.254l-0.534-0.337v-0.273l0.233,0.164
									c0.032,0.023,0.069,0.034,0.106,0.034c0.058,0,0.115-0.027,0.151-0.078c0.059-0.083,0.039-0.198-0.045-0.257l-0.524-0.369
									c-0.063-0.045-0.148-0.045-0.212,0l-0.524,0.369c-0.084,0.059-0.104,0.174-0.045,0.257c0.059,0.084,0.175,0.103,0.256,0.045
									l0.233-0.164v0.272l-0.54,0.337c-0.086,0.054-0.112,0.168-0.058,0.254c0.053,0.088,0.168,0.112,0.254,0.059l0.344-0.215
									v0.35l-0.707,0.469c-0.084,0.057-0.107,0.171-0.051,0.256c0.035,0.054,0.094,0.082,0.153,0.082
									c0.035,0,0.071-0.01,0.102-0.031l0.502-0.334v0.801c-1.407,0.318-2.876,0.665-4.411,1.043
									c-1.284,0.15-2.515,0.322-3.674,0.512v-1.916l0.962,0.638c0.063,0.042,0.133,0.062,0.204,0.062
									c0.119,0,0.236-0.058,0.308-0.165c0.112-0.17,0.066-0.399-0.104-0.511l-1.37-0.909v-0.664l0.651,0.414
									c0.061,0.039,0.13,0.058,0.198,0.058c0.122,0,0.241-0.061,0.311-0.171c0.109-0.172,0.058-0.4-0.113-0.509l-1.047-0.666
									v-0.495l0.434,0.311c0.066,0.047,0.141,0.069,0.215,0.069c0.115,0,0.228-0.053,0.3-0.154
									c0.119-0.165,0.081-0.396-0.084-0.515l-1.018-0.731c-0.007-0.005-0.016-0.003-0.023-0.007
									c-0.057-0.036-0.12-0.062-0.192-0.062c-0.072,0-0.135,0.026-0.192,0.062c-0.007,0.004-0.016,0.002-0.023,0.007l-1.018,0.731
									c-0.165,0.119-0.203,0.349-0.084,0.515c0.119,0.166,0.349,0.202,0.515,0.085l0.434-0.311v0.495l-1.046,0.666
									c-0.171,0.11-0.223,0.338-0.113,0.509c0.111,0.173,0.339,0.222,0.509,0.113l0.65-0.414v0.664l-1.37,0.909
									c-0.17,0.112-0.216,0.341-0.104,0.511c0.113,0.17,0.343,0.215,0.512,0.103l0.962-0.638v2.043
									c-0.111,0.019-0.225,0.038-0.334,0.058c-0.94-0.256-1.995-0.503-3.208-0.754c-0.698-3.314-3.485-5.867-6.871-6.245
									c-3.421-0.376-6.638,1.431-8.094,4.51c-0.739-0.034-1.451-0.061-2.135-0.082v-4.135l1.472,1.477
									c0.144,0.145,0.378,0.144,0.522,0.001c0.145-0.144,0.145-0.377,0.001-0.522l-1.995-2.002v-1.066l1.037,1.037
									c0.144,0.144,0.378,0.144,0.522,0c0.144-0.144,0.144-0.378,0-0.522l-1.559-1.559V115.9l0.772,0.772
									c0.144,0.144,0.378,0.144,0.522,0c0.144-0.144,0.144-0.378,0-0.522l-1.401-1.401c-0.034-0.034-0.075-0.061-0.12-0.08
									c-0.09-0.037-0.192-0.037-0.282,0c-0.042,0.018-0.08,0.043-0.113,0.075c-0.002,0.002-0.005,0.002-0.007,0.004l0,0
									c0,0-0.001,0.001-0.001,0.001l-1.408,1.4c-0.145,0.144-0.145,0.377-0.001,0.522c0.072,0.072,0.167,0.109,0.262,0.109
									c0.094,0,0.188-0.036,0.26-0.107l0.78-0.776v0.922l-1.566,1.559c-0.145,0.144-0.145,0.378-0.001,0.522
									c0.072,0.072,0.167,0.109,0.262,0.109s0.188-0.036,0.26-0.107l1.046-1.041v1.069l-2.002,2.002
									c-0.144,0.144-0.144,0.378,0,0.522c0.072,0.072,0.166,0.108,0.261,0.108c0.094,0,0.189-0.036,0.261-0.108l1.481-1.481v4.116
									c-2.65-0.071-4.837-0.059-6.201-0.036v-2.84l1.055,1.059c0.054,0.054,0.125,0.081,0.196,0.081
									c0.071,0,0.141-0.027,0.195-0.081c0.108-0.108,0.109-0.283,0.001-0.391l-1.447-1.453v-0.75l0.737,0.741
									c0.054,0.054,0.125,0.082,0.196,0.082c0.071,0,0.141-0.027,0.195-0.08c0.108-0.108,0.109-0.283,0.001-0.391l-1.129-1.136
									v-0.635l0.545,0.546c0.108,0.108,0.284,0.108,0.392,0c0.107-0.108,0.107-0.283,0-0.391l-1.018-1.018c0,0-0.001,0-0.001,0
									c-0.05-0.049-0.118-0.08-0.194-0.08c0,0-0.001,0-0.001,0c0,0,0,0,0,0c-0.075,0-0.143,0.031-0.193,0.08
									c-0.001,0-0.001,0-0.002,0.001l-1.025,1.018c-0.108,0.108-0.109,0.283-0.001,0.391c0.054,0.054,0.125,0.082,0.196,0.082
									c0.071,0,0.141-0.027,0.195-0.08l0.553-0.55v0.638l-1.136,1.136c-0.108,0.108-0.109,0.283-0.001,0.391s0.285,0.108,0.391,0
									l0.746-0.745v0.753l-1.453,1.453c-0.108,0.108-0.109,0.283-0.001,0.391c0.108,0.108,0.285,0.108,0.391,0l1.063-1.062v2.853
									c-0.511,0.011-0.835,0.022-0.938,0.026c-1.964-0.35-3.506-0.555-4.531-0.671c-0.047-0.626-0.075-1.262-0.075-1.94
									c0-1.238,0.091-2.482,0.265-3.703l7.403-7.867l2.993,3.49l-1.408,1.738c-0.128,0.158-0.104,0.39,0.055,0.519
									c0.068,0.055,0.151,0.082,0.232,0.082c0.107,0,0.214-0.047,0.287-0.137l1.601-1.977c0.003-0.004,0.003-0.008,0.006-0.012
									c0.002-0.003,0.006-0.004,0.008-0.007l9.588-13.486l4.568,8.034l1.702,3.806l-0.34,4.511
									c-0.015,0.203,0.138,0.38,0.341,0.396c0.009,0.001,0.019,0.001,0.028,0.001c0.191,0,0.352-0.147,0.367-0.341l0.307-4.083
									l1.543,0.679l1.501,3.95c0.056,0.147,0.197,0.238,0.345,0.238c0.044,0,0.088-0.008,0.131-0.024
									c0.19-0.072,0.286-0.285,0.214-0.476l-1.557-4.094c-0.035-0.092-0.106-0.167-0.197-0.206l-2.031-0.894l-1.595-3.565
									l2.682-3.075l5.979,10.089c0,0.001,0.001,0.001,0.001,0.002l2.237,3.775c0.068,0.116,0.192,0.181,0.317,0.181
									c0.064,0,0.129-0.017,0.188-0.052c0.175-0.104,0.233-0.33,0.129-0.505l-2.122-3.581l4.353-6.248l3.365,4.97l1.038,1.693
									l-0.311,1.568v2.73c0,0.204,0.165,0.369,0.369,0.369s0.369-0.165,0.369-0.369l-0.007-2.656l0.139-0.687l0.744,1.279
									c0.03,0.052,0.072,0.095,0.122,0.126l2.073,1.306c0.061,0.039,0.129,0.057,0.197,0.057c0.122,0,0.242-0.061,0.312-0.172
									c0.109-0.173,0.057-0.4-0.115-0.509l-1.996-1.258l-1.186-2.039c-0.001-0.002-0.003-0.003-0.004-0.004
									c0-0.001,0-0.002-0.001-0.003l-0.944-1.54l2.24-1.649l6.21,9.447V121.479z M527.425,128.532h8.864
									c-2.822,0.687-6.946,1.842-10.33,3.401c-2.973-0.545-3.093-1.126-3.096-1.191
									C522.845,130.377,524.038,129.491,527.425,128.532z M542.302,125.129c-2.486,0.039-5.707,0.139-9.108,0.375
									c3.532-0.786,6.634-1.376,9.262-1.761C542.419,124.199,542.368,124.661,542.302,125.129z M508.585,136.559l3.219,4.87
									c0.09,0.119,0.233,0.191,0.383,0.191c0.001,0,0.001,0,0.002,0c0.15-0.001,0.293-0.073,0.394-0.21l3.568-5.387
									c0.197-0.025,0.393-0.052,0.571-0.081c2.226-0.343,3.251-0.794,3.428-1.508c0.188-0.762-0.651-1.409-1.567-2.087
									l0.183-0.277c0.003-0.004,0.08-0.116,0.083-0.12c0.473-0.725,0.811-1.5,1.021-2.302c1.37-0.357,2.988-0.615,4.377-0.792
									c-1.433,0.636-2.152,1.28-2.121,1.922c0.043,0.852,1.218,1.439,3.814,1.902c2.579,0.462,4.47,0.933,5.782,1.442
									c1.36,0.528,2.084,1.094,2.093,1.638c0.008,0.47-0.526,1.491-4.185,3.049c0,0,0,0,0,0c-0.013,0.005-0.022,0.009-0.033,0.014
									c-0.001,0-0.001,0-0.002,0c-1.545,0.655-3.501,1.348-5.815,2.061c-1.724,0.532-3.684,1.089-5.829,1.656
									c-1.066,0.281-2.064,0.562-3.014,0.836c-3.079,0.913-5.734,1.868-7.897,2.838c-4.851-1.796-9.146-5.081-12.201-9.289
									C499.479,136.875,503.99,136.756,508.585,136.559z M508.062,146.571c1.976-0.841,4.329-1.668,7.008-2.465
									c3.029,0.002,8.882,0.39,11.081,1.788c-3.165,1.295-6.511,1.959-9.959,1.959
									C513.411,147.854,510.681,147.42,508.062,146.571z M532.783,141.973c-1.963-1-4.253-1.267-6.031-1.285
									c1.168-0.404,2.225-0.801,3.13-1.184c0.003-0.001,0.004-0.003,0.007-0.005c0.002-0.001,0.005-0.001,0.007-0.002
									c2.035-0.679,4.684-1.261,6.465-1.048C535.282,139.738,534.085,140.922,532.783,141.973z"/>
							</g>
							<g>
								<path d="M515.721,125.316c-0.004-0.007-0.01-0.013-0.014-0.019c-0.002-0.002-0.003-0.004-0.005-0.006
									c-0.775-1.194-2.086-1.908-3.516-1.908c-1.108,0-2.154,0.431-2.943,1.212c-0.809,0.792-1.254,1.855-1.254,2.994
									c0,0.239,0.019,0.451,0.055,0.627c0.166,1.169,0.83,2.215,1.82,2.866c0.687,0.461,1.49,0.705,2.323,0.705
									c0.999,0,1.966-0.353,2.725-0.995c0.001-0.001,0.001-0.001,0.002-0.002c0.005-0.004,0.008-0.009,0.012-0.013
									c0.003-0.003,0.006-0.006,0.01-0.01c0.764-0.667,1.262-1.57,1.397-2.531c0.004-0.02,0.002-0.046,0.006-0.066
									c0-0.002,0.001-0.004,0.001-0.006c0-0.001,0-0.001,0-0.002c0.031-0.179,0.052-0.364,0.052-0.573
									C516.392,126.772,516.159,125.985,515.721,125.316z M508.727,127.588c0-0.884,0.336-1.706,0.932-2.345
									c1.919,0.165,3.774,0.371,5.521,0.613c0.306,0.521,0.475,1.114,0.475,1.732c0,0.074-0.014,0.138-0.019,0.206h-6.89
									C508.74,127.724,508.727,127.666,508.727,127.588z M510.5,124.579c0.512-0.29,1.085-0.458,1.687-0.458
									c0.879,0,1.703,0.328,2.331,0.904C513.226,124.855,511.882,124.706,510.5,124.579z M515.506,128.532
									c-0.17,0.61-0.507,1.166-0.987,1.609c-1.409-0.019-2.864,0.065-4.339,0.251c-0.637-0.452-1.087-1.106-1.298-1.859H515.506z
									 M513.127,130.895c-0.482,0.131-0.988,0.161-1.482,0.087C512.144,130.941,512.638,130.912,513.127,130.895z"/>
							</g>
						</g>
						<g>
							<g>
								<path fill="none" d="M499.132,115.657l0.111-0.723l-0.166,0.204C498.949,115.297,498.974,115.529,499.132,115.657z"/>
							</g>
							<g>
								<path fill="#FDC000" d="M499.243,114.934l1.242-1.534l-2.993-3.49l-0.559,0.594c0.993,1.145,2.545,2.896,2.545,2.896
									L499.243,114.934z"/>
							</g>
						</g>
						<g>
							<g>
								<path fill="none" d="M516.802,116.617l-0.015-0.183l-0.003,0.037C516.78,116.522,516.786,116.571,516.802,116.617z"/>
							</g>
							<g>
								<polygon fill="#FDC000" points="516.786,116.434 517.123,111.96 515.421,108.154 510.853,100.121 510.447,100.692 
									516.407,111.95 								"/>
							</g>
						</g>
						<g>
							<g>
								<path fill="none" d="M527.399,119.023l-2.54-3.931l2.223,3.75C527.15,118.958,527.273,119.023,527.399,119.023z"/>
							</g>
							<g>
								<polygon fill="#FDC000" points="524.859,115.091 524.844,115.066 524.843,115.064 518.864,104.975 516.182,108.051 
									518.768,106.177 								"/>
							</g>
						</g>
						<g>
							<polygon fill="#FDC000" points="533.896,115.362 533.603,117.057 534.039,119.598 534.039,116.868 534.35,115.3 
								533.312,113.607 529.947,108.637 525.594,114.885 529.956,110.448 							"/>
						</g>
						<g>
							<polygon fill="#FDC000" points="542.56,121.295 536.349,111.848 534.109,113.497 536.148,112.749 							"/>
						</g>
						<g>
							<polygon fill="#FDC000" points="510.447,100.692 501.265,113.607 511.006,101.748 							"/>
						</g>
						<g>
							<path fill="#FDC000" d="M496.933,110.504l-6.843,7.272l7.32-6.725C497.244,110.861,497.082,110.675,496.933,110.504z"/>
						</g>
						<g>
							<g>
								<path fill="#FDC000" d="M535.47,117.804l2.378,1.161l-2.073-1.306c-0.05-0.032-0.092-0.075-0.122-0.126l-0.744-1.279
									l-0.139,0.687l0.189-0.205L535.47,117.804z"/>
							</g>
							<g>
								<path fill="#008482" d="M536.148,112.749l-2.038,0.748l0.944,1.54c0.001,0.001,0.001,0.002,0.001,0.003
									c0.001,0.002,0.003,0.003,0.004,0.004l1.186,2.039l1.996,1.258c0.172,0.108,0.224,0.336,0.115,0.509
									c-0.07,0.111-0.189,0.172-0.312,0.172c-0.068,0-0.135-0.018-0.197-0.057l-2.378-1.161l-0.512-1.068l-0.189,0.205
									l0.007,2.656c0,0.204-0.165,0.369-0.369,0.369s-0.369-0.165-0.369-0.369l-0.436-2.541l0.293-1.695l-3.939-4.914
									l-4.362,4.437l2.122,3.581c0.104,0.175,0.046,0.402-0.129,0.505c-0.059,0.035-0.124,0.052-0.188,0.052
									c-0.125,0-0.249-0.064-0.317-0.181l-2.223-3.75l-6.091-8.914l-2.586,1.873l1.595,3.565l2.031,0.894
									c0.091,0.04,0.161,0.114,0.197,0.206l1.557,4.094c0.072,0.191-0.024,0.403-0.214,0.476
									c-0.043,0.017-0.087,0.024-0.131,0.024c-0.148,0-0.289-0.09-0.345-0.238l-1.501-3.95l-1.543-0.679l-0.307,4.083
									c-0.015,0.194-0.177,0.341-0.367,0.341c-0.009,0-0.019,0-0.028-0.001c-0.152-0.011-0.276-0.114-0.323-0.25
									c-0.015-0.045-0.022-0.095-0.018-0.145l0.003-0.037l-0.379-4.484l-5.401-10.202l-9.74,11.859
									c-0.002,0.003-0.006,0.004-0.008,0.007c-0.003,0.004-0.003,0.008-0.006,0.012l-1.601,1.977
									c-0.073,0.09-0.179,0.137-0.287,0.137c-0.081,0-0.164-0.027-0.232-0.082c-0.159-0.128-0.183-0.361-0.055-0.519l0.166-0.204
									l0.235-1.534c0,0-1.121-1.265-2.068-2.348l-7.32,6.725c-0.173,1.22-0.265,2.464-0.265,3.703c0,0.678,0.028,1.314,0.075,1.94
									c1.026,0.116,2.567,0.32,4.531,0.671c0.103-0.004,0.426-0.015,0.938-0.026v-2.853l-1.063,1.062
									c-0.107,0.108-0.283,0.108-0.391,0c-0.108-0.108-0.107-0.283,0.001-0.391l1.453-1.453v-0.753l-0.746,0.745
									c-0.107,0.108-0.283,0.108-0.391,0s-0.107-0.283,0.001-0.391l1.136-1.136v-0.638l-0.553,0.55
									c-0.054,0.054-0.125,0.08-0.195,0.08c-0.071,0-0.142-0.027-0.196-0.082c-0.108-0.108-0.107-0.284,0.001-0.391l1.025-1.018
									c0,0,0.001,0,0.002-0.001c0.05-0.049,0.118-0.08,0.193-0.08c0,0,0,0,0,0c0,0,0.001,0,0.001,0
									c0.076,0,0.144,0.031,0.194,0.08c0,0,0.001,0,0.001,0l1.018,1.018c0.107,0.108,0.107,0.283,0,0.391
									c-0.108,0.108-0.284,0.108-0.392,0l-0.545-0.546v0.635l1.129,1.136c0.108,0.108,0.107,0.284-0.001,0.391
									c-0.054,0.054-0.125,0.08-0.195,0.08c-0.071,0-0.142-0.027-0.196-0.082l-0.737-0.741v0.75l1.447,1.453
									c0.108,0.108,0.107,0.284-0.001,0.391c-0.054,0.054-0.125,0.081-0.195,0.081c-0.071,0-0.142-0.027-0.196-0.081l-1.055-1.059
									v2.84c1.364-0.023,3.551-0.036,6.201,0.036v-4.116l-1.481,1.481c-0.072,0.072-0.166,0.108-0.261,0.108
									c-0.094,0-0.189-0.036-0.261-0.108c-0.144-0.144-0.144-0.378,0-0.522l2.002-2.002v-1.069l-1.046,1.041
									c-0.072,0.072-0.166,0.107-0.26,0.107s-0.189-0.036-0.262-0.109c-0.143-0.144-0.143-0.378,0.001-0.522l1.566-1.559v-0.922
									l-0.78,0.776c-0.072,0.072-0.166,0.107-0.26,0.107c-0.094,0-0.189-0.036-0.262-0.109c-0.143-0.144-0.143-0.378,0.001-0.522
									l1.408-1.4c0,0,0.001-0.001,0.001-0.001l0,0c0.002-0.002,0.005-0.003,0.007-0.004c0.033-0.031,0.07-0.057,0.113-0.075
									c0.09-0.037,0.191-0.037,0.282,0c0.045,0.019,0.086,0.046,0.12,0.08l1.401,1.401c0.144,0.144,0.144,0.378,0,0.522
									c-0.144,0.144-0.378,0.144-0.522,0l-0.772-0.772v0.919l1.559,1.559c0.144,0.144,0.144,0.378,0,0.522
									c-0.144,0.144-0.378,0.144-0.522,0l-1.037-1.037v1.066l1.995,2.002c0.143,0.144,0.143,0.378-0.001,0.522
									c-0.144,0.143-0.378,0.144-0.522-0.001l-1.472-1.477v4.135c0.684,0.02,1.396,0.048,2.135,0.082
									c1.455-3.079,4.673-4.886,8.094-4.51c3.386,0.378,6.173,2.93,6.871,6.245c1.213,0.251,2.268,0.499,3.208,0.754
									c0.109-0.02,0.223-0.038,0.334-0.058v-2.043l-0.962,0.638c-0.169,0.112-0.398,0.067-0.512-0.103
									c-0.112-0.17-0.066-0.399,0.104-0.511l1.37-0.909v-0.664l-0.65,0.414c-0.17,0.108-0.398,0.06-0.509-0.113
									c-0.109-0.172-0.058-0.4,0.113-0.509l1.046-0.666v-0.495l-0.434,0.311c-0.166,0.118-0.396,0.081-0.515-0.085
									c-0.119-0.165-0.081-0.396,0.084-0.515l1.018-0.731c0.007-0.005,0.016-0.003,0.023-0.007
									c0.057-0.036,0.12-0.062,0.192-0.062c0.072,0,0.135,0.026,0.192,0.062c0.007,0.004,0.016,0.002,0.023,0.007l1.018,0.731
									c0.165,0.119,0.203,0.349,0.084,0.515c-0.072,0.101-0.185,0.154-0.3,0.154c-0.075,0-0.15-0.022-0.215-0.069l-0.434-0.311
									v0.495l1.047,0.666c0.171,0.11,0.223,0.337,0.113,0.509c-0.071,0.11-0.19,0.171-0.311,0.171
									c-0.068,0-0.137-0.019-0.198-0.058l-0.651-0.414v0.664l1.37,0.909c0.17,0.112,0.216,0.341,0.104,0.511
									c-0.071,0.107-0.189,0.165-0.308,0.165c-0.071,0-0.141-0.02-0.204-0.062l-0.962-0.638v1.916
									c1.159-0.19,2.39-0.362,3.674-0.512c1.535-0.377,3.004-0.724,4.411-1.043v-0.801l-0.502,0.334
									c-0.032,0.021-0.067,0.031-0.102,0.031c-0.06,0-0.118-0.029-0.153-0.082c-0.056-0.085-0.033-0.199,0.051-0.256l0.707-0.469
									v-0.35l-0.344,0.215c-0.086,0.054-0.201,0.029-0.254-0.059c-0.054-0.086-0.027-0.2,0.058-0.254l0.54-0.337v-0.272
									l-0.233,0.164c-0.081,0.058-0.197,0.039-0.256-0.045c-0.059-0.083-0.039-0.198,0.045-0.257l0.524-0.369
									c0.063-0.045,0.148-0.045,0.212,0l0.524,0.369c0.084,0.059,0.104,0.174,0.045,0.257c-0.036,0.051-0.093,0.078-0.151,0.078
									c-0.037,0-0.074-0.011-0.106-0.034l-0.233-0.164v0.273l0.534,0.337c0.086,0.054,0.112,0.168,0.057,0.254
									c-0.035,0.056-0.094,0.086-0.156,0.086c-0.034,0-0.068-0.009-0.099-0.028l-0.336-0.212v0.349l0.7,0.469
									c0.085,0.057,0.107,0.171,0.051,0.256c-0.058,0.085-0.173,0.107-0.256,0.05l-0.496-0.331v0.718
									c0.963-0.216,1.893-0.417,2.793-0.604v-1.019l-0.544,0.362c-0.125,0.084-0.298,0.051-0.384-0.077
									c-0.084-0.127-0.05-0.299,0.077-0.384l0.851-0.567v-0.318l-0.341,0.22c-0.126,0.083-0.298,0.047-0.383-0.083
									c-0.083-0.129-0.045-0.3,0.083-0.383l0.641-0.413v-0.208l-0.203,0.147c-0.124,0.09-0.297,0.061-0.386-0.062
									c-0.089-0.124-0.062-0.296,0.062-0.386l0.642-0.465c0.005-0.004,0.012-0.002,0.017-0.005
									c0.042-0.027,0.089-0.046,0.143-0.047c0.001,0,0.001,0,0.002,0c0,0,0,0,0,0c0.054,0,0.102,0.02,0.144,0.046
									c0.005,0.003,0.012,0.002,0.017,0.005l0.649,0.465c0.124,0.089,0.153,0.262,0.063,0.386
									c-0.054,0.076-0.139,0.116-0.225,0.116c-0.056,0-0.112-0.017-0.161-0.052l-0.211-0.151v0.21l0.647,0.413
									c0.128,0.082,0.166,0.253,0.084,0.382c-0.053,0.083-0.143,0.128-0.233,0.128c-0.051,0-0.103-0.014-0.149-0.044l-0.349-0.223
									v0.321l0.851,0.567c0.127,0.085,0.161,0.256,0.077,0.384c-0.053,0.08-0.141,0.123-0.231,0.123
									c-0.053,0-0.106-0.015-0.153-0.046l-0.544-0.362v0.903c2.396-0.49,4.552-0.872,6.463-1.149
									c0.031-0.505,0.055-1.003,0.055-1.511v-0.184L536.148,112.749z"/>
							</g>
						</g>
						<g>
							<g>
								<path fill="#9B9B9B" d="M521.825,131.933c-1.329-1.359,0.61-2.458,1.947-3.012c-1.276,0.173-2.683,0.409-3.903,0.727
									c-0.21,0.803-0.549,1.577-1.021,2.302c-0.003,0.004-0.08,0.116-0.083,0.12l-0.183,0.277
									c0.916,0.678,1.755,1.325,1.567,2.087c-0.177,0.715-1.202,1.166-3.428,1.508c-0.178,0.028-0.374,0.055-0.571,0.081
									l-3.568,5.387c-0.101,0.137-0.244,0.209-0.394,0.21c-0.001,0-0.001,0-0.002,0c-0.149,0-0.293-0.071-0.383-0.191l-3.219-4.87
									c-4.594,0.196-9.105,0.316-13.746,0.366c2.685,3.698,6.329,6.682,10.466,8.57c9.975-3.933,19.878-5.414,24.945-8.313
									C535.268,134.311,523.755,133.907,521.825,131.933z"/>
							</g>
							<g>
								<path fill="#777777" d="M531.722,134.122c-1.312-0.508-3.203-0.98-5.782-1.442c-2.596-0.463-3.772-1.05-3.814-1.902
									c-0.032-0.643,0.688-1.286,2.121-1.922c-0.153,0.019-0.317,0.044-0.474,0.065c-1.337,0.553-3.276,1.653-1.947,3.012
									c1.931,1.974,13.443,2.379,8.424,5.25c-5.067,2.899-14.97,4.379-24.945,8.313c0.57,0.26,1.148,0.501,1.735,0.719
									c2.164-0.97,4.818-1.925,7.897-2.838c0.95-0.274,1.948-0.555,3.014-0.836c2.144-0.567,4.104-1.124,5.829-1.656
									c2.313-0.713,4.269-1.406,5.815-2.061c0.001,0,0.001,0,0.002,0c0.011-0.005,0.021-0.008,0.033-0.014c0,0,0,0,0,0
									c3.659-1.559,4.193-2.58,4.185-3.049C533.806,135.216,533.082,134.65,531.722,134.122z"/>
							</g>
						</g>
					</g>
					<g>
						<g>
							<path fill="#FFFFFF" d="M529.617,102.826l-0.195-0.016l-0.046-0.19c-0.162-0.662-0.752-1.124-1.436-1.124
								c-0.36,0-0.708,0.131-0.977,0.369l-0.151,0.133l-0.171-0.105c-0.115-0.07-0.249-0.108-0.387-0.108
								c-0.416,0-0.754,0.337-0.754,0.751v0.271l-0.495,0.013c-0.22,0-0.426,0.085-0.58,0.239c-0.157,0.156-0.243,0.362-0.243,0.581
								c0,0.454,0.369,0.823,0.823,0.823h4.54c0.454,0,0.823-0.369,0.823-0.823C530.368,103.218,530.038,102.86,529.617,102.826z"/>
						</g>
						<g>
							<path d="M529.851,102.314c-0.277-0.81-1.039-1.362-1.911-1.362c-0.43,0-0.846,0.136-1.19,0.388
								c-0.155-0.065-0.324-0.098-0.496-0.098c-0.623,0-1.145,0.441-1.269,1.036c-0.357,0.005-0.692,0.146-0.944,0.398
								c-0.259,0.259-0.402,0.601-0.402,0.965c0,0.753,0.613,1.366,1.366,1.366h4.54c0.753,0,1.366-0.613,1.366-1.366
								C530.91,103.002,530.458,102.453,529.851,102.314z M529.544,104.463h-4.54c-0.454,0-0.823-0.369-0.823-0.823
								c0-0.218,0.086-0.424,0.243-0.581c0.154-0.154,0.36-0.239,0.58-0.239l0.495-0.013v-0.271c0-0.414,0.338-0.751,0.754-0.751
								c0.139,0,0.273,0.037,0.387,0.108l0.171,0.105l0.151-0.133c0.27-0.238,0.617-0.369,0.977-0.369
								c0.684,0,1.274,0.462,1.436,1.124l0.046,0.19l0.195,0.016c0.421,0.035,0.75,0.392,0.75,0.814
								C530.368,104.094,529.998,104.463,529.544,104.463z"/>
						</g>
					</g>
					<g>
						<g>
							<path fill="#FFFFFF" d="M497.608,106.006l0.141-0.012l0.033-0.137c0.117-0.477,0.542-0.81,1.034-0.81
								c0.26,0,0.51,0.095,0.704,0.266l0.108,0.096l0.123-0.076c0.082-0.051,0.179-0.078,0.279-0.078c0.3,0,0.543,0.243,0.543,0.541
								v0.195l0.357,0.01c0.158,0,0.307,0.061,0.418,0.172c0.113,0.113,0.175,0.261,0.175,0.418c0,0.327-0.266,0.593-0.593,0.593
								h-3.271c-0.327,0-0.593-0.266-0.593-0.593C497.067,106.289,497.305,106.031,497.608,106.006z"/>
						</g>
						<g>
							<path d="M496.676,106.593c0,0.543,0.441,0.984,0.984,0.984h3.271c0.543,0,0.984-0.442,0.984-0.984
								c0-0.262-0.103-0.509-0.289-0.695c-0.182-0.182-0.423-0.283-0.68-0.287c-0.089-0.428-0.465-0.746-0.914-0.746
								c-0.124,0-0.246,0.024-0.357,0.071c-0.248-0.181-0.548-0.279-0.858-0.279c-0.628,0-1.177,0.397-1.377,0.981
								C497.002,105.738,496.676,106.133,496.676,106.593z M497.067,106.593c0-0.304,0.237-0.562,0.541-0.587l0.141-0.012
								l0.033-0.137c0.117-0.477,0.542-0.81,1.034-0.81c0.26,0,0.51,0.095,0.704,0.266l0.108,0.096l0.123-0.076
								c0.082-0.051,0.179-0.078,0.279-0.078c0.3,0,0.543,0.243,0.543,0.541v0.195l0.357,0.01c0.158,0,0.307,0.061,0.418,0.172
								c0.113,0.113,0.175,0.261,0.175,0.418c0,0.327-0.266,0.593-0.593,0.593h-3.271
								C497.333,107.186,497.067,106.92,497.067,106.593z"/>
						</g>
					</g>
					<g>
						<g>
							<path fill="#FFFFFF" d="M507.734,110.8l0.133-0.011l0.031-0.129c0.11-0.45,0.512-0.765,0.977-0.765
								c0.245,0,0.481,0.089,0.665,0.251l0.102,0.09l0.116-0.072c0.078-0.048,0.169-0.073,0.264-0.073
								c0.283,0,0.513,0.229,0.513,0.511v0.185l0.337,0.009c0.15,0,0.29,0.058,0.395,0.163c0.107,0.106,0.165,0.247,0.165,0.395
								c0,0.309-0.251,0.56-0.56,0.56h-3.089c-0.309,0-0.56-0.251-0.56-0.56C507.223,111.067,507.448,110.824,507.734,110.8z"/>
						</g>
						<g>
							<path d="M506.854,111.354c0,0.513,0.417,0.93,0.929,0.93h3.089c0.513,0,0.929-0.417,0.929-0.93
								c0-0.247-0.097-0.48-0.273-0.656c-0.172-0.172-0.399-0.267-0.642-0.271c-0.084-0.405-0.44-0.705-0.864-0.705
								c-0.117,0-0.232,0.023-0.338,0.067c-0.234-0.171-0.518-0.264-0.81-0.264c-0.594,0-1.112,0.375-1.301,0.927
								C507.162,110.546,506.854,110.92,506.854,111.354z M507.223,111.354c0-0.287,0.224-0.531,0.511-0.554l0.133-0.011
								l0.031-0.129c0.11-0.45,0.512-0.765,0.977-0.765c0.245,0,0.481,0.089,0.665,0.251l0.102,0.09l0.116-0.072
								c0.078-0.048,0.169-0.073,0.264-0.073c0.283,0,0.513,0.229,0.513,0.511v0.185l0.337,0.009c0.15,0,0.29,0.058,0.395,0.163
								c0.107,0.106,0.165,0.247,0.165,0.395c0,0.309-0.251,0.56-0.56,0.56h-3.089C507.475,111.915,507.223,111.663,507.223,111.354
								z"/>
						</g>
					</g>
					<g>
						<g>
							<path fill="#FFFFFF" d="M528.466,113.568l0.086-0.007l0.02-0.084c0.072-0.293,0.333-0.498,0.636-0.498
								c0.16,0,0.313,0.058,0.433,0.164l0.067,0.059l0.076-0.047c0.051-0.031,0.11-0.048,0.172-0.048
								c0.184,0,0.334,0.149,0.334,0.332v0.12l0.219,0.006c0.097,0,0.189,0.038,0.257,0.106c0.069,0.069,0.107,0.16,0.107,0.257
								c0,0.201-0.164,0.365-0.364,0.365h-2.01c-0.201,0-0.364-0.164-0.364-0.365C528.134,113.742,528.28,113.583,528.466,113.568z"
								/>
						</g>
						<g>
							<path d="M527.893,113.928c0,0.333,0.271,0.605,0.605,0.605h2.01c0.333,0,0.605-0.271,0.605-0.605
								c0-0.161-0.063-0.313-0.178-0.427c-0.112-0.112-0.26-0.174-0.418-0.176c-0.055-0.263-0.286-0.459-0.562-0.459
								c-0.076,0-0.151,0.015-0.22,0.044c-0.153-0.111-0.337-0.172-0.527-0.172c-0.386,0-0.723,0.244-0.846,0.603
								C528.094,113.403,527.893,113.646,527.893,113.928z M528.134,113.928c0-0.187,0.146-0.345,0.332-0.361l0.086-0.007
								l0.02-0.084c0.072-0.293,0.333-0.498,0.636-0.498c0.16,0,0.313,0.058,0.433,0.164l0.067,0.059l0.076-0.047
								c0.051-0.031,0.11-0.048,0.172-0.048c0.184,0,0.334,0.149,0.334,0.332v0.12l0.219,0.006c0.097,0,0.189,0.038,0.257,0.106
								c0.069,0.069,0.107,0.16,0.107,0.257c0,0.201-0.164,0.365-0.364,0.365h-2.01
								C528.297,114.293,528.134,114.129,528.134,113.928z"/>
						</g>
					</g>
					<g>
						<g>
							<path fill="#FFFFFF" d="M517.619,98.393l-0.149-0.012l-0.035-0.145c-0.124-0.506-0.575-0.86-1.098-0.86
								c-0.276,0-0.541,0.1-0.747,0.282l-0.115,0.102l-0.131-0.08c-0.088-0.054-0.19-0.082-0.296-0.082
								c-0.318,0-0.577,0.258-0.577,0.574v0.207l-0.378,0.01c-0.168,0-0.326,0.065-0.444,0.183c-0.12,0.12-0.186,0.277-0.186,0.444
								c0,0.347,0.282,0.63,0.629,0.63h3.471c0.347,0,0.629-0.282,0.629-0.63C518.192,98.694,517.94,98.42,517.619,98.393z"/>
						</g>
						<g>
							<path d="M517.798,98.002c-0.212-0.619-0.794-1.041-1.461-1.041c-0.329,0-0.647,0.104-0.91,0.296
								c-0.119-0.049-0.248-0.075-0.379-0.075c-0.477,0-0.876,0.337-0.971,0.792c-0.273,0.004-0.529,0.111-0.722,0.304
								c-0.198,0.198-0.307,0.46-0.307,0.738c0,0.576,0.469,1.045,1.044,1.045h3.471c0.576,0,1.044-0.469,1.044-1.045
								C518.607,98.529,518.262,98.109,517.798,98.002z M517.563,99.646h-3.471c-0.347,0-0.629-0.282-0.629-0.63
								c0-0.167,0.066-0.324,0.186-0.444c0.118-0.118,0.276-0.183,0.444-0.183l0.378-0.01v-0.207c0-0.317,0.259-0.574,0.577-0.574
								c0.106,0,0.209,0.029,0.296,0.082l0.131,0.08l0.115-0.102c0.206-0.182,0.472-0.282,0.747-0.282
								c0.523,0,0.974,0.354,1.098,0.86l0.035,0.145l0.149,0.012c0.322,0.027,0.574,0.3,0.574,0.623
								C518.192,99.363,517.91,99.646,517.563,99.646z"/>
						</g>
					</g>
				</g>
			</g>
		</g>
		<g>
			<path d="M539.034,72.35l-5.138-9.341c-0.59-1.075-1.718-1.742-2.945-1.742h-28.338c-1.226,0-2.355,0.667-2.946,1.742
				l-5.136,9.341l-3.101-1.705l5.137-9.341c1.213-2.205,3.53-3.575,6.046-3.575h28.338c2.517,0,4.834,1.37,6.046,3.575l5.137,9.341
				L539.034,72.35z"/>
		</g>
		<g>
			<path d="M485.497,74.015h-15.964V63.728h15.964V74.015z M473.071,70.477h8.888v-3.21h-8.888V70.477z"/>
		</g>
		<g>
			<rect x="468.609" y="85.412" width="13.468" height="3.538"/>
		</g>
		<g>
			<path d="M564.733,88.577h-8.094c-1.838,0-3.334-1.495-3.334-3.334v-3.02c0-1.838,1.495-3.334,3.334-3.334h8.094
				c1.838,0,3.334,1.495,3.334,3.334v3.02C568.066,87.081,566.571,88.577,564.733,88.577z M556.844,85.038h7.684v-2.61h-7.684
				V85.038z"/>
		</g>
	</g>
	<g>
		<path d="M138.331,147.968c-0.174-0.108-0.261-0.259-0.261-0.451c0.265-0.265,0.396-0.968,0.396-2.111
			c0-0.686-0.053-1.684-0.162-2.995c-0.121-1.25-0.18-2.238-0.18-2.959l0.036-0.992c0.011-0.289,0.017-0.62,0.017-0.993
			c0-0.336-0.059-0.764-0.18-1.281c-0.144-0.541-0.216-0.921-0.216-1.137c0-0.42,0.463-0.631,1.389-0.631h0.271
			c0.649,0,1.214,0.198,1.696,0.594c0.384,0.337,0.709,0.824,0.974,1.462c0.18,0.433,0.337,1.034,0.469,1.804
			c0.072,0.674,0.109,1.203,0.109,1.588v0.578v0.848c-0.024,0.048-0.036,0.097-0.036,0.145c0,0.095,0.006,0.168,0.018,0.216
			s0.018,0.108,0.018,0.18c0,0.385-0.058,0.846-0.172,1.381c-0.115,0.535-0.28,1.079-0.497,1.632
			c-0.541,1.323-1.149,2.262-1.822,2.815c-0.397,0.313-0.812,0.469-1.244,0.469C138.713,148.132,138.506,148.077,138.331,147.968z
			 M140.506,145.886c0.336-0.523,0.596-1.104,0.776-1.741c0.325-1.179,0.487-2.37,0.487-3.573c0-0.65-0.06-1.359-0.18-2.129
			c-0.133-0.747-0.416-1.42-0.848-2.021c-0.204-0.289-0.463-0.513-0.776-0.677c-0.313-0.162-0.668-0.243-1.064-0.243v0.017
			c0,1.083,0.072,2.718,0.216,4.908c0.144,2.177,0.216,3.825,0.216,4.944v1.714C139.777,146.809,140.169,146.409,140.506,145.886z"
			/>
		<path d="M149.96,148.275c-0.266-0.216-0.494-0.511-0.686-0.883c-0.349-0.65-0.608-1.54-0.776-2.671
			c-0.121-0.782-0.21-1.683-0.271-2.706l-0.018-0.956v-0.974c-0.012-0.313-0.018-0.692-0.018-1.137c0-0.722,0.03-1.359,0.091-1.913
			c0.047-0.577,0.168-1.149,0.36-1.714c0.193-0.493,0.47-0.842,0.83-1.046c0.217-0.097,0.434-0.144,0.65-0.144
			c0.638,0,1.143,0.253,1.515,0.758c0.41,0.565,0.68,1.197,0.812,1.894c0.192,0.842,0.301,1.648,0.325,2.418
			c0.048,0.854,0.072,1.66,0.072,2.418v1.028c0,0.205-0.03,0.59-0.091,1.155c-0.048,0.445-0.072,0.824-0.072,1.137v0.071
			c-0.071,0.337-0.108,0.735-0.108,1.191c0,0.337-0.072,0.685-0.216,1.046c-0.145,0.361-0.349,0.668-0.614,0.921
			c-0.265,0.289-0.565,0.433-0.902,0.433C150.518,148.6,150.223,148.493,149.96,148.275z M151.493,146.94
			c0.144-0.396,0.249-0.881,0.315-1.452c0.066-0.571,0.123-1.218,0.172-1.939c0.024-0.313,0.036-0.715,0.036-1.209l-0.018-1.66
			c-0.024-0.649-0.097-1.461-0.216-2.436c-0.097-0.83-0.277-1.563-0.541-2.2c-0.121-0.301-0.271-0.535-0.452-0.704
			c-0.18-0.168-0.372-0.253-0.576-0.253c-0.301,0-0.523,0.234-0.668,0.703c-0.18,0.494-0.301,1.035-0.361,1.624
			c-0.071,0.638-0.114,1.246-0.126,1.823l-0.018,0.596c-0.012,0.168-0.018,0.396-0.018,0.685v0.072c0,0.806,0.085,1.798,0.253,2.977
			c0.192,1.6,0.475,2.736,0.848,3.409c0.24,0.422,0.493,0.632,0.758,0.632C151.119,147.608,151.324,147.386,151.493,146.94z"/>
		<path d="M161.47,144.65c-0.842-2.898-1.569-5.564-2.183-7.993v5.918c0,0.506,0.048,1.365,0.145,2.581
			c0.083,1.323,0.126,2.177,0.126,2.561c0,0.109-0.066,0.202-0.198,0.28c-0.133,0.079-0.283,0.117-0.452,0.117
			c-0.253,0-0.378-0.097-0.378-0.289l0.036-0.523c0.024-0.385,0.036-0.638,0.036-0.758c0-0.638-0.036-1.648-0.109-3.031
			c-0.072-1.408-0.109-2.262-0.109-2.563v-2.309c0-0.373,0.018-0.927,0.054-1.66c0.048-0.638,0.072-1.191,0.072-1.66v-0.108
			c0-0.602,0.132-0.902,0.396-0.902c0.157,0,0.355,0.265,0.596,0.794c0.397,0.866,0.902,2.418,1.516,4.655
			c0.348,1.299,0.758,2.971,1.226,5.015c-0.012-0.047,0.085,0.367,0.289,1.246l0.018,0.089c0-1.166,0.012-2.212,0.036-3.139
			l0.036-3.139v-5.341c0.047-0.3,0.24-0.451,0.577-0.451c0.324,0,0.487,0.234,0.487,0.703v0.109
			c-0.072,0.144-0.109,0.319-0.109,0.523c0,0.733-0.018,1.84-0.054,3.32c-0.035,1.491-0.053,2.61-0.053,3.355v5.503
			c0,0.192-0.052,0.376-0.153,0.55c-0.103,0.175-0.226,0.262-0.37,0.262C162.708,148.366,162.215,147.128,161.47,144.65z"/>
		<path d="M170.184,138.244c0-0.253,0.065-0.685,0.198-1.299c0.132-0.614,0.313-1.196,0.541-1.749
			c0.24-0.614,0.487-0.921,0.739-0.921c0.216,0,0.325,0.133,0.325,0.397c0,0.505-0.087,1.067-0.262,1.687
			c-0.174,0.62-0.394,1.145-0.658,1.579c-0.277,0.42-0.523,0.631-0.739,0.631C170.231,138.545,170.184,138.437,170.184,138.244z"/>
		<path d="M179.286,147.96c-0.103-0.174-0.153-0.388-0.153-0.64c0-0.397,0.024-0.884,0.072-1.462l0.036-0.469l0.036-0.956
			c0-0.422-0.042-1.359-0.127-2.815c-0.085-1.456-0.126-2.393-0.126-2.815c0-0.036,0.002-0.105,0.008-0.207
			c0.006-0.103,0.008-0.262,0.008-0.478c0.012-0.24,0.018-0.535,0.018-0.884c0-0.877-0.06-1.437-0.18-1.678
			c-0.072,0-0.228,0.018-0.469,0.054l-0.505,0.036c-0.157,0-0.295-0.045-0.416-0.135c-0.12-0.091-0.18-0.208-0.18-0.352
			c0-0.145,0.144-0.271,0.433-0.379c0.422-0.144,1.137-0.246,2.147-0.307c0.41-0.024,0.656-0.036,0.741-0.036
			c0.144,0,0.277,0.048,0.396,0.145c0.121,0.097,0.18,0.216,0.18,0.361c0,0.144-0.051,0.261-0.152,0.352
			c-0.103,0.089-0.232,0.135-0.389,0.135l-0.324-0.018c-0.097-0.012-0.205-0.018-0.325-0.018h-0.18
			c0.083,0.818,0.126,1.557,0.126,2.219l-0.018,1.154c-0.012,0.349-0.018,0.741-0.018,1.173c0,0.577,0.024,1.27,0.072,2.074
			c0.06,0.999,0.091,1.69,0.091,2.076c0,0.457,0.023,0.998,0.071,1.624c0.048,0.638,0.072,1.179,0.072,1.624
			c0,0.59-0.174,0.884-0.523,0.884C179.531,148.222,179.389,148.134,179.286,147.96z"/>
		<path d="M193.331,149.665c-0.121-0.097-0.18-0.234-0.18-0.414c0-0.133,0.071-0.271,0.216-0.416
			c0.144-0.144,0.307-0.253,0.487-0.325c0.18-0.228,0.346-0.582,0.497-1.064c0.15-0.481,0.225-0.974,0.225-1.479l0.018-0.884
			c0.012-0.253,0.018-0.541,0.018-0.866l-0.018-0.739l-0.089-1.822c-0.085-2.381-0.217-4.481-0.397-6.297
			c-0.036,0.024-0.115,0.042-0.234,0.054c-0.192,0.06-0.373,0.091-0.541,0.091c-0.121,0-0.226-0.046-0.315-0.135
			c-0.091-0.091-0.135-0.196-0.135-0.317c0-0.42,0.715-0.631,2.147-0.631h0.234c0.168,0,0.301,0.008,0.396,0.027
			c0.097,0.018,0.187,0.063,0.271,0.135c0.097,0.072,0.145,0.18,0.145,0.325c0,0.313-0.253,0.469-0.758,0.469
			c-0.012,0-0.018-0.006-0.018-0.018h-0.036h-0.234v0.145c0,0.313,0.036,0.776,0.108,1.388c0.06,0.698,0.091,1.167,0.091,1.408
			c0,0.854,0.06,2.021,0.18,3.5c0.097,1.395,0.145,2.569,0.145,3.518v0.722v0.721c0,0.721-0.153,1.362-0.46,1.921
			c-0.307,0.559-0.737,0.935-1.29,1.128C193.608,149.81,193.451,149.761,193.331,149.665z"/>
		<path d="M203.417,147.445c-0.469-0.661-0.8-1.473-0.992-2.436c-0.217-1.022-0.355-2.117-0.416-3.283
			c-0.06-1.058-0.091-2.207-0.091-3.447v-1.497c0.012-0.422,0.018-0.866,0.018-1.335c-0.095-0.097-0.144-0.216-0.144-0.361
			c0-0.144,0.054-0.273,0.162-0.388c0.109-0.115,0.228-0.172,0.361-0.172c0.433,0,0.65,0.428,0.65,1.281
			c0,0.553,0.029,1.601,0.089,3.14s0.091,2.585,0.091,3.139c0.06,0.157,0.117,0.469,0.172,0.939
			c0.054,0.469,0.081,0.854,0.081,1.154c0,0.266,0.042,0.593,0.127,0.983c0.083,0.391,0.204,0.785,0.36,1.182
			c0.156,0.422,0.361,0.767,0.614,1.038c0.253,0.271,0.517,0.406,0.794,0.406c0.168,0,0.309-0.054,0.424-0.162
			c0.114-0.109,0.19-0.265,0.226-0.47c0.071-0.336,0.108-0.667,0.108-0.992v-3.518c0-0.445-0.042-1.01-0.126-1.696
			c-0.072-0.758-0.109-1.329-0.109-1.713v-0.127c0-0.192-0.006-0.366-0.018-0.523l-0.018-0.523c0-0.337-0.018-0.848-0.054-1.533
			c-0.047-0.614-0.071-1.131-0.071-1.552c0-0.132,0.069-0.245,0.207-0.342c0.139-0.097,0.292-0.145,0.46-0.145l0.452,0.416v0.307
			c0,0.144-0.025,0.318-0.072,0.523c-0.048,0.336-0.072,0.529-0.072,0.577c0,1.095,0.06,2.604,0.18,4.528
			c0.109,2.02,0.163,3.591,0.163,4.708c0,0.602-0.06,1.131-0.181,1.589c-0.071,0.277-0.17,0.499-0.297,0.667
			c-0.126,0.169-0.297,0.313-0.515,0.433c-0.204,0.121-0.469,0.181-0.794,0.181C204.439,148.42,203.85,148.095,203.417,147.445z"/>
		<path d="M212.799,148.257c-0.192-0.108-0.289-0.234-0.289-0.378c0-0.145,0.036-0.262,0.109-0.352
			c0.072-0.091,0.174-0.135,0.307-0.135c0.12,0,0.295,0.047,0.523,0.144c0.253,0.097,0.408,0.145,0.469,0.145
			c0.228,0,0.436-0.1,0.622-0.298c0.187-0.198,0.335-0.46,0.442-0.784c0.216-0.602,0.325-1.143,0.325-1.624
			c0-0.517-0.081-1.062-0.244-1.633c-0.162-0.571-0.382-1.127-0.658-1.668l-0.289-0.578c-0.3-0.602-0.532-1.076-0.693-1.426
			c-0.163-0.349-0.304-0.727-0.424-1.137c-0.181-0.578-0.271-1.136-0.271-1.677c0-0.434,0.075-0.842,0.225-1.227
			c0.151-0.384,0.376-0.709,0.677-0.974c0.301-0.289,0.674-0.434,1.119-0.434c0.216,0,0.426,0.064,0.632,0.19
			c0.204,0.127,0.348,0.286,0.433,0.478l-0.307,0.378c-0.313,0-0.547-0.059-0.703-0.18c-0.216,0.024-0.406,0.129-0.568,0.315
			c-0.163,0.187-0.286,0.4-0.371,0.642c-0.071,0.228-0.108,0.457-0.108,0.685c0,0.457,0.063,0.923,0.19,1.398
			c0.126,0.476,0.291,0.923,0.495,1.345l1.264,2.526c0.204,0.433,0.366,0.919,0.487,1.461c0.12,0.541,0.18,1.083,0.18,1.624
			c0,0.794-0.192,1.54-0.577,2.238c-0.204,0.361-0.469,0.646-0.794,0.857s-0.685,0.317-1.083,0.317
			C213.485,148.493,213.111,148.414,212.799,148.257z"/>
		<path d="M222.965,147.96c-0.103-0.174-0.153-0.388-0.153-0.64c0-0.397,0.024-0.884,0.072-1.462l0.036-0.469l0.036-0.956
			c0-0.422-0.042-1.359-0.127-2.815c-0.085-1.456-0.126-2.393-0.126-2.815c0-0.036,0.002-0.105,0.008-0.207
			c0.006-0.103,0.008-0.262,0.008-0.478c0.012-0.24,0.018-0.535,0.018-0.884c0-0.877-0.06-1.437-0.18-1.678
			c-0.072,0-0.228,0.018-0.469,0.054l-0.505,0.036c-0.157,0-0.295-0.045-0.416-0.135c-0.12-0.091-0.18-0.208-0.18-0.352
			c0-0.145,0.144-0.271,0.433-0.379c0.422-0.144,1.137-0.246,2.147-0.307c0.41-0.024,0.656-0.036,0.741-0.036
			c0.144,0,0.277,0.048,0.396,0.145c0.121,0.097,0.18,0.216,0.18,0.361c0,0.144-0.051,0.261-0.152,0.352
			c-0.103,0.089-0.232,0.135-0.389,0.135l-0.324-0.018c-0.097-0.012-0.205-0.018-0.325-0.018h-0.18
			c0.083,0.818,0.126,1.557,0.126,2.219l-0.018,1.154c-0.012,0.349-0.018,0.741-0.018,1.173c0,0.577,0.024,1.27,0.072,2.074
			c0.06,0.999,0.091,1.69,0.091,2.076c0,0.457,0.023,0.998,0.071,1.624c0.048,0.638,0.072,1.179,0.072,1.624
			c0,0.59-0.174,0.884-0.523,0.884C223.209,148.222,223.068,148.134,222.965,147.96z"/>
		<path d="M237.19,148.257c-0.192-0.108-0.289-0.234-0.289-0.378c0-0.145,0.036-0.262,0.109-0.352
			c0.072-0.091,0.174-0.135,0.307-0.135c0.12,0,0.295,0.047,0.523,0.144c0.253,0.097,0.408,0.145,0.469,0.145
			c0.228,0,0.436-0.1,0.622-0.298c0.187-0.198,0.335-0.46,0.442-0.784c0.216-0.602,0.325-1.143,0.325-1.624
			c0-0.517-0.081-1.062-0.244-1.633c-0.162-0.571-0.382-1.127-0.658-1.668l-0.289-0.578c-0.3-0.602-0.532-1.076-0.693-1.426
			c-0.163-0.349-0.304-0.727-0.424-1.137c-0.181-0.578-0.271-1.136-0.271-1.677c0-0.434,0.075-0.842,0.225-1.227
			c0.151-0.384,0.376-0.709,0.677-0.974c0.301-0.289,0.674-0.434,1.119-0.434c0.216,0,0.426,0.064,0.632,0.19
			c0.204,0.127,0.348,0.286,0.433,0.478l-0.307,0.378c-0.313,0-0.547-0.059-0.703-0.18c-0.216,0.024-0.406,0.129-0.568,0.315
			c-0.163,0.187-0.286,0.4-0.371,0.642c-0.071,0.228-0.108,0.457-0.108,0.685c0,0.457,0.063,0.923,0.19,1.398
			c0.126,0.476,0.291,0.923,0.495,1.345l1.264,2.526c0.204,0.433,0.366,0.919,0.487,1.461c0.12,0.541,0.18,1.083,0.18,1.624
			c0,0.794-0.192,1.54-0.577,2.238c-0.204,0.361-0.469,0.646-0.794,0.857s-0.685,0.317-1.083,0.317
			C237.876,148.493,237.503,148.414,237.19,148.257z"/>
		<path d="M249.405,144.65c-0.842-2.898-1.569-5.564-2.183-7.993v5.918c0,0.506,0.048,1.365,0.145,2.581
			c0.083,1.323,0.126,2.177,0.126,2.561c0,0.109-0.066,0.202-0.198,0.28c-0.133,0.079-0.283,0.117-0.452,0.117
			c-0.253,0-0.378-0.097-0.378-0.289l0.036-0.523c0.024-0.385,0.036-0.638,0.036-0.758c0-0.638-0.036-1.648-0.109-3.031
			c-0.072-1.408-0.109-2.262-0.109-2.563v-2.309c0-0.373,0.018-0.927,0.054-1.66c0.048-0.638,0.072-1.191,0.072-1.66v-0.108
			c0-0.602,0.132-0.902,0.396-0.902c0.157,0,0.355,0.265,0.596,0.794c0.397,0.866,0.902,2.418,1.516,4.655
			c0.348,1.299,0.758,2.971,1.226,5.015c-0.012-0.047,0.085,0.367,0.289,1.246l0.018,0.089c0-1.166,0.012-2.212,0.036-3.139
			l0.036-3.139v-5.341c0.047-0.3,0.24-0.451,0.578-0.451c0.324,0,0.487,0.234,0.487,0.703v0.109
			c-0.072,0.144-0.109,0.319-0.109,0.523c0,0.733-0.018,1.84-0.054,3.32c-0.035,1.491-0.053,2.61-0.053,3.355v5.503
			c0,0.192-0.052,0.376-0.153,0.55c-0.103,0.175-0.226,0.262-0.37,0.262C250.643,148.366,250.15,147.128,249.405,144.65z"/>
		<path d="M260.618,147.987c-0.091-0.071-0.135-0.192-0.135-0.36v-2.364c-0.157-0.108-0.451-0.204-0.884-0.288
			c-0.433-0.085-0.842-0.139-1.226-0.163c-0.133,0.253-0.23,0.559-0.289,0.921l-0.072,0.36c-0.012,0.085-0.048,0.271-0.109,0.559
			c-0.06,0.289-0.126,0.539-0.198,0.749c-0.072,0.21-0.144,0.376-0.216,0.497c-0.458,0-0.721-0.121-0.794-0.361
			c0.132-0.192,0.283-0.758,0.451-1.696l0.596-3.301c0.265-1.565,0.507-2.9,0.731-4.006c0.222-1.107,0.46-2.032,0.713-2.778
			c0.277-0.83,0.541-1.246,0.794-1.246s0.445,0.048,0.578,0.145c0,0.481,0.114,1.642,0.342,3.482
			c0.24,1.804,0.361,3.037,0.361,3.698c0,0.638,0.066,1.551,0.198,2.743c0.121,1.215,0.181,2.183,0.181,2.904
			c0,0.41-0.199,0.614-0.596,0.614C260.848,148.095,260.708,148.059,260.618,147.987z M260.464,144.163
			c-0.036-0.529-0.097-1.185-0.18-1.967c-0.278-2.718-0.416-4.384-0.416-4.998v-0.144c-0.12,0.12-0.285,0.664-0.497,1.632
			c-0.21,0.969-0.406,2.006-0.586,3.112s-0.277,1.84-0.289,2.201c0.505,0.145,1.04,0.216,1.606,0.216
			C260.2,144.216,260.319,144.198,260.464,144.163z"/>
		<path d="M267.69,148.014c-0.077-0.115-0.117-0.256-0.117-0.424l0.036-3.031c0.036-1.467,0.054-2.604,0.054-3.409
			c0-2.803-0.156-4.95-0.469-6.442c0.18-0.275,0.408-0.414,0.685-0.414c0.445,0,0.851,0.099,1.218,0.297
			c0.367,0.199,0.671,0.466,0.911,0.803c0.47,0.697,0.704,1.479,0.704,2.345c0,0.903-0.193,1.708-0.578,2.418
			c-0.385,0.71-0.945,1.264-1.678,1.66l0.036,1.822l0.036,0.957c0.012,0.204,0.018,0.499,0.018,0.884
			c0.036,0.806,0.054,1.461,0.054,1.966c0,0.23-0.048,0.41-0.145,0.541c-0.097,0.133-0.246,0.199-0.451,0.199
			C267.874,148.186,267.769,148.128,267.69,148.014z M269.459,139.552c0.222-0.487,0.333-1.038,0.333-1.65v-0.018
			c0-0.277-0.03-0.626-0.091-1.046c-0.035-0.145-0.101-0.289-0.198-0.434c-0.097-0.144-0.15-0.228-0.162-0.253
			c-0.085-0.12-0.307-0.307-0.668-0.559l-0.469-0.343c0,0.614,0.036,1.565,0.109,2.851l0.108,2.85
			C268.89,140.506,269.237,140.039,269.459,139.552z"/>
		<path d="M282.692,147.536c0-0.289,0.18-0.433,0.541-0.433h0.216c0.047,0.012,0.101,0.018,0.162,0.018
			c0.097,0,0.166-0.03,0.208-0.091c0.042-0.06,0.063-0.168,0.063-0.325c0-1.022-0.06-2.418-0.18-4.185
			c-0.109-1.841-0.163-3.229-0.163-4.168c0-0.337,0.006-0.643,0.018-0.921l0.018-0.919c0-0.397-0.018-0.727-0.054-0.993
			c-0.132,0.048-0.271,0.072-0.414,0.072c-0.277,0-0.414-0.144-0.414-0.433c0-0.145,0.087-0.271,0.261-0.379
			c0.174-0.108,0.4-0.186,0.677-0.234c0.505-0.083,0.931-0.126,1.281-0.126c0.145,0,0.268,0.047,0.37,0.144
			c0.103,0.097,0.153,0.21,0.153,0.343c0,0.132-0.039,0.246-0.117,0.342c-0.079,0.097-0.178,0.145-0.297,0.145
			c-0.073,0-0.133-0.006-0.18-0.018h-0.145c-0.12,0-0.208,0.027-0.261,0.081c-0.054,0.054-0.082,0.153-0.082,0.298
			c0,1.275,0.079,3.03,0.236,5.268c0.144,2.345,0.216,4.108,0.216,5.287v0.685c0.083-0.012,0.204-0.018,0.36-0.018
			c0.506,0,0.759,0.21,0.759,0.632v0.108l-0.452,0.307c-0.012,0-0.048,0.004-0.108,0.01c-0.06,0.006-0.181,0.008-0.361,0.008
			c-0.41,0.024-0.662,0.036-0.758,0.036C283.208,148.077,282.692,147.897,282.692,147.536z"/>
		<path d="M292.281,147.96c-0.103-0.174-0.153-0.388-0.153-0.64c0-0.397,0.024-0.884,0.072-1.462l0.036-0.469l0.036-0.956
			c0-0.422-0.042-1.359-0.127-2.815c-0.085-1.456-0.126-2.393-0.126-2.815c0-0.036,0.002-0.105,0.008-0.207
			c0.006-0.103,0.008-0.262,0.008-0.478c0.012-0.24,0.018-0.535,0.018-0.884c0-0.877-0.06-1.437-0.18-1.678
			c-0.073,0-0.228,0.018-0.469,0.054l-0.505,0.036c-0.157,0-0.295-0.045-0.416-0.135c-0.12-0.091-0.18-0.208-0.18-0.352
			c0-0.145,0.144-0.271,0.432-0.379c0.422-0.144,1.137-0.246,2.147-0.307c0.41-0.024,0.656-0.036,0.741-0.036
			c0.144,0,0.277,0.048,0.396,0.145c0.121,0.097,0.18,0.216,0.18,0.361c0,0.144-0.051,0.261-0.152,0.352
			c-0.103,0.089-0.232,0.135-0.389,0.135l-0.324-0.018c-0.097-0.012-0.205-0.018-0.325-0.018h-0.18
			c0.083,0.818,0.126,1.557,0.126,2.219l-0.018,1.154c-0.012,0.349-0.018,0.741-0.018,1.173c0,0.577,0.024,1.27,0.072,2.074
			c0.06,0.999,0.091,1.69,0.091,2.076c0,0.457,0.023,0.998,0.071,1.624c0.048,0.638,0.072,1.179,0.072,1.624
			c0,0.59-0.174,0.884-0.523,0.884C292.525,148.222,292.384,148.134,292.281,147.96z"/>
		<path d="M299.976,149.792c-0.121,0-0.192-0.054-0.216-0.163v-0.108l0.433-0.541c0.156-0.216,0.259-0.416,0.307-0.596
			c0.012-0.036,0.018-0.091,0.018-0.162c0-0.072-0.006-0.127-0.018-0.163c-0.192,0-0.34-0.057-0.442-0.172
			c-0.103-0.114-0.172-0.291-0.208-0.532c-0.035-0.216,0.028-0.382,0.19-0.497c0.163-0.114,0.37-0.172,0.622-0.172
			c0.373,0,0.596,0.198,0.668,0.596c0.048,0.301-0.036,0.697-0.253,1.191c-0.216,0.493-0.493,0.895-0.83,1.208
			c-0.072,0.06-0.145,0.097-0.216,0.109H299.976z"/>
		<path d="M318.704,148.384c-0.073-0.121-0.109-0.295-0.109-0.523l-0.018-2.67c-0.012-0.228-0.018-0.608-0.018-1.137
			c-0.024-1.119-0.035-2.381-0.035-3.789v-0.921c-0.109,0.577-0.296,1.389-0.559,2.436c-0.265,1.083-0.452,1.973-0.559,2.67v0.109
			l-0.054,0.343c-0.024,0.265-0.085,0.535-0.18,0.812c-0.121,0.289-0.307,0.433-0.559,0.433c-0.434,0-0.65-0.565-0.65-1.696
			c0-0.625-0.063-1.295-0.19-2.012c-0.126-0.715-0.327-1.596-0.604-2.642l-0.541-2.021l-0.036,2.165c0,0.65,0.03,1.888,0.091,3.716
			l0.036,1.227l0.035,2.472c0,0.253-0.089,0.481-0.271,0.685c-0.3,0-0.507-0.093-0.622-0.279c-0.114-0.187-0.172-0.46-0.172-0.822
			l0.036-1.479c0.036-0.65,0.054-1.137,0.054-1.462l-0.036-3.482l-0.036-3.5c0-0.517,0.012-1.293,0.036-2.327l0.487-0.289
			c0.097,0.012,0.193,0.081,0.289,0.207c0.097,0.127,0.205,0.329,0.325,0.605c0.301,0.745,0.692,2.236,1.173,4.474
			c0.072,0.313,0.12,0.571,0.144,0.776c0.145,0.698,0.246,1.227,0.307,1.588l0.271,1.389l0.127-0.596l0.342-1.479
			c0.193-0.866,0.353-1.624,0.478-2.274c0.127-0.649,0.25-1.353,0.37-2.111c0.133-0.902,0.216-1.654,0.253-2.256v-0.108
			c0.024-0.156,0.097-0.28,0.217-0.37c0.12-0.091,0.263-0.135,0.433-0.135c0.109,0,0.204,0.048,0.289,0.144
			c0.083,0.097,0.126,0.198,0.126,0.307c0,1.444,0.054,3.603,0.163,6.477c0.06,1.408,0.102,2.785,0.126,4.132
			c0.024,0.614,0.036,1.389,0.036,2.327c0,0.277-0.072,0.523-0.216,0.739c-0.144,0.217-0.307,0.325-0.487,0.325
			C318.872,148.564,318.776,148.504,318.704,148.384z"/>
		<path d="M328.725,147.987c-0.091-0.071-0.135-0.192-0.135-0.36v-2.364c-0.157-0.108-0.451-0.204-0.884-0.288
			c-0.433-0.085-0.842-0.139-1.226-0.163c-0.133,0.253-0.23,0.559-0.289,0.921l-0.072,0.36c-0.012,0.085-0.048,0.271-0.109,0.559
			c-0.06,0.289-0.126,0.539-0.198,0.749c-0.072,0.21-0.144,0.376-0.216,0.497c-0.458,0-0.721-0.121-0.794-0.361
			c0.132-0.192,0.283-0.758,0.451-1.696l0.596-3.301c0.265-1.565,0.507-2.9,0.731-4.006c0.222-1.107,0.46-2.032,0.713-2.778
			c0.277-0.83,0.541-1.246,0.794-1.246s0.445,0.048,0.577,0.145c0,0.481,0.114,1.642,0.342,3.482
			c0.24,1.804,0.361,3.037,0.361,3.698c0,0.638,0.066,1.551,0.198,2.743c0.121,1.215,0.181,2.183,0.181,2.904
			c0,0.41-0.199,0.614-0.596,0.614C328.956,148.095,328.816,148.059,328.725,147.987z M328.572,144.163
			c-0.036-0.529-0.097-1.185-0.18-1.967c-0.278-2.718-0.416-4.384-0.416-4.998v-0.144c-0.12,0.12-0.285,0.664-0.497,1.632
			c-0.21,0.969-0.406,2.006-0.586,3.112s-0.277,1.84-0.289,2.201c0.505,0.145,1.04,0.216,1.606,0.216
			C328.307,144.216,328.427,144.198,328.572,144.163z"/>
		<path d="M335.797,148.014c-0.077-0.115-0.117-0.256-0.117-0.424l0.036-3.031c0.036-1.467,0.054-2.604,0.054-3.409
			c0-2.803-0.156-4.95-0.469-6.442c0.18-0.275,0.408-0.414,0.685-0.414c0.445,0,0.851,0.099,1.218,0.297
			c0.367,0.199,0.671,0.466,0.911,0.803c0.47,0.697,0.704,1.479,0.704,2.345c0,0.903-0.193,1.708-0.578,2.418
			c-0.385,0.71-0.945,1.264-1.678,1.66l0.036,1.822l0.036,0.957c0.012,0.204,0.018,0.499,0.018,0.884
			c0.036,0.806,0.054,1.461,0.054,1.966c0,0.23-0.048,0.41-0.145,0.541c-0.097,0.133-0.246,0.199-0.451,0.199
			C335.98,148.186,335.875,148.128,335.797,148.014z M337.565,139.552c0.222-0.487,0.333-1.038,0.333-1.65v-0.018
			c0-0.277-0.03-0.626-0.091-1.046c-0.035-0.145-0.102-0.289-0.198-0.434c-0.097-0.144-0.15-0.228-0.162-0.253
			c-0.085-0.12-0.307-0.307-0.668-0.559l-0.469-0.343c0,0.614,0.036,1.565,0.109,2.851l0.108,2.85
			C336.996,140.506,337.343,140.039,337.565,139.552z"/>
		<path d="M350.8,147.536c0-0.289,0.18-0.433,0.541-0.433h0.216c0.047,0.012,0.102,0.018,0.162,0.018
			c0.097,0,0.166-0.03,0.208-0.091c0.042-0.06,0.063-0.168,0.063-0.325c0-1.022-0.06-2.418-0.18-4.185
			c-0.109-1.841-0.163-3.229-0.163-4.168c0-0.337,0.006-0.643,0.018-0.921l0.018-0.919c0-0.397-0.018-0.727-0.054-0.993
			c-0.132,0.048-0.271,0.072-0.414,0.072c-0.277,0-0.414-0.144-0.414-0.433c0-0.145,0.087-0.271,0.261-0.379
			c0.174-0.108,0.4-0.186,0.677-0.234c0.505-0.083,0.931-0.126,1.281-0.126c0.145,0,0.268,0.047,0.37,0.144
			c0.103,0.097,0.153,0.21,0.153,0.343c0,0.132-0.039,0.246-0.117,0.342c-0.079,0.097-0.178,0.145-0.297,0.145
			c-0.073,0-0.133-0.006-0.18-0.018h-0.145c-0.12,0-0.208,0.027-0.261,0.081c-0.054,0.054-0.082,0.153-0.082,0.298
			c0,1.275,0.079,3.03,0.236,5.268c0.144,2.345,0.216,4.108,0.216,5.287v0.685c0.083-0.012,0.204-0.018,0.36-0.018
			c0.506,0,0.759,0.21,0.759,0.632v0.108l-0.452,0.307c-0.012,0-0.048,0.004-0.108,0.01c-0.06,0.006-0.181,0.008-0.361,0.008
			c-0.41,0.024-0.662,0.036-0.758,0.036C351.316,148.077,350.8,147.897,350.8,147.536z"/>
		<path d="M360.388,147.96c-0.103-0.174-0.153-0.388-0.153-0.64c0-0.397,0.024-0.884,0.072-1.462l0.036-0.469l0.036-0.956
			c0-0.422-0.042-1.359-0.127-2.815c-0.085-1.456-0.126-2.393-0.126-2.815c0-0.036,0.002-0.105,0.008-0.207
			c0.006-0.103,0.008-0.262,0.008-0.478c0.012-0.24,0.018-0.535,0.018-0.884c0-0.877-0.06-1.437-0.18-1.678
			c-0.072,0-0.228,0.018-0.469,0.054l-0.505,0.036c-0.157,0-0.295-0.045-0.416-0.135c-0.12-0.091-0.18-0.208-0.18-0.352
			c0-0.145,0.144-0.271,0.433-0.379c0.422-0.144,1.137-0.246,2.147-0.307c0.41-0.024,0.656-0.036,0.741-0.036
			c0.144,0,0.277,0.048,0.396,0.145c0.121,0.097,0.18,0.216,0.18,0.361c0,0.144-0.051,0.261-0.152,0.352
			c-0.103,0.089-0.232,0.135-0.389,0.135l-0.324-0.018c-0.097-0.012-0.205-0.018-0.325-0.018h-0.18
			c0.083,0.818,0.126,1.557,0.126,2.219l-0.018,1.154c-0.012,0.349-0.018,0.741-0.018,1.173c0,0.577,0.024,1.27,0.072,2.074
			c0.06,0.999,0.091,1.69,0.091,2.076c0,0.457,0.023,0.998,0.071,1.624c0.048,0.638,0.073,1.179,0.073,1.624
			c0,0.59-0.174,0.884-0.523,0.884C360.632,148.222,360.49,148.134,360.388,147.96z"/>
		<path d="M368.769,148.186c-0.12-0.133-0.18-0.283-0.18-0.452c0-0.18,0.066-0.342,0.198-0.487c0.133-0.144,0.289-0.216,0.47-0.216
			c0.168,0,0.318,0.072,0.451,0.216c0.132,0.145,0.198,0.301,0.198,0.469c0,0.193-0.069,0.353-0.208,0.478
			c-0.138,0.127-0.309,0.19-0.513,0.19C369.027,148.384,368.889,148.318,368.769,148.186z"/>
	</g>
	<g>
		<g>
			<path d="M84.404,112.967c2.441,0,4.192-0.441,5.255-1.323c1.061-0.881,1.594-1.932,1.594-3.152c0-1.13-0.418-2.045-1.255-2.746
				c-0.837-0.7-2.067-1.299-3.695-1.796l-3.593-1.153c-2.441-0.814-4.6-1.717-6.475-2.712c-1.877-0.994-3.323-2.282-4.339-3.865
				c-1.017-1.582-1.526-3.593-1.526-6.034c0-3.752,1.424-6.735,4.272-8.95c2.848-2.214,6.803-3.323,11.866-3.323
				c2.576,0,4.87,0.249,6.882,0.746c2.011,0.498,3.593,1.232,4.746,2.204c1.153,0.972,1.729,2.159,1.729,3.56
				c0,1.04-0.238,1.932-0.712,2.678c-0.474,0.746-1.074,1.39-1.797,1.932c-1.04-0.723-2.419-1.344-4.136-1.865
				c-1.719-0.519-3.617-0.78-5.696-0.78c-2.169,0-3.797,0.351-4.882,1.051c-1.085,0.701-1.627,1.617-1.627,2.746
				c0,0.905,0.361,1.639,1.084,2.204c0.723,0.566,1.808,1.074,3.255,1.525l3.729,1.153c4.113,1.266,7.277,2.95,9.493,5.051
				c2.214,2.102,3.322,4.916,3.322,8.442c0,3.797-1.469,6.882-4.407,9.255c-2.939,2.373-7.187,3.56-12.747,3.56
				c-2.758,0-5.221-0.295-7.391-0.882c-2.169-0.587-3.899-1.446-5.187-2.577c-1.288-1.129-1.932-2.441-1.932-3.932
				c0-1.175,0.349-2.181,1.051-3.018c0.701-0.836,1.48-1.458,2.339-1.865c1.221,0.995,2.746,1.888,4.577,2.679
				C80.03,112.572,82.098,112.967,84.404,112.967z"/>
			<path d="M145.156,105.034v13.9c-0.588,0.542-1.413,0.983-2.475,1.323c-1.063,0.338-2.317,0.508-3.764,0.508
				c-1.537,0-2.973-0.249-4.305-0.746c-1.334-0.496-2.43-1.603-3.289-3.322l-8.204-15.595c-0.498-0.994-0.983-1.989-1.457-2.984
				c-0.475-0.994-0.939-2-1.39-3.017c-0.452-1.017-0.905-2.045-1.356-3.085l-9.899,2.238V80.896c0.543-0.768,1.39-1.356,2.543-1.763
				c1.152-0.407,2.407-0.61,3.763-0.61c1.492,0,2.904,0.249,4.237,0.746c1.333,0.498,2.429,1.583,3.289,3.254l8.272,15.663
				c0.497,0.949,0.994,1.933,1.492,2.95c0.497,1.017,0.971,2.024,1.424,3.018c0.451,0.995,0.882,2.011,1.288,3.051L145.156,105.034z
				 M109.016,90.863l9.357-0.136c0.18,1.944,0.316,3.865,0.407,5.763c0.09,1.899,0.146,3.729,0.17,5.492
				c0.022,1.763,0.034,3.481,0.034,5.153v13.086c-0.407,0.09-1.051,0.192-1.932,0.305c-0.882,0.112-1.775,0.17-2.679,0.17
				c-1.99,0-3.379-0.339-4.17-1.017c-0.792-0.678-1.187-1.899-1.187-3.661V90.863z M145.156,108.289l-9.425,0.068
				c-0.316-3.299-0.498-6.442-0.542-9.425c-0.045-2.983-0.068-5.831-0.068-8.543V78.997c0.451-0.09,1.107-0.203,1.966-0.339
				c0.858-0.136,1.763-0.203,2.712-0.203c1.943,0,3.322,0.351,4.136,1.051c0.814,0.701,1.221,1.91,1.221,3.627V108.289z"/>
			<path d="M171.26,87.676h-0.407c-0.453,1.447-0.983,3.051-1.594,4.814c-0.61,1.763-1.232,3.606-1.865,5.526
				c-0.634,1.922-1.244,3.831-1.831,5.729l-1.221,6.103c-0.271,0.859-0.532,1.763-0.78,2.712c-0.249,0.949-0.509,1.877-0.78,2.779
				c-0.271,0.905-0.52,1.763-0.746,2.577c-0.227,0.813-0.453,1.583-0.678,2.306c-0.498,0.136-1.063,0.282-1.695,0.441
				c-0.634,0.158-1.38,0.237-2.238,0.237c-1.898,0-3.346-0.338-4.339-1.017c-0.995-0.678-1.492-1.671-1.492-2.983
				c0-0.542,0.078-1.107,0.238-1.695c0.158-0.587,0.349-1.265,0.576-2.033c0.407-1.492,0.983-3.368,1.729-5.628
				c0.746-2.26,1.56-4.712,2.441-7.357c0.882-2.644,1.785-5.255,2.712-7.831c0.926-2.576,1.785-4.949,2.577-7.119
				c0.79-2.169,1.434-3.864,1.932-5.085c0.632-0.407,1.638-0.78,3.017-1.119c1.379-0.339,2.746-0.509,4.103-0.509
				c1.943,0,3.683,0.283,5.221,0.847c1.536,0.566,2.509,1.457,2.916,2.678c0.858,2.396,1.796,5.165,2.814,8.306
				c1.017,3.142,2.044,6.431,3.085,9.866c1.039,3.436,2.044,6.77,3.017,10.001c0.972,3.233,1.819,6.136,2.543,8.713
				c-0.498,0.542-1.221,1.007-2.17,1.39c-0.949,0.384-2.08,0.576-3.39,0.576c-1.854,0-3.165-0.338-3.933-1.017
				c-0.769-0.678-1.356-1.695-1.763-3.051l-2.17-7.594l-1.153-5.763c-0.542-2.034-1.108-4.001-1.695-5.899
				c-0.588-1.898-1.13-3.695-1.627-5.39C172.118,90.49,171.667,88.988,171.26,87.676z M159.801,111.069l4.001-8.001h15.866
				l1.356,8.001H159.801z"/>
			<path d="M211.67,107.001h-14.985V82.727c0-0.858,0.248-1.536,0.746-2.034c0.497-0.497,1.153-0.881,1.966-1.153
				c1.492-0.542,3.277-0.926,5.357-1.152c2.079-0.226,3.955-0.339,5.628-0.339c6.102,0,10.724,1.3,13.866,3.899
				c3.141,2.6,4.712,6.136,4.712,10.611c0,2.893-0.69,5.424-2.068,7.594c-1.379,2.169-3.356,3.854-5.933,5.051
				C218.383,106.402,215.286,107.001,211.67,107.001z M196.685,102.457h10.307v17.697c-0.407,0.137-1.063,0.26-1.967,0.374
				c-0.905,0.112-1.831,0.17-2.78,0.17c-2.034,0-3.47-0.363-4.305-1.086c-0.837-0.723-1.255-1.988-1.255-3.797V102.457z
				 M206.924,98.864h4.068c2.306,0,4.125-0.542,5.459-1.627c1.333-1.085,2-2.644,2-4.678c0-2.034-0.634-3.57-1.899-4.611
				c-1.266-1.039-3.096-1.559-5.492-1.559c-0.814,0-1.549,0.024-2.204,0.068c-0.655,0.046-1.3,0.114-1.932,0.203V98.864z"/>
			<path d="M247.81,112.967c2.441,0,4.192-0.441,5.255-1.323c1.061-0.881,1.594-1.932,1.594-3.152c0-1.13-0.418-2.045-1.255-2.746
				c-0.837-0.7-2.067-1.299-3.695-1.796l-3.593-1.153c-2.441-0.814-4.6-1.717-6.475-2.712c-1.877-0.994-3.323-2.282-4.339-3.865
				c-1.017-1.582-1.526-3.593-1.526-6.034c0-3.752,1.424-6.735,4.272-8.95c2.848-2.214,6.803-3.323,11.866-3.323
				c2.576,0,4.87,0.249,6.882,0.746c2.011,0.498,3.593,1.232,4.746,2.204c1.153,0.972,1.729,2.159,1.729,3.56
				c0,1.04-0.237,1.932-0.712,2.678c-0.474,0.746-1.074,1.39-1.797,1.932c-1.04-0.723-2.419-1.344-4.136-1.865
				c-1.719-0.519-3.617-0.78-5.696-0.78c-2.169,0-3.797,0.351-4.882,1.051c-1.085,0.701-1.627,1.617-1.627,2.746
				c0,0.905,0.361,1.639,1.084,2.204c0.723,0.566,1.808,1.074,3.255,1.525l3.729,1.153c4.113,1.266,7.277,2.95,9.493,5.051
				c2.214,2.102,3.322,4.916,3.322,8.442c0,3.797-1.469,6.882-4.407,9.255c-2.939,2.373-7.187,3.56-12.747,3.56
				c-2.758,0-5.221-0.295-7.391-0.882c-2.169-0.587-3.899-1.446-5.187-2.577c-1.288-1.129-1.932-2.441-1.932-3.932
				c0-1.175,0.349-2.181,1.051-3.018c0.701-0.836,1.48-1.458,2.339-1.865c1.221,0.995,2.746,1.888,4.577,2.679
				C243.436,112.572,245.504,112.967,247.81,112.967z"/>
			<path d="M299.95,109.984c-0.497,0.407-1.165,0.746-2.001,1.017c-0.837,0.271-1.796,0.407-2.881,0.407
				c-1.403,0-2.577-0.18-3.527-0.543c-0.948-0.361-1.558-0.971-1.829-1.831c-1.537-4.294-2.838-7.865-3.899-10.713
				c-1.063-2.848-1.888-5.311-2.475-7.391h-0.339c-0.134,2.848-0.248,5.448-0.337,7.798c-0.092,2.351-0.16,4.645-0.205,6.882
				c-0.045,2.238-0.113,4.509-0.203,6.815c-0.092,2.306-0.226,4.837-0.408,7.593c-0.497,0.136-1.162,0.294-1.999,0.475
				c-0.837,0.18-1.662,0.271-2.475,0.271c-1.718,0-3.062-0.295-4.034-0.882c-0.972-0.587-1.457-1.603-1.457-3.051
				c0-0.994,0.056-2.475,0.169-4.441c0.113-1.966,0.248-4.226,0.407-6.781c0.158-2.553,0.315-5.255,0.474-8.102
				c0.158-2.848,0.339-5.661,0.542-8.441c0.204-2.78,0.395-5.345,0.576-7.696c0.361-0.543,1.085-1.096,2.17-1.661
				c1.085-0.565,2.576-0.847,4.474-0.847c2.034,0,3.673,0.328,4.918,0.983c1.242,0.656,2.136,1.729,2.678,3.221
				c0.677,1.627,1.4,3.515,2.169,5.661c0.769,2.148,1.525,4.318,2.273,6.509c0.745,2.193,1.433,4.17,2.067,5.933h0.339
				c1.264-3.978,2.565-7.866,3.899-11.663c1.332-3.797,2.473-6.96,3.423-9.492c0.632-0.361,1.436-0.644,2.407-0.847
				c0.971-0.204,2.001-0.305,3.086-0.305c1.943,0,3.513,0.283,4.712,0.847c1.198,0.566,1.91,1.413,2.136,2.542
				c0.179,0.859,0.372,2.215,0.575,4.068c0.205,1.854,0.417,3.99,0.644,6.407c0.226,2.419,0.453,4.95,0.679,7.594
				c0.226,2.644,0.441,5.221,0.644,7.73c0.205,2.509,0.375,4.758,0.509,6.746c0.137,1.99,0.226,3.571,0.271,4.747
				c-0.679,0.407-1.391,0.712-2.136,0.915c-0.745,0.204-1.683,0.305-2.815,0.305c-1.445,0-2.678-0.271-3.694-0.813
				s-1.572-1.582-1.662-3.119c-0.226-3.526-0.405-6.882-0.542-10.069c-0.134-3.187-0.236-6.102-0.304-8.747
				s-0.149-4.916-0.238-6.814h-0.339c-0.587,1.944-1.412,4.397-2.475,7.356C302.854,101.52,301.532,105.329,299.95,109.984z"/>
			<path d="M343.411,87.676h-0.407c-0.453,1.447-0.983,3.051-1.594,4.814c-0.611,1.763-1.232,3.606-1.865,5.526
				c-0.633,1.922-1.244,3.831-1.831,5.729l-1.22,6.103c-0.272,0.859-0.533,1.763-0.78,2.712c-0.249,0.949-0.508,1.877-0.779,2.779
				c-0.272,0.905-0.521,1.763-0.746,2.577c-0.228,0.813-0.453,1.583-0.678,2.306c-0.499,0.136-1.063,0.282-1.696,0.441
				c-0.633,0.158-1.379,0.237-2.237,0.237c-1.899,0-3.345-0.338-4.339-1.017c-0.995-0.678-1.492-1.671-1.492-2.983
				c0-0.542,0.079-1.107,0.237-1.695c0.158-0.587,0.35-1.265,0.576-2.033c0.408-1.492,0.983-3.368,1.729-5.628
				c0.746-2.26,1.559-4.712,2.441-7.357c0.882-2.644,1.786-5.255,2.712-7.831c0.926-2.576,1.786-4.949,2.577-7.119
				c0.79-2.169,1.435-3.864,1.932-5.085c0.633-0.407,1.638-0.78,3.017-1.119c1.379-0.339,2.746-0.509,4.102-0.509
				c1.944,0,3.685,0.283,5.222,0.847c1.536,0.566,2.508,1.457,2.915,2.678c0.858,2.396,1.798,5.165,2.815,8.306
				c1.016,3.142,2.044,6.431,3.085,9.866c1.04,3.436,2.045,6.77,3.018,10.001c0.971,3.233,1.819,6.136,2.542,8.713
				c-0.499,0.542-1.221,1.007-2.17,1.39c-0.949,0.384-2.079,0.576-3.39,0.576c-1.854,0-3.165-0.338-3.933-1.017
				c-0.769-0.678-1.356-1.695-1.762-3.051l-2.17-7.594l-1.153-5.763c-0.542-2.034-1.108-4.001-1.695-5.899
				c-0.588-1.898-1.13-3.695-1.628-5.39C344.27,90.49,343.818,88.988,343.411,87.676z M331.952,111.069l4.001-8.001h15.867
				l1.356,8.001H331.952z"/>
			<path d="M383.821,107.001h-14.985V82.727c0-0.858,0.249-1.536,0.746-2.034c0.496-0.497,1.153-0.881,1.966-1.153
				c1.492-0.542,3.277-0.926,5.357-1.152c2.078-0.226,3.955-0.339,5.627-0.339c6.102,0,10.724,1.3,13.866,3.899
				c3.141,2.6,4.712,6.136,4.712,10.611c0,2.893-0.691,5.424-2.069,7.594c-1.379,2.169-3.356,3.854-5.932,5.051
				C390.534,106.402,387.437,107.001,383.821,107.001z M368.836,102.457h10.307v17.697c-0.407,0.137-1.063,0.26-1.966,0.374
				c-0.905,0.112-1.832,0.17-2.781,0.17c-2.034,0-3.469-0.363-4.306-1.086s-1.254-1.988-1.254-3.797V102.457z M379.075,98.864h4.069
				c2.306,0,4.124-0.542,5.457-1.627s2-2.644,2-4.678c0-2.034-0.633-3.57-1.898-4.611c-1.266-1.039-3.098-1.559-5.493-1.559
				c-0.813,0-1.549,0.024-2.203,0.068c-0.657,0.046-1.3,0.114-1.933,0.203V98.864z"/>
			<path d="M419.961,112.967c2.441,0,4.193-0.441,5.255-1.323c1.062-0.881,1.594-1.932,1.594-3.152c0-1.13-0.418-2.045-1.254-2.746
				c-0.837-0.7-2.069-1.299-3.695-1.796l-3.594-1.153c-2.441-0.814-4.601-1.717-6.476-2.712c-1.875-0.994-3.322-2.282-4.339-3.865
				c-1.017-1.582-1.525-3.593-1.525-6.034c0-3.752,1.423-6.735,4.271-8.95c2.848-2.214,6.802-3.323,11.865-3.323
				c2.577,0,4.87,0.249,6.883,0.746c2.011,0.498,3.594,1.232,4.747,2.204c1.153,0.972,1.728,2.159,1.728,3.56
				c0,1.04-0.237,1.932-0.712,2.678c-0.474,0.746-1.074,1.39-1.796,1.932c-1.041-0.723-2.419-1.344-4.136-1.865
				c-1.719-0.519-3.616-0.78-5.696-0.78c-2.17,0-3.797,0.351-4.882,1.051c-1.084,0.701-1.627,1.617-1.627,2.746
				c0,0.905,0.361,1.639,1.084,2.204c0.723,0.566,1.808,1.074,3.254,1.525l3.729,1.153c4.113,1.266,7.277,2.95,9.493,5.051
				c2.214,2.102,3.322,4.916,3.322,8.442c0,3.797-1.469,6.882-4.407,9.255s-7.187,3.56-12.747,3.56
				c-2.758,0-5.222-0.295-7.391-0.882c-2.17-0.587-3.899-1.446-5.188-2.577c-1.288-1.129-1.931-2.441-1.931-3.932
				c0-1.175,0.349-2.181,1.05-3.018c0.7-0.836,1.48-1.458,2.34-1.865c1.22,0.995,2.745,1.888,4.577,2.679
				C415.588,112.572,417.656,112.967,419.961,112.967z"/>
		</g>
	</g>
</g>
</svg>
