<?xml version="1.0" encoding="utf-8"?>
<!-- Generator: Adobe Illustrator 25.4.8, SVG Export Plug-In . SVG Version: 6.00 Build 0)  -->
<svg version="1.1" id="Layer_1" xmlns="http://www.w3.org/2000/svg" xmlns:xlink="http://www.w3.org/1999/xlink" x="0px" y="0px"
	 viewBox="0 0 500 500" enable-background="new 0 0 500 500" xml:space="preserve">
<g id="XMLID_00000032620776894170762540000012725708316129196965_">
	<g>
		<g>
			<rect x="340.779" y="180.772" width="32.629" height="13.08"/>
		</g>
		<g>
			<path d="M337.58,259.443c7.417,0,13.436,6.019,13.436,13.436s-6.019,13.412-13.436,13.412h-5.166v-26.848H337.58z"/>
		</g>
		<g>
			<path d="M203.745,272.215l-2.346,2.346c-0.237,0.237-0.64,0.237-0.877,0s-0.237-0.64,0-0.877l3.223-3.223v-1.659l-1.635,1.635
				c-0.237,0.237-0.64,0.237-0.877,0c-0.237-0.237-0.237-0.616,0-0.853l2.512-2.535v-1.398l-1.208,1.208
				c-0.118,0.118-0.284,0.19-0.45,0.19c-0.142,0-0.308-0.071-0.427-0.19c-0.237-0.237-0.237-0.64,0-0.877l2.275-2.251
				c0.118-0.118,0.261-0.19,0.427-0.19c0,0,0,0,0.024,0c0.166,0,0.308,0.071,0.427,0.19l2.251,2.251c0.237,0.237,0.237,0.64,0,0.877
				c-0.237,0.237-0.616,0.237-0.877,0l-1.208-1.208v1.398l2.512,2.535c0.237,0.237,0.237,0.616,0,0.853
				c-0.118,0.118-0.284,0.19-0.427,0.19c-0.166,0-0.332-0.071-0.45-0.19l-1.635-1.635v1.659l3.223,3.223
				c0.237,0.237,0.237,0.64,0,0.877c-0.118,0.118-0.284,0.19-0.427,0.19c-0.166,0-0.332-0.071-0.45-0.19l-2.346-2.346v6.303
				c3.033-0.047,7.891-0.095,13.791,0.071v-9.123l-3.294,3.27c-0.166,0.166-0.379,0.237-0.592,0.237
				c-0.19,0-0.403-0.071-0.569-0.237c-0.332-0.308-0.332-0.829,0-1.161l4.455-4.431v-2.37l-2.322,2.299
				c-0.166,0.166-0.379,0.237-0.592,0.237c-0.213,0-0.427-0.071-0.569-0.237c-0.332-0.332-0.332-0.853,0-1.161l3.483-3.46v-2.062
				l-1.754,1.73c-0.142,0.166-0.355,0.237-0.569,0.237c-0.213,0-0.427-0.071-0.569-0.237c-0.332-0.332-0.332-0.853,0-1.161
				l3.128-3.104c0-0.024,0-0.024,0-0.024c0.071-0.071,0.166-0.118,0.261-0.166c0.19-0.071,0.427-0.071,0.616,0
				c0.118,0.047,0.19,0.118,0.284,0.19l3.104,3.104c0.308,0.332,0.308,0.829,0,1.161c-0.332,0.308-0.829,0.308-1.161,0l-1.706-1.706
				v2.038l3.46,3.46c0.308,0.308,0.308,0.829,0,1.161c-0.332,0.308-0.829,0.308-1.161,0l-2.299-2.299v2.37l4.431,4.431
				c0.308,0.332,0.308,0.853,0,1.161c-0.332,0.332-0.853,0.332-1.161,0l-3.27-3.27v9.17c1.517,0.047,3.104,0.118,4.739,0.19
				c3.223-6.848,10.379-10.853,17.985-10.023c7.512,0.829,13.696,6.516,15.26,13.862c2.678,0.569,5.024,1.114,7.109,1.682
				c0.261-0.047,0.498-0.071,0.758-0.118v-4.55l-2.133,1.422c-0.379,0.237-0.9,0.142-1.137-0.237
				c-0.261-0.379-0.166-0.877,0.213-1.137l3.057-2.014v-1.469l-1.445,0.924c-0.379,0.237-0.9,0.118-1.137-0.261
				c-0.237-0.379-0.118-0.877,0.261-1.137l2.322-1.469v-1.114l-0.972,0.711c-0.379,0.261-0.877,0.166-1.137-0.19
				c-0.261-0.379-0.19-0.877,0.19-1.161l2.251-1.611c0.024,0,0.047,0,0.047-0.024c0.142-0.071,0.284-0.118,0.427-0.118
				c0.166,0,0.308,0.047,0.427,0.118c0.024,0.024,0.047,0.024,0.047,0.024l2.275,1.611c0.355,0.284,0.45,0.782,0.19,1.161
				c-0.166,0.213-0.427,0.332-0.663,0.332c-0.166,0-0.332-0.047-0.474-0.142l-0.972-0.711v1.114l2.322,1.469
				c0.379,0.261,0.498,0.758,0.261,1.137c-0.166,0.237-0.427,0.379-0.711,0.379c-0.142,0-0.284-0.047-0.427-0.118l-1.445-0.924
				v1.469l3.033,2.014c0.379,0.261,0.474,0.758,0.237,1.137c-0.166,0.237-0.427,0.379-0.687,0.379c-0.166,0-0.308-0.047-0.45-0.142
				l-2.133-1.422v4.265c2.559-0.427,5.308-0.806,8.151-1.137c3.412-0.853,6.682-1.611,9.81-2.322v-1.777l-1.114,0.735
				c-0.071,0.047-0.166,0.071-0.237,0.071c-0.118,0-0.261-0.071-0.332-0.19c-0.142-0.19-0.071-0.427,0.118-0.569l1.564-1.043v-0.758
				l-0.758,0.474c-0.213,0.118-0.45,0.047-0.569-0.142c-0.118-0.19-0.071-0.45,0.118-0.569l1.208-0.735v-0.616l-0.521,0.379
				c-0.19,0.118-0.45,0.071-0.569-0.095c-0.142-0.19-0.095-0.45,0.095-0.592l1.161-0.806c0.142-0.095,0.332-0.095,0.474,0
				l1.161,0.806c0.19,0.142,0.237,0.403,0.095,0.592c-0.071,0.095-0.19,0.166-0.332,0.166c-0.071,0-0.166-0.024-0.237-0.071
				l-0.521-0.379v0.616l1.185,0.735c0.19,0.142,0.261,0.379,0.142,0.569c-0.071,0.142-0.213,0.19-0.355,0.19
				c-0.071,0-0.142,0-0.213-0.047l-0.758-0.474v0.782l1.564,1.019c0.19,0.142,0.237,0.403,0.118,0.569
				c-0.142,0.19-0.379,0.237-0.569,0.118l-1.114-0.735v1.588c2.156-0.474,4.218-0.924,6.208-1.327v-2.275l-1.208,0.806
				c-0.284,0.19-0.663,0.118-0.853-0.166s-0.118-0.663,0.166-0.853l1.896-1.256v-0.711l-0.758,0.498
				c-0.284,0.166-0.663,0.095-0.853-0.19c-0.166-0.284-0.095-0.663,0.19-0.853l1.422-0.924v-0.45l-0.45,0.332
				c-0.284,0.19-0.663,0.118-0.853-0.142c-0.19-0.284-0.142-0.663,0.142-0.853l1.422-1.043h0.024
				c0.095-0.071,0.213-0.118,0.332-0.118s0.237,0.047,0.332,0.118h0.024l1.445,1.043c0.284,0.19,0.332,0.569,0.142,0.853
				c-0.118,0.166-0.308,0.261-0.498,0.261c-0.118,0-0.261-0.047-0.355-0.118l-0.474-0.332v0.45l1.445,0.924
				c0.284,0.19,0.355,0.569,0.19,0.853c-0.118,0.19-0.332,0.284-0.521,0.284c-0.118,0-0.237-0.047-0.332-0.095l-0.782-0.498v0.711
				l1.896,1.256c0.284,0.19,0.355,0.569,0.166,0.853c-0.118,0.166-0.308,0.284-0.521,0.284c-0.118,0-0.237-0.047-0.332-0.118
				l-1.208-0.806v2.014c5.332-1.09,10.118-1.943,14.36-2.559c0.071-1.114,0.118-2.227,0.118-3.341v-0.427l-0.118-0.166
				l-13.673-20.805l-4.976,3.649l2.085,3.436c0,0,0,0,0.024,0l2.63,4.55l4.431,2.772c0.379,0.261,0.498,0.758,0.261,1.137
				c-0.166,0.261-0.427,0.379-0.687,0.379c-0.166,0-0.308-0.024-0.45-0.118l-4.597-2.891c-0.118-0.071-0.213-0.166-0.261-0.284
				l-1.659-2.844l-0.308,1.517v5.9c0,0.45-0.355,0.829-0.806,0.829s-0.829-0.379-0.829-0.829v-6.066l0.687-3.483l-2.299-3.744
				l-7.464-11.042l-9.668,13.862l4.715,7.962c0.213,0.403,0.095,0.9-0.308,1.114c-0.118,0.095-0.261,0.118-0.403,0.118l-5.64-8.72
				l-0.047-0.071l-13.27-22.393l-5.971,6.824l3.554,7.914l4.502,1.99c0.213,0.095,0.355,0.261,0.45,0.45l3.46,9.099
				c0.142,0.427-0.071,0.9-0.474,1.066c-0.095,0.024-0.213,0.047-0.308,0.047c-0.332,0-0.64-0.213-0.758-0.521l-3.341-8.791
				l-3.412-1.493l-0.687,9.052c-0.047,0.45-0.403,0.758-0.829,0.758c-0.024,0-0.024,0-0.047,0c-0.237-0.024-0.427-0.118-0.545-0.261
				c-0.047-0.047-0.071-0.095-0.118-0.166c-0.024-0.024-0.024-0.071-0.047-0.118s-0.024-0.095-0.024-0.166l-0.024-0.166v-0.071
				l0.758-9.952l-3.791-8.436l-10.142-17.867l-0.9,1.28l-20.307,28.577l-0.095,0.118c0,0,0,0-0.024,0c0,0.024,0,0.024,0,0.024
				l-3.128,3.862l-0.427,0.545c-0.166,0.19-0.403,0.308-0.64,0.308c-0.19,0-0.355-0.071-0.521-0.19l0.261-1.611v-0.024l2.749-3.389
				l-6.659-7.749l-1.232,1.327l-15.189,16.161c-0.403,2.701-0.592,5.474-0.592,8.222c0,1.493,0.047,2.915,0.166,4.289
				c2.275,0.261,5.687,0.711,10.071,1.493c0.213,0,0.948-0.024,2.062-0.047V272.215z M310.211,272.144v0.663
				c0,1.374-0.047,2.725-0.142,4.123c-0.095,1.588-0.284,3.246-0.545,4.905c-0.284,1.943-0.687,3.957-1.208,6.019
				c-1.066,4.194-2.63,8.317-4.644,12.275c-1.848,3.625-4.076,7.085-6.659,10.284c0,0.024-0.024,0.024-0.024,0.024
				c-2.796,3.531-5.995,6.706-9.502,9.502c-4.147,3.294-8.649,6.019-13.412,8.057c0,0,0,0.024-0.024,0.024
				c-7.606,3.317-15.687,5-24.051,5c-7.061,0-14.004-1.208-20.592-3.625c-11.706-4.265-22.037-12.298-29.122-22.63
				c-2.038-2.986-3.815-6.185-5.284-9.455c-1.327-2.986-2.441-6.161-3.294-9.455c-0.853-3.223-1.398-6.564-1.682-9.952
				c-0.142-1.635-0.213-3.317-0.213-5.095c0-2.915,0.213-5.853,0.616-8.72c4.242-29.359,29.857-51.491,59.572-51.491
				c16.421,0,31.373,6.682,42.297,17.464C303.197,240.842,310.045,255.723,310.211,272.144z M295.685,249.775l12.772,19.478
				c-1.848-30.449-27.25-54.785-58.031-55.022c-0.142,0-0.284,0-0.427,0c-28.009,0-52.273,20.213-57.486,47.439l15.402-16.35
				c0.142-0.166,0.379-0.261,0.616-0.261c0.213,0,0.45,0.095,0.592,0.284l6.99,8.175l21.445-30.165
				c0.166-0.213,0.427-0.355,0.711-0.332c0.284,0,0.521,0.166,0.663,0.403l1.422,2.512l8.815,15.473l6.279-7.204
				c0.166-0.19,0.427-0.308,0.687-0.284c0.261,0.024,0.498,0.19,0.64,0.403l13.199,22.274l9.929-14.241
				c0.142-0.213,0.332-0.355,0.663-0.355c0.284,0,0.521,0.142,0.687,0.355l7.654,11.327l5.592-4.123
				c0.19-0.118,0.427-0.166,0.64-0.142C295.354,249.467,295.543,249.585,295.685,249.775z M308.007,280.911
				c0.142-1.043,0.261-2.062,0.332-3.08c-5.829,0.853-12.725,2.156-20.568,3.91C295.33,281.22,302.486,280.983,308.007,280.911z
				 M306.87,286.835c0.355-1.469,0.64-2.891,0.877-4.289c-8.294,0.142-20.165,0.569-31.468,1.872c-0.024,0-0.024,0-0.047,0
				c-3.768,0.45-7.346,0.972-10.616,1.564c0,0,0,0-0.024,0.024c-2.512,0.45-4.81,0.972-6.872,1.517
				c-0.024,0.521-0.071,1.066-0.166,1.635c6.493-1.564,14.905-2.227,16.113-2.322c0.071,0,0.142,0,0.19,0c0.024,0,0.024,0,0.024,0
				h0.024H306.87z M306.443,288.47h-4.218c-1.137,0.213-15.853,3.08-27.677,8.08c4.384,0.877,7.772,1.754,10.308,2.701
				c9.076-2.346,15.568-1.043,17.654-0.474C304.145,295.437,305.472,291.978,306.443,288.47z M296.017,309.015
				c2.18-2.725,4.076-5.663,5.711-8.744c-2.038-0.474-7.275-1.351-14.407,0.095c2.299,1.232,3.436,2.583,3.46,4.123
				c0.047,1.611-1.161,3.199-3.673,4.881C290.117,308.802,293.411,308.494,296.017,309.015z M294.643,288.47h-19.691
				c-7.512,2.133-10.166,4.099-10.118,4.905c0,0.142,0.261,1.422,6.872,2.63C279.217,292.546,288.387,289.987,294.643,288.47z
				 M294.809,310.484c-3.957-0.474-9.834,0.829-14.36,2.346h-0.024c-2.014,0.853-4.36,1.73-6.967,2.63
				c3.957,0.047,9.052,0.64,13.412,2.867C289.761,315.982,292.415,313.351,294.809,310.484z M289.145,304.536v-0.024
				c-0.024-1.208-1.611-2.464-4.644-3.625c-2.915-1.137-7.109-2.18-12.843-3.199c-5.758-1.043-8.365-2.346-8.459-4.242
				c-0.071-1.422,1.517-2.844,4.692-4.265c-0.332,0.047-0.687,0.095-1.043,0.142h-0.024c-2.844,0.379-5.948,0.924-8.649,1.611
				c-0.474,1.801-1.208,3.507-2.275,5.118c0,0.024-0.166,0.261-0.166,0.261l-0.427,0.616c2.038,1.517,3.91,2.962,3.483,4.644
				c-0.379,1.588-2.654,2.583-7.606,3.341c-0.403,0.071-0.829,0.118-1.28,0.19l-7.914,11.966c-0.213,0.308-0.545,0.45-0.877,0.474
				c-0.332,0-0.663-0.166-0.853-0.427l-7.156-10.829c-10.189,0.45-20.213,0.711-30.52,0.806c0.45,0.64,0.924,1.256,1.422,1.872
				c0.403,0.521,0.829,1.043,1.256,1.54c0.45,0.545,0.924,1.09,1.422,1.611c0.284,0.332,0.592,0.663,0.924,0.995
				c0.379,0.403,0.758,0.806,1.161,1.185c3.697,3.697,7.891,6.896,12.417,9.455c0.403,0.237,0.806,0.474,1.232,0.687
				c0.569,0.308,1.137,0.616,1.706,0.877c0.569,0.308,1.137,0.569,1.706,0.829c1.256,0.569,2.535,1.114,3.839,1.588
				c4.81-2.156,10.711-4.265,17.559-6.303c2.109-0.616,4.313-1.232,6.682-1.848c4.763-1.256,9.123-2.512,12.938-3.673
				c5.142-1.588,9.502-3.128,12.938-4.597c0.024,0,0.047,0,0.071-0.024C287.913,307.854,289.145,305.603,289.145,304.536z
				 M273.885,326.289c4.052-1.801,7.914-4.123,11.516-6.848c-7.63-3.507-17.606-2.038-18.127-1.967
				c-3.839,1.185-8.175,2.441-12.938,3.697c-0.521,0.118-1.019,0.261-1.54,0.403C259.312,321.905,269.904,322.972,273.885,326.289z
				 M272.132,327.024c-4.881-3.104-17.89-3.957-24.62-3.957c-5.948,1.754-11.161,3.602-15.568,5.474
				c5.829,1.872,11.895,2.844,18.056,2.844C257.677,331.384,265.094,329.915,272.132,327.024z M261.776,285.106
				c-0.972-0.237-2.014-0.474-3.104-0.687c0.047,0.498,0.095,0.948,0.095,1.398C259.715,285.58,260.734,285.319,261.776,285.106z
				 M257.203,301.172c0.166-0.64-1.517-1.919-2.796-2.867l-3.27,4.952c0,0,0,0,0.024,0
				C256.634,302.404,257.156,301.385,257.203,301.172z M257.132,286.859c0.024-0.19,0.024-0.332,0.024-0.45
				c0-0.616-0.047-1.256-0.118-1.99c-0.047-0.308-0.095-0.592-0.142-0.877c0-0.024,0-0.024,0-0.024
				c-1.232-6.943-6.967-12.298-13.957-13.08c-7.061-0.782-13.72,3.057-16.54,9.549c-0.711,1.635-1.137,3.365-1.28,5.166
				c-0.047,0.403-0.047,0.806-0.047,1.232c0,0.403,0,0.806,0.047,1.185c0.19,2.607,1.019,5.118,2.393,7.298
				c0.19,0.308,0.379,0.592,0.569,0.877l6.137,9.265l6.896,10.426l7.63-11.54l4.787-7.227l0.829-1.256
				c0.047-0.071,0.095-0.142,0.142-0.213c1.066-1.635,1.801-3.341,2.204-5.118C256.99,288.992,257.132,287.902,257.132,286.859z
				 M232.062,304.702l-3.554-5.355c-3.033-0.427-6.09-0.758-9.076-0.995c-10.355-0.829-19.241-0.687-22.416-0.616
				c1.256,2.678,2.725,5.284,4.384,7.749C211.778,305.389,221.825,305.129,232.062,304.702z M227.323,297.546l-0.569-0.877
				c-0.213-0.284-0.45-0.616-0.64-0.972c-1.374-2.133-2.227-4.644-2.535-7.227H193.58c0.735,2.654,1.635,5.213,2.701,7.654
				c2.393-0.071,11.99-0.308,23.293,0.592C222.109,296.93,224.716,297.214,227.323,297.546z M223.602,284.016
				c0.166-1.232,0.45-2.417,0.853-3.578c-1.682-0.071-3.341-0.142-4.905-0.19c-4.005-0.118-7.583-0.142-10.45-0.142
				C213.958,281.22,218.816,282.499,223.602,284.016z M223.436,286.385c0-0.237,0-0.474,0.024-0.687
				c-7.227-2.299-14.62-4.147-21.99-5.474c-4.147-0.735-7.441-1.185-9.715-1.445c0.284,2.725,0.735,5.426,1.374,8.057h30.307
				C223.436,286.67,223.436,286.527,223.436,286.385z"/>
		</g>
		<g>
			<path fill="#008482" d="M308.576,272.381v0.427c0,1.114-0.047,2.227-0.118,3.341c-4.242,0.616-9.028,1.469-14.36,2.559v-2.014
				l1.208,0.806c0.095,0.071,0.213,0.118,0.332,0.118c0.213,0,0.403-0.118,0.521-0.284c0.19-0.284,0.118-0.663-0.166-0.853
				l-1.896-1.256v-0.711l0.782,0.498c0.095,0.047,0.213,0.095,0.332,0.095c0.19,0,0.403-0.095,0.521-0.284
				c0.166-0.284,0.095-0.663-0.19-0.853l-1.445-0.924v-0.45l0.474,0.332c0.095,0.071,0.237,0.118,0.355,0.118
				c0.19,0,0.379-0.095,0.498-0.261c0.19-0.284,0.142-0.663-0.142-0.853l-1.445-1.043h-0.024c-0.095-0.071-0.213-0.118-0.332-0.118
				s-0.237,0.047-0.332,0.118h-0.024l-1.422,1.043c-0.284,0.19-0.332,0.569-0.142,0.853c0.19,0.261,0.569,0.332,0.853,0.142
				l0.45-0.332v0.45l-1.422,0.924c-0.284,0.19-0.355,0.569-0.19,0.853c0.19,0.284,0.569,0.355,0.853,0.19l0.758-0.498v0.711
				l-1.896,1.256c-0.284,0.19-0.355,0.569-0.166,0.853s0.569,0.355,0.853,0.166l1.208-0.806v2.275
				c-1.99,0.403-4.052,0.853-6.208,1.327v-1.588l1.114,0.735c0.19,0.118,0.427,0.071,0.569-0.118
				c0.118-0.166,0.071-0.427-0.118-0.569l-1.564-1.019v-0.782l0.758,0.474c0.071,0.047,0.142,0.047,0.213,0.047
				c0.142,0,0.284-0.047,0.355-0.19c0.118-0.19,0.047-0.427-0.142-0.569l-1.185-0.735v-0.616l0.521,0.379
				c0.071,0.047,0.166,0.071,0.237,0.071c0.142,0,0.261-0.071,0.332-0.166c0.142-0.19,0.095-0.45-0.095-0.592l-1.161-0.806
				c-0.142-0.095-0.332-0.095-0.474,0l-1.161,0.806c-0.19,0.142-0.237,0.403-0.095,0.592c0.118,0.166,0.379,0.213,0.569,0.095
				l0.521-0.379v0.616l-1.208,0.735c-0.19,0.118-0.237,0.379-0.118,0.569c0.118,0.19,0.355,0.261,0.569,0.142l0.758-0.474v0.758
				l-1.564,1.043c-0.19,0.142-0.261,0.379-0.118,0.569c0.071,0.118,0.213,0.19,0.332,0.19c0.071,0,0.166-0.024,0.237-0.071
				l1.114-0.735v1.777c-3.128,0.711-6.398,1.469-9.81,2.322c-2.844,0.332-5.592,0.711-8.151,1.137v-4.265l2.133,1.422
				c0.142,0.095,0.284,0.142,0.45,0.142c0.261,0,0.521-0.142,0.687-0.379c0.237-0.379,0.142-0.877-0.237-1.137l-3.033-2.014v-1.469
				l1.445,0.924c0.142,0.071,0.284,0.118,0.427,0.118c0.284,0,0.545-0.142,0.711-0.379c0.237-0.379,0.118-0.877-0.261-1.137
				l-2.322-1.469v-1.114l0.972,0.711c0.142,0.095,0.308,0.142,0.474,0.142c0.237,0,0.498-0.118,0.663-0.332
				c0.261-0.379,0.166-0.877-0.19-1.161l-2.275-1.611c0,0-0.024,0-0.047-0.024c-0.118-0.071-0.261-0.118-0.427-0.118
				c-0.142,0-0.284,0.047-0.427,0.118c0,0.024-0.024,0.024-0.047,0.024l-2.251,1.611c-0.379,0.284-0.45,0.782-0.19,1.161
				c0.261,0.355,0.758,0.45,1.137,0.19l0.972-0.711v1.114l-2.322,1.469c-0.379,0.261-0.498,0.758-0.261,1.137
				c0.237,0.379,0.758,0.498,1.137,0.261l1.445-0.924v1.469l-3.057,2.014c-0.379,0.261-0.474,0.758-0.213,1.137
				c0.237,0.379,0.758,0.474,1.137,0.237l2.133-1.422v4.55c-0.261,0.047-0.498,0.071-0.758,0.118
				c-2.085-0.569-4.431-1.114-7.109-1.682c-1.564-7.346-7.749-13.033-15.26-13.862c-7.606-0.829-14.763,3.175-17.985,10.023
				c-1.635-0.071-3.223-0.142-4.739-0.19v-9.17l3.27,3.27c0.308,0.332,0.829,0.332,1.161,0c0.308-0.308,0.308-0.829,0-1.161
				l-4.431-4.431v-2.37l2.299,2.299c0.332,0.308,0.829,0.308,1.161,0c0.308-0.332,0.308-0.853,0-1.161l-3.46-3.46v-2.038
				l1.706,1.706c0.332,0.308,0.829,0.308,1.161,0c0.308-0.332,0.308-0.829,0-1.161l-3.104-3.104
				c-0.095-0.071-0.166-0.142-0.284-0.19c-0.19-0.071-0.427-0.071-0.616,0c-0.095,0.047-0.19,0.095-0.261,0.166c0,0,0,0,0,0.024
				l-3.128,3.104l-2.18-1.754l3.128-3.862c0,0,0,0,0-0.024c0.024,0,0.024,0,0.024,0l0.095-0.118l21.54-26.231l12.014,22.653
				l0.829,9.976v0.071c0,0.047,0,0.118,0.024,0.166c0,0.071,0,0.118,0.024,0.166c0,0.047,0.024,0.095,0.047,0.118
				c0.024,0.071,0.071,0.118,0.118,0.166c0.118,0.142,0.308,0.237,0.545,0.261c0.024,0,0.024,0,0.047,0
				c0.427,0,0.782-0.308,0.829-0.758l0.687-9.052l3.412,1.493l3.341,8.791c0.118,0.308,0.427,0.521,0.758,0.521
				c0.095,0,0.213-0.024,0.308-0.047c0.403-0.166,0.616-0.64,0.474-1.066l-3.46-9.099c-0.095-0.19-0.237-0.355-0.45-0.45
				l-4.502-1.99l-3.554-7.914l5.758-4.17l13.483,19.739l0.047,0.071l4.929,8.317c0.166,0.261,0.427,0.403,0.711,0.403
				c0.142,0,0.284-0.024,0.403-0.118c0.403-0.213,0.521-0.711,0.308-1.114l-4.715-7.962l9.692-9.834l8.744,10.9l-0.663,3.768
				l0.972,5.64c0,0.45,0.379,0.829,0.829,0.829s0.806-0.379,0.806-0.829v-5.9l0.403-0.45l1.137,2.37l5.284,2.583
				c0.142,0.095,0.284,0.118,0.45,0.118c0.261,0,0.521-0.118,0.687-0.379c0.237-0.379,0.118-0.877-0.261-1.137l-4.431-2.772
				l-2.63-4.55c-0.024,0-0.024,0-0.024,0l-2.085-3.436l4.526-1.659l14.123,18.815L308.576,272.381z M283.15,256.031
				c0-0.355-0.142-0.711-0.403-0.948c-0.237-0.261-0.569-0.403-0.924-0.403c-0.118-0.569-0.64-1.019-1.256-1.019
				c-0.166,0-0.332,0.047-0.474,0.095c-0.332-0.237-0.758-0.379-1.185-0.379c-0.853,0-1.588,0.545-1.872,1.351
				c-0.592,0.142-1.043,0.663-1.043,1.303c0,0.735,0.616,1.327,1.351,1.327h4.455C282.558,257.358,283.15,256.765,283.15,256.031z
				 M240.261,250.296c0-0.545-0.213-1.066-0.616-1.445c-0.379-0.379-0.877-0.592-1.422-0.592c-0.19-0.9-0.972-1.564-1.919-1.564
				c-0.261,0-0.521,0.047-0.758,0.142c-0.521-0.379-1.137-0.592-1.801-0.592c-1.303,0-2.464,0.829-2.867,2.062
				c-0.924,0.213-1.611,1.043-1.611,1.99c0,1.161,0.924,2.085,2.062,2.085h6.872C239.336,252.382,240.261,251.457,240.261,250.296z"
				/>
		</g>
		<g>
			<polygon fill="#FDC000" points="294.785,251.41 308.458,272.215 294.335,253.4 289.809,255.059 			"/>
		</g>
		<g>
			<path fill="#FDC000" d="M308.458,269.253l-12.772-19.478c-0.142-0.19-0.332-0.308-0.545-0.355
				c-0.213-0.024-0.45,0.024-0.64,0.142l-5.592,4.123l-7.654-11.327c-0.166-0.213-0.403-0.355-0.687-0.355
				c-0.332,0-0.521,0.142-0.663,0.355l-9.929,14.241l-13.199-22.274c-0.142-0.213-0.379-0.379-0.64-0.403
				c-0.261-0.024-0.521,0.095-0.687,0.284l-6.279,7.204l-8.815-15.473l3.057-1.73c0.427,0.616,1.114,1.019,1.919,1.019h7.725
				c1.28,0,2.322-1.043,2.322-2.322c0-1.09-0.782-2.014-1.801-2.251c-0.474-1.374-1.777-2.322-3.246-2.322l0.095-4.099
				C281.207,214.468,306.609,238.804,308.458,269.253z M282.7,233.164c0-1.398-0.995-2.63-2.346-2.938
				c-0.616-1.801-2.322-3.033-4.242-3.033c-0.972,0-1.896,0.308-2.654,0.877c-0.355-0.142-0.711-0.213-1.114-0.213
				c-1.374,0-2.535,0.972-2.796,2.299c-0.806,0-1.54,0.308-2.109,0.877c-0.569,0.569-0.9,1.327-0.9,2.133
				c0,1.682,1.374,3.033,3.033,3.033h10.094C281.349,236.197,282.7,234.847,282.7,233.164z"/>
		</g>
		<g>
			<path fill="#F4AA06" d="M308.339,277.831c-0.071,1.019-0.19,2.038-0.332,3.08c-5.521,0.071-12.677,0.308-20.236,0.829
				C295.614,279.987,302.51,278.684,308.339,277.831z"/>
		</g>
		<g>
			<path fill="#C4D113" d="M307.747,282.547c-0.237,1.398-0.521,2.82-0.877,4.289h-31.966h-0.024c0,0,0,0-0.024,0
				c-0.047,0-0.118,0-0.19,0c-1.208,0.095-9.621,0.758-16.113,2.322c0.095-0.569,0.142-1.114,0.166-1.635
				c2.062-0.545,4.36-1.066,6.872-1.517c0.024-0.024,0.024-0.024,0.024-0.024c3.27-0.592,6.848-1.114,10.616-1.564
				c0.024,0,0.024,0,0.047,0C287.581,283.115,299.453,282.689,307.747,282.547z"/>
		</g>
		<g>
			<path fill="#C3EF0C" d="M302.225,288.47h4.218c-0.972,3.507-2.299,6.967-3.934,10.308c-2.085-0.569-8.578-1.872-17.654,0.474
				c-2.535-0.948-5.924-1.825-10.308-2.701C286.373,291.551,301.088,288.684,302.225,288.47z"/>
		</g>
		<g>
			<path fill="#FDC000" d="M298.102,267.215l-5.284-2.583l-1.137-2.37l-0.403,0.45l0.308-1.517l1.659,2.844
				c0.047,0.118,0.142,0.213,0.261,0.284L298.102,267.215z"/>
		</g>
		<g>
			<path fill="#1C9BD3" d="M301.728,300.271c-1.635,3.08-3.531,6.019-5.711,8.744c-2.607-0.521-5.9-0.213-8.91,0.355
				c2.512-1.682,3.72-3.27,3.673-4.881c-0.024-1.54-1.161-2.891-3.46-4.123C294.453,298.92,299.69,299.797,301.728,300.271z"/>
		</g>
		<g>
			<path fill="#7FD311" d="M274.951,288.47h19.691c-6.256,1.517-15.426,4.076-22.938,7.535c-6.611-1.208-6.872-2.488-6.872-2.63
				C264.786,292.57,267.44,290.603,274.951,288.47z"/>
		</g>
		<g>
			<path fill="#44B9E2" d="M280.449,312.83c4.526-1.517,10.403-2.82,14.36-2.346c-2.393,2.867-5.047,5.497-7.938,7.843
				c-4.36-2.227-9.455-2.82-13.412-2.867c2.607-0.9,4.952-1.777,6.967-2.63H280.449z"/>
		</g>
		<g>
			<polygon fill="#FDC000" points="288.032,255.32 290.33,259.064 289.643,262.547 289.643,268.613 288.671,262.974 
				289.335,259.206 280.591,248.306 270.899,258.14 280.567,244.278 			"/>
		</g>
		<g>
			<path fill="#777777" d="M289.145,304.513v0.024c0,1.066-1.232,3.317-9.289,6.753c-0.024,0.024-0.047,0.024-0.071,0.024
				c-3.436,1.469-7.796,3.009-12.938,4.597c-3.815,1.161-8.175,2.417-12.938,3.673c-2.37,0.616-4.573,1.232-6.682,1.848
				c-6.848,2.038-12.748,4.147-17.559,6.303c-1.303-0.474-2.583-1.019-3.839-1.588c5.474-2.156,10.924-3.981,16.208-5.592
				c16.137-4.976,30.71-8.033,39.193-12.867c11.137-6.398-14.431-7.275-18.72-11.682c-2.938-3.009,1.351-5.426,4.313-6.682h0.024
				c0.355-0.047,0.711-0.095,1.043-0.142c-3.175,1.422-4.763,2.844-4.692,4.265c0.095,1.896,2.701,3.199,8.459,4.242
				c5.734,1.019,9.929,2.062,12.843,3.199C287.534,302.048,289.122,303.304,289.145,304.513z"/>
		</g>
		<g>
			<path d="M282.747,255.083c0.261,0.237,0.403,0.592,0.403,0.948c0,0.735-0.592,1.327-1.351,1.327h-4.455
				c-0.735,0-1.351-0.592-1.351-1.327c0-0.64,0.45-1.161,1.043-1.303c0.284-0.806,1.019-1.351,1.872-1.351
				c0.427,0,0.853,0.142,1.185,0.379c0.142-0.047,0.308-0.095,0.474-0.095c0.616,0,1.137,0.45,1.256,1.019
				C282.179,254.68,282.51,254.822,282.747,255.083z M281.8,256.836c0.45,0,0.806-0.355,0.806-0.806
				c0-0.213-0.071-0.427-0.237-0.569c-0.142-0.166-0.355-0.237-0.569-0.237l-0.474-0.024v-0.261c0-0.403-0.332-0.735-0.758-0.735
				c-0.118,0-0.261,0.024-0.379,0.095l-0.166,0.118l-0.142-0.142c-0.261-0.237-0.616-0.355-0.972-0.355
				c-0.663,0-1.232,0.45-1.398,1.09l-0.047,0.19l-0.19,0.024c-0.427,0.024-0.735,0.379-0.735,0.806c0,0.45,0.355,0.806,0.806,0.806
				H281.8z"/>
		</g>
		<g>
			<path fill="#FFFFFF" d="M282.605,256.031c0,0.45-0.355,0.806-0.806,0.806h-4.455c-0.45,0-0.806-0.355-0.806-0.806
				c0-0.427,0.308-0.782,0.735-0.806l0.19-0.024l0.047-0.19c0.166-0.64,0.735-1.09,1.398-1.09c0.355,0,0.711,0.118,0.972,0.355
				l0.142,0.142l0.166-0.118c0.118-0.071,0.261-0.095,0.379-0.095c0.427,0,0.758,0.332,0.758,0.735v0.261l0.474,0.024
				c0.213,0,0.427,0.071,0.569,0.237C282.534,255.604,282.605,255.817,282.605,256.031z"/>
		</g>
		<g>
			<path fill="#9B9B9B" d="M262.511,296.006c4.289,4.407,29.857,5.284,18.72,11.682c-8.483,4.834-23.056,7.891-39.193,12.867
				l-0.924-3.009c0.332-0.024,0.663-0.166,0.877-0.474l7.914-11.966c0.45-0.071,0.877-0.118,1.28-0.19
				c4.952-0.758,7.227-1.754,7.606-3.341c0.427-1.682-1.445-3.128-3.483-4.644l0.427-0.616c0,0,0.166-0.237,0.166-0.261
				c1.066-1.611,1.801-3.317,2.275-5.118c2.701-0.687,5.806-1.232,8.649-1.611C263.862,290.579,259.573,292.996,262.511,296.006z"/>
		</g>
		<g>
			<path d="M280.354,230.226c1.351,0.308,2.346,1.54,2.346,2.938c0,1.682-1.351,3.033-3.033,3.033h-10.094
				c-1.659,0-3.033-1.351-3.033-3.033c0-0.806,0.332-1.564,0.9-2.133c0.569-0.569,1.303-0.877,2.109-0.877
				c0.261-1.327,1.422-2.299,2.796-2.299c0.403,0,0.758,0.071,1.114,0.213c0.758-0.569,1.682-0.877,2.654-0.877
				C278.032,227.193,279.738,228.425,280.354,230.226z M281.492,233.164c0-0.924-0.735-1.73-1.659-1.801l-0.427-0.024l-0.118-0.427
				c-0.355-1.469-1.659-2.512-3.175-2.512c-0.806,0-1.588,0.308-2.18,0.829l-0.332,0.284l-0.379-0.213
				c-0.261-0.166-0.545-0.261-0.877-0.261c-0.924,0-1.659,0.758-1.659,1.682v0.592l-1.114,0.047c-0.474,0-0.948,0.166-1.28,0.521
				c-0.355,0.355-0.545,0.806-0.545,1.28c0,1.019,0.829,1.848,1.825,1.848h10.094C280.686,235.012,281.492,234.183,281.492,233.164z
				"/>
		</g>
		<g>
			<path fill="#FFFFFF" d="M279.833,231.363c0.924,0.071,1.659,0.877,1.659,1.801c0,1.019-0.806,1.848-1.825,1.848h-10.094
				c-0.995,0-1.825-0.829-1.825-1.848c0-0.474,0.19-0.924,0.545-1.28c0.332-0.355,0.806-0.521,1.28-0.521l1.114-0.047v-0.592
				c0-0.924,0.735-1.682,1.659-1.682c0.332,0,0.616,0.095,0.877,0.261l0.379,0.213l0.332-0.284c0.592-0.521,1.374-0.829,2.18-0.829
				c1.517,0,2.82,1.043,3.175,2.512l0.118,0.427L279.833,231.363z"/>
		</g>
		<g>
			<path fill="#6DE5E8" d="M285.401,319.441c-3.602,2.725-7.464,5.047-11.516,6.848c-3.981-3.317-14.573-4.384-21.089-4.715
				c0.521-0.142,1.019-0.284,1.54-0.403c4.763-1.256,9.099-2.512,12.938-3.697C267.795,317.403,277.771,315.934,285.401,319.441z"/>
		</g>
		<g>
			<path d="M269.264,258.614l5.64,8.72c-0.284,0-0.545-0.142-0.711-0.403L269.264,258.614z"/>
		</g>
		<g>
			<polygon fill="#FDC000" points="255.947,236.15 269.217,258.543 255.734,238.804 249.976,242.974 			"/>
		</g>
		<g>
			<path fill="#B2F4F9" d="M247.512,323.067c6.73,0,19.739,0.853,24.62,3.957c-7.038,2.891-14.455,4.36-22.132,4.36
				c-6.161,0-12.227-0.972-18.056-2.844C236.351,326.668,241.564,324.82,247.512,323.067z"/>
		</g>
		<g>
			<path fill="#F4AA06" d="M258.672,284.418c1.09,0.213,2.133,0.45,3.104,0.687c-1.043,0.213-2.062,0.474-3.009,0.711
				C258.767,285.366,258.72,284.916,258.672,284.418z"/>
		</g>
		<g>
			<path fill="#C3EF0C" d="M254.407,298.304c1.28,0.948,2.962,2.227,2.796,2.867c-0.047,0.213-0.569,1.232-6.042,2.085
				c-0.024,0-0.024,0-0.024,0L254.407,298.304z"/>
		</g>
		<g>
			<path fill="#FF4700" d="M257.156,286.409c0,0.118,0,0.261-0.024,0.45c0,1.043-0.142,2.133-0.427,3.223
				c-0.403,1.777-1.137,3.483-2.204,5.118c-0.047,0.071-0.095,0.142-0.142,0.213l-0.829,1.256l-4.787,7.227l-7.63,11.54
				l-6.896-10.426l-6.137-9.265c-0.19-0.284-0.379-0.569-0.569-0.877c-1.374-2.18-2.204-4.692-2.393-7.298
				c-0.047-0.379-0.047-0.782-0.047-1.185c0-0.427,0-0.829,0.047-1.232c0.142-1.801,0.569-3.531,1.28-5.166
				c2.82-6.493,9.478-10.331,16.54-9.549c6.99,0.782,12.725,6.137,13.957,13.08c0,0,0,0,0,0.024
				c0.047,0.284,0.095,0.569,0.142,0.877C257.108,285.153,257.156,285.793,257.156,286.409z M250.331,287.641
				c0.071-0.403,0.118-0.806,0.118-1.28c0-1.801-0.521-3.554-1.493-5.047c0,0-0.024-0.024-0.024-0.047c0,0,0,0-0.024,0
				c-1.706-2.654-4.621-4.242-7.796-4.242c-2.464,0-4.787,0.948-6.54,2.701c-1.801,1.754-2.796,4.099-2.796,6.635
				c0,0.545,0.047,0.995,0.142,1.398c0.355,2.607,1.825,4.929,4.028,6.374c1.517,1.019,3.317,1.564,5.166,1.564
				c2.204,0,4.36-0.782,6.042-2.227c0.024,0,0.024-0.024,0.047-0.024c0,0,0-0.024,0.024-0.024c1.682-1.469,2.796-3.483,3.104-5.616
				c0-0.047,0-0.095,0-0.142C250.331,287.641,250.331,287.641,250.331,287.641z"/>
		</g>
		<g>
			<path d="M253.578,220.653c1.019,0.237,1.801,1.161,1.801,2.251c0,1.28-1.043,2.322-2.322,2.322h-7.725
				c-0.806,0-1.493-0.403-1.919-1.019c-0.237-0.379-0.379-0.829-0.379-1.303c0-0.616,0.237-1.208,0.663-1.635
				s0.995-0.663,1.611-0.687c0.213-0.995,1.09-1.754,2.156-1.754c0.284,0,0.569,0.047,0.853,0.166
				c0.569-0.427,1.28-0.663,2.014-0.663C251.801,218.33,253.104,219.278,253.578,220.653z M254.454,222.904
				c0-0.711-0.569-1.327-1.28-1.374l-0.332-0.047l-0.071-0.308c-0.284-1.137-1.28-1.919-2.441-1.919
				c-0.616,0-1.208,0.237-1.659,0.64l-0.261,0.213l-0.284-0.166c-0.19-0.118-0.427-0.19-0.663-0.19c-0.711,0-1.28,0.569-1.28,1.28
				v0.45l-0.853,0.024c-0.355,0-0.711,0.142-0.972,0.403c-0.261,0.284-0.427,0.616-0.427,0.995c0,0.758,0.64,1.398,1.398,1.398
				h7.725C253.815,224.302,254.454,223.662,254.454,222.904z"/>
		</g>
		<g>
			<path fill="#FFFFFF" d="M253.175,221.529c0.711,0.047,1.28,0.663,1.28,1.374c0,0.758-0.64,1.398-1.398,1.398h-7.725
				c-0.758,0-1.398-0.64-1.398-1.398c0-0.379,0.166-0.711,0.427-0.995c0.261-0.261,0.616-0.403,0.972-0.403l0.853-0.024v-0.45
				c0-0.711,0.569-1.28,1.28-1.28c0.237,0,0.474,0.071,0.663,0.19l0.284,0.166l0.261-0.213c0.45-0.403,1.043-0.64,1.659-0.64
				c1.161,0,2.156,0.782,2.441,1.919l0.071,0.308L253.175,221.529z"/>
		</g>
		<g>
			<polygon fill="#FDC000" points="248.294,243.211 252.085,251.647 251.327,261.599 250.497,251.623 238.483,228.97 
				237.251,226.624 238.152,225.344 			"/>
		</g>
		<g>
			<path fill="#008482" d="M251.374,262.002c0.024,0.047,0.024,0.095,0.047,0.118C251.398,262.097,251.374,262.049,251.374,262.002z
				"/>
		</g>
		<g>
			<path d="M251.327,261.67l0.024,0.166C251.327,261.789,251.327,261.718,251.327,261.67z"/>
		</g>
		<g>
			<path d="M250.45,286.362c0,0.474-0.047,0.877-0.118,1.28c0,0,0,0,0,0.024c0,0.047,0,0.095,0,0.142
				c-0.308,2.133-1.422,4.147-3.104,5.616c-0.024,0-0.024,0.024-0.024,0.024c-0.024,0-0.024,0.024-0.047,0.024
				c-1.682,1.445-3.839,2.227-6.042,2.227c-1.848,0-3.649-0.545-5.166-1.564c-2.204-1.445-3.673-3.768-4.028-6.374
				c-0.095-0.403-0.142-0.853-0.142-1.398c0-2.535,0.995-4.881,2.796-6.635c1.754-1.753,4.076-2.701,6.54-2.701
				c3.175,0,6.09,1.588,7.796,4.242c0.024,0,0.024,0,0.024,0c0,0.024,0.024,0.047,0.024,0.047
				C249.929,282.807,250.45,284.561,250.45,286.362z M248.767,286.835c0.024-0.166,0.047-0.308,0.047-0.474
				c0-1.374-0.379-2.678-1.066-3.839c-3.862-0.545-7.986-0.995-12.251-1.374c-1.327,1.422-2.062,3.246-2.062,5.213
				c0,0.166,0.024,0.308,0.024,0.474H248.767z M248.483,288.47h-14.715c0.474,1.659,1.469,3.128,2.891,4.123
				c3.27-0.403,6.493-0.592,9.644-0.569C247.346,291.053,248.104,289.821,248.483,288.47z M239.905,293.897
				c1.09,0.166,2.227,0.095,3.294-0.19C242.109,293.755,241.019,293.802,239.905,293.897z M237.37,279.679
				c3.057,0.284,6.042,0.616,8.91,0.995c-1.398-1.28-3.223-2.014-5.166-2.014C239.763,278.66,238.507,279.04,237.37,279.679z"/>
		</g>
		<g>
			<path fill="#FDC000" d="M250.426,214.231l-0.095,4.099c-0.735,0-1.445,0.237-2.014,0.663c-0.284-0.118-0.569-0.166-0.853-0.166
				c-1.066,0-1.943,0.758-2.156,1.754c-0.616,0.024-1.185,0.261-1.611,0.687s-0.663,1.019-0.663,1.635
				c0,0.474,0.142,0.924,0.379,1.303l-3.057,1.73l-1.422-2.512c-0.142-0.237-0.379-0.403-0.663-0.403
				c-0.284-0.024-0.545,0.118-0.711,0.332l-21.445,30.165l-6.99-8.175c-0.142-0.19-0.379-0.284-0.592-0.284
				c-0.237,0-0.474,0.095-0.616,0.261l-15.402,16.35c5.213-27.227,29.478-47.439,57.486-47.439
				C250.142,214.231,250.284,214.231,250.426,214.231z M218.294,239.728c0-0.569-0.237-1.137-0.64-1.54
				c-0.403-0.403-0.948-0.616-1.517-0.64c-0.19-0.948-1.019-1.659-2.038-1.659c-0.261,0-0.545,0.047-0.782,0.166
				c-0.545-0.403-1.208-0.616-1.896-0.616c-1.398,0-2.63,0.877-3.057,2.18c-0.972,0.213-1.706,1.09-1.706,2.109
				c0,1.208,0.972,2.18,2.18,2.18h7.275C217.323,241.908,218.294,240.936,218.294,239.728z"/>
		</g>
		<g>
			<path fill="#F4AA06" d="M248.815,286.362c0,0.166-0.024,0.308-0.047,0.474H233.46c0-0.166-0.024-0.308-0.024-0.474
				c0-1.967,0.735-3.791,2.062-5.213c4.265,0.379,8.388,0.829,12.251,1.374C248.436,283.684,248.815,284.987,248.815,286.362z"/>
		</g>
		<g>
			<path fill="#7FD311" d="M233.768,288.47h14.715c-0.379,1.351-1.137,2.583-2.18,3.554c-3.152-0.024-6.374,0.166-9.644,0.569
				C235.237,291.598,234.242,290.129,233.768,288.47z"/>
		</g>
		<g>
			<path fill="#7FD311" d="M243.199,293.707c-1.066,0.284-2.204,0.355-3.294,0.19C241.019,293.802,242.109,293.755,243.199,293.707z
				"/>
		</g>
		<g>
			<path fill="#9B9B9B" d="M241.114,317.545l0.924,3.009c-5.284,1.611-10.734,3.436-16.208,5.592
				c-0.569-0.261-1.137-0.545-1.706-0.829c-0.569-0.261-1.137-0.569-1.706-0.877c-0.427-0.213-0.829-0.45-1.232-0.687
				c-4.526-2.559-8.72-5.758-12.417-9.455c-0.403-0.379-0.806-0.782-1.161-1.185c-0.332-0.332-0.64-0.663-0.924-0.995
				c-0.498-0.521-0.972-1.066-1.422-1.611c-0.427-0.521-0.853-1.019-1.256-1.54c-0.498-0.616-0.972-1.232-1.422-1.872
				c10.308-0.095,20.331-0.355,30.52-0.806l7.156,10.829C240.45,317.38,240.782,317.545,241.114,317.545z"/>
		</g>
		<g>
			<path fill="#F26608" d="M246.279,280.675c-2.867-0.379-5.853-0.711-8.91-0.995c1.137-0.64,2.393-1.019,3.744-1.019
				C243.057,278.66,244.881,279.395,246.279,280.675z"/>
		</g>
		<g>
			<path d="M239.644,248.851c0.403,0.379,0.616,0.9,0.616,1.445c0,1.161-0.924,2.085-2.062,2.085h-6.872
				c-1.137,0-2.062-0.924-2.062-2.085c0-0.948,0.687-1.777,1.611-1.99c0.403-1.232,1.564-2.062,2.867-2.062
				c0.663,0,1.28,0.213,1.801,0.592c0.237-0.095,0.498-0.142,0.758-0.142c0.948,0,1.73,0.663,1.919,1.564
				C238.768,248.258,239.265,248.472,239.644,248.851z M239.431,250.296c0-0.308-0.118-0.64-0.355-0.877
				c-0.237-0.213-0.545-0.355-0.877-0.355l-0.758-0.024v-0.403c0-0.616-0.498-1.137-1.137-1.137c-0.213,0-0.403,0.071-0.592,0.166
				l-0.261,0.166l-0.213-0.213c-0.403-0.355-0.948-0.545-1.493-0.545c-1.019,0-1.919,0.687-2.156,1.682l-0.071,0.308l-0.284,0.024
				c-0.64,0.047-1.137,0.592-1.137,1.208c0,0.687,0.545,1.256,1.232,1.256h6.872C238.886,251.552,239.431,250.984,239.431,250.296z"
				/>
		</g>
		<g>
			<path fill="#FFFFFF" d="M239.076,249.42c0.237,0.237,0.355,0.569,0.355,0.877c0,0.687-0.545,1.256-1.232,1.256h-6.872
				c-0.687,0-1.232-0.569-1.232-1.256c0-0.616,0.498-1.161,1.137-1.208l0.284-0.024l0.071-0.308
				c0.237-0.995,1.137-1.682,2.156-1.682c0.545,0,1.09,0.19,1.493,0.545l0.213,0.213l0.261-0.166
				c0.19-0.095,0.379-0.166,0.592-0.166c0.64,0,1.137,0.521,1.137,1.137v0.403l0.758,0.024
				C238.531,249.064,238.839,249.206,239.076,249.42z"/>
		</g>
		<g>
			<polygon fill="#FDC000" points="237.251,226.624 238.483,228.97 216.944,255.201 			"/>
		</g>
		<g>
			<path fill="#C3EF0C" d="M228.507,299.347l3.554,5.355c-10.237,0.427-20.284,0.687-30.663,0.782
				c-1.659-2.464-3.128-5.071-4.384-7.749c3.175-0.071,12.061-0.213,22.416,0.616C222.418,298.589,225.474,298.92,228.507,299.347z"
				/>
		</g>
		<g>
			<path fill="#7FD311" d="M226.754,296.669l0.569,0.877c-2.607-0.332-5.213-0.616-7.749-0.829c-11.303-0.9-20.9-0.663-23.293-0.592
				c-1.066-2.441-1.967-5-2.701-7.654h29.999c0.308,2.583,1.161,5.095,2.535,7.227C226.304,296.053,226.541,296.385,226.754,296.669
				z"/>
		</g>
		<g>
			<path fill="#F4AA06" d="M224.455,280.438c-0.403,1.161-0.687,2.346-0.853,3.578c-4.787-1.517-9.644-2.796-14.502-3.91
				c2.867,0,6.445,0.024,10.45,0.142C221.114,280.295,222.773,280.366,224.455,280.438z"/>
		</g>
		<g>
			<path fill="#C4D113" d="M223.46,285.698c-0.024,0.213-0.024,0.45-0.024,0.687c0,0.142,0,0.284,0,0.45h-30.307
				c-0.64-2.63-1.09-5.332-1.374-8.057c2.275,0.261,5.569,0.711,9.715,1.445C208.84,281.551,216.233,283.4,223.46,285.698z"/>
		</g>
		<g>
			<rect x="196.162" y="143.949" width="25.047" height="9.597"/>
		</g>
		<g>
			<path fill="#008482" d="M218.768,269.466v9.123c-5.9-0.166-10.758-0.118-13.791-0.071v-6.303l2.346,2.346
				c0.118,0.118,0.284,0.19,0.45,0.19c0.142,0,0.308-0.071,0.427-0.19c0.237-0.237,0.237-0.64,0-0.877l-3.223-3.223v-1.659
				l1.635,1.635c0.118,0.118,0.284,0.19,0.45,0.19c0.142,0,0.308-0.071,0.427-0.19c0.237-0.237,0.237-0.616,0-0.853l-2.512-2.535
				v-1.398l1.208,1.208c0.261,0.237,0.64,0.237,0.877,0c0.237-0.237,0.237-0.64,0-0.877l-2.251-2.251
				c-0.118-0.118-0.261-0.19-0.427-0.19c-0.024,0-0.024,0-0.024,0c-0.166,0-0.308,0.071-0.427,0.19l-2.275,2.251
				c-0.237,0.237-0.237,0.64,0,0.877c0.118,0.118,0.284,0.19,0.427,0.19c0.166,0,0.332-0.071,0.45-0.19l1.208-1.208v1.398
				l-2.512,2.535c-0.237,0.237-0.237,0.616,0,0.853c0.237,0.237,0.64,0.237,0.877,0l1.635-1.635v1.659l-3.223,3.223
				c-0.237,0.237-0.237,0.64,0,0.877s0.64,0.237,0.877,0l2.346-2.346v6.327c-1.114,0.024-1.848,0.047-2.062,0.047
				c-4.384-0.782-7.796-1.232-10.071-1.493c-0.118-1.374-0.166-2.796-0.166-4.289c0-2.749,0.19-5.521,0.592-8.222l16.255-14.952
				c0.355,0.403,0.711,0.806,1.043,1.208c0.45,0.521,0.9,1.019,1.327,1.493c0.261,0.284,0.498,0.569,0.711,0.806
				c0.118,0.118,0.213,0.261,0.332,0.379c0.711,0.806,1.185,1.327,1.185,1.327l-0.521,3.389v0.024l-0.379,0.45
				c-0.284,0.355-0.237,0.877,0.118,1.161c0.166,0.118,0.332,0.19,0.521,0.19c0.237,0,0.474-0.118,0.64-0.308l0.427-0.545
				l2.18,1.754c-0.332,0.308-0.332,0.829,0,1.161c0.142,0.166,0.355,0.237,0.569,0.237c0.213,0,0.427-0.071,0.569-0.237l1.754-1.73
				v2.062l-3.483,3.46c-0.332,0.308-0.332,0.829,0,1.161c0.142,0.166,0.355,0.237,0.569,0.237c0.213,0,0.427-0.071,0.592-0.237
				l2.322-2.299v2.37l-4.455,4.431c-0.332,0.332-0.332,0.853,0,1.161c0.166,0.166,0.379,0.237,0.569,0.237
				c0.213,0,0.427-0.071,0.592-0.237L218.768,269.466z"/>
		</g>
		<g>
			<path d="M217.655,238.188c0.403,0.403,0.64,0.972,0.64,1.54c0,1.208-0.972,2.18-2.18,2.18h-7.275c-1.208,0-2.18-0.972-2.18-2.18
				c0-1.019,0.735-1.896,1.706-2.109c0.427-1.303,1.659-2.18,3.057-2.18c0.687,0,1.351,0.213,1.896,0.616
				c0.237-0.118,0.521-0.166,0.782-0.166c1.019,0,1.848,0.711,2.038,1.659C216.707,237.572,217.252,237.785,217.655,238.188z
				 M217.418,239.728c0-0.355-0.118-0.663-0.379-0.924c-0.237-0.237-0.569-0.379-0.924-0.379l-0.806-0.024v-0.427
				c0-0.663-0.521-1.208-1.208-1.208c-0.213,0-0.427,0.047-0.616,0.166l-0.261,0.166l-0.237-0.213
				c-0.45-0.379-0.995-0.592-1.564-0.592c-1.114,0-2.038,0.758-2.299,1.801l-0.095,0.308l-0.308,0.024
				c-0.663,0.071-1.185,0.64-1.185,1.303c0,0.735,0.592,1.327,1.303,1.327h7.275C216.825,241.055,217.418,240.462,217.418,239.728z"
				/>
		</g>
		<g>
			<path fill="#FFFFFF" d="M217.039,238.804c0.261,0.261,0.379,0.569,0.379,0.924c0,0.735-0.592,1.327-1.303,1.327h-7.275
				c-0.711,0-1.303-0.592-1.303-1.327c0-0.663,0.521-1.232,1.185-1.303l0.308-0.024l0.095-0.308
				c0.261-1.043,1.185-1.801,2.299-1.801c0.569,0,1.114,0.213,1.564,0.592l0.237,0.213l0.261-0.166
				c0.19-0.118,0.403-0.166,0.616-0.166c0.687,0,1.208,0.545,1.208,1.208v0.427l0.806,0.024
				C216.47,238.425,216.802,238.567,217.039,238.804z"/>
		</g>
		<g>
			<path fill="#FDC000" d="M208.461,247.097l6.659,7.749l-2.749,3.389l0.521-3.389c0,0-0.474-0.521-1.185-1.327
				c-0.095-0.118-0.213-0.237-0.332-0.379c-0.213-0.237-0.45-0.521-0.711-0.806c-0.403-0.474-0.853-0.972-1.327-1.493
				c-0.332-0.403-0.687-0.806-1.043-1.208c-0.379-0.427-0.735-0.829-1.066-1.208L208.461,247.097z"/>
		</g>
		<g>
			<path d="M212.37,258.258l-0.261,1.611c-0.355-0.284-0.403-0.806-0.118-1.161L212.37,258.258z"/>
		</g>
		<g>
			<path fill="#008482" d="M211.375,253.14c0.118,0.142,0.237,0.261,0.332,0.379C211.588,253.4,211.494,253.258,211.375,253.14z"/>
		</g>
		<g>
			<path fill="#008482" d="M210.664,252.334c-0.427-0.474-0.877-0.972-1.327-1.493C209.811,251.363,210.261,251.86,210.664,252.334z
				"/>
		</g>
		<g>
			<path fill="#FDC000" d="M207.228,248.424c0.332,0.379,0.687,0.782,1.066,1.208l-16.255,14.952L207.228,248.424z"/>
		</g>
		<g>
			<path fill="#9B9B9B" d="M205.262,310.508c0.45,0.545,0.924,1.09,1.422,1.611C206.186,311.598,205.712,311.053,205.262,310.508z"
				/>
		</g>
		<g>
			<path fill="#9B9B9B" d="M204.006,308.967c0.403,0.521,0.829,1.019,1.256,1.54C204.835,310.01,204.409,309.489,204.006,308.967z"
				/>
		</g>
		<g>
			<path d="M159.457,215.582c0,0.024,0,0.024,0,0.047H131.78c0-0.024,0-0.024,0-0.047c0-7.512,6.09-13.601,13.601-13.601h0.474
				C153.367,201.98,159.457,208.07,159.457,215.582z"/>
		</g>
		<g>
			<path d="M131.78,215.629h27.677c-0.024,7.512-6.114,13.578-13.601,13.578h-0.474C137.894,229.207,131.804,223.141,131.78,215.629
				z"/>
		</g>
	</g>
	<g>
		<g>
			<rect x="103.631" y="335.364" width="105.352" height="9.478"/>
		</g>
		<g>
			<path d="M108.37,215.63h-9.478v-54.052c0-6.402,5.209-11.611,11.61-11.611h29.669v9.478h-29.669
				c-1.176,0-2.131,0.957-2.131,2.132V215.63z"/>
		</g>
		<g>
			<path d="M401.11,215.63h-9.478v-54.052c0-1.176-0.958-2.132-2.134-2.132H183.012v-9.478h206.486
				c6.403,0,11.612,5.209,11.612,11.611V215.63z"/>
		</g>
		<g>
			<rect x="291.042" y="335.364" width="105.329" height="9.478"/>
		</g>
		<g>
			<path d="M389.498,368.207H110.501c-6.401,0-11.61-5.209-11.61-11.612V210.891h43.531v9.478H108.37v136.226
				c0,1.176,0.956,2.134,2.131,2.134h278.997c1.176,0,2.134-0.958,2.134-2.134V220.369h-87.534v-9.478h97.012v145.705
				C401.11,362.998,395.901,368.207,389.498,368.207z"/>
		</g>
		<g>
			<rect x="152.944" y="210.891" width="42.957" height="9.478"/>
		</g>
		<g>
			<path d="M249.999,356.359c-15.377,0-30.414-4.223-43.488-12.211c-25.043-15.312-39.992-41.954-39.992-71.268
				c0-23.187,9.277-44.74,26.123-60.691c15.576-14.713,35.944-22.814,57.356-22.814c21.437,0,41.808,8.102,57.356,22.812
				c16.863,15.942,26.149,37.495,26.149,60.693c0,29.312-14.949,55.954-39.992,71.266l-0.005,0.002
				C280.413,352.136,265.367,356.359,249.999,356.359z M249.999,198.853c-18.982,0-37.039,7.181-50.844,20.223
				c-14.93,14.139-23.157,33.248-23.157,53.804c0,25.987,13.255,49.604,35.456,63.181c11.584,7.079,24.913,10.821,38.545,10.821
				c13.625,0,26.966-3.742,38.575-10.823c22.199-13.579,35.451-37.196,35.451-63.178c0-20.565-8.233-39.672-23.185-53.806
				C287.059,206.033,269.005,198.853,249.999,198.853z"/>
		</g>
		<g>
			<path d="M249.999,340.672c-37.381,0-67.795-30.411-67.795-67.793c0-37.395,30.414-67.818,67.795-67.818
				c37.395,0,67.818,30.423,67.818,67.818C317.818,310.261,287.395,340.672,249.999,340.672z M249.999,214.54
				c-32.156,0-58.317,26.172-58.317,58.34c0,32.154,26.16,58.314,58.317,58.314c32.168,0,58.34-26.16,58.34-58.314
				C308.339,240.712,282.167,214.54,249.999,214.54z"/>
		</g>
		<g>
			<polygon points="103.631,241.388 83.56,241.388 83.56,195.06 103.631,195.06 103.631,204.539 93.038,204.539 93.038,231.909 
				103.631,231.909 			"/>
		</g>
		<g>
			<polygon points="416.44,241.388 396.371,241.388 396.371,231.909 406.962,231.909 406.962,204.539 396.371,204.539 
				396.371,195.06 416.44,195.06 			"/>
		</g>
		<g>
			<path d="M187.751,159.446H135.43v-19.265c0-4.626,3.763-8.388,8.388-8.388h35.544c4.626,0,8.388,3.763,8.388,8.388V159.446z
				 M144.909,149.967h33.364v-8.696h-33.364V149.967z"/>
		</g>
		<g>
			<rect x="141.188" y="340.103" width="9.478" height="23.365"/>
		</g>
		<g>
			<rect x="349.333" y="340.103" width="9.478" height="23.365"/>
		</g>
	</g>
</g>
</svg>
