<?xml version="1.0" encoding="utf-8"?>
<!-- Generator: Adobe Illustrator 25.4.8, SVG Export Plug-In . SVG Version: 6.00 Build 0)  -->
<svg version="1.1" id="Layer_1" xmlns="http://www.w3.org/2000/svg" xmlns:xlink="http://www.w3.org/1999/xlink" x="0px" y="0px"
	 viewBox="0 0 568.531 146.756" enable-background="new 0 0 568.531 146.756" xml:space="preserve">
<g>
	<g id="XMLID_00000080203586709732041760000011614039298667848604_">
		<g>
			<g>
				<rect x="514.318" y="44.794" width="13.473" height="5.401"/>
			</g>
			<g>
				<path d="M512.998,77.277c3.062,0,5.548,2.485,5.548,5.548c0,3.062-2.485,5.538-5.548,5.538h-2.133V77.277H512.998z"/>
			</g>
			<g>
				<path d="M457.738,82.551l-0.969,0.969c-0.098,0.098-0.264,0.098-0.362,0s-0.098-0.264,0-0.362l1.331-1.331v-0.685l-0.675,0.675
					c-0.098,0.098-0.264,0.098-0.362,0c-0.098-0.098-0.098-0.254,0-0.352l1.037-1.047v-0.577l-0.499,0.499
					c-0.049,0.049-0.117,0.078-0.186,0.078c-0.059,0-0.127-0.029-0.176-0.078c-0.098-0.098-0.098-0.264,0-0.362l0.939-0.929
					c0.049-0.049,0.108-0.078,0.176-0.078c0,0,0,0,0.01,0c0.069,0,0.127,0.029,0.176,0.078l0.93,0.929
					c0.098,0.098,0.098,0.264,0,0.362s-0.254,0.098-0.362,0l-0.499-0.499v0.577l1.037,1.047c0.098,0.098,0.098,0.254,0,0.352
					c-0.049,0.049-0.117,0.078-0.176,0.078c-0.069,0-0.137-0.029-0.186-0.078l-0.675-0.675v0.685l1.331,1.331
					c0.098,0.098,0.098,0.264,0,0.362c-0.049,0.049-0.117,0.078-0.176,0.078c-0.069,0-0.137-0.029-0.186-0.078l-0.969-0.969v2.603
					c1.252-0.02,3.258-0.039,5.694,0.029v-3.767l-1.36,1.35c-0.068,0.068-0.157,0.098-0.245,0.098c-0.078,0-0.166-0.029-0.235-0.098
					c-0.137-0.127-0.137-0.342,0-0.479l1.839-1.83v-0.978l-0.959,0.949c-0.068,0.068-0.157,0.098-0.245,0.098
					s-0.176-0.029-0.235-0.098c-0.137-0.137-0.137-0.352,0-0.479l1.438-1.428v-0.851l-0.724,0.714
					c-0.059,0.068-0.147,0.098-0.235,0.098c-0.088,0-0.176-0.029-0.235-0.098c-0.137-0.137-0.137-0.352,0-0.479l1.291-1.282
					c0-0.01,0-0.01,0-0.01c0.029-0.029,0.068-0.049,0.108-0.068c0.078-0.029,0.176-0.029,0.254,0
					c0.049,0.02,0.078,0.049,0.117,0.078l1.282,1.282c0.127,0.137,0.127,0.342,0,0.479c-0.137,0.127-0.342,0.127-0.479,0
					l-0.704-0.704v0.841l1.428,1.428c0.127,0.127,0.127,0.342,0,0.479c-0.137,0.127-0.342,0.127-0.479,0l-0.949-0.949v0.978
					l1.83,1.83c0.127,0.137,0.127,0.352,0,0.479c-0.137,0.137-0.352,0.137-0.479,0l-1.35-1.35v3.786
					c0.626,0.02,1.282,0.049,1.957,0.078c1.331-2.828,4.285-4.481,7.426-4.139c3.102,0.342,5.655,2.691,6.301,5.724
					c1.106,0.235,2.074,0.46,2.935,0.695c0.108-0.02,0.205-0.029,0.313-0.049v-1.879l-0.881,0.587
					c-0.157,0.098-0.372,0.059-0.47-0.098c-0.108-0.157-0.068-0.362,0.088-0.47l1.262-0.832v-0.607l-0.597,0.382
					c-0.157,0.098-0.372,0.049-0.47-0.108c-0.098-0.157-0.049-0.362,0.108-0.47l0.959-0.607v-0.46l-0.401,0.294
					c-0.157,0.108-0.362,0.068-0.47-0.078c-0.108-0.157-0.078-0.362,0.078-0.479l0.929-0.665c0.01,0,0.02,0,0.02-0.01
					c0.059-0.029,0.117-0.049,0.176-0.049c0.068,0,0.127,0.02,0.176,0.049c0.01,0.01,0.02,0.01,0.02,0.01l0.939,0.665
					c0.147,0.117,0.186,0.323,0.078,0.479c-0.069,0.088-0.176,0.137-0.274,0.137c-0.068,0-0.137-0.02-0.196-0.059l-0.401-0.294v0.46
					l0.959,0.607c0.157,0.108,0.205,0.313,0.108,0.47c-0.069,0.098-0.176,0.157-0.294,0.157c-0.059,0-0.117-0.02-0.176-0.049
					l-0.597-0.382v0.607l1.252,0.832c0.157,0.108,0.196,0.313,0.098,0.47c-0.068,0.098-0.176,0.157-0.284,0.157
					c-0.069,0-0.127-0.02-0.186-0.059l-0.881-0.587v1.761c1.057-0.176,2.192-0.333,3.366-0.47c1.409-0.352,2.759-0.665,4.051-0.959
					v-0.734l-0.46,0.303c-0.029,0.02-0.068,0.029-0.098,0.029c-0.049,0-0.108-0.029-0.137-0.078
					c-0.059-0.078-0.029-0.176,0.049-0.235l0.646-0.43v-0.313l-0.313,0.196c-0.088,0.049-0.186,0.02-0.235-0.059
					s-0.029-0.186,0.049-0.235l0.499-0.303v-0.254l-0.215,0.157c-0.078,0.049-0.186,0.029-0.235-0.039
					c-0.059-0.078-0.039-0.186,0.039-0.245l0.479-0.333c0.059-0.039,0.137-0.039,0.196,0l0.479,0.333
					c0.078,0.059,0.098,0.166,0.039,0.245c-0.029,0.039-0.078,0.068-0.137,0.068c-0.029,0-0.068-0.01-0.098-0.029l-0.215-0.157
					v0.254l0.489,0.303c0.078,0.059,0.108,0.157,0.059,0.235c-0.029,0.059-0.088,0.078-0.147,0.078c-0.029,0-0.059,0-0.088-0.02
					l-0.313-0.196v0.323l0.646,0.421c0.078,0.059,0.098,0.166,0.049,0.235c-0.059,0.078-0.157,0.098-0.235,0.049l-0.46-0.303v0.656
					c0.89-0.196,1.742-0.382,2.563-0.548V84.4l-0.499,0.333c-0.117,0.078-0.274,0.049-0.352-0.068
					c-0.078-0.117-0.049-0.274,0.068-0.352l0.783-0.519V83.5l-0.313,0.205c-0.117,0.068-0.274,0.039-0.352-0.078
					c-0.068-0.117-0.039-0.274,0.078-0.352l0.587-0.382v-0.186l-0.186,0.137c-0.117,0.078-0.274,0.049-0.352-0.059
					c-0.078-0.117-0.059-0.274,0.059-0.352l0.587-0.43h0.01c0.039-0.029,0.088-0.049,0.137-0.049s0.098,0.02,0.137,0.049h0.01
					l0.597,0.43c0.117,0.078,0.137,0.235,0.059,0.352c-0.049,0.068-0.127,0.108-0.205,0.108c-0.049,0-0.108-0.02-0.147-0.049
					l-0.196-0.137v0.186l0.597,0.382c0.117,0.078,0.147,0.235,0.078,0.352c-0.049,0.078-0.137,0.117-0.215,0.117
					c-0.049,0-0.098-0.02-0.137-0.039l-0.323-0.205v0.294l0.783,0.519c0.117,0.078,0.147,0.235,0.068,0.352
					c-0.049,0.068-0.127,0.117-0.215,0.117c-0.049,0-0.098-0.02-0.137-0.049l-0.499-0.333v0.832c2.201-0.45,4.178-0.802,5.929-1.057
					c0.029-0.46,0.049-0.92,0.049-1.38v-0.176l-0.049-0.068l-5.645-8.59l-2.055,1.507l0.861,1.419c0,0,0,0,0.01,0l1.086,1.879
					l1.83,1.145c0.157,0.108,0.205,0.313,0.108,0.47c-0.068,0.108-0.176,0.157-0.284,0.157c-0.069,0-0.127-0.01-0.186-0.049
					l-1.898-1.194c-0.049-0.029-0.088-0.068-0.108-0.117l-0.685-1.174l-0.127,0.626v2.436c0,0.186-0.147,0.342-0.333,0.342
					c-0.186,0-0.342-0.157-0.342-0.342v-2.505l0.284-1.438l-0.949-1.546l-3.082-4.559l-3.992,5.724l1.947,3.287
					c0.088,0.166,0.039,0.372-0.127,0.46c-0.049,0.039-0.108,0.049-0.166,0.049l-2.329-3.601l-0.02-0.029l-5.479-9.246l-2.466,2.818
					l1.468,3.268l1.859,0.822c0.088,0.039,0.147,0.108,0.186,0.186l1.428,3.757c0.059,0.176-0.029,0.372-0.196,0.44
					c-0.039,0.01-0.088,0.02-0.127,0.02c-0.137,0-0.264-0.088-0.313-0.215l-1.38-3.63l-1.409-0.616l-0.284,3.737
					c-0.02,0.186-0.166,0.313-0.342,0.313c-0.01,0-0.01,0-0.02,0c-0.098-0.01-0.176-0.049-0.225-0.108
					c-0.02-0.02-0.029-0.039-0.049-0.068c-0.01-0.01-0.01-0.029-0.02-0.049c-0.01-0.02-0.01-0.039-0.01-0.068l-0.01-0.068v-0.029
					l0.313-4.109l-1.565-3.483l-4.188-7.377l-0.372,0.528l-8.385,11.8l-0.039,0.049c0,0,0,0-0.01,0c0,0.01,0,0.01,0,0.01
					l-1.292,1.595l-0.176,0.225c-0.068,0.078-0.166,0.127-0.264,0.127c-0.078,0-0.147-0.029-0.215-0.078l0.108-0.665v-0.01
					l1.135-1.399l-2.749-3.199l-0.509,0.548l-6.272,6.673c-0.166,1.115-0.245,2.26-0.245,3.395c0,0.616,0.02,1.203,0.068,1.771
					c0.939,0.108,2.348,0.294,4.158,0.616c0.088,0,0.391-0.01,0.851-0.02V82.551z M501.697,82.521v0.274
					c0,0.567-0.02,1.125-0.059,1.702c-0.039,0.656-0.117,1.34-0.225,2.025c-0.117,0.802-0.284,1.634-0.499,2.485
					c-0.44,1.732-1.086,3.434-1.918,5.068c-0.763,1.497-1.683,2.925-2.749,4.246c0,0.01-0.01,0.01-0.01,0.01
					c-1.155,1.458-2.475,2.769-3.923,3.923c-1.712,1.36-3.571,2.485-5.538,3.327c0,0,0,0.01-0.01,0.01
					c-3.141,1.37-6.477,2.064-9.931,2.064c-2.916,0-5.782-0.499-8.502-1.497c-4.833-1.761-9.099-5.078-12.025-9.344
					c-0.841-1.233-1.575-2.554-2.182-3.904c-0.548-1.233-1.008-2.544-1.36-3.904c-0.352-1.331-0.577-2.71-0.695-4.109
					c-0.059-0.675-0.088-1.37-0.088-2.104c0-1.203,0.088-2.417,0.254-3.601c1.751-12.122,12.328-21.261,24.597-21.261
					c6.78,0,12.954,2.759,17.464,7.211C498.801,69.597,501.629,75.741,501.697,82.521z M495.7,73.285l5.274,8.042
					c-0.763-12.572-11.252-22.621-23.961-22.718c-0.059,0-0.117,0-0.176,0c-11.565,0-21.584,8.346-23.736,19.588l6.36-6.751
					c0.059-0.068,0.157-0.108,0.254-0.108c0.088,0,0.186,0.039,0.245,0.117l2.886,3.375l8.855-12.455
					c0.068-0.088,0.176-0.147,0.294-0.137c0.117,0,0.215,0.068,0.274,0.166l0.587,1.037l3.64,6.389l2.593-2.974
					c0.068-0.078,0.176-0.127,0.284-0.117c0.108,0.01,0.205,0.078,0.264,0.166l5.45,9.197l4.099-5.88
					c0.059-0.088,0.137-0.147,0.274-0.147c0.117,0,0.215,0.059,0.284,0.147l3.16,4.677l2.309-1.702
					c0.078-0.049,0.176-0.068,0.264-0.059C495.563,73.158,495.641,73.207,495.7,73.285z M500.787,86.142
					c0.059-0.43,0.108-0.851,0.137-1.272c-2.407,0.352-5.254,0.89-8.493,1.614C495.553,86.269,498.508,86.171,500.787,86.142z
					 M500.318,88.588c0.147-0.607,0.264-1.194,0.362-1.771c-3.424,0.059-8.326,0.235-12.993,0.773c-0.01,0-0.01,0-0.02,0
					c-1.556,0.186-3.033,0.401-4.383,0.646c0,0,0,0-0.01,0.01c-1.037,0.186-1.986,0.401-2.837,0.626
					c-0.01,0.215-0.029,0.44-0.068,0.675c2.681-0.646,6.154-0.92,6.653-0.959c0.029,0,0.059,0,0.078,0c0.01,0,0.01,0,0.01,0h0.01
					H500.318z M500.141,89.263H498.4c-0.47,0.088-6.546,1.272-11.428,3.336c1.81,0.362,3.209,0.724,4.256,1.115
					c3.747-0.969,6.428-0.43,7.289-0.196C499.192,92.139,499.74,90.711,500.141,89.263z M495.836,97.745
					c0.9-1.125,1.683-2.338,2.358-3.61c-0.841-0.196-3.004-0.558-5.949,0.039c0.949,0.509,1.419,1.066,1.428,1.702
					c0.02,0.665-0.479,1.321-1.517,2.016C493.4,97.657,494.76,97.53,495.836,97.745z M495.269,89.263h-8.13
					c-3.102,0.881-4.197,1.693-4.178,2.025c0,0.059,0.108,0.587,2.837,1.086C488.9,90.945,492.686,89.889,495.269,89.263z
					 M495.337,98.352c-1.634-0.196-4.06,0.342-5.929,0.969h-0.01c-0.832,0.352-1.8,0.714-2.876,1.086
					c1.634,0.02,3.737,0.264,5.538,1.184C493.254,100.622,494.349,99.536,495.337,98.352z M492.999,95.896v-0.01
					c-0.01-0.499-0.665-1.018-1.918-1.497c-1.203-0.47-2.935-0.9-5.303-1.321c-2.378-0.43-3.454-0.969-3.493-1.751
					c-0.029-0.587,0.626-1.174,1.937-1.761c-0.137,0.02-0.284,0.039-0.43,0.059h-0.01c-1.174,0.157-2.456,0.382-3.571,0.665
					c-0.196,0.744-0.499,1.448-0.939,2.113c0,0.01-0.068,0.108-0.068,0.108l-0.176,0.254c0.841,0.626,1.614,1.223,1.438,1.918
					c-0.157,0.656-1.096,1.066-3.141,1.38c-0.166,0.029-0.342,0.049-0.528,0.078l-3.268,4.941c-0.088,0.127-0.225,0.186-0.362,0.196
					c-0.137,0-0.274-0.068-0.352-0.176l-2.955-4.471c-4.207,0.186-8.346,0.294-12.602,0.333c0.186,0.264,0.382,0.519,0.587,0.773
					c0.166,0.215,0.342,0.43,0.519,0.636c0.186,0.225,0.382,0.45,0.587,0.665c0.117,0.137,0.245,0.274,0.382,0.411
					c0.157,0.166,0.313,0.333,0.479,0.489c1.526,1.526,3.258,2.847,5.127,3.904c0.166,0.098,0.333,0.196,0.509,0.284
					c0.235,0.127,0.47,0.254,0.704,0.362c0.235,0.127,0.47,0.235,0.704,0.342c0.519,0.235,1.047,0.46,1.585,0.656
					c1.986-0.89,4.422-1.761,7.25-2.603c0.871-0.254,1.781-0.509,2.759-0.763c1.967-0.519,3.767-1.037,5.342-1.517
					c2.123-0.656,3.923-1.291,5.342-1.898c0.01,0,0.02,0,0.029-0.01C492.49,97.266,492.999,96.336,492.999,95.896z M486.698,104.878
					c1.673-0.744,3.268-1.702,4.755-2.828c-3.15-1.448-7.27-0.841-7.485-0.812c-1.585,0.489-3.375,1.008-5.342,1.526
					c-0.215,0.049-0.421,0.108-0.636,0.166C480.681,103.068,485.055,103.508,486.698,104.878z M485.974,105.181
					c-2.016-1.282-7.387-1.634-10.166-1.634c-2.456,0.724-4.608,1.487-6.428,2.26c2.407,0.773,4.912,1.174,7.455,1.174
					C480.006,106.981,483.068,106.375,485.974,105.181z M481.699,87.873c-0.401-0.098-0.832-0.196-1.282-0.284
					c0.02,0.205,0.039,0.391,0.039,0.577C480.847,88.069,481.268,87.961,481.699,87.873z M479.81,94.507
					c0.069-0.264-0.626-0.793-1.155-1.184l-1.35,2.045c0,0,0,0,0.01,0C479.575,95.016,479.791,94.595,479.81,94.507z
					 M479.781,88.597c0.01-0.078,0.01-0.137,0.01-0.186c0-0.254-0.02-0.519-0.049-0.822c-0.02-0.127-0.039-0.245-0.059-0.362
					c0-0.01,0-0.01,0-0.01c-0.509-2.867-2.876-5.078-5.763-5.401c-2.916-0.323-5.665,1.262-6.829,3.943
					c-0.294,0.675-0.47,1.389-0.528,2.133c-0.02,0.166-0.02,0.333-0.02,0.509c0,0.166,0,0.333,0.02,0.489
					c0.078,1.076,0.421,2.113,0.988,3.013c0.078,0.127,0.157,0.245,0.235,0.362l2.534,3.826l2.847,4.305l3.15-4.765l1.976-2.984
					l0.342-0.519c0.02-0.029,0.039-0.059,0.059-0.088c0.44-0.675,0.744-1.38,0.91-2.113
					C479.722,89.478,479.781,89.028,479.781,88.597z M469.429,95.965l-1.468-2.211c-1.252-0.176-2.514-0.313-3.747-0.411
					c-4.276-0.342-7.945-0.284-9.256-0.254c0.519,1.106,1.125,2.182,1.81,3.199C461.054,96.248,465.203,96.141,469.429,95.965z
					 M467.473,93.01l-0.235-0.362c-0.088-0.117-0.186-0.254-0.264-0.401c-0.567-0.881-0.92-1.918-1.047-2.984H453.54
					c0.303,1.096,0.675,2.152,1.115,3.16c0.988-0.029,4.951-0.127,9.618,0.245C465.32,92.755,466.396,92.873,467.473,93.01z
					 M465.937,87.423c0.068-0.509,0.186-0.998,0.352-1.477c-0.695-0.029-1.38-0.059-2.025-0.078
					c-1.654-0.049-3.131-0.059-4.315-0.059C461.954,86.269,463.96,86.797,465.937,87.423z M465.868,88.402
					c0-0.098,0-0.196,0.01-0.284c-2.984-0.949-6.037-1.712-9.08-2.26c-1.712-0.303-3.072-0.489-4.011-0.597
					c0.117,1.125,0.303,2.241,0.567,3.327h12.514C465.868,88.519,465.868,88.46,465.868,88.402z"/>
			</g>
			<g>
				<path fill="#008482" d="M501.022,82.619v0.176c0,0.46-0.02,0.92-0.049,1.38c-1.751,0.254-3.728,0.607-5.929,1.057V84.4
					l0.499,0.333c0.039,0.029,0.088,0.049,0.137,0.049c0.088,0,0.166-0.049,0.215-0.117c0.078-0.117,0.049-0.274-0.068-0.352
					l-0.783-0.519V83.5l0.323,0.205c0.039,0.02,0.088,0.039,0.137,0.039c0.078,0,0.166-0.039,0.215-0.117
					c0.068-0.117,0.039-0.274-0.078-0.352l-0.597-0.382v-0.186l0.196,0.137c0.039,0.029,0.098,0.049,0.147,0.049
					c0.078,0,0.157-0.039,0.205-0.108c0.078-0.117,0.059-0.274-0.059-0.352l-0.597-0.43h-0.01c-0.039-0.029-0.088-0.049-0.137-0.049
					s-0.098,0.02-0.137,0.049h-0.01l-0.587,0.43c-0.117,0.078-0.137,0.235-0.059,0.352c0.078,0.108,0.235,0.137,0.352,0.059
					l0.186-0.137v0.186l-0.587,0.382c-0.117,0.078-0.147,0.235-0.078,0.352c0.078,0.117,0.235,0.147,0.352,0.078l0.313-0.205v0.294
					l-0.783,0.519c-0.117,0.078-0.147,0.235-0.068,0.352c0.078,0.117,0.235,0.147,0.352,0.068l0.499-0.333v0.939
					c-0.822,0.166-1.673,0.352-2.563,0.548v-0.656l0.46,0.303c0.078,0.049,0.176,0.029,0.235-0.049
					c0.049-0.068,0.029-0.176-0.049-0.235l-0.646-0.421v-0.323l0.313,0.196c0.029,0.02,0.059,0.02,0.088,0.02
					c0.059,0,0.117-0.02,0.147-0.078c0.049-0.078,0.02-0.176-0.059-0.235l-0.489-0.303v-0.254l0.215,0.157
					c0.029,0.02,0.069,0.029,0.098,0.029c0.059,0,0.108-0.029,0.137-0.068c0.059-0.078,0.039-0.186-0.039-0.245l-0.479-0.333
					c-0.059-0.039-0.137-0.039-0.196,0l-0.479,0.333c-0.078,0.059-0.098,0.166-0.039,0.245c0.049,0.068,0.157,0.088,0.235,0.039
					l0.215-0.157v0.254l-0.499,0.303c-0.078,0.049-0.098,0.157-0.049,0.235s0.147,0.108,0.235,0.059l0.313-0.196v0.313l-0.646,0.43
					c-0.078,0.059-0.108,0.157-0.049,0.235c0.029,0.049,0.088,0.078,0.137,0.078c0.029,0,0.069-0.01,0.098-0.029l0.46-0.303v0.734
					c-1.292,0.294-2.642,0.607-4.051,0.959c-1.174,0.137-2.309,0.294-3.366,0.47v-1.761l0.881,0.587
					c0.059,0.039,0.117,0.059,0.186,0.059c0.108,0,0.215-0.059,0.284-0.157c0.098-0.157,0.059-0.362-0.098-0.47l-1.252-0.832v-0.607
					l0.597,0.382c0.059,0.029,0.117,0.049,0.176,0.049c0.117,0,0.225-0.059,0.294-0.157c0.098-0.157,0.049-0.362-0.108-0.47
					l-0.959-0.607v-0.46l0.401,0.294c0.059,0.039,0.127,0.059,0.196,0.059c0.098,0,0.205-0.049,0.274-0.137
					c0.108-0.157,0.068-0.362-0.078-0.479l-0.939-0.665c0,0-0.01,0-0.02-0.01c-0.049-0.029-0.108-0.049-0.176-0.049
					c-0.059,0-0.117,0.02-0.176,0.049c0,0.01-0.01,0.01-0.02,0.01l-0.929,0.665c-0.157,0.117-0.186,0.323-0.078,0.479
					c0.108,0.147,0.313,0.186,0.47,0.078l0.401-0.294v0.46l-0.959,0.607c-0.157,0.108-0.205,0.313-0.108,0.47
					c0.098,0.157,0.313,0.205,0.47,0.108l0.597-0.382v0.607l-1.262,0.832c-0.157,0.108-0.196,0.313-0.088,0.47
					c0.098,0.157,0.313,0.196,0.47,0.098l0.881-0.587v1.879c-0.108,0.02-0.205,0.029-0.313,0.049
					c-0.861-0.235-1.83-0.46-2.935-0.695c-0.646-3.033-3.199-5.381-6.301-5.724c-3.141-0.342-6.095,1.311-7.426,4.139
					c-0.675-0.029-1.331-0.059-1.957-0.078v-3.786l1.35,1.35c0.127,0.137,0.342,0.137,0.479,0c0.127-0.127,0.127-0.342,0-0.479
					l-1.83-1.83v-0.978l0.949,0.949c0.137,0.127,0.342,0.127,0.479,0c0.127-0.137,0.127-0.352,0-0.479l-1.428-1.428v-0.841
					l0.704,0.704c0.137,0.127,0.342,0.127,0.479,0c0.127-0.137,0.127-0.342,0-0.479l-1.282-1.282
					c-0.039-0.029-0.069-0.059-0.117-0.078c-0.078-0.029-0.176-0.029-0.254,0c-0.039,0.02-0.078,0.039-0.108,0.068c0,0,0,0,0,0.01
					l-1.291,1.282l-0.9-0.724l1.292-1.595c0,0,0,0,0-0.01c0.01,0,0.01,0,0.01,0l0.039-0.049l8.894-10.831l4.961,9.354l0.342,4.119
					v0.029c0,0.02,0,0.049,0.01,0.068c0,0.029,0,0.049,0.01,0.068c0,0.02,0.01,0.039,0.02,0.049c0.01,0.029,0.029,0.049,0.049,0.068
					c0.049,0.059,0.127,0.098,0.225,0.108c0.01,0,0.01,0,0.02,0c0.176,0,0.323-0.127,0.342-0.313l0.284-3.737l1.409,0.616l1.38,3.63
					c0.049,0.127,0.176,0.215,0.313,0.215c0.039,0,0.088-0.01,0.127-0.02c0.166-0.068,0.254-0.264,0.196-0.44l-1.428-3.757
					c-0.039-0.078-0.098-0.147-0.186-0.186l-1.859-0.822l-1.468-3.268l2.378-1.722l5.567,8.15l0.02,0.029l2.035,3.434
					c0.068,0.108,0.176,0.166,0.294,0.166c0.059,0,0.117-0.01,0.166-0.049c0.166-0.088,0.215-0.294,0.127-0.46l-1.947-3.287
					l4.002-4.06l3.61,4.501l-0.274,1.556l0.401,2.329c0,0.186,0.157,0.342,0.342,0.342c0.186,0,0.333-0.157,0.333-0.342v-2.436
					l0.166-0.186l0.47,0.978l2.182,1.066c0.059,0.039,0.117,0.049,0.186,0.049c0.108,0,0.215-0.049,0.284-0.157
					c0.098-0.157,0.049-0.362-0.108-0.47l-1.83-1.145l-1.086-1.879c-0.01,0-0.01,0-0.01,0l-0.861-1.419l1.869-0.685l5.831,7.769
					L501.022,82.619z M490.524,75.868c0-0.147-0.059-0.294-0.166-0.391c-0.098-0.108-0.235-0.166-0.382-0.166
					c-0.049-0.235-0.264-0.421-0.519-0.421c-0.068,0-0.137,0.02-0.196,0.039c-0.137-0.098-0.313-0.157-0.489-0.157
					c-0.352,0-0.656,0.225-0.773,0.558c-0.245,0.059-0.431,0.274-0.431,0.538c0,0.303,0.254,0.548,0.558,0.548h1.839
					C490.279,76.416,490.524,76.172,490.524,75.868z M472.815,73.501c0-0.225-0.088-0.44-0.254-0.597
					c-0.157-0.157-0.362-0.245-0.587-0.245c-0.078-0.372-0.401-0.646-0.793-0.646c-0.108,0-0.215,0.02-0.313,0.059
					c-0.215-0.157-0.47-0.245-0.744-0.245c-0.538,0-1.018,0.342-1.184,0.851c-0.382,0.088-0.665,0.43-0.665,0.822
					c0,0.479,0.382,0.861,0.851,0.861h2.837C472.433,74.362,472.815,73.98,472.815,73.501z"/>
			</g>
			<g>
				<polygon fill="#FDC000" points="495.328,73.96 500.973,82.551 495.142,74.782 493.273,75.467 				"/>
			</g>
			<g>
				<path fill="#FDC000" d="M500.973,81.328l-5.274-8.042c-0.059-0.078-0.137-0.127-0.225-0.147c-0.088-0.01-0.186,0.01-0.264,0.059
					l-2.309,1.702l-3.16-4.677c-0.068-0.088-0.166-0.147-0.284-0.147c-0.137,0-0.215,0.059-0.274,0.147l-4.099,5.88l-5.45-9.197
					c-0.059-0.088-0.157-0.157-0.264-0.166c-0.108-0.01-0.215,0.039-0.284,0.117l-2.593,2.974l-3.64-6.389l1.262-0.714
					c0.176,0.254,0.46,0.421,0.793,0.421h3.19c0.528,0,0.959-0.43,0.959-0.959c0-0.45-0.323-0.832-0.744-0.929
					c-0.196-0.567-0.734-0.959-1.34-0.959l0.039-1.693C489.721,58.707,500.21,68.755,500.973,81.328z M490.338,66.427
					c0-0.577-0.411-1.086-0.969-1.213c-0.254-0.744-0.959-1.252-1.751-1.252c-0.401,0-0.783,0.127-1.096,0.362
					c-0.147-0.059-0.294-0.088-0.46-0.088c-0.567,0-1.047,0.401-1.155,0.949c-0.333,0-0.636,0.127-0.871,0.362
					c-0.235,0.235-0.372,0.548-0.372,0.881c0,0.695,0.567,1.252,1.252,1.252h4.168C489.78,67.679,490.338,67.121,490.338,66.427z"/>
			</g>
			<g>
				<path fill="#F4AA06" d="M500.924,84.87c-0.029,0.421-0.078,0.841-0.137,1.272c-2.28,0.029-5.234,0.127-8.356,0.342
					C495.67,85.76,498.517,85.222,500.924,84.87z"/>
			</g>
			<g>
				<path fill="#C4D113" d="M500.68,86.817c-0.098,0.577-0.215,1.164-0.362,1.771h-13.199h-0.01c0,0,0,0-0.01,0
					c-0.02,0-0.049,0-0.078,0c-0.499,0.039-3.972,0.313-6.653,0.959c0.039-0.235,0.059-0.46,0.068-0.675
					c0.851-0.225,1.8-0.44,2.837-0.626c0.01-0.01,0.01-0.01,0.01-0.01c1.35-0.245,2.828-0.46,4.383-0.646c0.01,0,0.01,0,0.02,0
					C492.353,87.051,497.255,86.875,500.68,86.817z"/>
			</g>
			<g>
				<path fill="#C3EF0C" d="M498.4,89.263h1.742c-0.401,1.448-0.949,2.877-1.624,4.256c-0.861-0.235-3.542-0.773-7.289,0.196
					c-1.047-0.391-2.446-0.753-4.256-1.115C491.854,90.535,497.93,89.351,498.4,89.263z"/>
			</g>
			<g>
				<path fill="#FDC000" d="M496.697,80.486l-2.182-1.066l-0.47-0.978l-0.166,0.186l0.127-0.626l0.685,1.174
					c0.02,0.049,0.059,0.088,0.108,0.117L496.697,80.486z"/>
			</g>
			<g>
				<path fill="#1C9BD3" d="M498.194,94.135c-0.675,1.272-1.458,2.485-2.358,3.61c-1.076-0.215-2.436-0.088-3.679,0.147
					c1.037-0.695,1.536-1.35,1.517-2.016c-0.01-0.636-0.479-1.194-1.428-1.702C495.191,93.577,497.353,93.939,498.194,94.135z"/>
			</g>
			<g>
				<path fill="#7FD311" d="M487.139,89.263h8.13c-2.583,0.626-6.369,1.683-9.471,3.111c-2.73-0.499-2.837-1.027-2.837-1.086
					C482.941,90.955,484.037,90.143,487.139,89.263z"/>
			</g>
			<g>
				<path fill="#44B9E2" d="M489.408,99.321c1.869-0.626,4.295-1.164,5.929-0.969c-0.988,1.184-2.084,2.27-3.278,3.239
					c-1.8-0.92-3.904-1.164-5.538-1.184c1.076-0.372,2.045-0.734,2.876-1.086H489.408z"/>
			</g>
			<g>
				<polygon fill="#FDC000" points="492.539,75.575 493.488,77.121 493.205,78.559 493.205,81.064 492.803,78.735 493.077,77.179 
					489.467,72.679 485.465,76.739 489.457,71.015 				"/>
			</g>
			<g>
				<path fill="#777777" d="M492.999,95.886v0.01c0,0.44-0.509,1.37-3.835,2.788c-0.01,0.01-0.02,0.01-0.029,0.01
					c-1.419,0.607-3.219,1.243-5.342,1.898c-1.575,0.479-3.375,0.998-5.342,1.517c-0.978,0.254-1.888,0.509-2.759,0.763
					c-2.828,0.841-5.264,1.712-7.25,2.603c-0.538-0.196-1.066-0.421-1.585-0.656c2.26-0.89,4.51-1.644,6.692-2.309
					c6.663-2.055,12.68-3.317,16.183-5.313c4.598-2.642-5.958-3.004-7.729-4.824c-1.213-1.243,0.558-2.241,1.781-2.759h0.01
					c0.147-0.02,0.294-0.039,0.43-0.059c-1.311,0.587-1.967,1.174-1.937,1.761c0.039,0.783,1.115,1.321,3.493,1.751
					c2.368,0.421,4.099,0.851,5.303,1.321C492.334,94.869,492.989,95.387,492.999,95.886z"/>
			</g>
			<g>
				<path d="M490.357,75.477c0.108,0.098,0.166,0.245,0.166,0.391c0,0.303-0.245,0.548-0.558,0.548h-1.839
					c-0.303,0-0.558-0.245-0.558-0.548c0-0.264,0.186-0.479,0.431-0.538c0.117-0.333,0.421-0.558,0.773-0.558
					c0.176,0,0.352,0.059,0.489,0.157c0.059-0.02,0.127-0.039,0.196-0.039c0.254,0,0.47,0.186,0.519,0.421
					C490.123,75.311,490.26,75.369,490.357,75.477z M489.966,76.201c0.186,0,0.333-0.147,0.333-0.333
					c0-0.088-0.029-0.176-0.098-0.235c-0.059-0.068-0.147-0.098-0.235-0.098l-0.196-0.01v-0.108c0-0.166-0.137-0.303-0.313-0.303
					c-0.049,0-0.108,0.01-0.157,0.039l-0.069,0.049l-0.059-0.059c-0.108-0.098-0.254-0.147-0.401-0.147
					c-0.274,0-0.509,0.186-0.577,0.45l-0.02,0.078l-0.078,0.01c-0.176,0.01-0.303,0.157-0.303,0.333
					c0,0.186,0.147,0.333,0.333,0.333H489.966z"/>
			</g>
			<g>
				<path fill="#FFFFFF" d="M490.299,75.868c0,0.186-0.147,0.333-0.333,0.333h-1.839c-0.186,0-0.333-0.147-0.333-0.333
					c0-0.176,0.127-0.323,0.303-0.333l0.078-0.01l0.02-0.078c0.068-0.264,0.303-0.45,0.577-0.45c0.147,0,0.294,0.049,0.401,0.147
					l0.059,0.059l0.069-0.049c0.049-0.029,0.108-0.039,0.157-0.039c0.176,0,0.313,0.137,0.313,0.303v0.108l0.196,0.01
					c0.088,0,0.176,0.029,0.235,0.098C490.269,75.692,490.299,75.78,490.299,75.868z"/>
			</g>
			<g>
				<path fill="#9B9B9B" d="M482.002,92.374c1.771,1.82,12.328,2.182,7.729,4.824c-3.503,1.996-9.52,3.258-16.183,5.313
					l-0.382-1.243c0.137-0.01,0.274-0.068,0.362-0.196l3.268-4.941c0.186-0.029,0.362-0.049,0.528-0.078
					c2.045-0.313,2.984-0.724,3.141-1.38c0.176-0.695-0.597-1.291-1.438-1.918l0.176-0.254c0,0,0.068-0.098,0.068-0.108
					c0.44-0.665,0.744-1.37,0.939-2.113c1.115-0.284,2.397-0.509,3.571-0.665C482.56,90.133,480.789,91.131,482.002,92.374z"/>
			</g>
			<g>
				<path d="M489.369,65.214c0.558,0.127,0.969,0.636,0.969,1.213c0,0.695-0.558,1.252-1.252,1.252h-4.168
					c-0.685,0-1.252-0.558-1.252-1.252c0-0.333,0.137-0.646,0.372-0.881c0.235-0.235,0.538-0.362,0.871-0.362
					c0.108-0.548,0.587-0.949,1.155-0.949c0.166,0,0.313,0.029,0.46,0.088c0.313-0.235,0.695-0.362,1.096-0.362
					C488.41,63.961,489.115,64.47,489.369,65.214z M489.839,66.427c0-0.382-0.303-0.714-0.685-0.744l-0.176-0.01l-0.049-0.176
					c-0.147-0.607-0.685-1.037-1.311-1.037c-0.333,0-0.656,0.127-0.9,0.342l-0.137,0.117l-0.157-0.088
					c-0.108-0.068-0.225-0.108-0.362-0.108c-0.382,0-0.685,0.313-0.685,0.695v0.245l-0.46,0.02c-0.196,0-0.391,0.068-0.528,0.215
					c-0.147,0.147-0.225,0.333-0.225,0.528c0,0.421,0.342,0.763,0.753,0.763h4.168C489.506,67.19,489.839,66.847,489.839,66.427z"/>
			</g>
			<g>
				<path fill="#FFFFFF" d="M489.154,65.683c0.382,0.029,0.685,0.362,0.685,0.744c0,0.421-0.333,0.763-0.753,0.763h-4.168
					c-0.411,0-0.753-0.342-0.753-0.763c0-0.196,0.078-0.382,0.225-0.528c0.137-0.147,0.333-0.215,0.528-0.215l0.46-0.02v-0.245
					c0-0.382,0.303-0.695,0.685-0.695c0.137,0,0.254,0.039,0.362,0.108l0.157,0.088l0.137-0.117c0.245-0.215,0.567-0.342,0.9-0.342
					c0.626,0,1.164,0.43,1.311,1.037l0.049,0.176L489.154,65.683z"/>
			</g>
			<g>
				<path fill="#6DE5E8" d="M491.453,102.05c-1.487,1.125-3.082,2.084-4.755,2.828c-1.644-1.37-6.017-1.81-8.708-1.947
					c0.215-0.059,0.421-0.117,0.636-0.166c1.967-0.519,3.757-1.037,5.342-1.526C484.184,101.209,488.303,100.602,491.453,102.05z"/>
			</g>
			<g>
				<path d="M484.79,76.935l2.329,3.601c-0.117,0-0.225-0.059-0.294-0.166L484.79,76.935z"/>
			</g>
			<g>
				<polygon fill="#FDC000" points="479.292,67.66 484.771,76.905 479.204,68.755 476.826,70.477 				"/>
			</g>
			<g>
				<path fill="#B2F4F9" d="M475.809,103.547c2.779,0,8.15,0.352,10.166,1.634c-2.906,1.194-5.968,1.8-9.138,1.8
					c-2.544,0-5.049-0.401-7.455-1.174C471.2,105.034,473.353,104.271,475.809,103.547z"/>
			</g>
			<g>
				<path fill="#F4AA06" d="M480.417,87.59c0.45,0.088,0.881,0.186,1.282,0.284c-0.431,0.088-0.851,0.196-1.243,0.294
					C480.456,87.981,480.436,87.795,480.417,87.59z"/>
			</g>
			<g>
				<path fill="#C3EF0C" d="M478.656,93.323c0.528,0.391,1.223,0.92,1.155,1.184c-0.02,0.088-0.235,0.509-2.495,0.861
					c-0.01,0-0.01,0-0.01,0L478.656,93.323z"/>
			</g>
			<g>
				<path fill="#FF4700" d="M479.791,88.411c0,0.049,0,0.108-0.01,0.186c0,0.43-0.059,0.881-0.176,1.331
					c-0.166,0.734-0.47,1.438-0.91,2.113c-0.02,0.029-0.039,0.059-0.059,0.088l-0.342,0.519l-1.976,2.984l-3.15,4.765l-2.847-4.305
					l-2.534-3.826c-0.078-0.117-0.157-0.235-0.235-0.362c-0.567-0.9-0.91-1.937-0.988-3.013c-0.02-0.157-0.02-0.323-0.02-0.489
					c0-0.176,0-0.342,0.02-0.509c0.059-0.744,0.235-1.458,0.528-2.133c1.164-2.681,3.914-4.266,6.829-3.943
					c2.886,0.323,5.254,2.534,5.763,5.401c0,0,0,0,0,0.01c0.02,0.117,0.039,0.235,0.059,0.362
					C479.771,87.893,479.791,88.157,479.791,88.411z M476.973,88.92c0.029-0.166,0.049-0.333,0.049-0.528
					c0-0.744-0.215-1.468-0.616-2.084c0,0-0.01-0.01-0.01-0.02c0,0,0,0-0.01,0c-0.704-1.096-1.908-1.751-3.219-1.751
					c-1.018,0-1.976,0.391-2.7,1.115c-0.744,0.724-1.155,1.693-1.155,2.74c0,0.225,0.02,0.411,0.059,0.577
					c0.147,1.076,0.753,2.035,1.663,2.632c0.626,0.421,1.37,0.646,2.133,0.646c0.91,0,1.8-0.323,2.495-0.92
					c0.01,0,0.01-0.01,0.02-0.01c0,0,0-0.01,0.01-0.01c0.695-0.607,1.155-1.438,1.282-2.319c0-0.02,0-0.039,0-0.059
					C476.973,88.92,476.973,88.92,476.973,88.92z"/>
			</g>
			<g>
				<path d="M478.313,61.261c0.421,0.098,0.744,0.479,0.744,0.929c0,0.528-0.431,0.959-0.959,0.959h-3.19
					c-0.333,0-0.616-0.166-0.793-0.421c-0.098-0.157-0.157-0.342-0.157-0.538c0-0.254,0.098-0.499,0.274-0.675
					c0.176-0.176,0.411-0.274,0.665-0.284c0.088-0.411,0.45-0.724,0.89-0.724c0.117,0,0.235,0.02,0.352,0.068
					c0.235-0.176,0.528-0.274,0.832-0.274C477.58,60.302,478.118,60.693,478.313,61.261z M478.675,62.19
					c0-0.294-0.235-0.548-0.528-0.567l-0.137-0.02l-0.029-0.127c-0.117-0.47-0.528-0.793-1.008-0.793
					c-0.254,0-0.499,0.098-0.685,0.264l-0.108,0.088l-0.117-0.068c-0.078-0.049-0.176-0.078-0.274-0.078
					c-0.294,0-0.528,0.235-0.528,0.528v0.186l-0.352,0.01c-0.147,0-0.294,0.059-0.401,0.166c-0.108,0.117-0.176,0.254-0.176,0.411
					c0,0.313,0.264,0.577,0.577,0.577h3.19C478.411,62.767,478.675,62.503,478.675,62.19z"/>
			</g>
			<g>
				<path fill="#FFFFFF" d="M478.147,61.623c0.294,0.02,0.528,0.274,0.528,0.567c0,0.313-0.264,0.577-0.577,0.577h-3.19
					c-0.313,0-0.577-0.264-0.577-0.577c0-0.157,0.068-0.294,0.176-0.411c0.108-0.108,0.254-0.166,0.401-0.166l0.352-0.01v-0.186
					c0-0.294,0.235-0.528,0.528-0.528c0.098,0,0.196,0.029,0.274,0.078l0.117,0.068l0.108-0.088
					c0.186-0.166,0.431-0.264,0.685-0.264c0.479,0,0.89,0.323,1.008,0.793l0.029,0.127L478.147,61.623z"/>
			</g>
			<g>
				<polygon fill="#FDC000" points="476.132,70.575 477.697,74.058 477.384,78.168 477.041,74.048 472.081,64.695 471.572,63.726 
					471.944,63.198 				"/>
			</g>
			<g>
				<path fill="#008482" d="M477.403,78.334c0.01,0.02,0.01,0.039,0.02,0.049C477.413,78.373,477.403,78.353,477.403,78.334z"/>
			</g>
			<g>
				<path d="M477.384,78.197l0.01,0.068C477.384,78.246,477.384,78.216,477.384,78.197z"/>
			</g>
			<g>
				<path d="M477.022,88.392c0,0.196-0.02,0.362-0.049,0.528c0,0,0,0,0,0.01c0,0.02,0,0.039,0,0.059
					c-0.127,0.881-0.587,1.712-1.282,2.319c-0.01,0-0.01,0.01-0.01,0.01c-0.01,0-0.01,0.01-0.02,0.01
					c-0.695,0.597-1.585,0.92-2.495,0.92c-0.763,0-1.507-0.225-2.133-0.646c-0.91-0.597-1.517-1.556-1.663-2.632
					c-0.039-0.166-0.059-0.352-0.059-0.577c0-1.047,0.411-2.016,1.155-2.74c0.724-0.724,1.683-1.115,2.7-1.115
					c1.311,0,2.514,0.656,3.219,1.751c0.01,0,0.01,0,0.01,0c0,0.01,0.01,0.02,0.01,0.02
					C476.807,86.924,477.022,87.648,477.022,88.392z M476.327,88.588c0.01-0.068,0.02-0.127,0.02-0.196
					c0-0.567-0.157-1.106-0.44-1.585c-1.595-0.225-3.297-0.411-5.058-0.567c-0.548,0.587-0.851,1.34-0.851,2.152
					c0,0.068,0.01,0.127,0.01,0.196H476.327z M476.21,89.263h-6.076c0.196,0.685,0.607,1.291,1.194,1.702
					c1.35-0.166,2.681-0.245,3.982-0.235C475.74,90.329,476.053,89.82,476.21,89.263z M472.668,91.503
					c0.45,0.068,0.92,0.039,1.36-0.078C473.578,91.444,473.128,91.464,472.668,91.503z M471.621,85.633
					c1.262,0.117,2.495,0.254,3.679,0.411c-0.577-0.528-1.331-0.832-2.133-0.832C472.609,85.212,472.091,85.369,471.621,85.633z"/>
			</g>
			<g>
				<path fill="#FDC000" d="M477.012,58.609l-0.039,1.693c-0.303,0-0.597,0.098-0.832,0.274c-0.117-0.049-0.235-0.068-0.352-0.068
					c-0.44,0-0.802,0.313-0.89,0.724c-0.254,0.01-0.489,0.108-0.665,0.284c-0.176,0.176-0.274,0.421-0.274,0.675
					c0,0.196,0.059,0.382,0.157,0.538l-1.262,0.714l-0.587-1.037c-0.059-0.098-0.157-0.166-0.274-0.166
					c-0.117-0.01-0.225,0.049-0.294,0.137l-8.855,12.455l-2.886-3.375c-0.059-0.078-0.157-0.117-0.245-0.117
					c-0.098,0-0.196,0.039-0.254,0.108l-6.36,6.751c2.152-11.242,12.171-19.588,23.736-19.588
					C476.895,58.609,476.953,58.609,477.012,58.609z M463.745,69.137c0-0.235-0.098-0.47-0.264-0.636s-0.391-0.254-0.626-0.264
					c-0.078-0.391-0.421-0.685-0.841-0.685c-0.108,0-0.225,0.02-0.323,0.068c-0.225-0.166-0.499-0.254-0.783-0.254
					c-0.577,0-1.086,0.362-1.262,0.9c-0.401,0.088-0.704,0.45-0.704,0.871c0,0.499,0.401,0.9,0.9,0.9h3.004
					C463.344,70.037,463.745,69.636,463.745,69.137z"/>
			</g>
			<g>
				<path fill="#F4AA06" d="M476.347,88.392c0,0.068-0.01,0.127-0.02,0.196h-6.32c0-0.068-0.01-0.127-0.01-0.196
					c0-0.812,0.303-1.565,0.851-2.152c1.761,0.157,3.464,0.342,5.058,0.567C476.19,87.286,476.347,87.824,476.347,88.392z"/>
			</g>
			<g>
				<path fill="#7FD311" d="M470.134,89.263h6.076c-0.157,0.558-0.47,1.066-0.9,1.468c-1.301-0.01-2.632,0.068-3.982,0.235
					C470.741,90.554,470.33,89.947,470.134,89.263z"/>
			</g>
			<g>
				<path fill="#7FD311" d="M474.028,91.425c-0.44,0.117-0.91,0.147-1.36,0.078C473.128,91.464,473.578,91.444,474.028,91.425z"/>
			</g>
			<g>
				<path fill="#9B9B9B" d="M473.167,101.268l0.382,1.243c-2.182,0.665-4.432,1.419-6.692,2.309
					c-0.235-0.108-0.47-0.225-0.704-0.342c-0.235-0.108-0.47-0.235-0.704-0.362c-0.176-0.088-0.342-0.186-0.509-0.284
					c-1.869-1.057-3.601-2.378-5.127-3.904c-0.166-0.157-0.333-0.323-0.479-0.489c-0.137-0.137-0.264-0.274-0.382-0.411
					c-0.205-0.215-0.401-0.44-0.587-0.665c-0.176-0.215-0.352-0.421-0.519-0.636c-0.205-0.254-0.401-0.509-0.587-0.773
					c4.256-0.039,8.395-0.147,12.602-0.333l2.955,4.471C472.893,101.199,473.03,101.268,473.167,101.268z"/>
			</g>
			<g>
				<path fill="#F26608" d="M475.3,86.044c-1.184-0.157-2.417-0.294-3.679-0.411c0.47-0.264,0.988-0.421,1.546-0.421
					C473.969,85.212,474.723,85.515,475.3,86.044z"/>
			</g>
			<g>
				<path d="M472.56,72.904c0.166,0.157,0.254,0.372,0.254,0.597c0,0.479-0.382,0.861-0.851,0.861h-2.837
					c-0.47,0-0.851-0.382-0.851-0.861c0-0.391,0.284-0.734,0.665-0.822c0.166-0.509,0.646-0.851,1.184-0.851
					c0.274,0,0.528,0.088,0.744,0.245c0.098-0.039,0.205-0.059,0.313-0.059c0.391,0,0.714,0.274,0.793,0.646
					C472.198,72.659,472.404,72.747,472.56,72.904z M472.472,73.501c0-0.127-0.049-0.264-0.147-0.362
					c-0.098-0.088-0.225-0.147-0.362-0.147l-0.313-0.01v-0.166c0-0.254-0.205-0.47-0.47-0.47c-0.088,0-0.166,0.029-0.245,0.068
					l-0.108,0.068l-0.088-0.088c-0.166-0.147-0.391-0.225-0.616-0.225c-0.421,0-0.793,0.284-0.89,0.695l-0.029,0.127l-0.117,0.01
					c-0.264,0.02-0.47,0.245-0.47,0.499c0,0.284,0.225,0.519,0.509,0.519h2.837C472.247,74.019,472.472,73.784,472.472,73.501z"/>
			</g>
			<g>
				<path fill="#FFFFFF" d="M472.326,73.139c0.098,0.098,0.147,0.235,0.147,0.362c0,0.284-0.225,0.519-0.509,0.519h-2.837
					c-0.284,0-0.509-0.235-0.509-0.519c0-0.254,0.205-0.479,0.47-0.499l0.117-0.01l0.029-0.127c0.098-0.411,0.47-0.695,0.89-0.695
					c0.225,0,0.45,0.078,0.616,0.225l0.088,0.088l0.108-0.068c0.078-0.039,0.157-0.068,0.245-0.068c0.264,0,0.47,0.215,0.47,0.47
					v0.166l0.313,0.01C472.1,72.992,472.228,73.05,472.326,73.139z"/>
			</g>
			<g>
				<polygon fill="#FDC000" points="471.572,63.726 472.081,64.695 463.187,75.526 				"/>
			</g>
			<g>
				<path fill="#C3EF0C" d="M467.962,93.753l1.468,2.211c-4.227,0.176-8.375,0.284-12.66,0.323c-0.685-1.018-1.292-2.094-1.81-3.199
					c1.311-0.029,4.98-0.088,9.256,0.254C465.447,93.44,466.71,93.577,467.962,93.753z"/>
			</g>
			<g>
				<path fill="#7FD311" d="M467.238,92.648l0.235,0.362c-1.076-0.137-2.152-0.254-3.199-0.342c-4.667-0.372-8.63-0.274-9.618-0.245
					c-0.44-1.008-0.812-2.064-1.115-3.16h12.387c0.127,1.066,0.479,2.104,1.047,2.984C467.052,92.393,467.15,92.53,467.238,92.648z"
					/>
			</g>
			<g>
				<path fill="#F4AA06" d="M466.289,85.946c-0.166,0.479-0.284,0.969-0.352,1.477c-1.976-0.626-3.982-1.155-5.988-1.614
					c1.184,0,2.661,0.01,4.315,0.059C464.909,85.887,465.594,85.916,466.289,85.946z"/>
			</g>
			<g>
				<path fill="#C4D113" d="M465.878,88.118c-0.01,0.088-0.01,0.186-0.01,0.284c0,0.059,0,0.117,0,0.186h-12.514
					c-0.264-1.086-0.45-2.201-0.567-3.327c0.939,0.108,2.299,0.294,4.011,0.597C459.841,86.406,462.894,87.169,465.878,88.118z"/>
			</g>
			<g>
				<rect x="454.607" y="29.59" width="10.342" height="3.963"/>
			</g>
			<g>
				<path fill="#008482" d="M463.941,81.416v3.767c-2.436-0.068-4.442-0.049-5.694-0.029v-2.603l0.969,0.969
					c0.049,0.049,0.117,0.078,0.186,0.078c0.059,0,0.127-0.029,0.176-0.078c0.098-0.098,0.098-0.264,0-0.362l-1.331-1.331v-0.685
					l0.675,0.675c0.049,0.049,0.117,0.078,0.186,0.078c0.059,0,0.127-0.029,0.176-0.078c0.098-0.098,0.098-0.254,0-0.352
					l-1.037-1.047v-0.577l0.499,0.499c0.108,0.098,0.264,0.098,0.362,0s0.098-0.264,0-0.362l-0.93-0.929
					c-0.049-0.049-0.108-0.078-0.176-0.078c-0.01,0-0.01,0-0.01,0c-0.068,0-0.127,0.029-0.176,0.078l-0.939,0.929
					c-0.098,0.098-0.098,0.264,0,0.362c0.049,0.049,0.117,0.078,0.176,0.078c0.068,0,0.137-0.029,0.186-0.078l0.499-0.499v0.577
					l-1.037,1.047c-0.098,0.098-0.098,0.254,0,0.352c0.098,0.098,0.264,0.098,0.362,0l0.675-0.675v0.685l-1.331,1.331
					c-0.098,0.098-0.098,0.264,0,0.362s0.264,0.098,0.362,0l0.969-0.969v2.612c-0.46,0.01-0.763,0.02-0.851,0.02
					c-1.81-0.323-3.219-0.509-4.158-0.616c-0.049-0.567-0.068-1.155-0.068-1.771c0-1.135,0.078-2.28,0.245-3.395l6.712-6.174
					c0.147,0.166,0.294,0.333,0.43,0.499c0.186,0.215,0.372,0.421,0.548,0.616c0.108,0.117,0.205,0.235,0.294,0.333
					c0.049,0.049,0.088,0.108,0.137,0.157c0.294,0.333,0.489,0.548,0.489,0.548l-0.215,1.399v0.01l-0.157,0.186
					c-0.117,0.147-0.098,0.362,0.049,0.479c0.068,0.049,0.137,0.078,0.215,0.078c0.098,0,0.196-0.049,0.264-0.127l0.176-0.225
					l0.9,0.724c-0.137,0.127-0.137,0.342,0,0.479c0.059,0.068,0.147,0.098,0.235,0.098c0.088,0,0.176-0.029,0.235-0.098l0.724-0.714
					v0.851l-1.438,1.428c-0.137,0.127-0.137,0.342,0,0.479c0.059,0.068,0.147,0.098,0.235,0.098s0.176-0.029,0.245-0.098
					l0.959-0.949v0.978l-1.839,1.83c-0.137,0.137-0.137,0.352,0,0.479c0.068,0.068,0.157,0.098,0.235,0.098
					c0.088,0,0.176-0.029,0.245-0.098L463.941,81.416z"/>
			</g>
			<g>
				<path d="M463.481,68.501c0.166,0.166,0.264,0.401,0.264,0.636c0,0.499-0.401,0.9-0.9,0.9h-3.004c-0.499,0-0.9-0.401-0.9-0.9
					c0-0.421,0.303-0.783,0.704-0.871c0.176-0.538,0.685-0.9,1.262-0.9c0.284,0,0.558,0.088,0.783,0.254
					c0.098-0.049,0.215-0.068,0.323-0.068c0.421,0,0.763,0.294,0.841,0.685C463.089,68.247,463.314,68.335,463.481,68.501z
					 M463.383,69.137c0-0.147-0.049-0.274-0.157-0.382c-0.098-0.098-0.235-0.157-0.382-0.157l-0.333-0.01v-0.176
					c0-0.274-0.215-0.499-0.499-0.499c-0.088,0-0.176,0.02-0.254,0.068l-0.108,0.068l-0.098-0.088
					c-0.186-0.157-0.411-0.245-0.646-0.245c-0.46,0-0.841,0.313-0.949,0.744l-0.039,0.127l-0.127,0.01
					c-0.274,0.029-0.489,0.264-0.489,0.538c0,0.303,0.245,0.548,0.538,0.548h3.004C463.138,69.685,463.383,69.44,463.383,69.137z"/>
			</g>
			<g>
				<path fill="#FFFFFF" d="M463.226,68.755c0.108,0.108,0.157,0.235,0.157,0.382c0,0.303-0.245,0.548-0.538,0.548h-3.004
					c-0.294,0-0.538-0.245-0.538-0.548c0-0.274,0.215-0.509,0.489-0.538l0.127-0.01l0.039-0.127c0.108-0.43,0.489-0.744,0.949-0.744
					c0.235,0,0.46,0.088,0.646,0.245l0.098,0.088l0.108-0.068c0.078-0.049,0.166-0.068,0.254-0.068c0.284,0,0.499,0.225,0.499,0.499
					v0.176l0.333,0.01C462.992,68.599,463.129,68.657,463.226,68.755z"/>
			</g>
			<g>
				<path fill="#FDC000" d="M459.685,72.18l2.749,3.199l-1.135,1.399l0.215-1.399c0,0-0.196-0.215-0.489-0.548
					c-0.039-0.049-0.088-0.098-0.137-0.157c-0.088-0.098-0.186-0.215-0.294-0.333c-0.166-0.196-0.352-0.401-0.548-0.616
					c-0.137-0.166-0.284-0.333-0.43-0.499c-0.157-0.176-0.303-0.342-0.44-0.499L459.685,72.18z"/>
			</g>
			<g>
				<path d="M461.299,76.788l-0.108,0.665c-0.147-0.117-0.166-0.333-0.049-0.479L461.299,76.788z"/>
			</g>
			<g>
				<path fill="#008482" d="M460.888,74.675c0.049,0.059,0.098,0.108,0.137,0.157C460.976,74.782,460.937,74.724,460.888,74.675z"/>
			</g>
			<g>
				<path fill="#008482" d="M460.594,74.342c-0.176-0.196-0.362-0.401-0.548-0.616C460.242,73.941,460.428,74.146,460.594,74.342z"
					/>
			</g>
			<g>
				<path fill="#FDC000" d="M459.176,72.728c0.137,0.157,0.284,0.323,0.44,0.499l-6.712,6.174L459.176,72.728z"/>
			</g>
			<g>
				<path fill="#9B9B9B" d="M458.364,98.362c0.186,0.225,0.382,0.45,0.587,0.665C458.745,98.812,458.55,98.587,458.364,98.362z"/>
			</g>
			<g>
				<path fill="#9B9B9B" d="M457.845,97.726c0.166,0.215,0.342,0.421,0.519,0.636C458.188,98.156,458.012,97.941,457.845,97.726z"/>
			</g>
			<g>
				<path d="M439.451,59.167c0,0.01,0,0.01,0,0.02h-11.428c0-0.01,0-0.01,0-0.02c0-3.102,2.514-5.616,5.616-5.616h0.196
					C436.937,53.551,439.451,56.065,439.451,59.167z"/>
			</g>
			<g>
				<path d="M428.024,59.187h11.428c-0.01,3.102-2.524,5.606-5.616,5.606h-0.196C430.548,64.793,428.033,62.288,428.024,59.187z"/>
			</g>
		</g>
		<g>
			<g>
				<rect x="416.4" y="108.625" width="43.5" height="3.914"/>
			</g>
			<g>
				<path d="M418.357,59.187h-3.914V36.869c0-2.643,2.151-4.794,4.794-4.794h12.25v3.914h-12.25c-0.485,0-0.88,0.395-0.88,0.88
					V59.187z"/>
			</g>
			<g>
				<path d="M539.229,59.187h-3.914V36.869c0-0.485-0.396-0.88-0.881-0.88h-85.258v-3.914h85.258c2.644,0,4.795,2.151,4.795,4.794
					V59.187z"/>
			</g>
			<g>
				<rect x="493.782" y="108.625" width="43.49" height="3.914"/>
			</g>
			<g>
				<path d="M534.434,122.186H419.237c-2.643,0-4.794-2.151-4.794-4.795V57.23h17.974v3.914h-14.06v56.248
					c0,0.485,0.395,0.881,0.88,0.881h115.197c0.485,0,0.881-0.396,0.881-0.881V61.144h-36.143V57.23h40.056v60.161
					C539.229,120.035,537.078,122.186,534.434,122.186z"/>
			</g>
			<g>
				<rect x="436.762" y="57.23" width="17.737" height="3.914"/>
			</g>
			<g>
				<path d="M476.836,117.294c-6.349,0-12.558-1.744-17.956-5.042c-10.34-6.322-16.512-17.323-16.512-29.427
					c0-9.574,3.83-18.473,10.786-25.059c6.431-6.075,14.841-9.42,23.682-9.42c8.851,0,17.262,3.345,23.682,9.419
					c6.963,6.582,10.797,15.481,10.797,25.06c0,12.103-6.172,23.103-16.512,29.426l-0.002,0.001
					C489.394,115.55,483.181,117.294,476.836,117.294z M476.836,52.26c-7.838,0-15.293,2.965-20.994,8.35
					c-6.165,5.838-9.561,13.728-9.561,22.216c0,10.73,5.473,20.481,14.64,26.087c4.783,2.923,10.287,4.468,15.915,4.468
					c5.626,0,11.134-1.545,15.928-4.469c9.166-5.607,14.638-15.358,14.638-26.086c0-8.491-3.4-16.381-9.573-22.217
					C492.138,55.225,484.683,52.26,476.836,52.26z"/>
			</g>
			<g>
				<path d="M476.836,110.817c-15.435,0-27.992-12.557-27.992-27.991c0-15.44,12.558-28.002,27.992-28.002
					c15.44,0,28.002,12.562,28.002,28.002C504.838,98.26,492.276,110.817,476.836,110.817z M476.836,58.737
					c-13.277,0-24.079,10.806-24.079,24.088c0,13.276,10.802,24.078,24.079,24.078c13.282,0,24.088-10.802,24.088-24.078
					C500.924,69.543,490.118,58.737,476.836,58.737z"/>
			</g>
			<g>
				<polygon points="416.4,69.822 408.113,69.822 408.113,50.694 416.4,50.694 416.4,54.607 412.027,54.607 412.027,65.909 
					416.4,65.909 				"/>
			</g>
			<g>
				<polygon points="545.559,69.822 537.272,69.822 537.272,65.909 541.645,65.909 541.645,54.607 537.272,54.607 537.272,50.694 
					545.559,50.694 				"/>
			</g>
			<g>
				<path d="M451.134,35.989h-21.603v-7.954c0-1.91,1.554-3.464,3.464-3.464h14.676c1.91,0,3.464,1.554,3.464,3.464V35.989z
					 M433.444,32.075h13.776v-3.591h-13.776V32.075z"/>
			</g>
			<g>
				<rect x="431.908" y="110.582" width="3.914" height="9.647"/>
			</g>
			<g>
				<rect x="517.85" y="110.582" width="3.914" height="9.647"/>
			</g>
		</g>
	</g>
	<g>
		<path d="M38.091,79.063c2.437,0,4.186-0.44,5.247-1.321c1.06-0.88,1.591-1.929,1.591-3.148c0-1.128-0.418-2.042-1.253-2.742
			c-0.836-0.699-2.064-1.297-3.69-1.794l-3.588-1.151c-2.437-0.813-4.593-1.715-6.466-2.708c-1.874-0.992-3.318-2.279-4.333-3.859
			c-1.016-1.579-1.524-3.588-1.524-6.025c0-3.746,1.422-6.725,4.265-8.937c2.844-2.211,6.793-3.318,11.848-3.318
			c2.572,0,4.863,0.249,6.872,0.745c2.008,0.497,3.588,1.23,4.739,2.2c1.151,0.971,1.727,2.156,1.727,3.554
			c0,1.039-0.237,1.93-0.711,2.674c-0.474,0.745-1.073,1.388-1.794,1.93c-1.039-0.721-2.415-1.342-4.13-1.862
			c-1.716-0.518-3.611-0.779-5.687-0.779c-2.166,0-3.791,0.35-4.874,1.049c-1.083,0.7-1.625,1.615-1.625,2.742
			c0,0.903,0.361,1.637,1.083,2.2c0.721,0.565,1.805,1.073,3.25,1.523l3.723,1.151c4.107,1.264,7.267,2.945,9.479,5.044
			c2.211,2.099,3.317,4.909,3.317,8.429c0,3.791-1.467,6.872-4.401,9.241c-2.934,2.369-7.177,3.554-12.728,3.554
			c-2.753,0-5.213-0.294-7.38-0.88c-2.166-0.586-3.893-1.444-5.179-2.573c-1.286-1.128-1.93-2.437-1.93-3.926
			c0-1.173,0.349-2.177,1.049-3.013c0.7-0.834,1.478-1.456,2.336-1.862c1.219,0.993,2.742,1.885,4.57,2.675
			C33.724,78.668,35.789,79.063,38.091,79.063z"/>
		<path d="M98.752,71.141V85.02c-0.587,0.541-1.411,0.982-2.471,1.321c-1.061,0.338-2.314,0.507-3.758,0.507
			c-1.535,0-2.968-0.248-4.299-0.745c-1.332-0.495-2.427-1.601-3.284-3.317l-8.192-15.572c-0.497-0.993-0.982-1.986-1.455-2.979
			c-0.474-0.992-0.937-1.997-1.388-3.012c-0.451-1.016-0.903-2.042-1.354-3.081l-9.885,2.234V47.039
			c0.542-0.767,1.388-1.354,2.539-1.76c1.15-0.406,2.403-0.609,3.757-0.609c1.489,0,2.899,0.248,4.231,0.744
			c1.331,0.497,2.426,1.581,3.284,3.25l8.26,15.639c0.496,0.948,0.992,1.93,1.489,2.945c0.496,1.016,0.97,2.021,1.422,3.013
			c0.451,0.993,0.88,2.008,1.286,3.047L98.752,71.141z M62.666,56.991l9.343-0.135c0.18,1.941,0.315,3.859,0.406,5.755
			c0.09,1.896,0.146,3.724,0.169,5.484c0.022,1.76,0.034,3.476,0.034,5.146v13.067c-0.406,0.089-1.049,0.192-1.929,0.305
			c-0.88,0.112-1.772,0.169-2.675,0.169c-1.987,0-3.374-0.339-4.163-1.016c-0.79-0.677-1.185-1.896-1.185-3.656V56.991z
			 M98.752,74.391l-9.411,0.068c-0.316-3.294-0.497-6.432-0.541-9.411c-0.045-2.979-0.068-5.822-0.068-8.531V45.143
			c0.451-0.09,1.105-0.203,1.963-0.338c0.857-0.135,1.76-0.203,2.708-0.203c1.94,0,3.317,0.35,4.13,1.049
			c0.813,0.7,1.219,1.907,1.219,3.622V74.391z"/>
		<path d="M124.818,53.809h-0.406c-0.452,1.445-0.982,3.047-1.591,4.807c-0.609,1.761-1.231,3.6-1.862,5.518
			c-0.633,1.919-1.242,3.825-1.828,5.721l-1.219,6.094c-0.271,0.858-0.531,1.76-0.779,2.708c-0.248,0.947-0.508,1.874-0.779,2.775
			c-0.271,0.904-0.52,1.761-0.744,2.573c-0.227,0.812-0.452,1.581-0.677,2.302c-0.497,0.135-1.061,0.281-1.692,0.44
			c-0.633,0.158-1.378,0.237-2.234,0.237c-1.895,0-3.341-0.338-4.333-1.016c-0.993-0.677-1.489-1.669-1.489-2.979
			c0-0.541,0.078-1.105,0.237-1.692c0.158-0.586,0.349-1.263,0.576-2.03c0.406-1.49,0.982-3.363,1.726-5.62
			c0.745-2.256,1.558-4.705,2.437-7.346c0.88-2.64,1.783-5.247,2.708-7.82c0.925-2.572,1.783-4.942,2.573-7.109
			c0.789-2.166,1.432-3.859,1.93-5.077c0.631-0.406,1.635-0.779,3.012-1.117c1.376-0.339,2.742-0.508,4.096-0.508
			c1.94,0,3.678,0.282,5.213,0.846c1.534,0.565,2.505,1.455,2.912,2.674c0.857,2.393,1.794,5.157,2.809,8.293
			c1.016,3.138,2.041,6.421,3.081,9.851c1.037,3.431,2.041,6.76,3.012,9.986c0.97,3.228,1.817,6.127,2.539,8.7
			c-0.497,0.541-1.219,1.005-2.167,1.388c-0.948,0.384-2.077,0.576-3.385,0.576c-1.851,0-3.16-0.338-3.927-1.016
			c-0.768-0.677-1.354-1.692-1.76-3.046l-2.167-7.583l-1.151-5.755c-0.541-2.031-1.106-3.995-1.692-5.89
			c-0.587-1.895-1.129-3.69-1.625-5.382C125.675,56.619,125.224,55.119,124.818,53.809z M113.376,77.167l3.995-7.989h15.842
			l1.354,7.989H113.376z"/>
		<path d="M165.168,73.105h-14.963V48.867c0-0.857,0.248-1.534,0.745-2.031c0.496-0.496,1.151-0.88,1.963-1.151
			c1.489-0.541,3.272-0.925,5.349-1.15c2.076-0.225,3.949-0.339,5.619-0.339c6.093,0,10.708,1.298,13.845,3.893
			c3.137,2.596,4.705,6.127,4.705,10.596c0,2.889-0.689,5.416-2.065,7.583c-1.377,2.166-3.351,3.849-5.924,5.044
			C171.871,72.507,168.778,73.105,165.168,73.105z M150.205,68.568h10.291v17.67c-0.407,0.137-1.061,0.26-1.964,0.373
			c-0.903,0.112-1.828,0.169-2.776,0.169c-2.031,0-3.464-0.363-4.299-1.084c-0.836-0.721-1.253-1.986-1.253-3.791V68.568z
			 M160.429,64.98h4.062c2.302,0,4.119-0.541,5.451-1.625c1.331-1.083,1.997-2.641,1.997-4.671c0-2.031-0.633-3.565-1.896-4.604
			c-1.264-1.037-3.092-1.557-5.483-1.557c-0.813,0-1.547,0.024-2.201,0.068c-0.654,0.046-1.298,0.114-1.929,0.203V64.98z"/>
		<path d="M201.254,79.063c2.437,0,4.186-0.44,5.247-1.321c1.06-0.88,1.591-1.929,1.591-3.148c0-1.128-0.418-2.042-1.253-2.742
			c-0.836-0.699-2.064-1.297-3.69-1.794l-3.588-1.151c-2.437-0.813-4.593-1.715-6.466-2.708c-1.874-0.992-3.318-2.279-4.333-3.859
			c-1.016-1.579-1.524-3.588-1.524-6.025c0-3.746,1.422-6.725,4.265-8.937c2.844-2.211,6.793-3.318,11.848-3.318
			c2.572,0,4.863,0.249,6.872,0.745c2.008,0.497,3.588,1.23,4.739,2.2c1.151,0.971,1.727,2.156,1.727,3.554
			c0,1.039-0.237,1.93-0.711,2.674c-0.474,0.745-1.073,1.388-1.794,1.93c-1.039-0.721-2.415-1.342-4.13-1.862
			c-1.716-0.518-3.611-0.779-5.687-0.779c-2.166,0-3.791,0.35-4.874,1.049c-1.083,0.7-1.625,1.615-1.625,2.742
			c0,0.903,0.361,1.637,1.083,2.2c0.721,0.565,1.805,1.073,3.25,1.523l3.723,1.151c4.107,1.264,7.267,2.945,9.479,5.044
			c2.211,2.099,3.317,4.909,3.317,8.429c0,3.791-1.467,6.872-4.401,9.241c-2.934,2.369-7.176,3.554-12.728,3.554
			c-2.753,0-5.213-0.294-7.38-0.88c-2.166-0.586-3.893-1.444-5.179-2.573c-1.286-1.128-1.93-2.437-1.93-3.926
			c0-1.173,0.349-2.177,1.049-3.013c0.7-0.834,1.478-1.456,2.336-1.862c1.219,0.993,2.742,1.885,4.57,2.675
			C196.887,78.668,198.952,79.063,201.254,79.063z"/>
		<path d="M253.316,76.084c-0.497,0.406-1.163,0.744-1.998,1.016c-0.836,0.271-1.794,0.406-2.876,0.406
			c-1.401,0-2.573-0.18-3.521-0.542c-0.946-0.361-1.556-0.97-1.827-1.828c-1.535-4.288-2.834-7.853-3.893-10.697
			c-1.062-2.844-1.885-5.303-2.472-7.38h-0.339c-0.134,2.844-0.247,5.44-0.337,7.786c-0.092,2.347-0.16,4.638-0.205,6.872
			c-0.045,2.234-0.113,4.502-0.202,6.805c-0.092,2.302-0.226,4.83-0.407,7.582c-0.497,0.135-1.16,0.293-1.996,0.474
			c-0.836,0.18-1.66,0.271-2.472,0.271c-1.715,0-3.058-0.294-4.028-0.88c-0.971-0.586-1.455-1.601-1.455-3.046
			c0-0.992,0.056-2.472,0.169-4.435c0.112-1.963,0.248-4.22,0.407-6.77c0.158-2.549,0.315-5.247,0.474-8.09
			c0.158-2.844,0.338-5.653,0.541-8.429c0.204-2.776,0.395-5.337,0.576-7.684c0.361-0.542,1.083-1.094,2.167-1.659
			c1.083-0.564,2.572-0.846,4.467-0.846c2.031,0,3.667,0.328,4.91,0.982c1.241,0.655,2.133,1.727,2.674,3.216
			c0.676,1.625,1.398,3.51,2.166,5.653c0.767,2.144,1.523,4.311,2.269,6.5c0.744,2.19,1.431,4.163,2.064,5.924h0.339
			c1.262-3.972,2.561-7.854,3.893-11.645c1.33-3.791,2.469-6.95,3.418-9.478c0.631-0.361,1.434-0.643,2.403-0.846
			c0.97-0.204,1.998-0.305,3.081-0.305c1.94,0,3.507,0.282,4.706,0.846c1.196,0.565,1.907,1.411,2.133,2.539
			c0.179,0.858,0.372,2.212,0.574,4.062c0.205,1.851,0.417,3.984,0.643,6.398c0.226,2.415,0.452,4.943,0.678,7.583
			c0.226,2.641,0.44,5.213,0.643,7.718c0.205,2.505,0.374,4.751,0.508,6.736c0.137,1.987,0.226,3.566,0.271,4.74
			c-0.678,0.406-1.389,0.711-2.133,0.913c-0.744,0.204-1.681,0.305-2.811,0.305c-1.443,0-2.674-0.271-3.689-0.812
			c-1.015-0.541-1.57-1.579-1.66-3.114c-0.226-3.52-0.405-6.872-0.541-10.054c-0.134-3.182-0.235-6.093-0.304-8.734
			c-0.068-2.641-0.148-4.909-0.238-6.804h-0.339c-0.586,1.941-1.41,4.39-2.472,7.345C256.217,67.632,254.896,71.435,253.316,76.084z
			"/>
		<path d="M296.713,53.809h-0.406c-0.452,1.445-0.982,3.047-1.591,4.807c-0.61,1.761-1.23,3.6-1.862,5.518
			c-0.632,1.919-1.242,3.825-1.828,5.721l-1.218,6.094c-0.272,0.858-0.532,1.76-0.779,2.708c-0.248,0.947-0.507,1.874-0.778,2.775
			c-0.272,0.904-0.52,1.761-0.745,2.573c-0.227,0.812-0.452,1.581-0.677,2.302c-0.498,0.135-1.062,0.281-1.694,0.44
			c-0.632,0.158-1.377,0.237-2.234,0.237c-1.896,0-3.34-0.338-4.332-1.016c-0.993-0.677-1.49-1.669-1.49-2.979
			c0-0.541,0.079-1.105,0.237-1.692c0.158-0.586,0.35-1.263,0.576-2.03c0.407-1.49,0.982-3.363,1.727-5.62
			c0.745-2.256,1.557-4.705,2.437-7.346c0.88-2.64,1.783-5.247,2.708-7.82c0.925-2.572,1.783-4.942,2.573-7.109
			c0.789-2.166,1.432-3.859,1.929-5.077c0.632-0.406,1.636-0.779,3.013-1.117c1.377-0.339,2.742-0.508,4.096-0.508
			c1.941,0,3.679,0.282,5.214,0.846c1.534,0.565,2.505,1.455,2.911,2.674c0.857,2.393,1.795,5.157,2.811,8.293
			c1.015,3.138,2.041,6.421,3.08,9.851c1.038,3.431,2.042,6.76,3.013,9.986c0.97,3.228,1.816,6.127,2.539,8.7
			c-0.498,0.541-1.219,1.005-2.167,1.388c-0.947,0.384-2.076,0.576-3.385,0.576c-1.851,0-3.16-0.338-3.927-1.016
			c-0.767-0.677-1.354-1.692-1.76-3.046l-2.167-7.583l-1.151-5.755c-0.541-2.031-1.106-3.995-1.692-5.89
			c-0.587-1.895-1.129-3.69-1.625-5.382S297.119,55.119,296.713,53.809z M285.271,77.167l3.995-7.989h15.843l1.354,7.989H285.271z"
			/>
		<path d="M337.063,73.105H322.1V48.867c0-0.857,0.248-1.534,0.745-2.031c0.495-0.496,1.151-0.88,1.963-1.151
			c1.49-0.541,3.272-0.925,5.349-1.15c2.075-0.225,3.949-0.339,5.619-0.339c6.093,0,10.708,1.298,13.846,3.893
			c3.137,2.596,4.705,6.127,4.705,10.596c0,2.889-0.69,5.416-2.066,7.583c-1.377,2.166-3.351,3.849-5.924,5.044
			C343.766,72.507,340.674,73.105,337.063,73.105z M322.1,68.568h10.291v17.67c-0.406,0.137-1.062,0.26-1.963,0.373
			c-0.904,0.112-1.829,0.169-2.776,0.169c-2.031,0-3.464-0.363-4.299-1.084c-0.836-0.721-1.252-1.986-1.252-3.791V68.568z
			 M332.323,64.98h4.063c2.302,0,4.118-0.541,5.449-1.625c1.331-1.083,1.997-2.641,1.997-4.671c0-2.031-0.632-3.565-1.895-4.604
			c-1.264-1.037-3.093-1.557-5.485-1.557c-0.812,0-1.547,0.024-2.2,0.068c-0.656,0.046-1.298,0.114-1.93,0.203V64.98z"/>
		<path d="M373.149,79.063c2.437,0,4.186-0.44,5.247-1.321c1.06-0.88,1.591-1.929,1.591-3.148c0-1.128-0.418-2.042-1.252-2.742
			c-0.836-0.699-2.066-1.297-3.69-1.794l-3.589-1.151c-2.437-0.813-4.594-1.715-6.466-2.708c-1.873-0.992-3.317-2.279-4.332-3.859
			c-1.016-1.579-1.522-3.588-1.522-6.025c0-3.746,1.421-6.725,4.265-8.937c2.844-2.211,6.792-3.318,11.847-3.318
			c2.573,0,4.863,0.249,6.872,0.745c2.008,0.497,3.589,1.23,4.74,2.2c1.151,0.971,1.725,2.156,1.725,3.554
			c0,1.039-0.237,1.93-0.711,2.674c-0.473,0.745-1.072,1.388-1.794,1.93c-1.039-0.721-2.415-1.342-4.13-1.862
			c-1.716-0.518-3.611-0.779-5.687-0.779c-2.167,0-3.791,0.35-4.875,1.049c-1.083,0.7-1.624,1.615-1.624,2.742
			c0,0.903,0.36,1.637,1.083,2.2c0.721,0.565,1.805,1.073,3.25,1.523l3.724,1.151c4.106,1.264,7.267,2.945,9.479,5.044
			c2.21,2.099,3.317,4.909,3.317,8.429c0,3.791-1.466,6.872-4.401,9.241c-2.934,2.369-7.176,3.554-12.728,3.554
			c-2.754,0-5.214-0.294-7.38-0.88c-2.167-0.586-3.893-1.444-5.18-2.573c-1.286-1.128-1.928-2.437-1.928-3.926
			c0-1.173,0.348-2.177,1.048-3.013c0.699-0.834,1.478-1.456,2.336-1.862c1.218,0.993,2.741,1.885,4.57,2.675
			C368.783,78.668,370.847,79.063,373.149,79.063z"/>
	</g>
	<g>
		<g>
			<path d="M34.479,107.6c-0.635,1.135-1.529,1.981-2.68,2.537c-1.152,0.556-2.505,0.834-4.062,0.834
				c-0.509,0-1.104-0.024-1.787-0.072c-0.683-0.048-1.318-0.167-1.906-0.357c-0.715-0.238-1.072-0.659-1.072-1.263v-11.96
				c0-0.27,0.076-0.479,0.227-0.632c0.15-0.15,0.361-0.265,0.631-0.345c0.54-0.174,1.136-0.289,1.787-0.345
				c0.651-0.055,1.287-0.084,1.906-0.084c1.572,0,2.951,0.274,4.134,0.822c1.183,0.548,2.108,1.366,2.776,2.454
				c0.667,1.088,1.001,2.465,1.001,4.133C35.432,105.038,35.114,106.464,34.479,107.6z M32.168,100.261
				c-0.477-0.786-1.112-1.365-1.906-1.739c-0.795-0.373-1.692-0.56-2.692-0.56c-0.429,0-0.814,0.016-1.156,0.048
				s-0.663,0.071-0.965,0.119v10.579c0.334,0.079,0.699,0.135,1.096,0.167c0.397,0.032,0.794,0.048,1.191,0.048
				c1.652,0,2.922-0.472,3.812-1.418c0.889-0.944,1.334-2.338,1.334-4.181C32.883,102.068,32.645,101.048,32.168,100.261z"/>
			<path d="M53.753,105.11c0,1.191-0.231,2.231-0.691,3.121c-0.461,0.89-1.112,1.577-1.953,2.061
				c-0.842,0.484-1.835,0.726-2.978,0.726c-1.144,0-2.137-0.242-2.978-0.726c-0.842-0.484-1.493-1.167-1.954-2.049
				c-0.461-0.881-0.691-1.926-0.691-3.133c0-1.207,0.234-2.252,0.703-3.133c0.469-0.882,1.128-1.564,1.977-2.049
				c0.85-0.484,1.831-0.726,2.943-0.726c1.127,0,2.112,0.242,2.954,0.726c0.842,0.485,1.497,1.167,1.965,2.049
				C53.519,102.858,53.753,103.903,53.753,105.11z M48.131,101.179c-0.953,0-1.712,0.35-2.275,1.049
				c-0.564,0.699-0.846,1.66-0.846,2.882c0,1.239,0.274,2.204,0.822,2.894c0.548,0.691,1.314,1.037,2.299,1.037
				c0.985,0,1.751-0.349,2.299-1.047c0.548-0.699,0.822-1.66,0.822-2.883c0-1.222-0.278-2.184-0.834-2.882
				C49.861,101.529,49.099,101.179,48.131,101.179z"/>
			<path d="M71.217,103.371v2.359h-2.454v-2.264c0-0.793-0.222-1.373-0.667-1.739c-0.445-0.366-1.04-0.548-1.787-0.548
				c-0.556,0-1.056,0.071-1.501,0.215c-0.445,0.143-0.826,0.302-1.143,0.476v3.86H61.21v-3.907c0-0.366,0.076-0.664,0.227-0.894
				c0.151-0.23,0.393-0.448,0.727-0.656c0.445-0.27,1.025-0.515,1.739-0.738c0.715-0.222,1.517-0.333,2.406-0.333
				c1.541,0,2.744,0.345,3.61,1.037C70.783,100.928,71.217,101.973,71.217,103.371z M61.21,104.49h2.454v6.147
				c-0.111,0.032-0.266,0.072-0.465,0.12c-0.198,0.047-0.416,0.071-0.655,0.071c-0.445,0-0.778-0.087-1.001-0.261
				c-0.222-0.175-0.334-0.461-0.334-0.858V104.49z M68.762,104.49h2.454v6.147c-0.111,0.032-0.27,0.072-0.476,0.12
				c-0.207,0.047-0.421,0.071-0.644,0.071c-0.461,0-0.798-0.087-1.013-0.261c-0.215-0.175-0.322-0.461-0.322-0.858V104.49z"/>
			<path d="M79.745,100.94c-0.111,0.048-0.25,0.091-0.416,0.131c-0.167,0.041-0.346,0.06-0.536,0.06
				c-0.286,0-0.517-0.067-0.691-0.203c-0.175-0.134-0.278-0.337-0.31-0.608l-0.167-4.24c0.143-0.111,0.313-0.199,0.512-0.262
				c0.198-0.064,0.433-0.096,0.703-0.096c0.381,0,0.671,0.087,0.869,0.262c0.198,0.175,0.298,0.453,0.298,0.834
				c0,0.285-0.016,0.678-0.048,1.179c-0.032,0.5-0.064,1.016-0.095,1.548S79.793,100.544,79.745,100.94z"/>
			<path d="M89.586,105.062h-2.43v-8.6c0.095-0.032,0.246-0.072,0.452-0.12c0.207-0.048,0.429-0.071,0.668-0.071
				c0.444,0,0.774,0.087,0.989,0.261c0.215,0.175,0.322,0.461,0.322,0.858V105.062z M87.155,104.396h2.43v3.049
				c0,0.572,0.167,0.977,0.5,1.215c0.334,0.238,0.802,0.357,1.406,0.357c0.254,0,0.54-0.04,0.858-0.119
				c0.318-0.079,0.579-0.175,0.786-0.286c0.111,0.111,0.21,0.25,0.298,0.417c0.087,0.167,0.131,0.354,0.131,0.561
				c0,0.412-0.21,0.75-0.631,1.011c-0.421,0.262-1.052,0.393-1.894,0.393c-1.176,0-2.117-0.261-2.824-0.786
				c-0.706-0.524-1.06-1.397-1.06-2.62V104.396z M88.537,101.727v-1.953h4.741c0.064,0.095,0.123,0.23,0.179,0.405
				c0.055,0.175,0.083,0.357,0.083,0.548c0,0.333-0.076,0.584-0.227,0.75c-0.151,0.168-0.361,0.25-0.632,0.25H88.537z"/>
			<path d="M108.835,113.901c0.381-0.175,0.703-0.366,0.965-0.572c0.262-0.207,0.464-0.477,0.607-0.81
				c0.143-0.334,0.215-0.779,0.215-1.335v-7.29h2.43v7.648c0,0.953-0.159,1.703-0.476,2.251c-0.318,0.549-0.695,0.942-1.132,1.179
				c-0.437,0.238-0.845,0.358-1.227,0.358c-0.461,0-0.798-0.14-1.012-0.417C108.991,114.636,108.867,114.298,108.835,113.901z
				 M110.313,96.128c0-0.412,0.143-0.754,0.429-1.025c0.286-0.27,0.644-0.405,1.072-0.405c0.429,0,0.778,0.135,1.049,0.405
				c0.27,0.271,0.405,0.612,0.405,1.025c0,0.398-0.135,0.735-0.405,1.013c-0.27,0.278-0.62,0.417-1.049,0.417
				c-0.428,0-0.786-0.139-1.072-0.417S110.313,96.525,110.313,96.128z M113.053,105.824l-2.43-0.213v-6.004
				c0.095-0.032,0.246-0.067,0.453-0.108c0.206-0.04,0.428-0.059,0.667-0.059c0.445,0,0.774,0.083,0.989,0.249
				c0.215,0.168,0.322,0.457,0.322,0.87V105.824z"/>
			<path d="M123.679,105.681h-2.454v-6.099c0.111-0.032,0.27-0.072,0.477-0.12c0.206-0.047,0.428-0.071,0.667-0.071
				c0.445,0,0.774,0.083,0.989,0.25c0.215,0.167,0.322,0.464,0.322,0.893V105.681z M121.224,106.516v-2.025h2.454v1.953
				c0,0.922,0.242,1.584,0.726,1.989c0.485,0.405,1.156,0.608,2.013,0.608c0.572,0,1.056-0.059,1.454-0.179
				c0.397-0.119,0.699-0.242,0.905-0.369v-4.003h2.454v4.099c0,0.349-0.056,0.635-0.167,0.857c-0.111,0.223-0.333,0.437-0.667,0.644
				c-0.397,0.238-0.937,0.453-1.62,0.644s-1.477,0.285-2.382,0.285c-1.064,0-1.985-0.158-2.764-0.476
				c-0.778-0.318-1.374-0.81-1.787-1.478C121.431,108.398,121.224,107.549,121.224,106.516z M131.231,105.681h-2.454v-6.099
				c0.111-0.032,0.27-0.072,0.477-0.12c0.206-0.047,0.421-0.071,0.643-0.071c0.461,0,0.798,0.083,1.013,0.25
				c0.215,0.167,0.322,0.464,0.322,0.893V105.681z"/>
			<path d="M147.551,107.611c0,1.065-0.393,1.898-1.179,2.502c-0.786,0.603-1.926,0.905-3.419,0.905
				c-1.239,0-2.256-0.191-3.05-0.572c-0.795-0.381-1.191-0.841-1.191-1.382c0-0.238,0.06-0.457,0.179-0.656
				c0.119-0.198,0.282-0.361,0.488-0.488c0.445,0.285,0.957,0.548,1.537,0.786c0.579,0.238,1.235,0.357,1.965,0.357
				c1.493,0,2.24-0.476,2.24-1.43c0-0.412-0.128-0.742-0.381-0.989c-0.255-0.246-0.636-0.433-1.144-0.56l-1.668-0.429
				c-1.064-0.237-1.85-0.62-2.359-1.143c-0.509-0.524-0.763-1.198-0.763-2.025c0-0.92,0.378-1.699,1.132-2.335
				s1.854-0.953,3.3-0.953c0.746,0,1.409,0.076,1.989,0.227c0.579,0.151,1.032,0.361,1.358,0.63
				c0.325,0.271,0.488,0.573,0.488,0.906c0,0.238-0.056,0.453-0.167,0.644c-0.111,0.191-0.255,0.333-0.429,0.429
				c-0.191-0.111-0.445-0.238-0.762-0.382c-0.318-0.143-0.679-0.261-1.084-0.357c-0.405-0.095-0.822-0.143-1.251-0.143
				c-0.667,0-1.195,0.115-1.584,0.345c-0.389,0.231-0.584,0.56-0.584,0.989c0,0.302,0.111,0.568,0.334,0.798
				c0.222,0.231,0.596,0.401,1.119,0.513l1.406,0.357c1.191,0.27,2.069,0.687,2.633,1.251
				C147.269,105.971,147.551,106.706,147.551,107.611z"/>
			<path d="M157.438,105.062h-2.43v-8.6c0.095-0.032,0.246-0.072,0.452-0.12c0.207-0.048,0.429-0.071,0.668-0.071
				c0.444,0,0.774,0.087,0.989,0.261c0.215,0.175,0.322,0.461,0.322,0.858V105.062z M155.008,104.396h2.43v3.049
				c0,0.572,0.167,0.977,0.5,1.215c0.334,0.238,0.802,0.357,1.406,0.357c0.254,0,0.54-0.04,0.858-0.119
				c0.318-0.079,0.579-0.175,0.786-0.286c0.111,0.111,0.21,0.25,0.298,0.417c0.087,0.167,0.131,0.354,0.131,0.561
				c0,0.412-0.21,0.75-0.631,1.011c-0.421,0.262-1.052,0.393-1.894,0.393c-1.176,0-2.117-0.261-2.824-0.786
				c-0.706-0.524-1.06-1.397-1.06-2.62V104.396z M156.39,101.727v-1.953h4.741c0.064,0.095,0.123,0.23,0.179,0.405
				c0.055,0.175,0.083,0.357,0.083,0.548c0,0.333-0.076,0.584-0.227,0.75c-0.151,0.168-0.361,0.25-0.632,0.25H156.39z"/>
			<path d="M186.528,107.611c0,1.065-0.393,1.898-1.179,2.502c-0.786,0.603-1.926,0.905-3.419,0.905
				c-1.239,0-2.256-0.191-3.05-0.572c-0.795-0.381-1.191-0.841-1.191-1.382c0-0.238,0.06-0.457,0.179-0.656
				c0.119-0.198,0.282-0.361,0.488-0.488c0.445,0.285,0.957,0.548,1.537,0.786c0.579,0.238,1.235,0.357,1.965,0.357
				c1.493,0,2.24-0.476,2.24-1.43c0-0.412-0.128-0.742-0.381-0.989c-0.255-0.246-0.636-0.433-1.144-0.56l-1.668-0.429
				c-1.064-0.237-1.85-0.62-2.359-1.143c-0.509-0.524-0.763-1.198-0.763-2.025c0-0.92,0.378-1.699,1.132-2.335
				c0.754-0.635,1.854-0.953,3.3-0.953c0.746,0,1.409,0.076,1.989,0.227c0.579,0.151,1.032,0.361,1.358,0.63
				c0.325,0.271,0.488,0.573,0.488,0.906c0,0.238-0.056,0.453-0.167,0.644c-0.111,0.191-0.255,0.333-0.429,0.429
				c-0.191-0.111-0.445-0.238-0.762-0.382c-0.318-0.143-0.679-0.261-1.084-0.357c-0.405-0.095-0.822-0.143-1.251-0.143
				c-0.667,0-1.195,0.115-1.584,0.345c-0.389,0.231-0.584,0.56-0.584,0.989c0,0.302,0.111,0.568,0.334,0.798
				c0.222,0.231,0.596,0.401,1.119,0.513l1.406,0.357c1.191,0.27,2.069,0.687,2.633,1.251
				C186.246,105.971,186.528,106.706,186.528,107.611z"/>
			<path d="M203.944,103.371v2.359h-2.454v-2.264c0-0.793-0.222-1.373-0.667-1.739c-0.445-0.366-1.04-0.548-1.787-0.548
				c-0.556,0-1.056,0.071-1.501,0.215c-0.445,0.143-0.826,0.302-1.143,0.476v3.86h-2.454v-3.907c0-0.366,0.076-0.664,0.227-0.894
				c0.151-0.23,0.393-0.448,0.727-0.656c0.445-0.27,1.025-0.515,1.739-0.738c0.715-0.222,1.517-0.333,2.406-0.333
				c1.541,0,2.744,0.345,3.61,1.037C203.511,100.928,203.944,101.973,203.944,103.371z M193.937,104.49h2.454v6.147
				c-0.111,0.032-0.266,0.072-0.465,0.12c-0.198,0.047-0.416,0.071-0.655,0.071c-0.445,0-0.778-0.087-1.001-0.261
				c-0.222-0.175-0.334-0.461-0.334-0.858V104.49z M201.49,104.49h2.454v6.147c-0.111,0.032-0.27,0.072-0.476,0.12
				c-0.207,0.047-0.421,0.071-0.644,0.071c-0.461,0-0.798-0.087-1.013-0.261c-0.215-0.175-0.322-0.461-0.322-0.858V104.49z"/>
			<path d="M216.118,99.202c1.477,0,2.649,0.321,3.514,0.965c0.865,0.644,1.299,1.656,1.299,3.038v5.551
				c0,0.366-0.08,0.651-0.238,0.857c-0.159,0.207-0.381,0.389-0.667,0.549c-0.413,0.237-0.95,0.44-1.608,0.608
				c-0.659,0.167-1.402,0.249-2.228,0.249c-1.541,0-2.744-0.297-3.609-0.893c-0.866-0.596-1.299-1.473-1.299-2.633
				c0-1.049,0.341-1.854,1.024-2.418c0.683-0.563,1.652-0.901,2.907-1.013l3.335-0.333v-0.548c0-0.715-0.23-1.231-0.691-1.548
				c-0.461-0.318-1.088-0.477-1.882-0.477c-0.635,0-1.251,0.087-1.846,0.262c-0.596,0.175-1.124,0.373-1.584,0.596
				c-0.143-0.127-0.27-0.282-0.381-0.465c-0.111-0.182-0.167-0.378-0.167-0.584c0-0.493,0.27-0.865,0.81-1.119
				c0.445-0.207,0.957-0.366,1.537-0.477C214.923,99.257,215.514,99.202,216.118,99.202z M216.19,109.113
				c0.572,0,1.061-0.06,1.465-0.179c0.405-0.12,0.703-0.235,0.893-0.345v-3.074l-2.644,0.262c-0.73,0.064-1.283,0.227-1.656,0.488
				c-0.373,0.262-0.56,0.647-0.56,1.155c0,0.525,0.207,0.938,0.62,1.239C214.72,108.962,215.348,109.113,216.19,109.113z"/>
			<path d="M232.128,110.733c-0.556-0.175-0.985-0.373-1.287-0.596v-2.168c0.301,0.27,0.679,0.512,1.132,0.726
				c0.452,0.215,0.989,0.321,1.608,0.321c1.032,0,1.855-0.318,2.466-0.953c0.611-0.635,0.917-1.636,0.917-3.002
				c0-0.953-0.151-1.711-0.452-2.275c-0.302-0.564-0.707-0.973-1.215-1.227s-1.064-0.381-1.668-0.381
				c-0.509,0-0.945,0.064-1.31,0.191c-0.366,0.127-0.683,0.27-0.953,0.429v7.695h-2.454v-7.839c0-0.333,0.068-0.606,0.203-0.821
				c0.135-0.215,0.37-0.425,0.703-0.632c0.445-0.27,0.989-0.505,1.632-0.703c0.643-0.198,1.37-0.297,2.18-0.297
				c1.096,0,2.085,0.206,2.966,0.62c0.881,0.412,1.576,1.047,2.085,1.906c0.508,0.858,0.762,1.97,0.762,3.335
				c0,1.319-0.234,2.418-0.702,3.3c-0.469,0.881-1.12,1.54-1.954,1.977c-0.834,0.436-1.783,0.654-2.847,0.654
				C233.288,110.994,232.684,110.907,232.128,110.733z M231.366,114.95c-0.111,0.047-0.266,0.091-0.465,0.131
				c-0.198,0.04-0.416,0.06-0.655,0.06c-0.445,0-0.778-0.087-1.001-0.262s-0.334-0.469-0.334-0.882v-5.265l2.454,0.048V114.95z"/>
			<path d="M256.311,96.128c0-0.412,0.143-0.754,0.429-1.025c0.286-0.27,0.635-0.405,1.048-0.405c0.445,0,0.802,0.135,1.072,0.405
				c0.27,0.271,0.405,0.612,0.405,1.025c0,0.398-0.135,0.735-0.405,1.013c-0.27,0.278-0.627,0.417-1.072,0.417
				c-0.413,0-0.762-0.139-1.048-0.417C256.453,96.862,256.311,96.525,256.311,96.128z M259.027,105.611h-2.454v-6.004
				c0.111-0.032,0.27-0.067,0.476-0.108c0.207-0.04,0.429-0.059,0.668-0.059c0.445,0,0.774,0.083,0.989,0.249
				c0.215,0.168,0.322,0.457,0.322,0.87V105.611z M256.573,104.396h2.454v6.241c-0.111,0.032-0.267,0.072-0.465,0.12
				c-0.199,0.047-0.417,0.071-0.655,0.071c-0.445,0-0.778-0.087-1.001-0.261c-0.223-0.175-0.334-0.461-0.334-0.858V104.396z"/>
			<path d="M269.677,105.062h-2.43v-8.6c0.095-0.032,0.246-0.072,0.452-0.12c0.207-0.048,0.429-0.071,0.668-0.071
				c0.444,0,0.774,0.087,0.989,0.261c0.215,0.175,0.322,0.461,0.322,0.858V105.062z M267.246,104.396h2.43v3.049
				c0,0.572,0.167,0.977,0.5,1.215c0.334,0.238,0.802,0.357,1.406,0.357c0.254,0,0.54-0.04,0.858-0.119
				c0.318-0.079,0.579-0.175,0.786-0.286c0.111,0.111,0.21,0.25,0.298,0.417c0.087,0.167,0.131,0.354,0.131,0.561
				c0,0.412-0.21,0.75-0.631,1.011c-0.421,0.262-1.052,0.393-1.894,0.393c-1.176,0-2.117-0.261-2.823-0.786
				c-0.706-0.524-1.06-1.397-1.06-2.62V104.396z M268.628,101.727v-1.953h4.741c0.064,0.095,0.123,0.23,0.179,0.405
				c0.055,0.175,0.083,0.357,0.083,0.548c0,0.333-0.076,0.584-0.227,0.75c-0.151,0.168-0.361,0.25-0.632,0.25H268.628z"/>
			<path d="M281.612,112.805c-0.318,0.477-0.715,0.715-1.191,0.715c-0.429,0-0.795-0.151-1.096-0.453
				c0.175-0.461,0.353-0.989,0.536-1.584c0.182-0.596,0.349-1.2,0.5-1.811s0.274-1.147,0.37-1.608
				c0.158-0.079,0.341-0.146,0.548-0.203c0.206-0.055,0.421-0.083,0.644-0.083c0.349,0,0.627,0.079,0.834,0.237
				c0.207,0.159,0.31,0.429,0.31,0.81c0,0.366-0.083,0.815-0.25,1.347c-0.167,0.531-0.366,1.039-0.596,1.524
				C281.989,112.182,281.786,112.551,281.612,112.805z"/>
			<path d="M308.892,102.966v2.74h-2.43v-2.477c0-0.715-0.206-1.236-0.619-1.562c-0.413-0.325-0.946-0.488-1.596-0.488
				c-0.445,0-0.87,0.071-1.275,0.215c-0.405,0.143-0.743,0.302-1.013,0.476v3.836h-2.454v-3.883c0-0.35,0.076-0.644,0.227-0.882
				s0.393-0.46,0.727-0.668c0.445-0.301,1.016-0.555,1.716-0.762c0.699-0.206,1.405-0.309,2.12-0.309
				c0.794,0,1.509,0.123,2.145,0.369c0.635,0.247,1.135,0.592,1.501,1.037c0.111,0.095,0.206,0.187,0.286,0.273
				c0.079,0.087,0.15,0.195,0.215,0.322c0.126,0.222,0.234,0.484,0.321,0.786C308.848,102.291,308.892,102.616,308.892,102.966z
				 M299.505,104.49h2.454v6.147c-0.111,0.032-0.266,0.072-0.465,0.12c-0.198,0.047-0.416,0.071-0.655,0.071
				c-0.445,0-0.778-0.087-1.001-0.261c-0.222-0.175-0.334-0.461-0.334-0.858V104.49z M306.461,104.49h2.43v6.147
				c-0.095,0.032-0.246,0.072-0.452,0.12c-0.207,0.047-0.429,0.071-0.668,0.071c-0.445,0-0.774-0.087-0.989-0.261
				c-0.215-0.175-0.322-0.461-0.322-0.858V104.49z M315.825,103.108v2.597h-2.43v-2.477c0-0.715-0.199-1.236-0.596-1.562
				c-0.397-0.325-0.929-0.488-1.596-0.488c-0.493,0-0.965,0.103-1.418,0.309c-0.452,0.207-0.854,0.485-1.203,0.834l-1.143-1.596
				c0.46-0.412,1.024-0.771,1.692-1.071c0.667-0.302,1.445-0.453,2.335-0.453c0.842,0,1.592,0.139,2.251,0.417
				c0.659,0.278,1.176,0.707,1.549,1.286C315.638,101.485,315.825,102.219,315.825,103.108z M313.395,104.49h2.43v6.147
				c-0.095,0.032-0.246,0.072-0.452,0.12c-0.207,0.047-0.421,0.071-0.644,0.071c-0.461,0-0.798-0.087-1.013-0.261
				c-0.214-0.175-0.321-0.461-0.321-0.858V104.49z"/>
			<path d="M328.023,99.202c1.477,0,2.649,0.321,3.514,0.965c0.865,0.644,1.298,1.656,1.298,3.038v5.551
				c0,0.366-0.08,0.651-0.238,0.857c-0.159,0.207-0.381,0.389-0.667,0.549c-0.413,0.237-0.95,0.44-1.608,0.608
				c-0.659,0.167-1.402,0.249-2.228,0.249c-1.541,0-2.744-0.297-3.609-0.893c-0.866-0.596-1.298-1.473-1.298-2.633
				c0-1.049,0.341-1.854,1.024-2.418c0.683-0.563,1.652-0.901,2.907-1.013l3.335-0.333v-0.548c0-0.715-0.23-1.231-0.691-1.548
				c-0.461-0.318-1.088-0.477-1.882-0.477c-0.635,0-1.251,0.087-1.846,0.262c-0.596,0.175-1.124,0.373-1.584,0.596
				c-0.143-0.127-0.27-0.282-0.381-0.465c-0.111-0.182-0.167-0.378-0.167-0.584c0-0.493,0.27-0.865,0.81-1.119
				c0.445-0.207,0.957-0.366,1.537-0.477C326.828,99.257,327.419,99.202,328.023,99.202z M328.094,109.113
				c0.572,0,1.061-0.06,1.465-0.179c0.405-0.12,0.703-0.235,0.893-0.345v-3.074l-2.644,0.262c-0.73,0.064-1.283,0.227-1.656,0.488
				c-0.373,0.262-0.56,0.647-0.56,1.155c0,0.525,0.207,0.938,0.62,1.239C326.625,108.962,327.252,109.113,328.094,109.113z"/>
			<path d="M344.033,110.733c-0.556-0.175-0.985-0.373-1.287-0.596v-2.168c0.301,0.27,0.679,0.512,1.132,0.726
				c0.452,0.215,0.989,0.321,1.608,0.321c1.032,0,1.855-0.318,2.466-0.953c0.611-0.635,0.917-1.636,0.917-3.002
				c0-0.953-0.151-1.711-0.452-2.275c-0.302-0.564-0.707-0.973-1.215-1.227c-0.508-0.254-1.064-0.381-1.668-0.381
				c-0.509,0-0.945,0.064-1.31,0.191c-0.366,0.127-0.683,0.27-0.953,0.429v7.695h-2.454v-7.839c0-0.333,0.068-0.606,0.203-0.821
				c0.135-0.215,0.37-0.425,0.703-0.632c0.445-0.27,0.989-0.505,1.632-0.703c0.643-0.198,1.37-0.297,2.18-0.297
				c1.096,0,2.085,0.206,2.966,0.62c0.881,0.412,1.576,1.047,2.085,1.906c0.508,0.858,0.762,1.97,0.762,3.335
				c0,1.319-0.234,2.418-0.702,3.3c-0.469,0.881-1.12,1.54-1.954,1.977c-0.833,0.436-1.783,0.654-2.847,0.654
				C345.192,110.994,344.589,110.907,344.033,110.733z M343.271,114.95c-0.111,0.047-0.266,0.091-0.465,0.131
				c-0.198,0.04-0.416,0.06-0.655,0.06c-0.445,0-0.778-0.087-1.001-0.262c-0.222-0.175-0.334-0.469-0.334-0.882v-5.265l2.454,0.048
				V114.95z"/>
			<path d="M368.215,96.128c0-0.412,0.144-0.754,0.429-1.025c0.286-0.27,0.635-0.405,1.049-0.405c0.445,0,0.802,0.135,1.073,0.405
				c0.27,0.271,0.405,0.612,0.405,1.025c0,0.398-0.135,0.735-0.405,1.013c-0.271,0.278-0.628,0.417-1.073,0.417
				c-0.413,0-0.762-0.139-1.049-0.417C368.359,96.862,368.215,96.525,368.215,96.128z M370.932,105.611h-2.454v-6.004
				c0.111-0.032,0.27-0.067,0.477-0.108c0.206-0.04,0.429-0.059,0.666-0.059c0.445,0,0.774,0.083,0.989,0.249
				c0.215,0.168,0.322,0.457,0.322,0.87V105.611z M368.477,104.396h2.454v6.241c-0.111,0.032-0.266,0.072-0.465,0.12
				c-0.199,0.047-0.417,0.071-0.656,0.071c-0.445,0-0.778-0.087-1.001-0.261c-0.222-0.175-0.333-0.461-0.333-0.858V104.396z"/>
			<path d="M381.581,105.062h-2.43v-8.6c0.096-0.032,0.247-0.072,0.453-0.12c0.206-0.048,0.429-0.071,0.668-0.071
				c0.445,0,0.774,0.087,0.989,0.261c0.215,0.175,0.321,0.461,0.321,0.858V105.062z M379.15,104.396h2.43v3.049
				c0,0.572,0.167,0.977,0.501,1.215c0.333,0.238,0.802,0.357,1.406,0.357c0.254,0,0.539-0.04,0.857-0.119
				c0.318-0.079,0.58-0.175,0.786-0.286c0.111,0.111,0.211,0.25,0.298,0.417c0.087,0.167,0.131,0.354,0.131,0.561
				c0,0.412-0.211,0.75-0.632,1.011c-0.421,0.262-1.052,0.393-1.894,0.393c-1.176,0-2.116-0.261-2.823-0.786
				c-0.707-0.524-1.061-1.397-1.061-2.62V104.396z M380.533,101.727v-1.953h4.741c0.062,0.095,0.122,0.23,0.179,0.405
				c0.055,0.175,0.083,0.357,0.083,0.548c0,0.333-0.076,0.584-0.227,0.75c-0.151,0.168-0.361,0.25-0.63,0.25H380.533z"/>
			<path d="M391.849,109.446c0-0.445,0.139-0.817,0.417-1.119c0.277-0.302,0.654-0.453,1.131-0.453c0.493,0,0.874,0.151,1.143,0.453
				s0.405,0.675,0.405,1.119s-0.135,0.819-0.405,1.121c-0.27,0.301-0.651,0.452-1.143,0.452c-0.477,0-0.854-0.151-1.131-0.452
				C391.988,110.264,391.849,109.89,391.849,109.446z"/>
		</g>
	</g>
</g>
</svg>
