<svg version="1.1" id="Layer_1" xmlns="http://www.w3.org/2000/svg" xmlns:xlink="http://www.w3.org/1999/xlink" x="0px" y="0px" enable-background="new 0 0 650 212.775" xml:space="preserve" viewBox="448.83 57.55 137.47 97.65">
  <g>
    <g id="XMLID_00000012442436565232896900000004128972919783849887_">
      <g>
        <g>
          <path fill="#76B7B3" d="M489.911,61.044v5.998h-17.689v-5.998c0-0.832,0.675-1.507,1.507-1.507h14.676 C489.236,59.537,489.911,60.212,489.911,61.044z" />
        </g>
        <g>
          <path fill="#F4E8C6" d="M578.007,143.591v6.81c0,1.565-1.272,2.837-2.837,2.837h-14.627v-9.647H578.007z" />
        </g>
        <g>
          <path fill="#76B7B3" d="M578.007,100.874v42.717h-17.464h-26.025c9.344-5.714,15.576-16.007,15.576-27.757 c0-9.314-3.914-17.709-10.185-23.638h38.099V100.874z M559.28,115.834c0-3.062-2.485-5.548-5.547-5.548h-2.133v11.085h2.133 C556.795,121.372,559.28,118.897,559.28,115.834z" />
        </g>
        <g>
          <path fill="#F4E8C6" d="M578.007,85.66v6.536h-38.099c-5.821-5.508-13.688-8.884-22.337-8.884 c-8.649,0-16.506,3.375-22.337,8.884h-15.048c0-0.01,0-0.01,0-0.02c0-3.102-2.514-5.616-5.616-5.616h-0.196 c-3.102,0-5.616,2.514-5.616,5.616c0,0.01,0,0.01,0,0.02h-11.623V85.66V69.879c0-1.565,1.272-2.837,2.837-2.837h12.25h17.689 h85.258c1.565,0,2.837,1.272,2.837,2.837V85.66z M568.526,83.205v-5.401h-13.473v5.401H568.526z" />
        </g>
        <g>
          <rect x="555.053" y="77.804" width="13.473" height="5.401" />
        </g>
        <g>
          <path fill="#F4E8C6" d="M560.542,143.591v9.647h-85.943v-9.647h26.035c4.931,3.013,10.733,4.755,16.936,4.755 c6.203,0,12.005-1.742,16.946-4.755H560.542z" />
        </g>
        <g>
          <path d="M553.732,110.287c3.062,0,5.547,2.485,5.547,5.548s-2.485,5.538-5.547,5.538h-2.133v-11.085H553.732z" />
        </g>
        <g>
          <path d="M498.472,115.56l-0.969,0.969c-0.098,0.098-0.264,0.098-0.362,0s-0.098-0.264,0-0.362l1.331-1.331v-0.685l-0.675,0.675 c-0.098,0.098-0.264,0.098-0.362,0s-0.098-0.254,0-0.352l1.037-1.047v-0.577l-0.499,0.499c-0.049,0.049-0.117,0.078-0.186,0.078 c-0.059,0-0.127-0.029-0.176-0.078c-0.098-0.098-0.098-0.264,0-0.362l0.939-0.929c0.049-0.049,0.108-0.078,0.176-0.078 c0,0,0,0,0.01,0c0.068,0,0.127,0.029,0.176,0.078l0.929,0.929c0.098,0.098,0.098,0.264,0,0.362s-0.254,0.098-0.362,0 l-0.499-0.499v0.577l1.037,1.047c0.098,0.098,0.098,0.254,0,0.352c-0.049,0.049-0.117,0.078-0.176,0.078 c-0.068,0-0.137-0.029-0.186-0.078l-0.675-0.675v0.685l1.331,1.331c0.098,0.098,0.098,0.264,0,0.362 c-0.049,0.049-0.117,0.078-0.176,0.078c-0.068,0-0.137-0.029-0.186-0.078l-0.969-0.969v2.603 c1.252-0.02,3.258-0.039,5.694,0.029v-3.767l-1.36,1.35c-0.069,0.068-0.157,0.098-0.245,0.098c-0.078,0-0.166-0.029-0.235-0.098 c-0.137-0.127-0.137-0.342,0-0.479l1.839-1.83v-0.978l-0.959,0.949c-0.068,0.068-0.157,0.098-0.245,0.098 c-0.088,0-0.176-0.029-0.235-0.098c-0.137-0.137-0.137-0.352,0-0.479l1.438-1.428v-0.851l-0.724,0.714 c-0.059,0.068-0.147,0.098-0.235,0.098c-0.088,0-0.176-0.029-0.235-0.098c-0.137-0.137-0.137-0.352,0-0.479l1.291-1.282 c0-0.01,0-0.01,0-0.01c0.029-0.029,0.069-0.049,0.108-0.068c0.078-0.029,0.176-0.029,0.254,0 c0.049,0.02,0.078,0.049,0.117,0.078l1.282,1.282c0.127,0.137,0.127,0.342,0,0.479c-0.137,0.127-0.342,0.127-0.479,0 l-0.704-0.704v0.841l1.428,1.428c0.127,0.127,0.127,0.342,0,0.479c-0.137,0.127-0.342,0.127-0.479,0l-0.949-0.949v0.978 l1.83,1.83c0.127,0.137,0.127,0.352,0,0.479c-0.137,0.137-0.352,0.137-0.479,0l-1.35-1.35v3.786 c0.626,0.02,1.282,0.049,1.957,0.078c1.331-2.828,4.285-4.481,7.426-4.139c3.102,0.342,5.655,2.691,6.301,5.724 c1.106,0.235,2.074,0.46,2.935,0.695c0.108-0.02,0.206-0.029,0.313-0.049v-1.879l-0.881,0.587 c-0.157,0.098-0.372,0.059-0.47-0.098c-0.108-0.157-0.068-0.362,0.088-0.47l1.262-0.832v-0.607l-0.597,0.382 c-0.156,0.098-0.372,0.049-0.47-0.108c-0.098-0.157-0.049-0.362,0.108-0.47l0.959-0.607v-0.46l-0.401,0.294 c-0.157,0.108-0.362,0.068-0.47-0.078c-0.108-0.157-0.078-0.362,0.078-0.479l0.93-0.665c0.01,0,0.02,0,0.02-0.01 c0.059-0.029,0.117-0.049,0.176-0.049c0.068,0,0.127,0.02,0.176,0.049c0.01,0.01,0.02,0.01,0.02,0.01l0.939,0.665 c0.147,0.117,0.186,0.323,0.078,0.479c-0.068,0.088-0.176,0.137-0.274,0.137c-0.068,0-0.137-0.02-0.196-0.059l-0.401-0.294v0.46 l0.959,0.607c0.157,0.108,0.206,0.313,0.108,0.47c-0.068,0.098-0.176,0.157-0.294,0.157c-0.059,0-0.117-0.02-0.176-0.049 l-0.597-0.382v0.607l1.252,0.832c0.157,0.108,0.196,0.313,0.098,0.47c-0.068,0.098-0.176,0.157-0.284,0.157 c-0.068,0-0.127-0.02-0.186-0.059l-0.881-0.587v1.761c1.057-0.176,2.192-0.333,3.366-0.47c1.409-0.352,2.759-0.665,4.051-0.959 v-0.734l-0.46,0.303c-0.029,0.02-0.068,0.029-0.098,0.029c-0.049,0-0.108-0.029-0.137-0.078 c-0.059-0.078-0.029-0.176,0.049-0.235l0.646-0.43v-0.313l-0.313,0.196c-0.088,0.049-0.186,0.02-0.235-0.059 c-0.049-0.078-0.029-0.186,0.049-0.235l0.499-0.303v-0.254l-0.215,0.157c-0.078,0.049-0.186,0.029-0.235-0.039 c-0.059-0.078-0.039-0.186,0.039-0.245l0.479-0.333c0.059-0.039,0.137-0.039,0.196,0l0.479,0.333 c0.078,0.059,0.098,0.166,0.039,0.245c-0.029,0.039-0.078,0.068-0.137,0.068c-0.029,0-0.068-0.01-0.098-0.029l-0.215-0.157 v0.254l0.489,0.303c0.078,0.059,0.108,0.157,0.059,0.235c-0.029,0.059-0.088,0.078-0.147,0.078c-0.029,0-0.059,0-0.088-0.02 l-0.313-0.196v0.323l0.646,0.421c0.078,0.059,0.098,0.166,0.049,0.235c-0.059,0.078-0.157,0.098-0.235,0.049l-0.46-0.303v0.656 c0.89-0.196,1.742-0.382,2.563-0.548v-0.939l-0.499,0.333c-0.117,0.078-0.274,0.049-0.352-0.068s-0.049-0.274,0.068-0.352 l0.783-0.519v-0.294l-0.313,0.205c-0.117,0.068-0.274,0.039-0.352-0.078c-0.068-0.117-0.039-0.274,0.078-0.352l0.587-0.382 v-0.186l-0.186,0.137c-0.117,0.078-0.274,0.049-0.352-0.059c-0.078-0.117-0.059-0.274,0.059-0.352l0.587-0.43h0.01 c0.039-0.029,0.088-0.049,0.137-0.049c0.049,0,0.098,0.02,0.137,0.049h0.01l0.597,0.43c0.117,0.078,0.137,0.235,0.059,0.352 c-0.049,0.068-0.127,0.108-0.206,0.108c-0.049,0-0.108-0.02-0.147-0.049l-0.196-0.137v0.186l0.597,0.382 c0.117,0.078,0.147,0.235,0.078,0.352c-0.049,0.078-0.137,0.117-0.215,0.117c-0.049,0-0.098-0.02-0.137-0.039l-0.323-0.205 v0.294l0.783,0.519c0.117,0.078,0.147,0.235,0.068,0.352c-0.049,0.068-0.127,0.117-0.215,0.117c-0.049,0-0.098-0.02-0.137-0.049 l-0.499-0.333v0.832c2.201-0.45,4.178-0.802,5.929-1.057c0.029-0.46,0.049-0.92,0.049-1.38v-0.176l-0.049-0.068l-5.645-8.59 l-2.055,1.507l0.861,1.419c0,0,0,0,0.01,0l1.086,1.879l1.83,1.145c0.157,0.108,0.205,0.313,0.108,0.47 c-0.068,0.108-0.176,0.157-0.284,0.157c-0.068,0-0.127-0.01-0.186-0.049l-1.898-1.194c-0.049-0.029-0.088-0.068-0.108-0.117 l-0.685-1.174l-0.127,0.626v2.436c0,0.186-0.147,0.342-0.333,0.342c-0.186,0-0.342-0.157-0.342-0.342v-2.505l0.284-1.438 l-0.949-1.546l-3.082-4.559l-3.992,5.724l1.947,3.287c0.088,0.166,0.039,0.372-0.127,0.46c-0.049,0.039-0.108,0.049-0.166,0.049 l-2.329-3.601l-0.02-0.029l-5.479-9.246l-2.466,2.818l1.468,3.268l1.859,0.822c0.088,0.039,0.147,0.108,0.186,0.186l1.428,3.757 c0.059,0.176-0.029,0.372-0.196,0.44c-0.039,0.01-0.088,0.02-0.127,0.02c-0.137,0-0.264-0.088-0.313-0.215l-1.38-3.63 l-1.409-0.616l-0.284,3.737c-0.02,0.186-0.166,0.313-0.342,0.313c-0.01,0-0.01,0-0.02,0c-0.098-0.01-0.176-0.049-0.225-0.108 c-0.02-0.02-0.029-0.039-0.049-0.068c-0.01-0.01-0.01-0.029-0.02-0.049c-0.01-0.02-0.01-0.039-0.01-0.068l-0.01-0.068v-0.029 l0.313-4.109l-1.565-3.483l-4.188-7.377l-0.372,0.528l-8.385,11.8l-0.039,0.049c0,0,0,0-0.01,0c0,0.01,0,0.01,0,0.01 l-1.291,1.595l-0.176,0.225c-0.069,0.078-0.166,0.127-0.264,0.127c-0.078,0-0.147-0.029-0.215-0.078l0.108-0.665v-0.01 l1.135-1.399l-2.749-3.199l-0.509,0.548l-6.272,6.673c-0.166,1.115-0.245,2.26-0.245,3.395c0,0.616,0.02,1.203,0.068,1.771 c0.939,0.108,2.348,0.294,4.158,0.616c0.088,0,0.391-0.01,0.851-0.02V115.56z M542.432,115.531v0.274 c0,0.567-0.02,1.125-0.059,1.702c-0.039,0.656-0.117,1.34-0.225,2.025c-0.117,0.802-0.284,1.634-0.499,2.485 c-0.44,1.732-1.086,3.434-1.918,5.068c-0.763,1.497-1.683,2.925-2.749,4.246c0,0.01-0.01,0.01-0.01,0.01 c-1.155,1.458-2.475,2.769-3.923,3.923c-1.712,1.36-3.571,2.485-5.538,3.327c0,0,0,0.01-0.01,0.01 c-3.141,1.37-6.477,2.064-9.931,2.064c-2.916,0-5.782-0.499-8.502-1.497c-4.833-1.761-9.099-5.078-12.025-9.344 c-0.841-1.233-1.575-2.554-2.182-3.904c-0.548-1.233-1.008-2.544-1.36-3.904c-0.352-1.331-0.577-2.71-0.695-4.109 c-0.059-0.675-0.088-1.37-0.088-2.104c0-1.203,0.088-2.417,0.254-3.601c1.751-12.122,12.328-21.261,24.597-21.261 c6.78,0,12.954,2.759,17.464,7.211C539.536,102.606,542.363,108.751,542.432,115.531z M536.434,106.295l5.274,8.042 c-0.763-12.572-11.252-22.621-23.961-22.718c-0.059,0-0.117,0-0.176,0c-11.565,0-21.584,8.346-23.736,19.588l6.36-6.751 c0.059-0.068,0.157-0.108,0.254-0.108c0.088,0,0.186,0.039,0.245,0.117l2.886,3.375l8.855-12.455 c0.068-0.088,0.176-0.147,0.294-0.137c0.117,0,0.215,0.068,0.274,0.166l0.587,1.037l3.64,6.389l2.593-2.974 c0.068-0.078,0.176-0.127,0.284-0.117c0.108,0.01,0.206,0.078,0.264,0.166l5.45,9.197l4.099-5.88 c0.059-0.088,0.137-0.147,0.274-0.147c0.117,0,0.215,0.059,0.284,0.147l3.16,4.677l2.309-1.702 c0.078-0.049,0.176-0.068,0.264-0.059C536.297,106.168,536.376,106.217,536.434,106.295z M541.522,119.151 c0.059-0.43,0.108-0.851,0.137-1.272c-2.407,0.352-5.254,0.89-8.493,1.614C536.287,119.278,539.242,119.18,541.522,119.151z  M541.052,121.597c0.147-0.607,0.264-1.194,0.362-1.771c-3.424,0.059-8.326,0.235-12.993,0.773c-0.01,0-0.01,0-0.02,0 c-1.556,0.186-3.033,0.401-4.383,0.646c0,0,0,0-0.01,0.01c-1.037,0.186-1.986,0.401-2.837,0.626 c-0.01,0.215-0.029,0.44-0.068,0.675c2.681-0.646,6.154-0.92,6.653-0.959c0.029,0,0.059,0,0.078,0c0.01,0,0.01,0,0.01,0h0.01 H541.052z M540.876,122.272h-1.742c-0.47,0.088-6.545,1.272-11.428,3.336c1.81,0.362,3.209,0.724,4.256,1.115 c3.747-0.969,6.428-0.43,7.289-0.196C539.927,125.149,540.475,123.72,540.876,122.272z M536.571,130.755 c0.9-1.125,1.683-2.338,2.358-3.61c-0.841-0.196-3.004-0.558-5.949,0.039c0.949,0.509,1.419,1.066,1.428,1.702 c0.02,0.665-0.479,1.321-1.517,2.016C534.135,130.667,535.495,130.54,536.571,130.755z M536.004,122.272h-8.131 c-3.102,0.881-4.197,1.693-4.178,2.025c0,0.059,0.108,0.587,2.837,1.086C529.634,123.955,533.421,122.898,536.004,122.272z  M536.072,131.361c-1.634-0.196-4.06,0.342-5.929,0.969h-0.01c-0.832,0.352-1.8,0.714-2.877,1.086 c1.634,0.02,3.738,0.264,5.538,1.184C533.988,133.631,535.084,132.545,536.072,131.361z M533.734,128.906v-0.01 c-0.01-0.499-0.665-1.018-1.918-1.497c-1.203-0.47-2.935-0.9-5.303-1.321c-2.378-0.43-3.454-0.969-3.493-1.751 c-0.029-0.587,0.626-1.174,1.937-1.761c-0.137,0.02-0.284,0.039-0.431,0.059h-0.01c-1.174,0.157-2.456,0.382-3.571,0.665 c-0.196,0.744-0.499,1.448-0.939,2.113c0,0.01-0.068,0.108-0.068,0.108l-0.176,0.254c0.841,0.626,1.614,1.223,1.438,1.918 c-0.157,0.656-1.096,1.066-3.141,1.38c-0.166,0.029-0.342,0.049-0.528,0.078l-3.268,4.941c-0.088,0.127-0.225,0.186-0.362,0.196 c-0.137,0-0.274-0.068-0.352-0.176l-2.955-4.471c-4.207,0.186-8.346,0.294-12.602,0.333c0.186,0.264,0.382,0.519,0.587,0.773 c0.166,0.215,0.342,0.43,0.519,0.636c0.186,0.225,0.382,0.45,0.587,0.665c0.117,0.137,0.245,0.274,0.382,0.411 c0.157,0.166,0.313,0.333,0.479,0.489c1.526,1.526,3.258,2.847,5.127,3.904c0.166,0.098,0.333,0.196,0.509,0.284 c0.235,0.127,0.47,0.254,0.704,0.362c0.235,0.127,0.47,0.235,0.704,0.342c0.519,0.235,1.047,0.46,1.585,0.656 c1.986-0.89,4.422-1.761,7.25-2.603c0.871-0.254,1.781-0.509,2.759-0.763c1.967-0.519,3.767-1.037,5.342-1.517 c2.123-0.656,3.923-1.292,5.342-1.898c0.01,0,0.02,0,0.029-0.01C533.225,130.275,533.734,129.346,533.734,128.906z  M527.433,137.887c1.673-0.744,3.268-1.702,4.755-2.828c-3.15-1.448-7.27-0.841-7.485-0.812 c-1.585,0.489-3.375,1.008-5.342,1.526c-0.215,0.049-0.421,0.108-0.636,0.166C521.416,136.077,525.789,136.518,527.433,137.887z  M526.709,138.191c-2.016-1.282-7.387-1.634-10.166-1.634c-2.456,0.724-4.608,1.487-6.428,2.26 c2.407,0.773,4.912,1.174,7.455,1.174C520.741,139.991,523.803,139.384,526.709,138.191z M522.433,120.883 c-0.401-0.098-0.832-0.196-1.282-0.284c0.02,0.205,0.039,0.391,0.039,0.577C521.582,121.078,522.003,120.971,522.433,120.883z  M520.545,127.516c0.068-0.264-0.626-0.793-1.155-1.184l-1.35,2.045c0,0,0,0,0.01,0 C520.31,128.025,520.525,127.604,520.545,127.516z M520.516,121.607c0.01-0.078,0.01-0.137,0.01-0.186 c0-0.254-0.02-0.519-0.049-0.822c-0.02-0.127-0.039-0.245-0.059-0.362c0-0.01,0-0.01,0-0.01 c-0.509-2.867-2.877-5.078-5.763-5.401c-2.916-0.323-5.665,1.262-6.829,3.943c-0.294,0.675-0.47,1.389-0.528,2.133 c-0.02,0.166-0.02,0.333-0.02,0.509c0,0.166,0,0.333,0.02,0.489c0.078,1.076,0.421,2.113,0.988,3.013 c0.078,0.127,0.157,0.245,0.235,0.362l2.534,3.826l2.847,4.305l3.15-4.765l1.976-2.984l0.342-0.519 c0.02-0.029,0.039-0.059,0.059-0.088c0.44-0.675,0.744-1.38,0.91-2.113C520.457,122.487,520.516,122.037,520.516,121.607z  M510.164,128.974l-1.468-2.211c-1.252-0.176-2.514-0.313-3.747-0.411c-4.276-0.342-7.945-0.284-9.256-0.254 c0.519,1.106,1.125,2.182,1.81,3.199C501.789,129.258,505.938,129.15,510.164,128.974z M508.207,126.019l-0.235-0.362 c-0.088-0.117-0.186-0.254-0.264-0.401c-0.567-0.881-0.92-1.918-1.047-2.984h-12.387c0.303,1.096,0.675,2.152,1.115,3.16 c0.988-0.029,4.951-0.127,9.618,0.245C506.055,125.765,507.131,125.882,508.207,126.019z M506.671,120.433 c0.069-0.509,0.186-0.998,0.352-1.477c-0.695-0.029-1.38-0.059-2.025-0.078c-1.653-0.049-3.131-0.059-4.315-0.059 C502.689,119.278,504.695,119.806,506.671,120.433z M506.603,121.411c0-0.098,0-0.196,0.01-0.284 c-2.984-0.949-6.037-1.712-9.08-2.26c-1.712-0.303-3.072-0.489-4.011-0.597c0.117,1.125,0.303,2.241,0.567,3.327h12.514 C506.603,121.528,506.603,121.47,506.603,121.411z" />
        </g>
        <g>
          <path fill="#008482" d="M541.757,115.629v0.176c0,0.46-0.02,0.92-0.049,1.38c-1.751,0.254-3.728,0.607-5.929,1.057v-0.832 l0.499,0.333c0.039,0.029,0.088,0.049,0.137,0.049c0.088,0,0.166-0.049,0.215-0.117c0.078-0.117,0.049-0.274-0.068-0.352 l-0.783-0.519v-0.294l0.323,0.205c0.039,0.02,0.088,0.039,0.137,0.039c0.078,0,0.166-0.039,0.215-0.117 c0.068-0.117,0.039-0.274-0.078-0.352l-0.597-0.382v-0.186l0.196,0.137c0.039,0.029,0.098,0.049,0.147,0.049 c0.078,0,0.157-0.039,0.206-0.108c0.078-0.117,0.059-0.274-0.059-0.352l-0.597-0.43h-0.01c-0.039-0.029-0.088-0.049-0.137-0.049 c-0.049,0-0.098,0.02-0.137,0.049h-0.01l-0.587,0.43c-0.117,0.078-0.137,0.235-0.059,0.352c0.078,0.108,0.235,0.137,0.352,0.059 l0.186-0.137v0.186l-0.587,0.382c-0.117,0.078-0.147,0.235-0.078,0.352c0.078,0.117,0.235,0.147,0.352,0.078l0.313-0.205v0.294 l-0.783,0.519c-0.117,0.078-0.147,0.235-0.068,0.352s0.235,0.147,0.352,0.068l0.499-0.333v0.939 c-0.822,0.166-1.673,0.352-2.563,0.548v-0.656l0.46,0.303c0.078,0.049,0.176,0.029,0.235-0.049 c0.049-0.068,0.029-0.176-0.049-0.235l-0.646-0.421v-0.323l0.313,0.196c0.029,0.02,0.059,0.02,0.088,0.02 c0.059,0,0.117-0.02,0.147-0.078c0.049-0.078,0.02-0.176-0.059-0.235l-0.489-0.303v-0.254l0.215,0.157 c0.029,0.02,0.068,0.029,0.098,0.029c0.059,0,0.108-0.029,0.137-0.068c0.059-0.078,0.039-0.186-0.039-0.245l-0.479-0.333 c-0.059-0.039-0.137-0.039-0.196,0l-0.479,0.333c-0.078,0.059-0.098,0.166-0.039,0.245c0.049,0.068,0.157,0.088,0.235,0.039 l0.215-0.157v0.254l-0.499,0.303c-0.078,0.049-0.098,0.157-0.049,0.235c0.049,0.078,0.147,0.108,0.235,0.059l0.313-0.196v0.313 l-0.646,0.43c-0.078,0.059-0.108,0.157-0.049,0.235c0.029,0.049,0.088,0.078,0.137,0.078c0.029,0,0.068-0.01,0.098-0.029 l0.46-0.303v0.734c-1.292,0.294-2.642,0.607-4.051,0.959c-1.174,0.137-2.309,0.294-3.366,0.47v-1.761l0.881,0.587 c0.059,0.039,0.117,0.059,0.186,0.059c0.108,0,0.215-0.059,0.284-0.157c0.098-0.157,0.059-0.362-0.098-0.47l-1.252-0.832v-0.607 l0.597,0.382c0.059,0.029,0.117,0.049,0.176,0.049c0.117,0,0.225-0.059,0.294-0.157c0.098-0.157,0.049-0.362-0.108-0.47 l-0.959-0.607v-0.46l0.401,0.294c0.059,0.039,0.127,0.059,0.196,0.059c0.098,0,0.205-0.049,0.274-0.137 c0.108-0.157,0.069-0.362-0.078-0.479l-0.939-0.665c0,0-0.01,0-0.02-0.01c-0.049-0.029-0.108-0.049-0.176-0.049 c-0.059,0-0.117,0.02-0.176,0.049c0,0.01-0.01,0.01-0.02,0.01l-0.93,0.665c-0.156,0.117-0.186,0.323-0.078,0.479 c0.108,0.147,0.313,0.186,0.47,0.078l0.401-0.294v0.46l-0.959,0.607c-0.156,0.108-0.205,0.313-0.108,0.47 c0.098,0.157,0.313,0.205,0.47,0.108l0.597-0.382v0.607l-1.262,0.832c-0.157,0.108-0.196,0.313-0.088,0.47 c0.098,0.157,0.313,0.196,0.47,0.098l0.881-0.587v1.879c-0.108,0.02-0.205,0.029-0.313,0.049 c-0.861-0.235-1.83-0.46-2.935-0.695c-0.646-3.033-3.199-5.381-6.301-5.724c-3.141-0.342-6.095,1.311-7.426,4.139 c-0.675-0.029-1.331-0.059-1.957-0.078v-3.786l1.35,1.35c0.127,0.137,0.342,0.137,0.479,0c0.127-0.127,0.127-0.342,0-0.479 l-1.83-1.83v-0.978l0.949,0.949c0.137,0.127,0.342,0.127,0.479,0c0.127-0.137,0.127-0.352,0-0.479l-1.428-1.428v-0.841 l0.704,0.704c0.137,0.127,0.342,0.127,0.479,0c0.127-0.137,0.127-0.342,0-0.479l-1.282-1.282 c-0.039-0.029-0.068-0.059-0.117-0.078c-0.078-0.029-0.176-0.029-0.254,0c-0.039,0.02-0.078,0.039-0.108,0.068c0,0,0,0,0,0.01 l-1.291,1.282l-0.9-0.724l1.291-1.595c0,0,0,0,0-0.01c0.01,0,0.01,0,0.01,0l0.039-0.049l8.894-10.831l4.961,9.354l0.342,4.119 v0.029c0,0.02,0,0.049,0.01,0.068c0,0.029,0,0.049,0.01,0.068c0,0.02,0.01,0.039,0.02,0.049c0.01,0.029,0.029,0.049,0.049,0.068 c0.049,0.059,0.127,0.098,0.225,0.108c0.01,0,0.01,0,0.02,0c0.176,0,0.323-0.127,0.342-0.313l0.284-3.737l1.409,0.616l1.38,3.63 c0.049,0.127,0.176,0.215,0.313,0.215c0.039,0,0.088-0.01,0.127-0.02c0.166-0.068,0.254-0.264,0.196-0.44l-1.428-3.757 c-0.039-0.078-0.098-0.147-0.186-0.186l-1.859-0.822l-1.468-3.268l2.378-1.722l5.567,8.15l0.02,0.029l2.035,3.434 c0.068,0.108,0.176,0.166,0.294,0.166c0.059,0,0.117-0.01,0.166-0.049c0.166-0.088,0.215-0.294,0.127-0.46l-1.947-3.287 l4.002-4.06l3.61,4.501l-0.274,1.556l0.401,2.329c0,0.186,0.157,0.342,0.342,0.342c0.186,0,0.333-0.157,0.333-0.342v-2.436 l0.166-0.186l0.47,0.978l2.182,1.066c0.059,0.039,0.117,0.049,0.186,0.049c0.108,0,0.215-0.049,0.284-0.157 c0.098-0.157,0.049-0.362-0.108-0.47l-1.83-1.145l-1.086-1.879c-0.01,0-0.01,0-0.01,0l-0.861-1.419l1.869-0.685l5.831,7.769 L541.757,115.629z M531.259,108.878c0-0.147-0.059-0.294-0.166-0.391c-0.098-0.108-0.235-0.166-0.382-0.166 c-0.049-0.235-0.264-0.421-0.519-0.421c-0.068,0-0.137,0.02-0.196,0.039c-0.137-0.098-0.313-0.157-0.489-0.157 c-0.352,0-0.656,0.225-0.773,0.558c-0.245,0.059-0.43,0.274-0.43,0.538c0,0.303,0.254,0.548,0.558,0.548h1.839 C531.014,109.426,531.259,109.181,531.259,108.878z M513.549,106.51c0-0.225-0.088-0.44-0.254-0.597 c-0.157-0.157-0.362-0.245-0.587-0.245c-0.078-0.372-0.401-0.646-0.793-0.646c-0.108,0-0.215,0.02-0.313,0.059 c-0.215-0.157-0.47-0.245-0.744-0.245c-0.538,0-1.018,0.342-1.184,0.851c-0.382,0.088-0.665,0.43-0.665,0.822 c0,0.479,0.382,0.861,0.851,0.861h2.837C513.168,107.371,513.549,106.989,513.549,106.51z" />
        </g>
        <g>
          <polygon fill="#FDC000" points="536.062,106.97 541.708,115.56 535.877,107.792 534.008,108.477 " />
        </g>
        <g>
          <path fill="#FDC000" d="M541.708,114.337l-5.274-8.042c-0.059-0.078-0.137-0.127-0.225-0.147 c-0.088-0.01-0.186,0.01-0.264,0.059l-2.309,1.702l-3.16-4.677c-0.069-0.088-0.166-0.147-0.284-0.147 c-0.137,0-0.215,0.059-0.274,0.147l-4.099,5.88l-5.45-9.197c-0.059-0.088-0.156-0.157-0.264-0.166 c-0.108-0.01-0.215,0.039-0.284,0.117l-2.593,2.974l-3.64-6.389l1.262-0.714c0.176,0.254,0.46,0.421,0.793,0.421h3.19 c0.528,0,0.959-0.43,0.959-0.959c0-0.45-0.323-0.832-0.744-0.929c-0.196-0.567-0.734-0.959-1.34-0.959l0.039-1.693 C530.456,91.717,540.945,101.765,541.708,114.337z M531.073,99.436c0-0.577-0.411-1.086-0.969-1.213 c-0.254-0.744-0.959-1.252-1.751-1.252c-0.401,0-0.783,0.127-1.096,0.362c-0.147-0.059-0.294-0.088-0.46-0.088 c-0.567,0-1.047,0.401-1.154,0.949c-0.333,0-0.636,0.127-0.871,0.362s-0.372,0.548-0.372,0.881c0,0.695,0.568,1.252,1.252,1.252 h4.168C530.515,100.689,531.073,100.131,531.073,99.436z" />
        </g>
        <g>
          <path fill="#F4AA06" d="M541.659,117.879c-0.029,0.421-0.078,0.841-0.137,1.272c-2.28,0.029-5.234,0.127-8.356,0.342 C536.405,118.769,539.252,118.231,541.659,117.879z" />
        </g>
        <g>
          <path fill="#C4D113" d="M541.414,119.826c-0.098,0.577-0.215,1.164-0.362,1.771h-13.199h-0.01c0,0,0,0-0.01,0 c-0.02,0-0.049,0-0.078,0c-0.499,0.039-3.972,0.313-6.653,0.959c0.039-0.235,0.059-0.46,0.068-0.675 c0.851-0.225,1.8-0.44,2.837-0.626c0.01-0.01,0.01-0.01,0.01-0.01c1.35-0.245,2.828-0.46,4.383-0.646c0.01,0,0.01,0,0.02,0 C533.088,120.061,537.99,119.885,541.414,119.826z" />
        </g>
        <g>
          <path fill="#C3EF0C" d="M539.135,122.272h1.742c-0.401,1.448-0.949,2.876-1.624,4.256c-0.861-0.235-3.542-0.773-7.289,0.196 c-1.047-0.391-2.446-0.753-4.256-1.115C532.589,123.544,538.665,122.36,539.135,122.272z" />
        </g>
        <g>
          <path fill="#FDC000" d="M537.432,113.496l-2.182-1.066l-0.47-0.978l-0.166,0.186l0.127-0.626l0.685,1.174 c0.02,0.049,0.059,0.088,0.108,0.117L537.432,113.496z" />
        </g>
        <g>
          <path fill="#1C9BD3" d="M538.929,127.145c-0.675,1.272-1.458,2.485-2.358,3.61c-1.076-0.215-2.436-0.088-3.679,0.147 c1.037-0.695,1.536-1.35,1.517-2.016c-0.01-0.636-0.479-1.194-1.428-1.702C535.925,126.587,538.088,126.949,538.929,127.145z" />
        </g>
        <g>
          <path fill="#7FD311" d="M527.873,122.272h8.131c-2.583,0.626-6.369,1.683-9.471,3.111c-2.73-0.499-2.837-1.027-2.837-1.086 C523.676,123.965,524.772,123.153,527.873,122.272z" />
        </g>
        <g>
          <path fill="#44B9E2" d="M530.143,132.33c1.869-0.626,4.295-1.164,5.929-0.969c-0.988,1.184-2.084,2.27-3.278,3.238 c-1.8-0.92-3.904-1.164-5.538-1.184c1.076-0.372,2.045-0.734,2.877-1.086H530.143z" />
        </g>
        <g>
          <polygon fill="#FDC000" points="533.274,108.584 534.223,110.13 533.939,111.568 533.939,114.073 533.538,111.744  533.812,110.189 530.202,105.688 526.2,109.749 530.192,104.025 " />
        </g>
        <g>
          <path fill="#777777" d="M533.734,128.896v0.01c0,0.44-0.509,1.37-3.835,2.788c-0.01,0.01-0.02,0.01-0.029,0.01 c-1.419,0.607-3.219,1.243-5.342,1.898c-1.575,0.479-3.375,0.998-5.342,1.517c-0.978,0.254-1.888,0.509-2.759,0.763 c-2.828,0.841-5.264,1.712-7.25,2.603c-0.538-0.196-1.066-0.421-1.585-0.656c2.26-0.89,4.51-1.644,6.692-2.309 c6.663-2.055,12.68-3.317,16.183-5.313c4.599-2.642-5.958-3.004-7.729-4.824c-1.213-1.243,0.558-2.241,1.781-2.759h0.01 c0.147-0.02,0.294-0.039,0.431-0.059c-1.311,0.587-1.967,1.174-1.937,1.761c0.039,0.783,1.115,1.321,3.493,1.751 c2.368,0.421,4.099,0.851,5.303,1.321C533.069,127.878,533.724,128.397,533.734,128.896z" />
        </g>
        <g>
          <path d="M531.092,108.486c0.108,0.098,0.166,0.245,0.166,0.391c0,0.303-0.245,0.548-0.558,0.548h-1.839 c-0.303,0-0.558-0.245-0.558-0.548c0-0.264,0.186-0.479,0.43-0.538c0.117-0.333,0.421-0.558,0.773-0.558 c0.176,0,0.352,0.059,0.489,0.157c0.059-0.02,0.127-0.039,0.196-0.039c0.254,0,0.47,0.186,0.519,0.421 C530.857,108.32,530.994,108.379,531.092,108.486z M530.701,109.21c0.186,0,0.333-0.147,0.333-0.333 c0-0.088-0.029-0.176-0.098-0.235c-0.059-0.068-0.147-0.098-0.235-0.098l-0.196-0.01v-0.108c0-0.166-0.137-0.303-0.313-0.303 c-0.049,0-0.108,0.01-0.157,0.039l-0.068,0.049l-0.059-0.059c-0.108-0.098-0.254-0.147-0.401-0.147 c-0.274,0-0.509,0.186-0.577,0.45l-0.02,0.078l-0.078,0.01c-0.176,0.01-0.303,0.157-0.303,0.333 c0,0.186,0.147,0.333,0.333,0.333H530.701z" />
        </g>
        <g>
          <path fill="#FFFFFF" d="M531.034,108.878c0,0.186-0.147,0.333-0.333,0.333h-1.839c-0.186,0-0.333-0.147-0.333-0.333 c0-0.176,0.127-0.323,0.303-0.333l0.078-0.01l0.02-0.078c0.068-0.264,0.303-0.45,0.577-0.45c0.147,0,0.294,0.049,0.401,0.147 l0.059,0.059l0.068-0.049c0.049-0.029,0.108-0.039,0.157-0.039c0.176,0,0.313,0.137,0.313,0.303v0.108l0.196,0.01 c0.088,0,0.176,0.029,0.235,0.098C531.004,108.702,531.034,108.79,531.034,108.878z" />
        </g>
        <g>
          <path fill="#9B9B9B" d="M522.737,125.383c1.771,1.82,12.328,2.182,7.729,4.824c-3.503,1.996-9.52,3.258-16.183,5.313 l-0.382-1.243c0.137-0.01,0.274-0.068,0.362-0.196l3.268-4.941c0.186-0.029,0.362-0.049,0.528-0.078 c2.045-0.313,2.984-0.724,3.141-1.38c0.176-0.695-0.597-1.291-1.438-1.918l0.176-0.254c0,0,0.068-0.098,0.068-0.108 c0.44-0.665,0.744-1.37,0.939-2.113c1.115-0.284,2.397-0.509,3.571-0.665C523.294,123.143,521.523,124.141,522.737,125.383z" />
        </g>
        <g>
          <path d="M530.104,98.223c0.558,0.127,0.969,0.636,0.969,1.213c0,0.695-0.558,1.252-1.252,1.252h-4.168 c-0.685,0-1.252-0.558-1.252-1.252c0-0.333,0.137-0.646,0.372-0.881s0.538-0.362,0.871-0.362 c0.108-0.548,0.587-0.949,1.154-0.949c0.166,0,0.313,0.029,0.46,0.088c0.313-0.235,0.695-0.362,1.096-0.362 C529.145,96.971,529.85,97.479,530.104,98.223z M530.574,99.436c0-0.382-0.303-0.714-0.685-0.744l-0.176-0.01l-0.049-0.176 c-0.147-0.607-0.685-1.037-1.311-1.037c-0.333,0-0.656,0.127-0.9,0.342l-0.137,0.117l-0.157-0.088 c-0.108-0.068-0.225-0.108-0.362-0.108c-0.382,0-0.685,0.313-0.685,0.695v0.245l-0.46,0.02c-0.196,0-0.391,0.068-0.528,0.215 c-0.147,0.147-0.225,0.333-0.225,0.528c0,0.421,0.342,0.763,0.753,0.763h4.168C530.241,100.199,530.574,99.857,530.574,99.436z" />
        </g>
        <g>
          <path fill="#FFFFFF" d="M529.889,98.693c0.382,0.029,0.685,0.362,0.685,0.744c0,0.421-0.333,0.763-0.753,0.763h-4.168 c-0.411,0-0.753-0.342-0.753-0.763c0-0.196,0.078-0.382,0.225-0.528c0.137-0.147,0.333-0.215,0.528-0.215l0.46-0.02v-0.245 c0-0.382,0.303-0.695,0.685-0.695c0.137,0,0.254,0.039,0.362,0.108l0.157,0.088l0.137-0.117c0.245-0.215,0.568-0.342,0.9-0.342 c0.626,0,1.164,0.43,1.311,1.037l0.049,0.176L529.889,98.693z" />
        </g>
        <g>
          <path fill="#6DE5E8" d="M532.188,135.06c-1.487,1.125-3.082,2.084-4.755,2.828c-1.644-1.37-6.017-1.81-8.708-1.947 c0.215-0.059,0.421-0.117,0.636-0.166c1.967-0.519,3.757-1.037,5.342-1.526C524.918,134.218,529.038,133.612,532.188,135.06z" />
        </g>
        <g>
          <path d="M525.525,109.944l2.329,3.601c-0.117,0-0.225-0.059-0.294-0.166L525.525,109.944z" />
        </g>
        <g>
          <polygon fill="#FDC000" points="520.026,100.669 525.506,109.915 519.938,101.765 517.561,103.487 " />
        </g>
        <g>
          <path fill="#B2F4F9" d="M516.543,136.557c2.779,0,8.15,0.352,10.166,1.634c-2.906,1.194-5.968,1.8-9.138,1.8 c-2.544,0-5.049-0.401-7.455-1.174C511.935,138.044,514.088,137.281,516.543,136.557z" />
        </g>
        <g>
          <path fill="#F4AA06" d="M521.152,120.599c0.45,0.088,0.881,0.186,1.282,0.284c-0.43,0.088-0.851,0.196-1.243,0.294 C521.191,120.99,521.171,120.804,521.152,120.599z" />
        </g>
        <g>
          <path fill="#C3EF0C" d="M519.391,126.332c0.528,0.391,1.223,0.92,1.155,1.184c-0.02,0.088-0.235,0.509-2.495,0.861 c-0.01,0-0.01,0-0.01,0L519.391,126.332z" />
        </g>
        <g>
          <path fill="#FF4700" d="M520.525,121.421c0,0.049,0,0.108-0.01,0.186c0,0.43-0.059,0.881-0.176,1.331 c-0.166,0.734-0.47,1.438-0.91,2.113c-0.02,0.029-0.039,0.059-0.059,0.088l-0.342,0.519l-1.976,2.984l-3.15,4.765l-2.847-4.305 l-2.534-3.826c-0.078-0.117-0.157-0.235-0.235-0.362c-0.567-0.9-0.91-1.937-0.988-3.013c-0.02-0.157-0.02-0.323-0.02-0.489 c0-0.176,0-0.342,0.02-0.509c0.059-0.744,0.235-1.458,0.528-2.133c1.164-2.681,3.914-4.266,6.829-3.943 c2.886,0.323,5.254,2.534,5.763,5.401c0,0,0,0,0,0.01c0.02,0.117,0.039,0.235,0.059,0.362 C520.506,120.902,520.525,121.166,520.525,121.421z M517.708,121.93c0.029-0.166,0.049-0.333,0.049-0.528 c0-0.744-0.215-1.468-0.616-2.084c0,0-0.01-0.01-0.01-0.02c0,0,0,0-0.01,0c-0.704-1.096-1.908-1.751-3.219-1.751 c-1.018,0-1.976,0.391-2.7,1.115c-0.744,0.724-1.155,1.693-1.155,2.74c0,0.225,0.02,0.411,0.059,0.577 c0.147,1.076,0.753,2.035,1.663,2.632c0.626,0.421,1.37,0.646,2.133,0.646c0.91,0,1.8-0.323,2.495-0.92 c0.01,0,0.01-0.01,0.02-0.01c0,0,0-0.01,0.01-0.01c0.695-0.607,1.155-1.438,1.282-2.319c0-0.02,0-0.039,0-0.059 C517.708,121.93,517.708,121.93,517.708,121.93z" />
        </g>
        <g>
          <path d="M519.048,94.27c0.421,0.098,0.744,0.479,0.744,0.929c0,0.528-0.431,0.959-0.959,0.959h-3.19 c-0.333,0-0.616-0.166-0.793-0.421c-0.098-0.157-0.156-0.342-0.156-0.538c0-0.254,0.098-0.499,0.274-0.675 c0.176-0.176,0.411-0.274,0.665-0.284c0.088-0.411,0.45-0.724,0.89-0.724c0.117,0,0.235,0.02,0.352,0.068 c0.235-0.176,0.528-0.274,0.832-0.274C518.314,93.311,518.852,93.703,519.048,94.27z M519.41,95.2 c0-0.294-0.235-0.548-0.528-0.567l-0.137-0.02l-0.029-0.127c-0.117-0.47-0.528-0.793-1.008-0.793 c-0.254,0-0.499,0.098-0.685,0.264l-0.108,0.088l-0.117-0.068c-0.078-0.049-0.176-0.078-0.274-0.078 c-0.294,0-0.528,0.235-0.528,0.528v0.186l-0.352,0.01c-0.147,0-0.294,0.059-0.401,0.166c-0.108,0.117-0.176,0.254-0.176,0.411 c0,0.313,0.264,0.577,0.577,0.577h3.19C519.146,95.777,519.41,95.513,519.41,95.2z" />
        </g>
        <g>
          <path fill="#FFFFFF" d="M518.882,94.632c0.294,0.02,0.528,0.274,0.528,0.567c0,0.313-0.264,0.577-0.577,0.577h-3.19 c-0.313,0-0.577-0.264-0.577-0.577c0-0.157,0.068-0.294,0.176-0.411c0.108-0.108,0.254-0.166,0.401-0.166l0.352-0.01v-0.186 c0-0.294,0.235-0.528,0.528-0.528c0.098,0,0.196,0.029,0.274,0.078l0.117,0.068l0.108-0.088 c0.186-0.166,0.431-0.264,0.685-0.264c0.479,0,0.89,0.323,1.008,0.793l0.029,0.127L518.882,94.632z" />
        </g>
        <g>
          <polygon fill="#FDC000" points="516.866,103.585 518.432,107.068 518.119,111.177 517.776,107.058 512.816,97.704  512.307,96.736 512.679,96.207 " />
        </g>
        <g>
          <path fill="#008482" d="M518.138,111.343c0.01,0.02,0.01,0.039,0.02,0.049C518.148,111.382,518.138,111.363,518.138,111.343z" />
        </g>
        <g>
          <path d="M518.119,111.206l0.01,0.068C518.119,111.255,518.119,111.226,518.119,111.206z" />
        </g>
        <g>
          <path d="M517.757,121.401c0,0.196-0.02,0.362-0.049,0.528c0,0,0,0,0,0.01c0,0.02,0,0.039,0,0.059 c-0.127,0.881-0.587,1.712-1.282,2.319c-0.01,0-0.01,0.01-0.01,0.01c-0.01,0-0.01,0.01-0.02,0.01 c-0.695,0.597-1.585,0.92-2.495,0.92c-0.763,0-1.507-0.225-2.133-0.646c-0.91-0.597-1.517-1.556-1.663-2.632 c-0.039-0.166-0.059-0.352-0.059-0.577c0-1.047,0.411-2.016,1.155-2.74c0.724-0.724,1.683-1.115,2.7-1.115 c1.311,0,2.515,0.656,3.219,1.751c0.01,0,0.01,0,0.01,0c0,0.01,0.01,0.02,0.01,0.02 C517.541,119.934,517.757,120.658,517.757,121.401z M517.062,121.597c0.01-0.068,0.02-0.127,0.02-0.196 c0-0.567-0.157-1.106-0.44-1.585c-1.595-0.225-3.297-0.411-5.058-0.567c-0.548,0.587-0.851,1.34-0.851,2.152 c0,0.068,0.01,0.127,0.01,0.196H517.062z M516.945,122.272h-6.076c0.196,0.685,0.607,1.291,1.194,1.702 c1.35-0.166,2.681-0.245,3.982-0.235C516.475,123.339,516.788,122.83,516.945,122.272z M513.403,124.513 c0.45,0.068,0.92,0.039,1.36-0.078C514.313,124.454,513.863,124.473,513.403,124.513z M512.356,118.642 c1.262,0.117,2.495,0.254,3.679,0.411c-0.577-0.528-1.331-0.832-2.133-0.832C513.344,118.221,512.825,118.378,512.356,118.642z" />
        </g>
        <g>
          <path fill="#FDC000" d="M517.747,91.619l-0.039,1.693c-0.303,0-0.597,0.098-0.832,0.274c-0.117-0.049-0.235-0.068-0.352-0.068 c-0.44,0-0.802,0.313-0.89,0.724c-0.254,0.01-0.489,0.108-0.665,0.284c-0.176,0.176-0.274,0.421-0.274,0.675 c0,0.196,0.059,0.382,0.156,0.538l-1.262,0.714l-0.587-1.037c-0.059-0.098-0.157-0.166-0.274-0.166 c-0.117-0.01-0.225,0.049-0.294,0.137l-8.855,12.455l-2.886-3.375c-0.059-0.078-0.157-0.117-0.245-0.117 c-0.098,0-0.196,0.039-0.254,0.108l-6.36,6.751c2.152-11.242,12.171-19.588,23.736-19.588 C517.629,91.619,517.688,91.619,517.747,91.619z M504.48,102.146c0-0.235-0.098-0.47-0.264-0.636s-0.391-0.254-0.626-0.264 c-0.078-0.391-0.421-0.685-0.841-0.685c-0.108,0-0.225,0.02-0.323,0.068c-0.225-0.166-0.499-0.254-0.783-0.254 c-0.577,0-1.086,0.362-1.262,0.9c-0.401,0.088-0.704,0.45-0.704,0.871c0,0.499,0.401,0.9,0.9,0.9h3.004 C504.079,103.046,504.48,102.645,504.48,102.146z" />
        </g>
        <g>
          <path fill="#F4AA06" d="M517.081,121.401c0,0.068-0.01,0.127-0.02,0.196h-6.32c0-0.068-0.01-0.127-0.01-0.196 c0-0.812,0.303-1.565,0.851-2.152c1.761,0.157,3.464,0.342,5.058,0.567C516.925,120.296,517.081,120.834,517.081,121.401z" />
        </g>
        <g>
          <path fill="#7FD311" d="M510.869,122.272h6.076c-0.157,0.558-0.47,1.066-0.9,1.468c-1.301-0.01-2.632,0.068-3.982,0.235 C511.475,123.564,511.064,122.957,510.869,122.272z" />
        </g>
        <g>
          <path fill="#7FD311" d="M514.763,124.434c-0.44,0.117-0.91,0.147-1.36,0.078C513.863,124.473,514.313,124.454,514.763,124.434z" />
        </g>
        <g>
          <path fill="#9B9B9B" d="M513.902,134.277l0.382,1.243c-2.182,0.665-4.432,1.419-6.692,2.309 c-0.235-0.108-0.47-0.225-0.704-0.342c-0.235-0.108-0.47-0.235-0.704-0.362c-0.176-0.088-0.342-0.186-0.509-0.284 c-1.869-1.057-3.601-2.378-5.127-3.904c-0.166-0.157-0.333-0.323-0.479-0.489c-0.137-0.137-0.264-0.274-0.382-0.411 c-0.205-0.215-0.401-0.44-0.587-0.665c-0.176-0.215-0.352-0.421-0.519-0.636c-0.205-0.254-0.401-0.509-0.587-0.773 c4.256-0.039,8.395-0.147,12.602-0.333l2.955,4.471C513.628,134.209,513.765,134.277,513.902,134.277z" />
        </g>
        <g>
          <path fill="#F26608" d="M516.035,119.053c-1.184-0.157-2.417-0.294-3.679-0.411c0.47-0.264,0.988-0.421,1.546-0.421 C514.704,118.221,515.457,118.525,516.035,119.053z" />
        </g>
        <g>
          <path d="M513.295,105.913c0.166,0.157,0.254,0.372,0.254,0.597c0,0.479-0.382,0.861-0.851,0.861h-2.837 c-0.47,0-0.851-0.382-0.851-0.861c0-0.391,0.284-0.734,0.665-0.822c0.166-0.509,0.646-0.851,1.184-0.851 c0.274,0,0.528,0.088,0.744,0.245c0.098-0.039,0.205-0.059,0.313-0.059c0.391,0,0.714,0.274,0.793,0.646 C512.933,105.669,513.139,105.757,513.295,105.913z M513.207,106.51c0-0.127-0.049-0.264-0.147-0.362 c-0.098-0.088-0.225-0.147-0.362-0.147l-0.313-0.01v-0.166c0-0.254-0.206-0.47-0.47-0.47c-0.088,0-0.166,0.029-0.245,0.068 l-0.108,0.068l-0.088-0.088c-0.166-0.147-0.391-0.225-0.616-0.225c-0.421,0-0.793,0.284-0.89,0.695l-0.029,0.127l-0.117,0.01 c-0.264,0.02-0.47,0.245-0.47,0.499c0,0.284,0.225,0.519,0.509,0.519h2.837C512.982,107.029,513.207,106.794,513.207,106.51z" />
        </g>
        <g>
          <path fill="#FFFFFF" d="M513.06,106.148c0.098,0.098,0.147,0.235,0.147,0.362c0,0.284-0.225,0.519-0.509,0.519h-2.837 c-0.284,0-0.509-0.235-0.509-0.519c0-0.254,0.205-0.479,0.47-0.499l0.117-0.01l0.029-0.127c0.098-0.411,0.47-0.695,0.89-0.695 c0.225,0,0.45,0.078,0.616,0.225l0.088,0.088l0.108-0.068c0.078-0.039,0.157-0.068,0.245-0.068c0.264,0,0.47,0.215,0.47,0.47 v0.166l0.313,0.01C512.835,106.001,512.962,106.06,513.06,106.148z" />
        </g>
        <g>
          <polygon fill="#FDC000" points="512.307,96.736 512.816,97.704 503.922,108.535 " />
        </g>
        <g>
          <path fill="#C3EF0C" d="M508.697,126.763l1.468,2.211c-4.227,0.176-8.375,0.284-12.66,0.323 c-0.685-1.018-1.292-2.094-1.81-3.199c1.311-0.029,4.98-0.088,9.256,0.254C506.182,126.45,507.444,126.587,508.697,126.763z" />
        </g>
        <g>
          <path fill="#7FD311" d="M507.973,125.657l0.235,0.362c-1.076-0.137-2.152-0.254-3.199-0.342 c-4.667-0.372-8.629-0.274-9.618-0.245c-0.44-1.008-0.812-2.064-1.115-3.16h12.387c0.127,1.066,0.479,2.104,1.047,2.984 C507.787,125.403,507.885,125.54,507.973,125.657z" />
        </g>
        <g>
          <path fill="#F4AA06" d="M507.024,118.955c-0.166,0.479-0.284,0.969-0.352,1.477c-1.976-0.626-3.982-1.155-5.988-1.614 c1.184,0,2.661,0.01,4.315,0.059C505.644,118.897,506.329,118.926,507.024,118.955z" />
        </g>
        <g>
          <path fill="#C4D113" d="M506.613,121.127c-0.01,0.088-0.01,0.186-0.01,0.284c0,0.059,0,0.117,0,0.186h-12.514 c-0.264-1.086-0.45-2.201-0.567-3.327c0.939,0.108,2.299,0.294,4.011,0.597C500.576,119.415,503.628,120.178,506.613,121.127z" />
        </g>
        <g>
          <rect x="495.341" y="62.599" width="10.342" height="3.963" />
        </g>
        <g>
          <path fill="#008482" d="M504.675,114.425v3.767c-2.436-0.068-4.442-0.049-5.694-0.029v-2.603l0.969,0.969 c0.049,0.049,0.117,0.078,0.186,0.078c0.059,0,0.127-0.029,0.176-0.078c0.098-0.098,0.098-0.264,0-0.362l-1.331-1.331v-0.685 l0.675,0.675c0.049,0.049,0.117,0.078,0.186,0.078c0.059,0,0.127-0.029,0.176-0.078c0.098-0.098,0.098-0.254,0-0.352 l-1.037-1.047v-0.577l0.499,0.499c0.108,0.098,0.264,0.098,0.362,0s0.098-0.264,0-0.362l-0.929-0.929 c-0.049-0.049-0.108-0.078-0.176-0.078c-0.01,0-0.01,0-0.01,0c-0.068,0-0.127,0.029-0.176,0.078l-0.939,0.929 c-0.098,0.098-0.098,0.264,0,0.362c0.049,0.049,0.117,0.078,0.176,0.078c0.069,0,0.137-0.029,0.186-0.078l0.499-0.499v0.577 l-1.037,1.047c-0.098,0.098-0.098,0.254,0,0.352s0.264,0.098,0.362,0l0.675-0.675v0.685l-1.331,1.331 c-0.098,0.098-0.098,0.264,0,0.362s0.264,0.098,0.362,0l0.969-0.969v2.612c-0.46,0.01-0.763,0.02-0.851,0.02 c-1.81-0.323-3.219-0.509-4.158-0.616c-0.049-0.567-0.068-1.155-0.068-1.771c0-1.135,0.078-2.28,0.245-3.395l6.712-6.174 c0.147,0.166,0.294,0.333,0.431,0.499c0.186,0.215,0.372,0.421,0.548,0.616c0.108,0.117,0.205,0.235,0.294,0.333 c0.049,0.049,0.088,0.108,0.137,0.157c0.294,0.333,0.489,0.548,0.489,0.548l-0.215,1.399v0.01l-0.157,0.186 c-0.117,0.147-0.098,0.362,0.049,0.479c0.068,0.049,0.137,0.078,0.215,0.078c0.098,0,0.196-0.049,0.264-0.127l0.176-0.225 l0.9,0.724c-0.137,0.127-0.137,0.342,0,0.479c0.059,0.068,0.147,0.098,0.235,0.098c0.088,0,0.176-0.029,0.235-0.098l0.724-0.714 v0.851l-1.438,1.428c-0.137,0.127-0.137,0.342,0,0.479c0.059,0.068,0.147,0.098,0.235,0.098c0.088,0,0.176-0.029,0.245-0.098 l0.959-0.949v0.978l-1.839,1.83c-0.137,0.137-0.137,0.352,0,0.479c0.068,0.068,0.157,0.098,0.235,0.098 c0.088,0,0.176-0.029,0.245-0.098L504.675,114.425z" />
        </g>
        <g>
          <path d="M504.216,101.51c0.166,0.166,0.264,0.401,0.264,0.636c0,0.499-0.401,0.9-0.9,0.9h-3.004c-0.499,0-0.9-0.401-0.9-0.9 c0-0.421,0.303-0.783,0.704-0.871c0.176-0.538,0.685-0.9,1.262-0.9c0.284,0,0.558,0.088,0.783,0.254 c0.098-0.049,0.215-0.068,0.323-0.068c0.421,0,0.763,0.294,0.841,0.685C503.824,101.256,504.049,101.344,504.216,101.51z  M504.118,102.146c0-0.147-0.049-0.274-0.157-0.382c-0.098-0.098-0.235-0.157-0.382-0.157l-0.333-0.01v-0.176 c0-0.274-0.215-0.499-0.499-0.499c-0.088,0-0.176,0.02-0.254,0.068l-0.108,0.068l-0.098-0.088 c-0.186-0.157-0.411-0.245-0.646-0.245c-0.46,0-0.841,0.313-0.949,0.744l-0.039,0.127l-0.127,0.01 c-0.274,0.029-0.489,0.264-0.489,0.538c0,0.303,0.245,0.548,0.538,0.548h3.004C503.873,102.694,504.118,102.45,504.118,102.146z " />
        </g>
        <g>
          <path fill="#FFFFFF" d="M503.961,101.765c0.108,0.108,0.157,0.235,0.157,0.382c0,0.303-0.245,0.548-0.538,0.548h-3.004 c-0.294,0-0.538-0.245-0.538-0.548c0-0.274,0.215-0.509,0.489-0.538l0.127-0.01l0.039-0.127c0.108-0.43,0.489-0.744,0.949-0.744 c0.235,0,0.46,0.088,0.646,0.245l0.098,0.088l0.108-0.068c0.078-0.049,0.166-0.068,0.254-0.068c0.284,0,0.499,0.225,0.499,0.499 v0.176l0.333,0.01C503.726,101.608,503.863,101.667,503.961,101.765z" />
        </g>
        <g>
          <path fill="#FDC000" d="M500.419,105.189l2.749,3.199l-1.135,1.399l0.215-1.399c0,0-0.196-0.215-0.489-0.548 c-0.039-0.049-0.088-0.098-0.137-0.157c-0.088-0.098-0.186-0.215-0.294-0.333c-0.166-0.196-0.352-0.401-0.548-0.616 c-0.137-0.166-0.284-0.333-0.431-0.499c-0.157-0.176-0.303-0.342-0.44-0.499L500.419,105.189z" />
        </g>
        <g>
          <path d="M502.034,109.797l-0.108,0.665c-0.147-0.117-0.166-0.333-0.049-0.479L502.034,109.797z" />
        </g>
        <g>
          <path fill="#008482" d="M501.623,107.684c0.049,0.059,0.098,0.108,0.137,0.157C501.711,107.792,501.672,107.733,501.623,107.684 z" />
        </g>
        <g>
          <path fill="#008482" d="M501.329,107.351c-0.176-0.196-0.362-0.401-0.548-0.616C500.977,106.95,501.163,107.156,501.329,107.351 z" />
        </g>
        <g>
          <path fill="#76B7B3" d="M500.635,143.591h-26.035h-17.464v-42.717v-8.678h11.623c0.01,3.102,2.524,5.606,5.616,5.606h0.196 c3.092,0,5.606-2.505,5.616-5.606h15.048c-6.262,5.929-10.175,14.324-10.175,23.638 C485.058,127.585,491.291,137.878,500.635,143.591z" />
        </g>
        <g>
          <path fill="#FDC000" d="M499.911,105.737c0.137,0.157,0.284,0.323,0.44,0.499l-6.712,6.174L499.911,105.737z" />
        </g>
        <g>
          <path fill="#9B9B9B" d="M499.098,131.371c0.186,0.225,0.382,0.45,0.587,0.665C499.48,131.821,499.284,131.596,499.098,131.371z" />
        </g>
        <g>
          <path fill="#9B9B9B" d="M498.58,130.735c0.166,0.215,0.342,0.421,0.519,0.636C498.922,131.166,498.746,130.95,498.58,130.735z" />
        </g>
        <g>
          <path d="M480.186,92.176c0,0.01,0,0.01,0,0.02h-11.428c0-0.01,0-0.01,0-0.02c0-3.102,2.514-5.616,5.616-5.616h0.196 C477.672,86.56,480.186,89.075,480.186,92.176z" />
        </g>
        <g>
          <path d="M468.758,92.196h11.428c-0.01,3.102-2.524,5.606-5.616,5.606h-0.196C471.283,97.802,468.768,95.298,468.758,92.196z" />
        </g>
        <g>
          <path fill="#F4E8C6" d="M474.599,143.591v9.647h-14.627c-1.565,0-2.837-1.272-2.837-2.837v-6.81H474.599z" />
        </g>
      </g>
      <g>
        <g>
          <rect x="457.135" y="141.634" width="43.5" height="3.914" />
        </g>
        <g>
          <path d="M459.092,92.196h-3.914V69.878c0-2.643,2.151-4.794,4.794-4.794h12.25v3.914h-12.25c-0.485,0-0.88,0.395-0.88,0.88 V92.196z" />
        </g>
        <g>
          <path d="M579.964,92.196h-3.914V69.878c0-0.485-0.396-0.88-0.881-0.88h-85.258v-3.914h85.258c2.644,0,4.795,2.151,4.795,4.794 V92.196z" />
        </g>
        <g>
          <rect x="534.517" y="141.634" width="43.49" height="3.914" />
        </g>
        <g>
          <path d="M575.169,155.195H459.972c-2.643,0-4.794-2.151-4.794-4.795V90.24h17.974v3.914h-14.06v56.248 c0,0.485,0.395,0.881,0.88,0.881h115.197c0.485,0,0.881-0.396,0.881-0.881V94.153h-36.143V90.24h40.056v60.161 C579.964,153.044,577.813,155.195,575.169,155.195z" />
        </g>
        <g>
          <rect x="477.497" y="90.24" width="17.737" height="3.914" />
        </g>
        <g>
          <path d="M517.571,150.303c-6.349,0-12.558-1.744-17.956-5.042c-10.34-6.322-16.512-17.323-16.512-29.427 c0-9.574,3.83-18.473,10.786-25.059c6.431-6.075,14.841-9.42,23.682-9.42c8.851,0,17.262,3.345,23.682,9.419 c6.963,6.582,10.797,15.481,10.797,25.06c0,12.103-6.172,23.103-16.512,29.426l-0.002,0.001 C530.128,148.559,523.916,150.303,517.571,150.303z M517.571,85.269c-7.838,0-15.293,2.965-20.994,8.35 c-6.165,5.838-9.561,13.728-9.561,22.216c0,10.73,5.473,20.481,14.64,26.087c4.783,2.923,10.287,4.468,15.915,4.468 c5.626,0,11.134-1.545,15.928-4.469c9.166-5.607,14.638-15.358,14.638-26.086c0-8.491-3.4-16.381-9.573-22.217 C532.872,88.234,525.418,85.269,517.571,85.269z" />
        </g>
        <g>
          <path d="M517.571,143.826c-15.435,0-27.992-12.557-27.992-27.991c0-15.44,12.558-28.002,27.992-28.002 c15.44,0,28.002,12.562,28.002,28.002C545.573,131.269,533.011,143.826,517.571,143.826z M517.571,91.746 c-13.277,0-24.079,10.806-24.079,24.088c0,13.276,10.802,24.078,24.079,24.078c13.282,0,24.088-10.802,24.088-24.078 C541.659,102.553,530.853,91.746,517.571,91.746z" />
        </g>
        <g>
          <polygon points="457.135,102.832 448.848,102.832 448.848,83.703 457.135,83.703 457.135,87.617 452.762,87.617 452.762,98.918  457.135,98.918 " />
        </g>
        <g>
          <polygon points="586.294,102.832 578.007,102.832 578.007,98.918 582.38,98.918 582.38,87.617 578.007,87.617 578.007,83.703  586.294,83.703 " />
        </g>
        <g>
          <path d="M491.868,68.998h-21.603v-7.954c0-1.91,1.554-3.464,3.464-3.464h14.676c1.91,0,3.464,1.554,3.464,3.464V68.998z  M474.179,65.084h13.776v-3.591h-13.776V65.084z" />
        </g>
        <g>
          <rect x="472.643" y="143.591" width="3.914" height="9.647" />
        </g>
        <g>
          <rect x="558.585" y="143.591" width="3.914" height="9.647" />
        </g>
      </g>
    </g>
  </g>
</svg>