<svg version="1.1" id="Layer_1" xmlns="http://www.w3.org/2000/svg" xmlns:xlink="http://www.w3.org/1999/xlink" x="0px" y="0px" enable-background="new 0 0 650 212.775" xml:space="preserve" viewBox="64.65 77.05 366.73 43.43">
  <g>
    <g fill="#FFFFFF">
      <path d="M78.825,112.072c2.437,0,4.186-0.44,5.247-1.321c1.06-0.88,1.591-1.929,1.591-3.148c0-1.128-0.418-2.042-1.253-2.742 			c-0.836-0.699-2.064-1.297-3.69-1.794l-3.588-1.151c-2.437-0.813-4.593-1.715-6.466-2.708c-1.874-0.992-3.318-2.279-4.333-3.859 			c-1.016-1.579-1.524-3.588-1.524-6.025c0-3.746,1.422-6.725,4.265-8.937c2.844-2.211,6.793-3.318,11.848-3.318 			c2.572,0,4.863,0.249,6.872,0.745c2.008,0.497,3.588,1.23,4.739,2.2c1.151,0.971,1.727,2.156,1.727,3.554 			c0,1.039-0.237,1.93-0.711,2.674c-0.474,0.745-1.073,1.388-1.794,1.93c-1.039-0.721-2.415-1.342-4.13-1.862 			c-1.716-0.518-3.611-0.779-5.687-0.779c-2.166,0-3.791,0.35-4.874,1.049c-1.083,0.7-1.625,1.615-1.625,2.742 			c0,0.903,0.361,1.637,1.083,2.2c0.721,0.565,1.805,1.073,3.25,1.523l3.723,1.151c4.107,1.264,7.267,2.945,9.479,5.044 			c2.211,2.099,3.317,4.909,3.317,8.429c0,3.791-1.467,6.872-4.401,9.241c-2.934,2.369-7.177,3.554-12.728,3.554 			c-2.753,0-5.213-0.294-7.38-0.88c-2.166-0.586-3.893-1.444-5.179-2.573c-1.286-1.128-1.93-2.437-1.93-3.926 			c0-1.173,0.349-2.177,1.049-3.013c0.7-0.834,1.478-1.456,2.336-1.862c1.219,0.993,2.742,1.885,4.57,2.675 			C74.458,111.678,76.523,112.072,78.825,112.072z"></path>
      <path d="M139.487,104.15v13.879c-0.587,0.541-1.411,0.982-2.471,1.321c-1.061,0.338-2.314,0.507-3.758,0.507 			c-1.535,0-2.968-0.248-4.299-0.745c-1.332-0.495-2.427-1.601-3.284-3.317l-8.192-15.572c-0.497-0.993-0.982-1.986-1.455-2.979 			c-0.474-0.992-0.937-1.997-1.388-3.012c-0.451-1.016-0.903-2.042-1.354-3.081l-9.885,2.234V80.048 			c0.542-0.767,1.388-1.354,2.539-1.76c1.15-0.406,2.403-0.609,3.757-0.609c1.489,0,2.899,0.248,4.231,0.744 			c1.331,0.497,2.426,1.581,3.284,3.25l8.26,15.639c0.496,0.948,0.992,1.93,1.489,2.945c0.496,1.016,0.97,2.021,1.422,3.013 			c0.451,0.993,0.88,2.008,1.286,3.047L139.487,104.15z M103.401,90l9.343-0.135c0.18,1.941,0.315,3.859,0.406,5.755 			c0.09,1.896,0.146,3.724,0.169,5.484c0.022,1.76,0.034,3.476,0.034,5.146v13.067c-0.406,0.089-1.049,0.192-1.929,0.305 			c-0.88,0.112-1.772,0.169-2.675,0.169c-1.987,0-3.374-0.339-4.163-1.016c-0.79-0.677-1.185-1.896-1.185-3.656V90z 			 M139.487,107.401l-9.411,0.068c-0.316-3.294-0.497-6.432-0.541-9.411c-0.045-2.979-0.068-5.822-0.068-8.531V78.153 			c0.451-0.09,1.105-0.203,1.963-0.338c0.857-0.135,1.76-0.203,2.708-0.203c1.94,0,3.317,0.35,4.13,1.049 			c0.813,0.7,1.219,1.907,1.219,3.622V107.401z"></path>
      <path d="M165.553,86.819h-0.406c-0.452,1.445-0.982,3.047-1.591,4.807c-0.609,1.761-1.23,3.6-1.862,5.518 			c-0.633,1.919-1.242,3.825-1.828,5.721l-1.219,6.094c-0.271,0.858-0.531,1.76-0.779,2.708c-0.248,0.947-0.508,1.874-0.779,2.775 			c-0.271,0.904-0.52,1.761-0.744,2.573c-0.227,0.812-0.452,1.581-0.677,2.302c-0.497,0.135-1.061,0.281-1.692,0.44 			c-0.633,0.158-1.378,0.237-2.234,0.237c-1.895,0-3.341-0.338-4.333-1.016c-0.993-0.677-1.489-1.669-1.489-2.979 			c0-0.541,0.078-1.105,0.237-1.692c0.158-0.586,0.349-1.263,0.576-2.03c0.406-1.49,0.982-3.363,1.726-5.62 			c0.745-2.256,1.558-4.705,2.437-7.346c0.88-2.64,1.783-5.247,2.708-7.82c0.924-2.572,1.783-4.942,2.573-7.109 			c0.789-2.166,1.432-3.859,1.93-5.077c0.631-0.406,1.635-0.779,3.012-1.117c1.376-0.339,2.742-0.508,4.096-0.508 			c1.94,0,3.678,0.282,5.213,0.846c1.534,0.565,2.505,1.455,2.912,2.674c0.857,2.393,1.794,5.157,2.809,8.293 			c1.016,3.138,2.041,6.421,3.081,9.851c1.037,3.431,2.041,6.76,3.012,9.986c0.97,3.228,1.817,6.127,2.539,8.7 			c-0.497,0.541-1.219,1.005-2.167,1.388c-0.948,0.384-2.077,0.576-3.385,0.576c-1.851,0-3.16-0.338-3.927-1.016 			c-0.768-0.677-1.354-1.692-1.76-3.046l-2.167-7.583l-1.151-5.755c-0.541-2.031-1.106-3.995-1.692-5.89 			c-0.587-1.895-1.129-3.69-1.625-5.382C166.409,89.629,165.959,88.129,165.553,86.819z M154.111,110.176l3.995-7.989h15.842 			l1.354,7.989H154.111z"></path>
      <path d="M205.903,106.114H190.94V81.877c0-0.857,0.248-1.534,0.745-2.031c0.496-0.496,1.151-0.88,1.963-1.151 			c1.489-0.541,3.272-0.924,5.349-1.15c2.076-0.225,3.949-0.339,5.619-0.339c6.093,0,10.708,1.298,13.845,3.893 			c3.137,2.596,4.705,6.127,4.705,10.596c0,2.889-0.689,5.416-2.065,7.583c-1.377,2.166-3.351,3.849-5.924,5.044 			C212.606,105.516,209.513,106.114,205.903,106.114z M190.94,101.578h10.291v17.67c-0.407,0.137-1.061,0.26-1.964,0.373 			c-0.903,0.112-1.828,0.169-2.776,0.169c-2.031,0-3.464-0.363-4.299-1.084c-0.836-0.721-1.253-1.986-1.253-3.791V101.578z 			 M201.164,97.99h4.062c2.302,0,4.119-0.541,5.451-1.625c1.331-1.083,1.997-2.641,1.997-4.671c0-2.031-0.633-3.565-1.896-4.604 			c-1.264-1.037-3.092-1.557-5.483-1.557c-0.813,0-1.547,0.024-2.201,0.068c-0.654,0.046-1.298,0.114-1.929,0.203V97.99z"></path>
      <path d="M241.988,112.072c2.437,0,4.186-0.44,5.247-1.321c1.06-0.88,1.591-1.929,1.591-3.148c0-1.128-0.418-2.042-1.253-2.742 			c-0.836-0.699-2.064-1.297-3.69-1.794l-3.588-1.151c-2.437-0.813-4.593-1.715-6.466-2.708c-1.874-0.992-3.318-2.279-4.333-3.859 			c-1.016-1.579-1.524-3.588-1.524-6.025c0-3.746,1.422-6.725,4.265-8.937c2.844-2.211,6.793-3.318,11.848-3.318 			c2.572,0,4.863,0.249,6.872,0.745c2.008,0.497,3.588,1.23,4.739,2.2c1.151,0.971,1.727,2.156,1.727,3.554 			c0,1.039-0.237,1.93-0.711,2.674c-0.474,0.745-1.073,1.388-1.794,1.93c-1.039-0.721-2.415-1.342-4.13-1.862 			c-1.716-0.518-3.611-0.779-5.687-0.779c-2.166,0-3.791,0.35-4.874,1.049c-1.083,0.7-1.625,1.615-1.625,2.742 			c0,0.903,0.361,1.637,1.083,2.2c0.721,0.565,1.805,1.073,3.25,1.523l3.723,1.151c4.107,1.264,7.267,2.945,9.479,5.044 			c2.211,2.099,3.317,4.909,3.317,8.429c0,3.791-1.467,6.872-4.401,9.241c-2.934,2.369-7.176,3.554-12.728,3.554 			c-2.753,0-5.213-0.294-7.38-0.88c-2.166-0.586-3.893-1.444-5.179-2.573c-1.286-1.128-1.93-2.437-1.93-3.926 			c0-1.173,0.349-2.177,1.049-3.013c0.7-0.834,1.478-1.456,2.336-1.862c1.219,0.993,2.742,1.885,4.57,2.675 			C237.621,111.678,239.686,112.072,241.988,112.072z"></path>
      <path d="M294.051,109.093c-0.497,0.406-1.163,0.744-1.998,1.016c-0.836,0.271-1.794,0.406-2.876,0.406 			c-1.401,0-2.573-0.18-3.521-0.542c-0.946-0.361-1.556-0.97-1.827-1.828c-1.535-4.288-2.834-7.853-3.893-10.697 			c-1.062-2.844-1.885-5.303-2.472-7.38h-0.339c-0.134,2.844-0.247,5.44-0.337,7.786c-0.092,2.347-0.16,4.638-0.205,6.872 			c-0.045,2.234-0.113,4.502-0.202,6.805c-0.092,2.302-0.226,4.83-0.407,7.582c-0.497,0.135-1.16,0.293-1.996,0.474 			c-0.836,0.18-1.66,0.271-2.472,0.271c-1.715,0-3.058-0.294-4.028-0.88c-0.971-0.586-1.455-1.601-1.455-3.046 			c0-0.992,0.056-2.472,0.169-4.435c0.112-1.963,0.248-4.22,0.407-6.77c0.158-2.549,0.315-5.247,0.474-8.09 			c0.158-2.844,0.338-5.653,0.541-8.429c0.204-2.776,0.395-5.337,0.576-7.684c0.361-0.542,1.083-1.094,2.167-1.659 			c1.083-0.564,2.572-0.846,4.467-0.846c2.031,0,3.667,0.328,4.91,0.982c1.241,0.655,2.133,1.727,2.674,3.216 			c0.676,1.625,1.398,3.51,2.166,5.653c0.767,2.144,1.523,4.311,2.269,6.5c0.744,2.19,1.431,4.163,2.064,5.924h0.339 			c1.262-3.972,2.561-7.854,3.893-11.645c1.33-3.791,2.469-6.95,3.418-9.478c0.631-0.361,1.434-0.643,2.403-0.846 			c0.97-0.204,1.998-0.305,3.081-0.305c1.94,0,3.507,0.282,4.705,0.846c1.196,0.565,1.907,1.411,2.133,2.539 			c0.179,0.858,0.372,2.212,0.574,4.062c0.205,1.851,0.417,3.984,0.643,6.398c0.226,2.415,0.452,4.943,0.678,7.583 			c0.226,2.641,0.44,5.213,0.643,7.718c0.205,2.505,0.374,4.751,0.508,6.736c0.137,1.987,0.226,3.566,0.271,4.74 			c-0.678,0.406-1.389,0.711-2.133,0.913c-0.744,0.204-1.681,0.305-2.811,0.305c-1.443,0-2.674-0.271-3.689-0.812 			c-1.015-0.541-1.57-1.579-1.66-3.114c-0.226-3.52-0.405-6.872-0.541-10.054c-0.134-3.182-0.235-6.093-0.304-8.734 			c-0.068-2.641-0.148-4.909-0.238-6.804h-0.339c-0.586,1.941-1.41,4.39-2.472,7.345 			C296.951,100.642,295.631,104.445,294.051,109.093z"></path>
      <path d="M337.448,86.819h-0.406c-0.452,1.445-0.982,3.047-1.591,4.807c-0.61,1.761-1.23,3.6-1.862,5.518 			c-0.632,1.919-1.242,3.825-1.828,5.721l-1.218,6.094c-0.272,0.858-0.532,1.76-0.779,2.708c-0.248,0.947-0.507,1.874-0.778,2.775 			c-0.272,0.904-0.52,1.761-0.745,2.573c-0.227,0.812-0.452,1.581-0.677,2.302c-0.498,0.135-1.062,0.281-1.694,0.44 			c-0.632,0.158-1.377,0.237-2.234,0.237c-1.896,0-3.34-0.338-4.332-1.016c-0.993-0.677-1.49-1.669-1.49-2.979 			c0-0.541,0.079-1.105,0.237-1.692c0.158-0.586,0.35-1.263,0.576-2.03c0.407-1.49,0.982-3.363,1.727-5.62 			c0.745-2.256,1.557-4.705,2.438-7.346c0.88-2.64,1.783-5.247,2.708-7.82c0.925-2.572,1.783-4.942,2.573-7.109 			c0.789-2.166,1.432-3.859,1.929-5.077c0.632-0.406,1.636-0.779,3.013-1.117c1.377-0.339,2.742-0.508,4.096-0.508 			c1.941,0,3.679,0.282,5.214,0.846c1.534,0.565,2.505,1.455,2.911,2.674c0.857,2.393,1.795,5.157,2.811,8.293 			c1.015,3.138,2.041,6.421,3.08,9.851c1.038,3.431,2.042,6.76,3.013,9.986c0.97,3.228,1.816,6.127,2.539,8.7 			c-0.498,0.541-1.219,1.005-2.167,1.388c-0.947,0.384-2.076,0.576-3.385,0.576c-1.851,0-3.16-0.338-3.928-1.016 			c-0.767-0.677-1.354-1.692-1.76-3.046l-2.167-7.583l-1.151-5.755c-0.541-2.031-1.106-3.995-1.692-5.89 			c-0.587-1.895-1.129-3.69-1.625-5.382C338.305,89.629,337.854,88.129,337.448,86.819z M326.006,110.176l3.995-7.989h15.843 			l1.354,7.989H326.006z"></path>
      <path d="M377.798,106.114h-14.963V81.877c0-0.857,0.248-1.534,0.745-2.031c0.495-0.496,1.151-0.88,1.963-1.151 			c1.49-0.541,3.272-0.924,5.349-1.15c2.075-0.225,3.949-0.339,5.619-0.339c6.093,0,10.708,1.298,13.846,3.893 			c3.137,2.596,4.705,6.127,4.705,10.596c0,2.889-0.69,5.416-2.066,7.583c-1.377,2.166-3.351,3.849-5.924,5.044 			C384.501,105.516,381.409,106.114,377.798,106.114z M362.835,101.578h10.291v17.67c-0.406,0.137-1.062,0.26-1.963,0.373 			c-0.904,0.112-1.829,0.169-2.776,0.169c-2.031,0-3.464-0.363-4.299-1.084s-1.252-1.986-1.252-3.791V101.578z M373.058,97.99h4.063 			c2.302,0,4.118-0.541,5.449-1.625s1.997-2.641,1.997-4.671c0-2.031-0.632-3.565-1.895-4.604c-1.264-1.037-3.093-1.557-5.485-1.557 			c-0.812,0-1.547,0.024-2.2,0.068c-0.656,0.046-1.298,0.114-1.93,0.203V97.99z"></path>
      <path d="M413.884,112.072c2.437,0,4.186-0.44,5.247-1.321c1.06-0.88,1.591-1.929,1.591-3.148c0-1.128-0.418-2.042-1.252-2.742 			c-0.836-0.699-2.066-1.297-3.69-1.794l-3.589-1.151c-2.437-0.813-4.594-1.715-6.466-2.708c-1.873-0.992-3.317-2.279-4.332-3.859 			c-1.016-1.579-1.522-3.588-1.522-6.025c0-3.746,1.421-6.725,4.265-8.937c2.844-2.211,6.792-3.318,11.847-3.318 			c2.573,0,4.863,0.249,6.872,0.745c2.008,0.497,3.589,1.23,4.74,2.2c1.151,0.971,1.725,2.156,1.725,3.554 			c0,1.039-0.237,1.93-0.711,2.674c-0.473,0.745-1.072,1.388-1.794,1.93c-1.039-0.721-2.415-1.342-4.13-1.862 			c-1.716-0.518-3.611-0.779-5.687-0.779c-2.167,0-3.791,0.35-4.875,1.049c-1.083,0.7-1.624,1.615-1.624,2.742 			c0,0.903,0.36,1.637,1.083,2.2c0.721,0.565,1.805,1.073,3.25,1.523l3.724,1.151c4.106,1.264,7.267,2.945,9.479,5.044 			c2.21,2.099,3.317,4.909,3.317,8.429c0,3.791-1.466,6.872-4.401,9.241c-2.934,2.369-7.176,3.554-12.728,3.554 			c-2.754,0-5.214-0.294-7.38-0.88c-2.167-0.586-3.893-1.444-5.18-2.573c-1.286-1.128-1.928-2.437-1.928-3.926 			c0-1.173,0.348-2.177,1.048-3.013c0.699-0.834,1.478-1.456,2.336-1.862c1.218,0.993,2.741,1.885,4.57,2.675 			C409.517,111.678,411.582,112.072,413.884,112.072z"></path>
    </g>
  </g>
</svg>