<svg version="1.1" id="Layer_1" xmlns="http://www.w3.org/2000/svg" xmlns:xlink="http://www.w3.org/1999/xlink" x="0px" y="0px" enable-background="new 0 0 650 212.775" xml:space="preserve" viewBox="63.7 77.05 372 71.3">
  <g>
    <g fill="#FFFFFF">
      <path d="M78.825,112.072c2.437,0,4.186-0.44,5.247-1.321c1.06-0.88,1.591-1.929,1.591-3.148c0-1.128-0.418-2.042-1.253-2.742 			c-0.836-0.699-2.064-1.297-3.69-1.794l-3.588-1.151c-2.437-0.813-4.593-1.715-6.466-2.708c-1.874-0.992-3.318-2.279-4.333-3.859 			c-1.016-1.579-1.524-3.588-1.524-6.025c0-3.746,1.422-6.725,4.265-8.937c2.844-2.211,6.793-3.318,11.848-3.318 			c2.572,0,4.863,0.249,6.872,0.745c2.008,0.497,3.588,1.23,4.739,2.2c1.151,0.971,1.727,2.156,1.727,3.554 			c0,1.039-0.237,1.93-0.711,2.674c-0.474,0.745-1.073,1.388-1.794,1.93c-1.039-0.721-2.415-1.342-4.13-1.862 			c-1.716-0.518-3.611-0.779-5.687-0.779c-2.166,0-3.791,0.35-4.874,1.049c-1.083,0.7-1.625,1.615-1.625,2.742 			c0,0.903,0.361,1.637,1.083,2.2c0.721,0.565,1.805,1.073,3.25,1.523l3.723,1.151c4.107,1.264,7.267,2.945,9.479,5.044 			c2.211,2.099,3.317,4.909,3.317,8.429c0,3.791-1.467,6.872-4.401,9.241c-2.934,2.369-7.177,3.554-12.728,3.554 			c-2.753,0-5.213-0.294-7.38-0.88c-2.166-0.586-3.893-1.444-5.179-2.573c-1.286-1.128-1.93-2.437-1.93-3.926 			c0-1.173,0.349-2.177,1.049-3.013c0.7-0.834,1.478-1.456,2.336-1.862c1.219,0.993,2.742,1.885,4.57,2.675 			C74.458,111.678,76.523,112.072,78.825,112.072z"></path>
      <path d="M139.487,104.15v13.879c-0.587,0.541-1.411,0.982-2.471,1.321c-1.061,0.338-2.314,0.507-3.758,0.507 			c-1.535,0-2.968-0.248-4.299-0.745c-1.332-0.495-2.427-1.601-3.284-3.317l-8.192-15.572c-0.497-0.993-0.982-1.986-1.455-2.979 			c-0.474-0.992-0.937-1.997-1.388-3.012c-0.451-1.016-0.903-2.042-1.354-3.081l-9.885,2.234V80.048 			c0.542-0.767,1.388-1.354,2.539-1.76c1.15-0.406,2.403-0.609,3.757-0.609c1.489,0,2.899,0.248,4.231,0.744 			c1.331,0.497,2.426,1.581,3.284,3.25l8.26,15.639c0.496,0.948,0.992,1.93,1.489,2.945c0.496,1.016,0.97,2.021,1.422,3.013 			c0.451,0.993,0.88,2.008,1.286,3.047L139.487,104.15z M103.401,90l9.343-0.135c0.18,1.941,0.315,3.859,0.406,5.755 			c0.09,1.896,0.146,3.724,0.169,5.484c0.022,1.76,0.034,3.476,0.034,5.146v13.067c-0.406,0.089-1.049,0.192-1.929,0.305 			c-0.88,0.112-1.772,0.169-2.675,0.169c-1.987,0-3.374-0.339-4.163-1.016c-0.79-0.677-1.185-1.896-1.185-3.656V90z 			 M139.487,107.401l-9.411,0.068c-0.316-3.294-0.497-6.432-0.541-9.411c-0.045-2.979-0.068-5.822-0.068-8.531V78.153 			c0.451-0.09,1.105-0.203,1.963-0.338c0.857-0.135,1.76-0.203,2.708-0.203c1.94,0,3.317,0.35,4.13,1.049 			c0.813,0.7,1.219,1.907,1.219,3.622V107.401z"></path>
      <path d="M165.553,86.819h-0.406c-0.452,1.445-0.982,3.047-1.591,4.807c-0.609,1.761-1.23,3.6-1.862,5.518 			c-0.633,1.919-1.242,3.825-1.828,5.721l-1.219,6.094c-0.271,0.858-0.531,1.76-0.779,2.708c-0.248,0.947-0.508,1.874-0.779,2.775 			c-0.271,0.904-0.52,1.761-0.744,2.573c-0.227,0.812-0.452,1.581-0.677,2.302c-0.497,0.135-1.061,0.281-1.692,0.44 			c-0.633,0.158-1.378,0.237-2.234,0.237c-1.895,0-3.341-0.338-4.333-1.016c-0.993-0.677-1.489-1.669-1.489-2.979 			c0-0.541,0.078-1.105,0.237-1.692c0.158-0.586,0.349-1.263,0.576-2.03c0.406-1.49,0.982-3.363,1.726-5.62 			c0.745-2.256,1.558-4.705,2.437-7.346c0.88-2.64,1.783-5.247,2.708-7.82c0.924-2.572,1.783-4.942,2.573-7.109 			c0.789-2.166,1.432-3.859,1.93-5.077c0.631-0.406,1.635-0.779,3.012-1.117c1.376-0.339,2.742-0.508,4.096-0.508 			c1.94,0,3.678,0.282,5.213,0.846c1.534,0.565,2.505,1.455,2.912,2.674c0.857,2.393,1.794,5.157,2.809,8.293 			c1.016,3.138,2.041,6.421,3.081,9.851c1.037,3.431,2.041,6.76,3.012,9.986c0.97,3.228,1.817,6.127,2.539,8.7 			c-0.497,0.541-1.219,1.005-2.167,1.388c-0.948,0.384-2.077,0.576-3.385,0.576c-1.851,0-3.16-0.338-3.927-1.016 			c-0.768-0.677-1.354-1.692-1.76-3.046l-2.167-7.583l-1.151-5.755c-0.541-2.031-1.106-3.995-1.692-5.89 			c-0.587-1.895-1.129-3.69-1.625-5.382C166.409,89.629,165.959,88.129,165.553,86.819z M154.111,110.176l3.995-7.989h15.842 			l1.354,7.989H154.111z"></path>
      <path d="M205.903,106.114H190.94V81.877c0-0.857,0.248-1.534,0.745-2.031c0.496-0.496,1.151-0.88,1.963-1.151 			c1.489-0.541,3.272-0.924,5.349-1.15c2.076-0.225,3.949-0.339,5.619-0.339c6.093,0,10.708,1.298,13.845,3.893 			c3.137,2.596,4.705,6.127,4.705,10.596c0,2.889-0.689,5.416-2.065,7.583c-1.377,2.166-3.351,3.849-5.924,5.044 			C212.606,105.516,209.513,106.114,205.903,106.114z M190.94,101.578h10.291v17.67c-0.407,0.137-1.061,0.26-1.964,0.373 			c-0.903,0.112-1.828,0.169-2.776,0.169c-2.031,0-3.464-0.363-4.299-1.084c-0.836-0.721-1.253-1.986-1.253-3.791V101.578z 			 M201.164,97.99h4.062c2.302,0,4.119-0.541,5.451-1.625c1.331-1.083,1.997-2.641,1.997-4.671c0-2.031-0.633-3.565-1.896-4.604 			c-1.264-1.037-3.092-1.557-5.483-1.557c-0.813,0-1.547,0.024-2.201,0.068c-0.654,0.046-1.298,0.114-1.929,0.203V97.99z"></path>
      <path d="M241.988,112.072c2.437,0,4.186-0.44,5.247-1.321c1.06-0.88,1.591-1.929,1.591-3.148c0-1.128-0.418-2.042-1.253-2.742 			c-0.836-0.699-2.064-1.297-3.69-1.794l-3.588-1.151c-2.437-0.813-4.593-1.715-6.466-2.708c-1.874-0.992-3.318-2.279-4.333-3.859 			c-1.016-1.579-1.524-3.588-1.524-6.025c0-3.746,1.422-6.725,4.265-8.937c2.844-2.211,6.793-3.318,11.848-3.318 			c2.572,0,4.863,0.249,6.872,0.745c2.008,0.497,3.588,1.23,4.739,2.2c1.151,0.971,1.727,2.156,1.727,3.554 			c0,1.039-0.237,1.93-0.711,2.674c-0.474,0.745-1.073,1.388-1.794,1.93c-1.039-0.721-2.415-1.342-4.13-1.862 			c-1.716-0.518-3.611-0.779-5.687-0.779c-2.166,0-3.791,0.35-4.874,1.049c-1.083,0.7-1.625,1.615-1.625,2.742 			c0,0.903,0.361,1.637,1.083,2.2c0.721,0.565,1.805,1.073,3.25,1.523l3.723,1.151c4.107,1.264,7.267,2.945,9.479,5.044 			c2.211,2.099,3.317,4.909,3.317,8.429c0,3.791-1.467,6.872-4.401,9.241c-2.934,2.369-7.176,3.554-12.728,3.554 			c-2.753,0-5.213-0.294-7.38-0.88c-2.166-0.586-3.893-1.444-5.179-2.573c-1.286-1.128-1.93-2.437-1.93-3.926 			c0-1.173,0.349-2.177,1.049-3.013c0.7-0.834,1.478-1.456,2.336-1.862c1.219,0.993,2.742,1.885,4.57,2.675 			C237.621,111.678,239.686,112.072,241.988,112.072z"></path>
      <path d="M294.051,109.093c-0.497,0.406-1.163,0.744-1.998,1.016c-0.836,0.271-1.794,0.406-2.876,0.406 			c-1.401,0-2.573-0.18-3.521-0.542c-0.946-0.361-1.556-0.97-1.827-1.828c-1.535-4.288-2.834-7.853-3.893-10.697 			c-1.062-2.844-1.885-5.303-2.472-7.38h-0.339c-0.134,2.844-0.247,5.44-0.337,7.786c-0.092,2.347-0.16,4.638-0.205,6.872 			c-0.045,2.234-0.113,4.502-0.202,6.805c-0.092,2.302-0.226,4.83-0.407,7.582c-0.497,0.135-1.16,0.293-1.996,0.474 			c-0.836,0.18-1.66,0.271-2.472,0.271c-1.715,0-3.058-0.294-4.028-0.88c-0.971-0.586-1.455-1.601-1.455-3.046 			c0-0.992,0.056-2.472,0.169-4.435c0.112-1.963,0.248-4.22,0.407-6.77c0.158-2.549,0.315-5.247,0.474-8.09 			c0.158-2.844,0.338-5.653,0.541-8.429c0.204-2.776,0.395-5.337,0.576-7.684c0.361-0.542,1.083-1.094,2.167-1.659 			c1.083-0.564,2.572-0.846,4.467-0.846c2.031,0,3.667,0.328,4.91,0.982c1.241,0.655,2.133,1.727,2.674,3.216 			c0.676,1.625,1.398,3.51,2.166,5.653c0.767,2.144,1.523,4.311,2.269,6.5c0.744,2.19,1.431,4.163,2.064,5.924h0.339 			c1.262-3.972,2.561-7.854,3.893-11.645c1.33-3.791,2.469-6.95,3.418-9.478c0.631-0.361,1.434-0.643,2.403-0.846 			c0.97-0.204,1.998-0.305,3.081-0.305c1.94,0,3.507,0.282,4.705,0.846c1.196,0.565,1.907,1.411,2.133,2.539 			c0.179,0.858,0.372,2.212,0.574,4.062c0.205,1.851,0.417,3.984,0.643,6.398c0.226,2.415,0.452,4.943,0.678,7.583 			c0.226,2.641,0.44,5.213,0.643,7.718c0.205,2.505,0.374,4.751,0.508,6.736c0.137,1.987,0.226,3.566,0.271,4.74 			c-0.678,0.406-1.389,0.711-2.133,0.913c-0.744,0.204-1.681,0.305-2.811,0.305c-1.443,0-2.674-0.271-3.689-0.812 			c-1.015-0.541-1.57-1.579-1.66-3.114c-0.226-3.52-0.405-6.872-0.541-10.054c-0.134-3.182-0.235-6.093-0.304-8.734 			c-0.068-2.641-0.148-4.909-0.238-6.804h-0.339c-0.586,1.941-1.41,4.39-2.472,7.345 			C296.951,100.642,295.631,104.445,294.051,109.093z"></path>
      <path d="M337.448,86.819h-0.406c-0.452,1.445-0.982,3.047-1.591,4.807c-0.61,1.761-1.23,3.6-1.862,5.518 			c-0.632,1.919-1.242,3.825-1.828,5.721l-1.218,6.094c-0.272,0.858-0.532,1.76-0.779,2.708c-0.248,0.947-0.507,1.874-0.778,2.775 			c-0.272,0.904-0.52,1.761-0.745,2.573c-0.227,0.812-0.452,1.581-0.677,2.302c-0.498,0.135-1.062,0.281-1.694,0.44 			c-0.632,0.158-1.377,0.237-2.234,0.237c-1.896,0-3.34-0.338-4.332-1.016c-0.993-0.677-1.49-1.669-1.49-2.979 			c0-0.541,0.079-1.105,0.237-1.692c0.158-0.586,0.35-1.263,0.576-2.03c0.407-1.49,0.982-3.363,1.727-5.62 			c0.745-2.256,1.557-4.705,2.438-7.346c0.88-2.64,1.783-5.247,2.708-7.82c0.925-2.572,1.783-4.942,2.573-7.109 			c0.789-2.166,1.432-3.859,1.929-5.077c0.632-0.406,1.636-0.779,3.013-1.117c1.377-0.339,2.742-0.508,4.096-0.508 			c1.941,0,3.679,0.282,5.214,0.846c1.534,0.565,2.505,1.455,2.911,2.674c0.857,2.393,1.795,5.157,2.811,8.293 			c1.015,3.138,2.041,6.421,3.08,9.851c1.038,3.431,2.042,6.76,3.013,9.986c0.97,3.228,1.816,6.127,2.539,8.7 			c-0.498,0.541-1.219,1.005-2.167,1.388c-0.947,0.384-2.076,0.576-3.385,0.576c-1.851,0-3.16-0.338-3.928-1.016 			c-0.767-0.677-1.354-1.692-1.76-3.046l-2.167-7.583l-1.151-5.755c-0.541-2.031-1.106-3.995-1.692-5.89 			c-0.587-1.895-1.129-3.69-1.625-5.382C338.305,89.629,337.854,88.129,337.448,86.819z M326.006,110.176l3.995-7.989h15.843 			l1.354,7.989H326.006z"></path>
      <path d="M377.798,106.114h-14.963V81.877c0-0.857,0.248-1.534,0.745-2.031c0.495-0.496,1.151-0.88,1.963-1.151 			c1.49-0.541,3.272-0.924,5.349-1.15c2.075-0.225,3.949-0.339,5.619-0.339c6.093,0,10.708,1.298,13.846,3.893 			c3.137,2.596,4.705,6.127,4.705,10.596c0,2.889-0.69,5.416-2.066,7.583c-1.377,2.166-3.351,3.849-5.924,5.044 			C384.501,105.516,381.409,106.114,377.798,106.114z M362.835,101.578h10.291v17.67c-0.406,0.137-1.062,0.26-1.963,0.373 			c-0.904,0.112-1.829,0.169-2.776,0.169c-2.031,0-3.464-0.363-4.299-1.084s-1.252-1.986-1.252-3.791V101.578z M373.058,97.99h4.063 			c2.302,0,4.118-0.541,5.449-1.625s1.997-2.641,1.997-4.671c0-2.031-0.632-3.565-1.895-4.604c-1.264-1.037-3.093-1.557-5.485-1.557 			c-0.812,0-1.547,0.024-2.2,0.068c-0.656,0.046-1.298,0.114-1.93,0.203V97.99z"></path>
      <path d="M413.884,112.072c2.437,0,4.186-0.44,5.247-1.321c1.06-0.88,1.591-1.929,1.591-3.148c0-1.128-0.418-2.042-1.252-2.742 			c-0.836-0.699-2.066-1.297-3.69-1.794l-3.589-1.151c-2.437-0.813-4.594-1.715-6.466-2.708c-1.873-0.992-3.317-2.279-4.332-3.859 			c-1.016-1.579-1.522-3.588-1.522-6.025c0-3.746,1.421-6.725,4.265-8.937c2.844-2.211,6.792-3.318,11.847-3.318 			c2.573,0,4.863,0.249,6.872,0.745c2.008,0.497,3.589,1.23,4.74,2.2c1.151,0.971,1.725,2.156,1.725,3.554 			c0,1.039-0.237,1.93-0.711,2.674c-0.473,0.745-1.072,1.388-1.794,1.93c-1.039-0.721-2.415-1.342-4.13-1.862 			c-1.716-0.518-3.611-0.779-5.687-0.779c-2.167,0-3.791,0.35-4.875,1.049c-1.083,0.7-1.624,1.615-1.624,2.742 			c0,0.903,0.36,1.637,1.083,2.2c0.721,0.565,1.805,1.073,3.25,1.523l3.724,1.151c4.106,1.264,7.267,2.945,9.479,5.044 			c2.21,2.099,3.317,4.909,3.317,8.429c0,3.791-1.466,6.872-4.401,9.241c-2.934,2.369-7.176,3.554-12.728,3.554 			c-2.754,0-5.214-0.294-7.38-0.88c-2.167-0.586-3.893-1.444-5.18-2.573c-1.286-1.128-1.928-2.437-1.928-3.926 			c0-1.173,0.348-2.177,1.048-3.013c0.699-0.834,1.478-1.456,2.336-1.862c1.218,0.993,2.741,1.885,4.57,2.675 			C409.517,111.678,411.582,112.072,413.884,112.072z"></path>
    </g>
    <g>
      <g fill="#FFFFFF">
        <path d="M75.214,140.61c-0.635,1.135-1.529,1.981-2.68,2.537c-1.152,0.556-2.505,0.834-4.062,0.834 				c-0.509,0-1.104-0.024-1.787-0.072c-0.683-0.048-1.318-0.167-1.906-0.357c-0.715-0.238-1.072-0.659-1.072-1.263v-11.96 				c0-0.27,0.076-0.479,0.227-0.632c0.15-0.15,0.361-0.265,0.631-0.345c0.54-0.174,1.136-0.289,1.787-0.345 				c0.651-0.055,1.287-0.084,1.906-0.084c1.572,0,2.951,0.274,4.134,0.822c1.183,0.548,2.108,1.366,2.776,2.454 				c0.667,1.088,1.001,2.465,1.001,4.133C76.167,138.047,75.849,139.473,75.214,140.61z M72.903,133.27 				c-0.477-0.786-1.112-1.365-1.906-1.739c-0.795-0.373-1.692-0.56-2.692-0.56c-0.429,0-0.814,0.016-1.156,0.048 				s-0.663,0.071-0.965,0.119v10.579c0.334,0.079,0.699,0.135,1.096,0.167c0.397,0.032,0.794,0.048,1.191,0.048 				c1.652,0,2.922-0.472,3.812-1.418c0.889-0.944,1.334-2.338,1.334-4.181C73.617,135.078,73.379,134.058,72.903,133.27z"></path>
        <path d="M94.488,138.119c0,1.191-0.231,2.231-0.691,3.121c-0.461,0.89-1.112,1.577-1.953,2.061 				c-0.842,0.484-1.835,0.726-2.978,0.726c-1.144,0-2.137-0.242-2.978-0.726c-0.842-0.484-1.493-1.167-1.954-2.049 				c-0.461-0.881-0.691-1.926-0.691-3.133s0.234-2.252,0.703-3.133c0.469-0.882,1.128-1.564,1.977-2.049 				c0.85-0.484,1.831-0.726,2.943-0.726c1.127,0,2.112,0.242,2.954,0.726c0.842,0.485,1.497,1.167,1.965,2.049 				C94.254,135.867,94.488,136.912,94.488,138.119z M88.866,134.188c-0.953,0-1.712,0.35-2.275,1.049 				c-0.564,0.699-0.846,1.66-0.846,2.882c0,1.239,0.274,2.204,0.822,2.894c0.548,0.691,1.314,1.037,2.299,1.037 				c0.985,0,1.751-0.349,2.299-1.047c0.548-0.699,0.822-1.66,0.822-2.883c0-1.222-0.278-2.184-0.834-2.882 				C90.596,134.538,89.834,134.188,88.866,134.188z"></path>
        <path d="M111.951,136.38v2.359h-2.454v-2.264c0-0.793-0.222-1.373-0.667-1.739c-0.445-0.366-1.04-0.548-1.787-0.548 				c-0.556,0-1.056,0.071-1.501,0.215c-0.445,0.143-0.826,0.302-1.143,0.476v3.86h-2.454v-3.907c0-0.366,0.076-0.664,0.227-0.894 				c0.151-0.23,0.393-0.448,0.727-0.656c0.445-0.27,1.025-0.515,1.739-0.738c0.715-0.222,1.517-0.333,2.406-0.333 				c1.541,0,2.744,0.345,3.61,1.037C111.518,133.938,111.951,134.983,111.951,136.38z M101.945,137.5h2.454v6.147 				c-0.111,0.032-0.266,0.072-0.465,0.12c-0.198,0.047-0.416,0.071-0.655,0.071c-0.445,0-0.778-0.087-1.001-0.261 				c-0.222-0.175-0.334-0.461-0.334-0.858V137.5z M109.497,137.5h2.454v6.147c-0.111,0.032-0.27,0.072-0.476,0.12 				c-0.207,0.047-0.421,0.071-0.644,0.071c-0.461,0-0.798-0.087-1.013-0.261c-0.215-0.175-0.322-0.461-0.322-0.858V137.5z"></path>
        <path d="M120.48,133.95c-0.111,0.048-0.25,0.091-0.416,0.131c-0.167,0.041-0.346,0.06-0.536,0.06 				c-0.286,0-0.517-0.067-0.691-0.203c-0.175-0.134-0.278-0.337-0.31-0.608l-0.167-4.24c0.143-0.111,0.313-0.199,0.512-0.262 				c0.198-0.064,0.433-0.096,0.703-0.096c0.381,0,0.671,0.087,0.869,0.262c0.198,0.175,0.298,0.453,0.298,0.834 				c0,0.285-0.016,0.678-0.048,1.179c-0.032,0.5-0.064,1.016-0.095,1.548C120.568,133.088,120.528,133.553,120.48,133.95z"></path>
        <path d="M130.32,138.071h-2.43v-8.6c0.095-0.032,0.246-0.072,0.452-0.12c0.207-0.048,0.429-0.071,0.668-0.071 				c0.444,0,0.774,0.087,0.989,0.261c0.215,0.175,0.322,0.461,0.322,0.858V138.071z M127.89,137.405h2.43v3.049 				c0,0.572,0.167,0.977,0.5,1.215c0.334,0.238,0.802,0.357,1.406,0.357c0.254,0,0.54-0.04,0.858-0.119 				c0.318-0.079,0.579-0.175,0.786-0.286c0.111,0.111,0.21,0.25,0.298,0.417c0.087,0.167,0.131,0.354,0.131,0.561 				c0,0.412-0.21,0.75-0.631,1.011c-0.421,0.262-1.052,0.393-1.894,0.393c-1.176,0-2.117-0.261-2.824-0.786 				c-0.706-0.524-1.06-1.397-1.06-2.62V137.405z M129.272,134.736v-1.953h4.741c0.064,0.095,0.123,0.23,0.179,0.405 				c0.055,0.175,0.083,0.357,0.083,0.548c0,0.333-0.076,0.584-0.227,0.75c-0.151,0.168-0.361,0.25-0.632,0.25H129.272z"></path>
        <path d="M149.57,146.911c0.381-0.175,0.703-0.366,0.965-0.572c0.262-0.207,0.464-0.477,0.607-0.81 				c0.143-0.334,0.215-0.779,0.215-1.335v-7.29h2.43v7.648c0,0.953-0.159,1.703-0.476,2.251c-0.318,0.549-0.695,0.942-1.132,1.179 				c-0.437,0.238-0.845,0.358-1.227,0.358c-0.461,0-0.798-0.14-1.012-0.417C149.725,147.646,149.602,147.308,149.57,146.911z 				 M151.047,129.137c0-0.412,0.143-0.754,0.429-1.025c0.286-0.27,0.644-0.405,1.072-0.405c0.429,0,0.778,0.135,1.049,0.405 				c0.27,0.271,0.405,0.612,0.405,1.025c0,0.398-0.135,0.735-0.405,1.013c-0.27,0.278-0.62,0.417-1.049,0.417 				c-0.428,0-0.786-0.139-1.072-0.417C151.19,129.872,151.047,129.535,151.047,129.137z M153.787,138.834l-2.43-0.213v-6.004 				c0.095-0.032,0.246-0.067,0.453-0.108c0.206-0.04,0.428-0.059,0.667-0.059c0.445,0,0.774,0.083,0.989,0.249 				c0.215,0.168,0.322,0.457,0.322,0.87V138.834z"></path>
        <path d="M164.413,138.691h-2.454v-6.099c0.111-0.032,0.27-0.072,0.477-0.12c0.206-0.047,0.428-0.071,0.667-0.071 				c0.445,0,0.774,0.083,0.989,0.25c0.215,0.167,0.322,0.464,0.322,0.893V138.691z M161.959,139.525V137.5h2.454v1.953 				c0,0.922,0.242,1.584,0.726,1.989c0.485,0.405,1.156,0.608,2.013,0.608c0.572,0,1.056-0.059,1.454-0.179 				c0.397-0.119,0.699-0.242,0.905-0.369V137.5h2.454v4.099c0,0.349-0.056,0.635-0.167,0.857c-0.111,0.223-0.333,0.437-0.667,0.644 				c-0.397,0.238-0.937,0.453-1.62,0.644s-1.477,0.285-2.382,0.285c-1.064,0-1.985-0.158-2.764-0.476s-1.374-0.81-1.787-1.478 				C162.166,141.408,161.959,140.558,161.959,139.525z M171.966,138.691h-2.454v-6.099c0.111-0.032,0.27-0.072,0.477-0.12 				c0.206-0.047,0.421-0.071,0.643-0.071c0.461,0,0.798,0.083,1.013,0.25c0.215,0.167,0.322,0.464,0.322,0.893V138.691z"></path>
        <path d="M188.285,140.62c0,1.065-0.393,1.898-1.179,2.502c-0.786,0.603-1.926,0.905-3.419,0.905c-1.239,0-2.256-0.191-3.05-0.572 				c-0.795-0.381-1.191-0.841-1.191-1.382c0-0.238,0.06-0.457,0.179-0.656c0.119-0.198,0.282-0.361,0.488-0.488 				c0.445,0.285,0.957,0.548,1.537,0.786c0.579,0.238,1.235,0.357,1.965,0.357c1.493,0,2.24-0.476,2.24-1.43 				c0-0.412-0.128-0.742-0.381-0.989c-0.255-0.246-0.636-0.433-1.144-0.56l-1.668-0.429c-1.064-0.237-1.85-0.62-2.359-1.143 				c-0.509-0.524-0.763-1.198-0.763-2.025c0-0.92,0.378-1.699,1.132-2.335c0.754-0.635,1.854-0.953,3.3-0.953 				c0.746,0,1.409,0.076,1.989,0.227c0.579,0.151,1.032,0.361,1.358,0.63c0.325,0.271,0.488,0.573,0.488,0.906 				c0,0.238-0.056,0.453-0.167,0.644c-0.111,0.191-0.255,0.333-0.429,0.429c-0.191-0.111-0.445-0.238-0.762-0.382 				c-0.318-0.143-0.679-0.261-1.084-0.357c-0.405-0.095-0.822-0.143-1.251-0.143c-0.667,0-1.195,0.115-1.584,0.345 				c-0.389,0.231-0.584,0.56-0.584,0.989c0,0.302,0.111,0.568,0.334,0.798c0.222,0.231,0.596,0.401,1.119,0.513l1.406,0.357 				c1.191,0.27,2.069,0.687,2.633,1.251C188.003,138.981,188.285,139.716,188.285,140.62z"></path>
        <path d="M198.173,138.071h-2.43v-8.6c0.095-0.032,0.246-0.072,0.452-0.12c0.207-0.048,0.429-0.071,0.668-0.071 				c0.444,0,0.774,0.087,0.989,0.261c0.215,0.175,0.322,0.461,0.322,0.858V138.071z M195.743,137.405h2.43v3.049 				c0,0.572,0.167,0.977,0.5,1.215c0.334,0.238,0.802,0.357,1.406,0.357c0.254,0,0.54-0.04,0.858-0.119 				c0.318-0.079,0.579-0.175,0.786-0.286c0.111,0.111,0.21,0.25,0.298,0.417c0.087,0.167,0.131,0.354,0.131,0.561 				c0,0.412-0.21,0.75-0.631,1.011c-0.421,0.262-1.052,0.393-1.894,0.393c-1.176,0-2.117-0.261-2.824-0.786 				c-0.706-0.524-1.06-1.397-1.06-2.62V137.405z M197.125,134.736v-1.953h4.741c0.064,0.095,0.123,0.23,0.179,0.405 				c0.055,0.175,0.083,0.357,0.083,0.548c0,0.333-0.076,0.584-0.227,0.75c-0.151,0.168-0.361,0.25-0.632,0.25H197.125z"></path>
        <path d="M227.263,140.62c0,1.065-0.393,1.898-1.179,2.502c-0.786,0.603-1.926,0.905-3.419,0.905c-1.239,0-2.256-0.191-3.05-0.572 				c-0.795-0.381-1.191-0.841-1.191-1.382c0-0.238,0.06-0.457,0.179-0.656c0.119-0.198,0.282-0.361,0.488-0.488 				c0.445,0.285,0.957,0.548,1.537,0.786c0.579,0.238,1.235,0.357,1.965,0.357c1.493,0,2.24-0.476,2.24-1.43 				c0-0.412-0.128-0.742-0.381-0.989c-0.255-0.246-0.636-0.433-1.144-0.56l-1.668-0.429c-1.064-0.237-1.85-0.62-2.359-1.143 				c-0.509-0.524-0.763-1.198-0.763-2.025c0-0.92,0.378-1.699,1.132-2.335c0.754-0.635,1.854-0.953,3.3-0.953 				c0.746,0,1.409,0.076,1.989,0.227c0.579,0.151,1.032,0.361,1.358,0.63c0.325,0.271,0.488,0.573,0.488,0.906 				c0,0.238-0.056,0.453-0.167,0.644c-0.111,0.191-0.255,0.333-0.429,0.429c-0.191-0.111-0.445-0.238-0.762-0.382 				c-0.318-0.143-0.679-0.261-1.084-0.357c-0.405-0.095-0.822-0.143-1.251-0.143c-0.667,0-1.195,0.115-1.584,0.345 				c-0.389,0.231-0.584,0.56-0.584,0.989c0,0.302,0.111,0.568,0.334,0.798c0.222,0.231,0.596,0.401,1.119,0.513l1.406,0.357 				c1.191,0.27,2.069,0.687,2.633,1.251C226.98,138.981,227.263,139.716,227.263,140.62z"></path>
        <path d="M244.679,136.38v2.359h-2.454v-2.264c0-0.793-0.222-1.373-0.667-1.739c-0.445-0.366-1.04-0.548-1.787-0.548 				c-0.556,0-1.056,0.071-1.501,0.215c-0.445,0.143-0.826,0.302-1.143,0.476v3.86h-2.454v-3.907c0-0.366,0.076-0.664,0.227-0.894 				c0.151-0.23,0.393-0.448,0.727-0.656c0.445-0.27,1.025-0.515,1.739-0.738c0.715-0.222,1.517-0.333,2.406-0.333 				c1.541,0,2.744,0.345,3.61,1.037C244.246,133.938,244.679,134.983,244.679,136.38z M234.672,137.5h2.454v6.147 				c-0.111,0.032-0.266,0.072-0.465,0.12c-0.198,0.047-0.416,0.071-0.655,0.071c-0.445,0-0.778-0.087-1.001-0.261 				c-0.222-0.175-0.334-0.461-0.334-0.858V137.5z M242.224,137.5h2.454v6.147c-0.111,0.032-0.27,0.072-0.476,0.12 				c-0.207,0.047-0.421,0.071-0.644,0.071c-0.461,0-0.798-0.087-1.013-0.261c-0.215-0.175-0.322-0.461-0.322-0.858V137.5z"></path>
        <path d="M256.853,132.211c1.477,0,2.649,0.321,3.514,0.965c0.865,0.644,1.298,1.656,1.298,3.038v5.551 				c0,0.366-0.08,0.651-0.238,0.857c-0.159,0.207-0.381,0.389-0.667,0.549c-0.413,0.237-0.95,0.44-1.608,0.608 				c-0.659,0.167-1.402,0.249-2.228,0.249c-1.541,0-2.744-0.297-3.609-0.893c-0.866-0.596-1.298-1.473-1.298-2.633 				c0-1.049,0.341-1.854,1.024-2.418c0.683-0.563,1.652-0.901,2.907-1.013l3.335-0.333v-0.548c0-0.715-0.23-1.231-0.691-1.548 				c-0.461-0.318-1.088-0.477-1.882-0.477c-0.635,0-1.251,0.087-1.846,0.262c-0.596,0.175-1.124,0.373-1.584,0.596 				c-0.143-0.127-0.27-0.282-0.381-0.465c-0.111-0.182-0.167-0.378-0.167-0.584c0-0.493,0.27-0.865,0.81-1.119 				c0.445-0.207,0.957-0.366,1.537-0.477C255.658,132.266,256.249,132.211,256.853,132.211z M256.924,142.122 				c0.572,0,1.061-0.06,1.465-0.179c0.405-0.12,0.703-0.235,0.893-0.345v-3.074l-2.644,0.262c-0.73,0.064-1.283,0.227-1.656,0.488 				c-0.373,0.262-0.56,0.647-0.56,1.155c0,0.525,0.207,0.938,0.62,1.239C255.455,141.971,256.082,142.122,256.924,142.122z"></path>
        <path d="M272.863,143.742c-0.556-0.175-0.985-0.373-1.286-0.596v-2.168c0.301,0.27,0.679,0.512,1.132,0.726 				c0.452,0.215,0.989,0.321,1.608,0.321c1.032,0,1.855-0.318,2.466-0.953c0.611-0.635,0.917-1.636,0.917-3.002 				c0-0.953-0.151-1.711-0.452-2.275c-0.302-0.564-0.707-0.973-1.215-1.227c-0.508-0.254-1.064-0.381-1.668-0.381 				c-0.509,0-0.945,0.064-1.31,0.191c-0.366,0.127-0.683,0.27-0.953,0.429v7.695h-2.454v-7.839c0-0.333,0.068-0.606,0.203-0.821 				s0.37-0.425,0.703-0.632c0.445-0.27,0.989-0.505,1.632-0.703c0.643-0.198,1.37-0.297,2.18-0.297c1.096,0,2.085,0.206,2.966,0.62 				c0.881,0.412,1.576,1.047,2.085,1.906c0.508,0.858,0.762,1.97,0.762,3.335c0,1.319-0.234,2.418-0.702,3.3 				c-0.469,0.881-1.12,1.54-1.954,1.977c-0.834,0.436-1.783,0.654-2.847,0.654C274.022,144.004,273.419,143.916,272.863,143.742z 				 M272.101,147.96c-0.111,0.047-0.266,0.091-0.465,0.131c-0.198,0.04-0.416,0.06-0.655,0.06c-0.445,0-0.778-0.087-1.001-0.262 				s-0.334-0.469-0.334-0.882v-5.265l2.454,0.048V147.96z"></path>
        <path d="M297.045,129.137c0-0.412,0.143-0.754,0.429-1.025c0.286-0.27,0.635-0.405,1.048-0.405c0.445,0,0.802,0.135,1.072,0.405 				c0.27,0.271,0.405,0.612,0.405,1.025c0,0.398-0.135,0.735-0.405,1.013c-0.27,0.278-0.627,0.417-1.072,0.417 				c-0.413,0-0.762-0.139-1.048-0.417C297.188,129.872,297.045,129.535,297.045,129.137z M299.762,138.62h-2.454v-6.004 				c0.111-0.032,0.27-0.067,0.476-0.108c0.207-0.04,0.429-0.059,0.668-0.059c0.445,0,0.774,0.083,0.989,0.249 				c0.215,0.168,0.322,0.457,0.322,0.87V138.62z M297.307,137.405h2.454v6.241c-0.111,0.032-0.267,0.072-0.465,0.12 				c-0.199,0.047-0.417,0.071-0.655,0.071c-0.445,0-0.778-0.087-1.001-0.261c-0.223-0.175-0.334-0.461-0.334-0.858V137.405z"></path>
        <path d="M310.412,138.071h-2.43v-8.6c0.095-0.032,0.246-0.072,0.452-0.12c0.207-0.048,0.429-0.071,0.668-0.071 				c0.444,0,0.774,0.087,0.989,0.261c0.215,0.175,0.322,0.461,0.322,0.858V138.071z M307.981,137.405h2.43v3.049 				c0,0.572,0.167,0.977,0.5,1.215c0.334,0.238,0.802,0.357,1.406,0.357c0.254,0,0.54-0.04,0.858-0.119 				c0.318-0.079,0.579-0.175,0.786-0.286c0.111,0.111,0.21,0.25,0.298,0.417c0.087,0.167,0.131,0.354,0.131,0.561 				c0,0.412-0.21,0.75-0.631,1.011c-0.421,0.262-1.052,0.393-1.894,0.393c-1.176,0-2.117-0.261-2.824-0.786 				c-0.706-0.524-1.06-1.397-1.06-2.62V137.405z M309.363,134.736v-1.953h4.741c0.064,0.095,0.123,0.23,0.179,0.405 				c0.055,0.175,0.083,0.357,0.083,0.548c0,0.333-0.076,0.584-0.227,0.75c-0.151,0.168-0.361,0.25-0.632,0.25H309.363z"></path>
        <path d="M322.347,145.814c-0.318,0.477-0.715,0.715-1.191,0.715c-0.429,0-0.795-0.151-1.096-0.453 				c0.175-0.461,0.353-0.989,0.536-1.584c0.182-0.596,0.349-1.2,0.5-1.811s0.274-1.147,0.37-1.608 				c0.158-0.079,0.341-0.146,0.548-0.203c0.206-0.055,0.421-0.083,0.644-0.083c0.349,0,0.627,0.079,0.834,0.237 				c0.207,0.159,0.31,0.429,0.31,0.81c0,0.366-0.083,0.815-0.25,1.347c-0.167,0.531-0.366,1.039-0.596,1.524 				C322.724,145.191,322.521,145.56,322.347,145.814z"></path>
        <path d="M349.627,135.975v2.74h-2.43v-2.477c0-0.715-0.206-1.236-0.619-1.562c-0.413-0.325-0.946-0.488-1.596-0.488 				c-0.445,0-0.87,0.071-1.275,0.215c-0.405,0.143-0.743,0.302-1.013,0.476v3.836h-2.454v-3.883c0-0.35,0.076-0.644,0.227-0.882 				c0.151-0.238,0.393-0.46,0.727-0.668c0.445-0.301,1.016-0.555,1.716-0.762c0.699-0.206,1.405-0.309,2.12-0.309 				c0.794,0,1.509,0.123,2.145,0.369c0.635,0.247,1.135,0.592,1.501,1.037c0.111,0.095,0.206,0.187,0.286,0.273 				c0.079,0.087,0.15,0.195,0.215,0.322c0.126,0.222,0.234,0.484,0.321,0.786C349.583,135.301,349.627,135.625,349.627,135.975z 				 M340.239,137.5h2.454v6.147c-0.111,0.032-0.266,0.072-0.465,0.12c-0.198,0.047-0.416,0.071-0.655,0.071 				c-0.445,0-0.778-0.087-1.001-0.261c-0.222-0.175-0.334-0.461-0.334-0.858V137.5z M347.196,137.5h2.43v6.147 				c-0.095,0.032-0.246,0.072-0.452,0.12c-0.207,0.047-0.429,0.071-0.668,0.071c-0.445,0-0.774-0.087-0.989-0.261 				c-0.215-0.175-0.322-0.461-0.322-0.858V137.5z M356.56,136.118v2.597h-2.43v-2.477c0-0.715-0.199-1.236-0.596-1.562 				c-0.397-0.325-0.929-0.488-1.596-0.488c-0.493,0-0.965,0.103-1.418,0.309c-0.452,0.207-0.854,0.485-1.203,0.834l-1.143-1.596 				c0.46-0.412,1.024-0.771,1.692-1.071c0.667-0.302,1.445-0.453,2.335-0.453c0.842,0,1.592,0.139,2.251,0.417 				c0.659,0.278,1.176,0.707,1.549,1.286C356.373,134.494,356.56,135.229,356.56,136.118z M354.13,137.5h2.43v6.147 				c-0.095,0.032-0.246,0.072-0.452,0.12c-0.207,0.047-0.421,0.071-0.644,0.071c-0.461,0-0.798-0.087-1.013-0.261 				c-0.214-0.175-0.321-0.461-0.321-0.858V137.5z"></path>
        <path d="M368.758,132.211c1.477,0,2.649,0.321,3.514,0.965c0.865,0.644,1.298,1.656,1.298,3.038v5.551 				c0,0.366-0.08,0.651-0.238,0.857c-0.159,0.207-0.381,0.389-0.667,0.549c-0.413,0.237-0.95,0.44-1.608,0.608 				c-0.659,0.167-1.402,0.249-2.228,0.249c-1.541,0-2.744-0.297-3.609-0.893c-0.866-0.596-1.299-1.473-1.299-2.633 				c0-1.049,0.341-1.854,1.024-2.418c0.683-0.563,1.652-0.901,2.907-1.013l3.335-0.333v-0.548c0-0.715-0.23-1.231-0.691-1.548 				c-0.461-0.318-1.088-0.477-1.882-0.477c-0.635,0-1.251,0.087-1.846,0.262c-0.596,0.175-1.124,0.373-1.584,0.596 				c-0.143-0.127-0.27-0.282-0.381-0.465c-0.111-0.182-0.167-0.378-0.167-0.584c0-0.493,0.27-0.865,0.81-1.119 				c0.445-0.207,0.957-0.366,1.537-0.477C367.562,132.266,368.154,132.211,368.758,132.211z M368.829,142.122 				c0.572,0,1.061-0.06,1.465-0.179c0.405-0.12,0.703-0.235,0.893-0.345v-3.074l-2.644,0.262c-0.73,0.064-1.283,0.227-1.656,0.488 				c-0.373,0.262-0.56,0.647-0.56,1.155c0,0.525,0.207,0.938,0.62,1.239C367.36,141.971,367.987,142.122,368.829,142.122z"></path>
        <path d="M384.768,143.742c-0.556-0.175-0.985-0.373-1.286-0.596v-2.168c0.301,0.27,0.679,0.512,1.132,0.726 				c0.452,0.215,0.989,0.321,1.608,0.321c1.032,0,1.855-0.318,2.466-0.953c0.611-0.635,0.917-1.636,0.917-3.002 				c0-0.953-0.151-1.711-0.452-2.275c-0.302-0.564-0.707-0.973-1.215-1.227c-0.508-0.254-1.064-0.381-1.668-0.381 				c-0.509,0-0.945,0.064-1.31,0.191c-0.366,0.127-0.683,0.27-0.953,0.429v7.695h-2.454v-7.839c0-0.333,0.068-0.606,0.203-0.821 				s0.37-0.425,0.703-0.632c0.445-0.27,0.989-0.505,1.632-0.703c0.643-0.198,1.37-0.297,2.18-0.297c1.096,0,2.085,0.206,2.966,0.62 				c0.881,0.412,1.576,1.047,2.085,1.906c0.508,0.858,0.762,1.97,0.762,3.335c0,1.319-0.234,2.418-0.702,3.3 				c-0.469,0.881-1.12,1.54-1.954,1.977c-0.834,0.436-1.783,0.654-2.847,0.654C385.927,144.004,385.324,143.916,384.768,143.742z 				 M384.005,147.96c-0.111,0.047-0.266,0.091-0.465,0.131c-0.198,0.04-0.416,0.06-0.655,0.06c-0.445,0-0.778-0.087-1.001-0.262 				s-0.334-0.469-0.334-0.882v-5.265l2.454,0.048V147.96z"></path>
        <path d="M408.949,129.137c0-0.412,0.144-0.754,0.429-1.025c0.286-0.27,0.635-0.405,1.049-0.405c0.445,0,0.802,0.135,1.073,0.405 				c0.27,0.271,0.405,0.612,0.405,1.025c0,0.398-0.135,0.735-0.405,1.013c-0.271,0.278-0.628,0.417-1.073,0.417 				c-0.413,0-0.762-0.139-1.049-0.417C409.093,129.872,408.949,129.535,408.949,129.137z M411.666,138.62h-2.454v-6.004 				c0.111-0.032,0.27-0.067,0.477-0.108c0.206-0.04,0.429-0.059,0.666-0.059c0.445,0,0.774,0.083,0.989,0.249 				c0.215,0.168,0.322,0.457,0.322,0.87V138.62z M409.212,137.405h2.454v6.241c-0.111,0.032-0.266,0.072-0.465,0.12 				c-0.199,0.047-0.417,0.071-0.656,0.071c-0.445,0-0.778-0.087-1.001-0.261c-0.222-0.175-0.333-0.461-0.333-0.858V137.405z"></path>
        <path d="M422.316,138.071h-2.43v-8.6c0.096-0.032,0.247-0.072,0.453-0.12c0.206-0.048,0.429-0.071,0.668-0.071 				c0.445,0,0.774,0.087,0.989,0.261c0.215,0.175,0.321,0.461,0.321,0.858V138.071z M419.885,137.405h2.43v3.049 				c0,0.572,0.167,0.977,0.501,1.215c0.333,0.238,0.802,0.357,1.406,0.357c0.254,0,0.539-0.04,0.857-0.119 				c0.318-0.079,0.58-0.175,0.786-0.286c0.111,0.111,0.211,0.25,0.298,0.417c0.087,0.167,0.131,0.354,0.131,0.561 				c0,0.412-0.211,0.75-0.632,1.011c-0.421,0.262-1.052,0.393-1.893,0.393c-1.176,0-2.116-0.261-2.824-0.786 				c-0.707-0.524-1.061-1.397-1.061-2.62V137.405z M421.268,134.736v-1.953h4.741c0.062,0.095,0.122,0.23,0.179,0.405 				c0.055,0.175,0.083,0.357,0.083,0.548c0,0.333-0.076,0.584-0.227,0.75c-0.151,0.168-0.361,0.25-0.63,0.25H421.268z"></path>
        <path d="M432.584,142.455c0-0.445,0.139-0.817,0.417-1.119c0.277-0.302,0.654-0.453,1.131-0.453c0.493,0,0.874,0.151,1.143,0.453 				c0.27,0.302,0.405,0.675,0.405,1.119c0,0.445-0.135,0.819-0.405,1.121c-0.27,0.301-0.651,0.452-1.143,0.452 				c-0.477,0-0.854-0.151-1.131-0.452C432.723,143.274,432.584,142.9,432.584,142.455z"></path>
      </g>
    </g>
  </g>
</svg>