<?xml version="1.0" standalone="no"?>
<!DOCTYPE svg PUBLIC "-//W3C//DTD SVG 20010904//EN"
 "http://www.w3.org/TR/2001/REC-SVG-20010904/DTD/svg10.dtd">
<svg version="1.0" xmlns="http://www.w3.org/2000/svg"
 width="1096.000000pt" height="1096.000000pt" viewBox="0 0 1096.000000 1096.000000"
 preserveAspectRatio="xMidYMid meet">
<metadata>
Created by potrace 1.14, written by Peter Selinger 2001-2017
</metadata>
<g transform="translate(0.000000,1096.000000) scale(0.100000,-0.100000)"
fill="#000000" stroke="none">
<path d="M1930 9363 c-105 -31 -179 -99 -209 -193 -3 -8 -6 -102 -8 -207 l-4
-193 -434 -1 c-239 -1 -438 -2 -442 -3 -5 -1 -24 -6 -43 -10 -94 -22 -188 -98
-241 -195 -16 -28 -27 -51 -25 -51 2 0 -1 -21 -8 -47 -8 -35 -11 -208 -11
-610 l1 -563 -26 -1 c-14 -1 -127 -1 -252 -2 l-226 0 0 -762 0 -762 222 1
c121 1 235 -1 251 -4 l30 -6 1 -1924 2 -1925 20 -58 c21 -57 69 -129 104 -155
9 -7 23 -19 31 -26 23 -24 90 -53 147 -65 64 -14 9314 -12 9365 2 127 34 241
157 268 288 9 41 12 557 12 1958 0 1172 3 1905 9 1908 5 4 119 6 252 6 l244 0
0 762 0 761 -233 0 c-127 -1 -241 0 -252 2 -20 3 -20 10 -20 560 1 604 -2 646
-52 732 -37 63 -97 116 -173 153 l-65 32 -2817 3 -2817 2 1 83 c0 45 0 90 -1
99 -1 15 -35 16 -411 16 l-410 0 -1 -71 c-1 -40 0 -84 1 -99 l2 -28 -141 0
-140 0 0 183 c-1 208 1 197 -29 257 -41 81 -86 119 -172 144 -47 13 -141 15
-670 14 -338 0 -622 -2 -630 -5z m3705 -2208 c50 -3 106 -7 125 -10 19 -2 58
-7 85 -10 28 -4 66 -10 85 -15 19 -5 49 -11 65 -13 152 -22 498 -152 670 -251
261 -151 507 -353 675 -555 25 -30 50 -59 55 -65 6 -6 21 -28 35 -48 14 -21
28 -38 33 -38 4 0 7 -5 7 -11 0 -6 14 -28 30 -49 17 -21 30 -43 30 -49 0 -6 3
-11 8 -11 4 0 12 -9 17 -19 6 -11 37 -67 69 -126 98 -179 174 -376 221 -570
26 -110 29 -126 50 -250 19 -112 25 -421 12 -572 -8 -80 -37 -261 -52 -313 -2
-8 -7 -31 -10 -50 -8 -49 -98 -314 -107 -318 -4 -2 -8 -10 -8 -18 0 -31 -175
-367 -200 -384 -4 -3 -10 -15 -14 -27 -4 -13 -12 -23 -17 -23 -5 0 -9 -5 -9
-11 0 -6 -12 -26 -27 -45 -16 -18 -48 -59 -73 -91 -155 -200 -384 -405 -610
-546 -41 -25 -80 -51 -87 -57 -7 -5 -18 -10 -24 -10 -7 0 -20 -6 -28 -13 -14
-11 -155 -79 -251 -120 -33 -14 -146 -54 -180 -63 -151 -43 -273 -71 -339 -80
-19 -2 -46 -6 -60 -9 -109 -19 -455 -26 -576 -11 -58 7 -256 40 -302 51 -13 3
-31 7 -41 9 -9 2 -37 10 -62 17 -25 7 -47 13 -50 14 -36 8 -232 81 -290 107
-119 54 -227 113 -314 169 -32 22 -60 39 -63 39 -2 0 -9 5 -16 10 -7 6 -39 30
-72 55 -33 25 -69 53 -81 62 -11 10 -44 38 -73 63 -86 72 -196 186 -281 290
-25 30 -47 57 -50 60 -21 20 -126 182 -179 274 -58 102 -155 309 -152 323 1 2
-10 28 -24 58 -13 30 -22 55 -20 55 3 0 0 12 -6 28 -28 74 -72 257 -85 357 -2
22 -7 49 -9 61 -24 112 -23 511 0 649 3 17 10 57 16 90 6 33 13 74 16 90 3 17
14 62 24 100 11 39 22 78 24 87 6 27 64 194 82 235 9 21 17 40 18 43 2 12 101
208 120 240 171 275 325 460 524 630 30 25 58 50 65 56 29 27 221 159 228 157
4 -2 8 2 8 7 0 6 7 10 15 10 8 0 15 4 15 9 0 5 8 11 18 15 9 3 53 26 97 51 44
25 87 48 95 51 24 10 71 30 120 52 50 22 242 88 280 96 14 3 50 12 80 20 50
14 200 41 290 52 19 2 87 7 150 9 63 3 116 7 118 9 2 2 20 2 40 0 20 -2 78 -6
127 -9z m-5135 -184 c9 -2 6 -891 -2 -892 -22 -4 -155 -6 -169 -3 -14 4 -15
52 -15 442 1 240 4 442 8 447 5 8 145 12 178 6z m10145 -446 l0 -450 -95 0
-95 0 0 445 c0 245 3 447 6 450 4 3 47 5 96 5 l88 0 0 -450z"/>
<path d="M5337 6954 c-1 -1 -36 -5 -77 -8 -41 -4 -84 -9 -95 -11 -11 -3 -36
-7 -55 -9 -242 -34 -625 -181 -829 -318 -203 -137 -342 -258 -481 -418 -36
-41 -68 -76 -72 -78 -5 -2 -8 -8 -8 -13 0 -6 -9 -20 -21 -32 -11 -12 -38 -49
-59 -82 -22 -33 -44 -65 -49 -72 -6 -7 -11 -17 -11 -23 0 -5 -4 -10 -9 -10 -5
0 -11 -8 -14 -17 -3 -10 -23 -49 -44 -88 -62 -113 -153 -330 -167 -398 -3 -12
-14 -53 -25 -90 -11 -38 -22 -83 -25 -100 -3 -18 -8 -45 -12 -62 -3 -16 -7
-43 -9 -60 -2 -16 -8 -55 -12 -85 -10 -73 -10 -428 0 -510 10 -79 14 -107 22
-142 3 -16 7 -38 9 -50 15 -84 72 -274 116 -383 29 -74 138 -294 150 -305 3
-3 18 -25 32 -50 27 -47 157 -223 203 -275 49 -56 153 -160 202 -202 92 -80
108 -94 148 -121 22 -15 49 -35 60 -45 11 -10 34 -26 50 -34 17 -9 37 -21 45
-28 43 -36 282 -155 390 -194 19 -7 44 -17 55 -21 60 -24 273 -80 325 -86 19
-2 46 -6 60 -9 135 -30 431 -35 635 -10 76 9 111 15 215 40 58 14 114 27 125
30 11 2 21 4 23 5 2 3 2 3 47 15 17 4 35 11 40 15 6 4 42 18 80 31 39 13 72
27 73 31 2 5 8 8 13 8 16 0 124 52 127 62 2 4 12 8 22 8 10 0 25 7 34 15 8 8
25 20 38 25 42 19 181 110 186 123 2 4 10 7 18 7 8 0 14 4 14 8 0 5 15 20 34
33 84 60 219 187 299 282 23 27 52 61 65 76 88 100 282 414 282 456 0 8 5 15
10 15 6 0 10 6 10 13 0 7 9 33 21 56 27 56 95 260 103 311 2 8 8 33 14 55 6
22 13 57 16 78 9 55 17 107 21 128 26 136 20 478 -11 649 -3 14 -7 39 -10 55
-18 103 -83 321 -125 420 -7 17 -13 32 -13 35 -4 15 -90 187 -101 200 -8 8
-13 17 -12 20 3 7 -126 209 -150 235 -10 12 -33 41 -52 65 -58 76 -222 245
-301 310 -23 19 -48 40 -54 47 -39 36 -277 187 -371 235 -179 91 -383 164
-539 194 -12 2 -43 8 -71 14 -27 6 -63 12 -80 14 -16 2 -55 7 -85 11 -49 7
-377 15 -383 9z"/>
</g>
</svg>
